<?xml version="1.0" standalone="no"?>
  <!DOCTYPE svg PUBLIC "-//W3C//DTD SVG 1.1//EN" "http://www.w3.org/Graphics/SVG/1.1/DTD/svg11.dtd" >
  <svg>
  <metadata>
  Created by font-carrier
  </metadata>
  <defs>
  <font id="BookinsanityRemakeBold" horiz-adv-x="1090" vert-adv-y="1090" >
    <font-face
      
      font-family="BookinsanityRemakeBold"
      
      font-weight="400"
      
      font-stretch="normal"
      
      units-per-em="1000"
      
      ascent="782"
      
      descent="-234"
      
    />
      <missing-glyph />

      

      
      <glyph glyph-name="uni21" unicode="&#x21;" d="M105 233Q102 309 85.50 377Q69 445 54.50 495.50Q40 546 40 584Q40 643 66 675.50Q92 708 133 708Q174 708 201 675.50Q228 643 228 585Q228 547 213.50 496Q199 445 182.50 377Q166 309 163 233L105 233M65 17.50Q65 17.50 52.50 31.25Q40 45 40 82Q40 119 65 146.50Q90 174 133.50 174Q177 174 203 146.50Q229 119 229 82Q229 45 203 17.50Q177-10 133.50-10Q90-10 65 17.50Z"  horiz-adv-x="268" vert-adv-y="1000"  />

      
      <glyph glyph-name="uni22" unicode="&#x22;" d="M115 389Q104 454 79 526Q54 598 54 625Q54 663 77.50 685.50Q101 708 135 708Q170 708 193 685.50Q216 663 216 626Q216 598 191.50 525.50Q167 453 157 389L115 389M340 389Q330 454 305 526Q280 598 280 625Q280 663 303.50 685.50Q327 708 361 708Q396 708 419 685.50Q442 663 442 626Q442 598 417.50 525.50Q393 453 383 389L340 389Z"  horiz-adv-x="497" vert-adv-y="1000"  />

      
      <glyph glyph-name="uni23" unicode="&#x23;" d="M253 3L305 189L187 189L134 3L72 3L125 189L20 189L20 249L142 249L199 448L88 448L88 508L215 508L269 693L331 693L277 508L396 508L449 693L511 693L458 508L563 508L563 448L441 448L384 249L495 249L495 189L367 189L315 3L253 3M261 448L204 249L322 249L379 448L261 448Z"  horiz-adv-x="590" vert-adv-y="1000"  />

      
      <glyph glyph-name="uni24" unicode="&#x24;" d="M274-13Q196-6 143 29L129 0L82 0L28 223L67 234Q108 148 161.50 96.50Q215 45 274 45L274 289Q267 292 253 298Q227 310 213.50 316.50Q200 323 176.50 336Q153 349 140 359.50Q127 370 110.50 387Q94 404 85 422Q76 440 70 464.50Q64 489 64 517Q64 590 121.50 644.50Q179 699 277 704L277 750L337 750L337 702Q394 695 428 664L440 690L488 690L535 491L500 481Q463 562 425.50 601Q388 640 337 644L337 421Q345 418 366.50 408.50Q388 399 397 394.50Q406 390 426 380Q446 370 456 363.50Q466 357 482 345Q498 333 506.50 323Q515 313 526 298Q537 283 542 267.50Q547 252 551 232.50Q555 213 555 191Q555 107 495 50.50Q435-6 333-14L333-109L274-109L274-13M219 543Q219 490 277 452L277 636Q219 614 219 543M401 153Q401 217 333 259L333 54Q366 67 383.50 92.50Q401 118 401 153Z"  horiz-adv-x="590" vert-adv-y="1000"  />

      
      <glyph glyph-name="uni25" unicode="&#x25;" d="M69.50 321.50Q69.50 321.50 47.25 348.75Q25 376 25 483Q25 590 69.50 644.50Q114 699 194.50 699Q275 699 319.50 644.50Q364 590 364 483Q364 376 319.50 321.50Q275 267 194.50 267Q114 267 69.50 321.50M143 483Q143 384 154 347Q165 310 194.50 310Q224 310 234.50 346.50Q245 383 245 483Q245 584 234.50 620Q224 656 194.50 656Q165 656 154 619.50Q143 583 143 483M160 0L612 690L674 690L222 0L160 0M514.50 45.50Q514.50 45.50 492.25 72.75Q470 100 470 207Q470 314 514.50 368.50Q559 423 639.50 423Q720 423 764.50 368.50Q809 314 809 207Q809 100 764.50 45.50Q720-9 639.50-9Q559-9 514.50 45.50M588 207Q588 108 599 71Q610 34 639.50 34Q669 34 679.50 70.50Q690 107 690 207Q690 307 679.50 343.50Q669 380 639.50 380Q610 380 599 343.50Q588 307 588 207Z"  horiz-adv-x="835" vert-adv-y="1000"  />

      
      <glyph glyph-name="uni26" unicode="&#x26;" d="M657 333Q639 234 585 157Q605 104 624 81Q643 58 678 58Q709 58 747 67L747 17Q728 5 696-3.50Q664-12 631-12Q525-12 467 47Q370-12 249-12Q151-12 92 39Q33 90 33 174Q33 217 47 253Q61 289 89 317Q117 345 145.50 364.50Q174 384 214 404Q175 440 156.50 473.50Q138 507 138 551Q138 614 188.50 661Q239 708 323 708Q403 708 446 669.50Q489 631 489 569Q489 521 462.50 488.50Q436 456 387 423Q495 352 558 222Q590 282 590 344Q590 387 571 401Q552 415 510 416L510 463L747 463L747 416Q706 416 685 399Q664 382 657 333M343 77Q388 77 433 99Q432 99 432 101Q385 196 351 253Q317 310 280 347Q220 292 220 215Q220 148 253 112.50Q286 77 343 77M254 564Q254 532 271.50 508.50Q289 485 325 461Q372 486 396.50 511Q421 536 421 569Q421 604 399 626Q377 648 338 648Q304 648 279 625.50Q254 603 254 564Z"  horiz-adv-x="772" vert-adv-y="1000"  />

      
      <glyph glyph-name="uni27" unicode="&#x27;" d="M79 389Q69 454 44 526Q19 598 19 625Q19 663 42.50 685.50Q66 708 100 708Q135 708 158 685.50Q181 663 181 626Q181 598 156.50 525.50Q132 453 122 389L79 389Z"  horiz-adv-x="200" vert-adv-y="1000"  />

      
      <glyph glyph-name="uni28" unicode="&#x28;" d="M44.50 97Q44.50 97 33.25 134.50Q22 172 22 256.50Q22 341 44.50 416Q67 491 107 548.50Q147 606 194.50 649Q242 692 298 725L322 692Q246 632 197.50 513.50Q149 395 149 256Q149 118 197 1Q245-116 322-179L298-212Q242-179 194.50-136Q147-93 107-35.50Q67 22 44.50 97Z"  horiz-adv-x="331" vert-adv-y="1000"  />

      
      <glyph glyph-name="uni29" unicode="&#x29;" d="M287 416Q287 416 298.50 378.50Q310 341 310 256.50Q310 172 287 97Q264 22 224-35.50Q184-93 136.50-136Q89-179 33-212L9-180Q85-116 133.50 1Q182 118 182 256Q182 395 133.50 513.50Q85 632 9 692L33 725Q89 692 136.50 648.50Q184 605 224 548Q264 491 287 416Z"  horiz-adv-x="331" vert-adv-y="1000"  />

      
      <glyph glyph-name="uni2a" unicode="&#x2a;" d="M229 659Q229 643 217.50 611Q206 579 202 557Q220 573 241.50 598.50Q263 624 276 631Q295 642 312.50 637Q330 632 340 615Q350 599 345 581Q340 563 322 553Q308 545 273.50 538Q239 531 220 526Q241 519 274.50 512.50Q308 506 321 499Q340 488 345 470Q350 452 340 436Q330 419 312.50 414.50Q295 410 276 420Q263 428 240 453.50Q217 479 202 493Q206 474 217.50 441.50Q229 409 229 393Q229 372 216.50 359Q204 346 184 346Q165 346 152 359Q139 372 139 393Q139 408 150 439.50Q161 471 165 494Q149 479 127 453.50Q105 428 92 420Q73 410 55.50 414.50Q38 419 28 436Q18 452 23 470Q28 488 47 499Q60 506 93 512.50Q126 519 146 526Q127 532 93.50 538.50Q60 545 47 552Q28 563 23 581Q18 599 28 615Q38 632 55 637Q72 642 91 631Q105 623 127.50 597Q150 571 166 556Q161 579 150 611Q139 643 139 658Q139 679 152 692Q165 705 184 705Q204 705 216.50 692.50Q229 680 229 659Z"  horiz-adv-x="368" vert-adv-y="1000"  />

      
      <glyph glyph-name="uni2b" unicode="&#x2b;" d="M12 378L251 378L251 617L314 617L314 378L555 378L555 315L314 315L314 75L251 75L251 315L12 315L12 378Z"  horiz-adv-x="567" vert-adv-y="1000"  />

      
      <glyph glyph-name="uni2c" unicode="&#x2c;" d="M64.50 17Q64.50 17 51.75 30.50Q39 44 39 81.50Q39 119 64 146.50Q89 174 133 174Q177 174 202.50 145Q228 116 228 71Q228 21 189-45Q150-111 103-157L72-130Q120-68 136-10Q90-10 64.50 17Z"  horiz-adv-x="267" vert-adv-y="1000"  />

      
      <glyph glyph-name="uni2d" unicode="&#x2d;" d="M10 183L10 272L271 272L271 183L10 183Z"  horiz-adv-x="281" vert-adv-y="1000"  />

      
      <glyph glyph-name="uni2e" unicode="&#x2e;" d="M64 17.50Q64 17.50 51.50 31.25Q39 45 39 82Q39 119 64 146.50Q89 174 132.50 174Q176 174 202 146.50Q228 119 228 82Q228 45 202 17.50Q176-10 132.50-10Q89-10 64 17.50Z"  horiz-adv-x="267" vert-adv-y="1000"  />

      
      <glyph glyph-name="uni2f" unicode="&#x2f;" d="M2-211L266 720L328 720L64-211L2-211Z"  horiz-adv-x="331" vert-adv-y="1000"  />

      
      <glyph glyph-name="uni30" unicode="&#x30;" d="M103 82.50Q103 82.50 68.50 129.75Q34 177 34 348Q34 519 103 613.50Q172 708 295 708Q418 708 486.50 613.50Q555 519 555 348Q555 177 486.50 82.50Q418-12 295-12Q172-12 103 82.50M207 348Q207 186 225 119Q243 52 294.50 52Q346 52 364.50 119Q383 186 383 348Q383 511 364.50 578Q346 645 294.50 645Q243 645 225 578Q207 511 207 348Z"  horiz-adv-x="590" vert-adv-y="1000"  />

      
      <glyph glyph-name="uni31" unicode="&#x31;" d="M486 3L103 3L103 44Q168 48 189.50 60.50Q211 73 211 114L211 544Q211 560 205.50 566.50Q200 573 186 573L104 573L104 612L308 708L379 708L379 114Q379 73 400.50 60.50Q422 48 486 44L486 3Z"  horiz-adv-x="590" vert-adv-y="1000"  />

      
      <glyph glyph-name="uni32" unicode="&#x32;" d="M59 474Q59 582 121 645Q183 708 288 708Q388 708 452 652Q516 596 516 508Q516 408 438 321.50Q360 235 222 156L430 156Q460 156 471 167Q482 178 492 224L538 224L509-19L462-19Q462 3 440 3L67 3L67 97Q127 143 172 185.50Q217 228 258.50 280Q300 332 321.50 389.50Q343 447 343 508Q343 569 317.50 604Q292 639 242 639Q191 639 159.50 597.50Q128 556 128 474L59 474Z"  horiz-adv-x="590" vert-adv-y="1000"  />

      
      <glyph glyph-name="uni33" unicode="&#x33;" d="M508 553Q508 502 475 462.50Q442 423 381 403Q455 391 501 342Q547 293 547 223Q547 121 470.50 54.50Q394-12 259-12Q207-12 160 0Q113 12 79 41Q45 70 45 111Q45 142 64.50 162Q84 182 115 182Q141 182 159.50 169Q178 156 187.50 137Q197 118 206.50 99.50Q216 81 231 68Q246 55 269 55Q374 55 374 201Q374 268 338 309Q302 350 234 350L217 350L217 417L234 417Q283 417 309 448Q335 479 335 535Q335 582 312 610.50Q289 639 248 639Q204 639 173.50 606Q143 573 139 510L70 510Q77 604 133 656Q189 708 286 708Q390 708 449 664.50Q508 621 508 553Z"  horiz-adv-x="590" vert-adv-y="1000"  />

      
      <glyph glyph-name="uni34" unicode="&#x34;" d="M462 3L294 3L294 167L32 167L32 217L329 693L462 693L462 234L557 234L557 167L462 167L462 3M294 509L123 234L294 234L294 509Z"  horiz-adv-x="590" vert-adv-y="1000"  />

      
      <glyph glyph-name="uni35" unicode="&#x35;" d="M277 462Q398 462 471.50 399Q545 336 545 238Q545 130 469 59Q393-12 261-12Q209-12 161.50 0Q114 12 79 41Q44 70 44 111Q44 141 63 161.50Q82 182 109 182Q135 182 153.50 169Q172 156 183.50 137Q195 118 206 99.50Q217 81 236 68Q255 55 282 55Q339 55 373.50 89Q408 123 408 180.50Q408 238 362.50 275.50Q317 313 241 313Q167 313 106 276L63 293L124 693L430 693Q452 693 457 715L504 715L485 542L168 542L153 437Q205 462 277 462Z"  horiz-adv-x="590" vert-adv-y="1000"  />

      
      <glyph glyph-name="uni36" unicode="&#x36;" d="M483 708L483 648Q442 645 405 632Q368 619 333 594.50Q298 570 270 527.50Q242 485 227 428Q275 448 328 448Q383 448 427.50 428.50Q472 409 499 376.50Q526 344 540.50 305Q555 266 555 224Q555 179 536.50 136.50Q518 94 485 61Q452 28 402.50 8Q353-12 295-12Q175-12 104.50 72.50Q34 157 34 300Q34 379 60.50 445.50Q87 512 131 557.50Q175 603 233.50 636Q292 669 354.50 686.50Q417 704 483 708M280 379Q246 379 213 361Q207 318 207 266Q207 159 226.50 105.50Q246 52 295 52Q383 52 383 224Q383 295 356 337Q329 379 280 379Z"  horiz-adv-x="590" vert-adv-y="1000"  />

      
      <glyph glyph-name="uni37" unicode="&#x37;" d="M153 3Q173 153 243.50 292.50Q314 432 413 542L165 542Q135 542 124 530.50Q113 519 102 473L56 473L83 715L129 715Q129 693 152 693L530 693L530 601Q352 362 325 3L153 3Z"  horiz-adv-x="590" vert-adv-y="1000"  />

      
      <glyph glyph-name="uni38" unicode="&#x38;" d="M526 549Q526 491 498.50 455Q471 419 421 394Q451 376 472.50 359.50Q494 343 514 319Q534 295 544.50 263.50Q555 232 555 193Q555 101 483.50 44.50Q412-12 284-12Q171-12 103 42Q35 96 35 174Q35 236 66.50 276.50Q98 317 155 347Q64 412 64 523Q64 601 129 654.50Q194 708 307 708Q409 708 467.50 660.50Q526 613 526 549M149 173Q149 119 183 85Q217 51 275 51Q329 51 358 78.50Q387 106 387 151Q387 163 384 174.50Q381 186 378 195Q375 204 367.50 214Q360 224 355 230Q350 236 337.50 244.50Q325 253 319.50 257.50Q314 262 298.50 270Q283 278 277.50 281Q272 284 254 292.50Q236 301 231 304Q149 253 149 173M234 560Q234 517 260.50 490Q287 463 340 436Q379 458 399.50 485Q420 512 420 550Q420 592 395.50 618Q371 644 326 644Q284 644 259 622Q234 600 234 560Z"  horiz-adv-x="590" vert-adv-y="1000"  />

      
      <glyph glyph-name="uni39" unicode="&#x39;" d="M106 49Q148 53 184.50 65Q221 77 256.50 101.50Q292 126 319.50 168Q347 210 363 267Q313 249 261 249Q207 249 162.50 268.50Q118 288 91 320Q64 352 49 391.50Q34 431 34 473Q34 567 107.50 637.50Q181 708 295 708Q416 708 485.50 624Q555 540 555 397Q555 318 529 251.50Q503 185 459 139.50Q415 94 356.50 60.50Q298 27 235.50 10Q173-7 106-12L106 49M310 318Q345 318 377 334Q383 379 383 430Q383 538 363.50 591.50Q344 645 295 645Q250 645 228.50 598.50Q207 552 207 473Q207 402 233.50 360Q260 318 310 318Z"  horiz-adv-x="590" vert-adv-y="1000"  />

      
      <glyph glyph-name="uni3a" unicode="&#x3a;" d="M64 314.50Q64 314.50 51.50 328.25Q39 342 39 379Q39 416 64 443.50Q89 471 132.50 471Q176 471 202 443.50Q228 416 228 379Q228 342 202 314.50Q176 287 132.50 287Q89 287 64 314.50M64 17.50Q64 17.50 51.50 31.25Q39 45 39 82Q39 119 64 146.50Q89 174 132.50 174Q176 174 202 146.50Q228 119 228 82Q228 45 202 17.50Q176-10 132.50-10Q89-10 64 17.50Z"  horiz-adv-x="267" vert-adv-y="1000"  />

      
      <glyph glyph-name="uni3b" unicode="&#x3b;" d="M64 314.50Q64 314.50 51.50 328.25Q39 342 39 379Q39 416 64 443.50Q89 471 132.50 471Q176 471 202 443.50Q228 416 228 379Q228 342 202 314.50Q176 287 132.50 287Q89 287 64 314.50M64.50 17Q64.50 17 51.75 30.50Q39 44 39 81.50Q39 119 64 146.50Q89 174 133 174Q177 174 202.50 145Q228 116 228 71Q228 21 189-45Q150-111 103-157L72-130Q120-68 136-10Q90-10 64.50 17Z"  horiz-adv-x="267" vert-adv-y="1000"  />

      
      <glyph glyph-name="uni3c" unicode="&#x3c;" d="M534 159L534 91L33 298L33 367L534 574L534 505L116 331L534 159Z"  horiz-adv-x="567" vert-adv-y="1000"  />

      
      <glyph glyph-name="uni3d" unicode="&#x3d;" d="M12 412L12 475L555 475L555 412L12 412M12 217L12 280L555 280L555 217L12 217Z"  horiz-adv-x="567" vert-adv-y="1000"  />

      
      <glyph glyph-name="uni3e" unicode="&#x3e;" d="M32 91L32 159L450 331L32 505L32 574L533 367L533 298L32 91Z"  horiz-adv-x="567" vert-adv-y="1000"  />

      
      <glyph glyph-name="uni3f" unicode="&#x3f;" d="M244 295L240 233L180 233L180 429Q339 429 339 533Q339 576 311 607.50Q283 639 232 639Q209 639 193.50 627.50Q178 616 169 599Q160 582 150.50 565.50Q141 549 125.50 537.50Q110 526 87 526Q60 526 41.50 546Q23 566 23 597Q23 653 73.50 680.50Q124 708 203 708Q263 708 313 688.50Q363 669 395 636.50Q427 604 444.50 563.50Q462 523 462 480Q462 392 402.50 344Q343 296 244 295M141 17.50Q141 17.50 128.50 31.25Q116 45 116 82Q116 119 141 146.50Q166 174 210 174Q253 174 279 146.50Q305 119 305 82Q305 45 279 17.50Q253-10 210-10Q166-10 141 17.50Z"  horiz-adv-x="484" vert-adv-y="1000"  />

      
      <glyph glyph-name="uni40" unicode="&#x40;" d="M606 44Q568 44 539.50 58.50Q511 73 500 98Q440 43 357 43Q271 43 224 108Q177 173 201 271Q224 364 300.50 420.50Q377 477 465 477Q541 477 576 430L677 477L726 477L649 173Q638 120 675 120Q726 120 771.50 186.50Q817 253 817 346Q817 417 791.50 472Q766 527 721.50 560.50Q677 594 620.50 611Q564 628 498 628Q422 628 348.50 598.50Q275 569 219 519Q163 469 129 398Q95 327 95 250Q95 140 145 57.50Q195-25 279.50-67.50Q364-110 470-110Q551-110 621-83.50Q691-57 768-5L798-53Q717-107 639-137Q561-167 470-167Q380-167 301.50-138.50Q223-110 164-58Q105-6 70.50 73.50Q36 153 36 250Q36 336 74.50 416.50Q113 497 176 555.50Q239 614 323.50 649.50Q408 685 497 685Q604 685 688 646Q772 607 822 529.50Q872 452 872 346Q872 213 795 128.50Q718 44 606 44M412 115Q466 115 497 159L548 365Q537 406 485 406Q436 406 404.50 371.50Q373 337 355 260Q336 183 350 149Q364 115 412 115Z"  horiz-adv-x="910" vert-adv-y="1000"  />

      
      <glyph glyph-name="uni41" unicode="&#x41;" d="M300 688L419 688L645 103Q658 69 674 56Q690 43 718 39L718-3L404-3L404 39Q450 42 462 54.50Q474 67 462 100L427 189L179 189L146 100Q133 68 148.50 55.50Q164 43 211 39L211-3L-3-3L-3 39Q28 42 45 55.50Q62 69 74 102L300 688M303 507L205 256L400 256L303 507Z"  horiz-adv-x="716" vert-adv-y="1000"  />

      
      <glyph glyph-name="uni42" unicode="&#x42;" d="M689 193Q689 89 606.50 43Q524-3 364-3L24-3L24 39Q73 42 87.50 54.50Q102 67 102 108L102 577Q102 619 88 630.50Q74 642 24 646L24 688L345 688Q410 688 458 683Q506 678 547.50 666Q589 654 615 634Q641 614 655.50 583Q670 552 670 510Q670 394 529 361Q689 324 689 193M447.50 420.50Q447.50 420.50 464.75 433.25Q482 446 482 510Q482 574 450 597.50Q418 621 355 621L307 621Q293 621 285 612.50Q277 604 277 591L277 395L346 395Q413 395 447.50 420.50M502 193Q502 260 466.50 294Q431 328 366 328L277 328L277 94Q277 81 285 72.50Q293 64 307 64L364 64Q432 64 467 95Q502 126 502 193Z"  horiz-adv-x="725" vert-adv-y="1000"  />

      
      <glyph glyph-name="uni43" unicode="&#x43;" d="M599 688L648 488L607 477Q572 550 516.50 594.50Q461 639 396 639Q222 639 222 342Q222 275 231 223Q240 171 259.50 130.50Q279 90 313.50 68.50Q348 47 396 47Q474 47 528.50 95Q583 143 604 213L669 192Q595-18 378-18Q224-18 129.50 80.50Q35 179 35 342Q35 505 129.50 603.50Q224 702 378 702Q472 702 538 658L552 688L599 688Z"  horiz-adv-x="694" vert-adv-y="1000"  />

      
      <glyph glyph-name="uni44" unicode="&#x44;" d="M736 342Q736 178 636.50 87.50Q537-3 352-3L24-3L24 39Q73 42 87.50 54.50Q102 67 102 108L102 577Q102 619 88 630.50Q74 642 24 646L24 688L354 688Q539 688 637.50 597.50Q736 507 736 342M548 342Q548 489 499 555Q450 621 354 621L307 621Q293 621 285 612.50Q277 604 277 591L277 94Q277 81 285 72.50Q293 64 307 64L352 64Q448 64 498 130Q548 196 548 342Z"  horiz-adv-x="772" vert-adv-y="1000"  />

      
      <glyph glyph-name="uni45" unicode="&#x45;" d="M359 64Q447 64 523 106.50Q599 149 652 218L687 197L591-3L24-3L24 39Q73 42 87.50 54.50Q102 67 102 108L102 577Q102 619 88 630.50Q74 642 24 646L24 688L588 688L646 509L609 493Q562 560 501 590.50Q440 621 349 621L307 621Q293 621 285 612.50Q277 604 277 591L277 391L393 391Q442 391 459 412Q476 433 477 476L523 476L523 239L477 239Q476 282 459 303Q442 324 393 324L277 324L277 94Q277 81 285 72.50Q293 64 307 64L359 64Z"  horiz-adv-x="694" vert-adv-y="1000"  />

      
      <glyph glyph-name="uni46" unicode="&#x46;" d="M277 591L277 391L393 391Q442 391 458.50 412Q475 433 477 476L522 476L522 239L477 239Q475 282 458.50 303Q442 324 393 324L277 324L277 108Q277 66 292 54Q307 42 359 39L359-3L24-3L24 39Q73 42 87.50 54.50Q102 67 102 108L102 577Q102 619 87.50 630.50Q73 642 24 646L24 688L587 688L645 509L609 493Q562 560 500.50 590.50Q439 621 349 621L306 621Q293 621 285 612.50Q277 604 277 591Z"  horiz-adv-x="652" vert-adv-y="1000"  />

      
      <glyph glyph-name="uni47" unicode="&#x47;" d="M610-3L566 50Q495-18 382-18Q225-18 130.50 80.50Q36 179 36 342.50Q36 506 130.50 604Q225 702 382 702Q487 702 551 658L564 688L612 688L660 488L619 477Q583 553 526 596Q469 639 401 639Q351 639 315.50 617.50Q280 596 260.50 555Q241 514 232 462Q223 410 223 342Q223 47 387 47Q423 47 452 59.50Q481 72 492 89L492 211Q492 252 477.50 263.50Q463 275 414 279L414 322L734 322L734 279Q693 275 680 263.50Q667 252 667 211L667-3L610-3Z"  horiz-adv-x="749" vert-adv-y="1000"  />

      
      <glyph glyph-name="uni48" unicode="&#x48;" d="M456-3L456 39Q505 42 519.50 54.50Q534 67 534 108L534 324L277 324L277 108Q277 67 292 54.50Q307 42 355 39L355-3L25-3L25 39Q74 42 88.50 54.50Q103 67 103 108L103 577Q103 619 88.50 630.50Q74 642 25 646L25 688L355 688L355 646Q306 642 291.50 630.50Q277 619 277 577L277 391L534 391L534 577Q534 619 519.50 630.50Q505 642 456 646L456 688L786 688L786 646Q737 642 722.50 630.50Q708 619 708 577L708 108Q708 67 723 54.50Q738 42 786 39L786-3L456-3Z"  horiz-adv-x="812" vert-adv-y="1000"  />

      
      <glyph glyph-name="uni49" unicode="&#x49;" d="M22-3L22 39Q71 42 85.50 54.50Q100 67 100 108L100 577Q100 619 85.50 630.50Q71 642 22 646L22 688L352 688L352 646Q303 642 288.50 630.50Q274 619 274 577L274 108Q274 67 289 54.50Q304 42 352 39L352-3L22-3Z"  horiz-adv-x="375" vert-adv-y="1000"  />

      
      <glyph glyph-name="uni4a" unicode="&#x4a;" d="M273 577L273 35Q273-33 253-84Q233-135 197.50-165.50Q162-196 117.50-211Q73-226 22-226Q-58-226-98-196Q-138-166-138-121Q-138-89-116.50-68Q-95-47-64-47Q-39-47-22-57Q-5-67 2.50-81Q10-95 16-109.50Q22-124 30-134Q38-144 49-144Q76-144 87.50-111.50Q99-79 99-8L99 577Q99 619 84.50 630.50Q70 642 21 646L21 688L351 688L351 646Q302 642 287.50 630.50Q273 619 273 577Z"  horiz-adv-x="369" vert-adv-y="1000"  />

      
      <glyph glyph-name="uni4b" unicode="&#x4b;" d="M25-3L25 39Q74 42 88.50 54.50Q103 67 103 108L103 577Q103 619 88.50 630.50Q74 642 25 646L25 688L355 688L355 646Q306 642 291.50 630.50Q277 619 277 577L277 375L479 562Q500 582 506 599.50Q512 617 497.50 630Q483 643 446 646L446 688L716 688L716 646Q681 643 659 631Q637 619 595 580L445 442L686 99Q721 47 769 39L769-3L438-3L438 39Q466 41 479 47.50Q492 54 492 68.50Q492 83 476 107L320 325L277 286L277 108Q277 67 292 54.50Q307 42 355 39L355-3L25-3Z"  horiz-adv-x="765" vert-adv-y="1000"  />

      
      <glyph glyph-name="uni4c" unicode="&#x4c;" d="M336 64Q402 64 473.50 107.50Q545 151 596 218L631 197L535-3L24-3L24 39Q73 42 87.50 54.50Q102 67 102 108L102 577Q102 619 87.50 630.50Q73 642 24 646L24 688L354 688L354 646Q305 642 290.50 630.50Q276 619 276 577L276 94Q276 81 284.50 72.50Q293 64 306 64L336 64Z"  horiz-adv-x="638" vert-adv-y="1000"  />

      
      <glyph glyph-name="uni4d" unicode="&#x4d;" d="M557-3L557 39Q606 42 620.50 54.50Q635 67 635 108L635 546L436-3L379-3L179 543L179 108Q179 67 193.50 54.50Q208 42 257 39L257-3L26-3L26 39Q74 42 88.50 54.50Q103 67 103 108L103 577Q103 619 89 630.50Q75 642 26 646L26 688L314 688L460 285L606 688L888 688L888 646Q838 642 824 630.50Q810 619 810 577L810 108Q810 67 824.50 54.50Q839 42 888 39L888-3L557-3Z"  horiz-adv-x="914" vert-adv-y="1000"  />

      
      <glyph glyph-name="uni4e" unicode="&#x4e;" d="M257-3L24-3L24 39Q73 42 87.50 54.50Q102 67 102 108L102 577Q102 619 88 630.50Q74 642 24 646L24 688L292 688L554 277L554 577Q554 619 540 630.50Q526 642 476 646L476 688L707 688L707 646Q658 642 644 630.50Q630 619 630 577L630-3L525-3L178 541L178 108Q178 67 193 54.50Q208 42 257 39L257-3Z"  horiz-adv-x="726" vert-adv-y="1000"  />

      
      <glyph glyph-name="uni4f" unicode="&#x4f;" d="M132 80Q132 80 84 129Q36 178 36 342.50Q36 507 132 604.50Q228 702 395 702Q562 702 657.50 604.50Q753 507 753 342Q753 177 657.50 79.50Q562-18 395-18Q228-18 132 80M231.50 461.50Q231.50 461.50 227.25 435.75Q223 410 223 342.50Q223 275 231.50 223.50Q240 172 259 131Q278 90 312 68.50Q346 47 395 47Q444 47 478 68Q512 89 531 130.50Q550 172 558 223Q566 274 566 342Q566 410 558 461.50Q550 513 531 554.50Q512 596 478 617.50Q444 639 395 639Q346 639 312 617.50Q278 596 259 554.50Q240 513 231.50 461.50Z"  horiz-adv-x="790" vert-adv-y="1000"  />

      
      <glyph glyph-name="uni50" unicode="&#x50;" d="M355-3L24-3L24 39Q73 42 87.50 54.50Q102 67 102 108L102 577Q102 619 88.50 630.50Q75 642 24 646L24 688L365 688Q528 688 608.50 647.50Q689 607 689 505Q689 451 668 414Q647 377 603 356Q559 335 501.50 326.50Q444 318 362 318L277 318L277 108Q277 67 291.50 54.50Q306 42 355 39L355-3M466.50 412.50Q466.50 412.50 484.25 426.25Q502 440 502 505Q502 570 467.50 595.50Q433 621 365 621L307 621Q293 621 285 612.50Q277 604 277 591L277 385L362 385Q431 385 466.50 412.50Z"  horiz-adv-x="710" vert-adv-y="1000"  />

      
      <glyph glyph-name="uni51" unicode="&#x51;" d="M36 342Q36 507 131.50 604.50Q227 702 394.50 702Q562 702 657.50 604.50Q753 507 753 342Q753 202 683 109.50Q613 17 489-8Q489-60 510-82.50Q531-105 570-105Q611-105 633.50-80Q656-55 656-10L724-10Q724-98 667.50-144.50Q611-191 519-191Q419-191 361-143Q303-95 302-9Q176 16 106 109Q36 202 36 342M231 461.50Q231 461.50 227 435.75Q223 410 223 342.50Q223 275 231 223.50Q239 172 258 131Q277 90 311.50 68.50Q346 47 394.50 47Q443 47 477.50 68Q512 89 530.50 130.50Q549 172 557 223Q565 274 565 342Q565 410 557 461.50Q549 513 530.50 554.50Q512 596 477.50 617.50Q443 639 394.50 639Q346 639 311.50 617.50Q277 596 258 554.50Q239 513 231 461.50Z"  horiz-adv-x="790" vert-adv-y="1000"  />

      
      <glyph glyph-name="uni52" unicode="&#x52;" d="M690 505Q690 427 643.50 385Q597 343 509 329L660 99Q680 68 699.50 55Q719 42 753 39L753-3L534-3L329 318L277 318L277 108Q277 67 292 54.50Q307 42 355 39L355-3L25-3L25 39Q74 42 88.50 54.50Q103 67 103 108L103 577Q103 619 89 630.50Q75 642 25 646L25 688L365 688Q529 688 609.50 647.50Q690 607 690 505M467 412.50Q467 412.50 484.50 426.25Q502 440 502 505Q502 570 468 595.50Q434 621 365 621L307 621Q294 621 285.50 612.50Q277 604 277 591L277 385L362 385Q432 385 467 412.50Z"  horiz-adv-x="751" vert-adv-y="1000"  />

      
      <glyph glyph-name="uni53" unicode="&#x53;" d="M216 552Q216 523 234 502.50Q252 482 281.50 470Q311 458 348.50 446Q386 434 425.50 424.50Q465 415 502.50 397.50Q540 380 569.50 358.50Q599 337 617 299.50Q635 262 635 214Q635 110 551.50 46Q468-18 343-18Q225-18 144 29L130-3L82-3L29 220L67 231Q106 150 176.50 98Q247 46 334 46Q390 46 428 74.50Q466 103 466 146Q466 177 448.50 200.50Q431 224 402 238Q373 252 336 265Q299 278 260.50 288.50Q222 299 185 317Q148 335 119 357Q90 379 72.50 415.50Q55 452 55 500Q55 595 128.50 648.50Q202 702 310 702Q423 702 495 658L508 688L556 688L604 488L568 479Q533 554 470 596.50Q407 639 326 639Q275 639 245.50 615Q216 591 216 552Z"  horiz-adv-x="671" vert-adv-y="1000"  />

      
      <glyph glyph-name="uni54" unicode="&#x54;" d="M257 108L257 591Q257 604 249 612.50Q241 621 228 621Q125 621 49 493L14 509L78 709L120 709Q128 688 153 688L541 688Q567 688 575 709L616 709L678 509L643 493Q566 621 461 621Q448 621 440 612.50Q432 604 432 591L432 108Q432 67 446.50 54.50Q461 42 510 39L510-3L179-3L179 39Q228 42 242.50 54.50Q257 67 257 108Z"  horiz-adv-x="692" vert-adv-y="1000"  />

      
      <glyph glyph-name="uni55" unicode="&#x55;" d="M271 577L271 204Q271 128 317 90.50Q363 53 431 53Q509 53 552 96Q595 139 595 221L595 577Q595 619 580.50 630.50Q566 642 517 646L517 688L749 688L749 646Q700 642 685.50 630.50Q671 619 671 577L671 221Q671 104 598 43Q525-18 397-18Q252-18 174.50 43Q97 104 97 221L97 577Q97 619 82.50 630.50Q68 642 19 646L19 688L349 688L349 646Q300 642 285.50 630.50Q271 619 271 577Z"  horiz-adv-x="767" vert-adv-y="1000"  />

      
      <glyph glyph-name="uni56" unicode="&#x56;" d="M416-3L297-3L71 582Q58 616 42 629Q26 642-3 646L-3 688L312 688L312 646Q266 642 254 630.50Q242 619 254 586L413 179L570 586Q583 617 567.50 629.50Q552 642 505 646L505 688L718 688L718 646Q688 642 671 629Q654 616 642 583L416-3Z"  horiz-adv-x="716" vert-adv-y="1000"  />

      
      <glyph glyph-name="uni57" unicode="&#x57;" d="M310 646Q262 642 250 628.50Q238 615 250 577L352 246L449 565L446 577Q434 616 421 629.50Q408 643 377 646L377 688L688 688L688 646Q642 642 629 628.50Q616 615 628 577L729 246L831 577Q842 616 830 629Q818 642 772 646L772 688L982 688L982 646Q952 642 936.50 628.50Q921 615 909 577L734-3L622-3L489 435L357-3L244-3L69 577Q57 615 42.50 628.50Q28 642-2 646L-2 688L310 688L310 646Z"  horiz-adv-x="981" vert-adv-y="1000"  />

      
      <glyph glyph-name="uni58" unicode="&#x58;" d="M249-3L2-3L2 39Q46 42 68 55.50Q90 69 115 108L261 329L112 577Q87 619 72 631Q57 643 22 646L22 688L361 688L361 646Q318 643 310 623.50Q302 604 325 568L393 457L467 570Q493 610 485 626Q477 642 433 646L433 688L670 688L670 646Q627 643 606.50 630Q586 617 561 577L436 384L602 108Q626 70 644.50 56.50Q663 43 693 39L693-3L354-3L354 39Q396 42 404.50 59.50Q413 77 390 115L302 258L210 116Q186 75 196 59Q206 43 249 39L249-3Z"  horiz-adv-x="696" vert-adv-y="1000"  />

      
      <glyph glyph-name="uni59" unicode="&#x59;" d="M174 39Q223 42 237.50 54.50Q252 67 252 108L252 248L74 577Q54 616 39.50 629.50Q25 643-3 646L-3 688L316 688L316 646Q273 643 263 623Q253 603 273 568L392 346L513 570Q534 610 523.50 626Q513 642 470 646L470 688L679 688L679 646Q652 643 637.50 630Q623 617 602 577L427 253L427 108Q427 67 441.50 54.50Q456 42 504 39L504-3L174-3L174 39Z"  horiz-adv-x="677" vert-adv-y="1000"  />

      
      <glyph glyph-name="uni5a" unicode="&#x5a;" d="M28 39L396 621L326 621Q236 621 180 591Q124 561 75 493L40 509L97 688L615 688L615 646L247 64L334 64Q426 64 490 104Q554 144 611 218L645 197L550-3L28-3L28 39Z"  horiz-adv-x="659" vert-adv-y="1000"  />

      
      <glyph glyph-name="uni5b" unicode="&#x5b;" d="M19-197L19 710L270 710L270 658L136 658L136-145L270-145L270-197L19-197Z"  horiz-adv-x="289" vert-adv-y="1000"  />

      
      <glyph glyph-name="uni5c" unicode="&#x5c;" d="M64 720L328-211L266-211L2 720L64 720Z"  horiz-adv-x="331" vert-adv-y="1000"  />

      
      <glyph glyph-name="uni5d" unicode="&#x5d;" d="M269 710L269-197L19-197L19-145L152-145L152 658L19 658L19 710L269 710Z"  horiz-adv-x="288" vert-adv-y="1000"  />

      
      <glyph glyph-name="uni5e" unicode="&#x5e;" d="M459 345L283 533L107 345L44 345L251 690L315 690L523 345L459 345Z"  horiz-adv-x="567" vert-adv-y="1000"  />

      
      <glyph glyph-name="uni5f" unicode="&#x5f;" d="M4-117L4-56L564-56L564-117L4-117Z"  horiz-adv-x="567" vert-adv-y="1000"  />

      
      <glyph glyph-name="uni60" unicode="&#x60;" d="M216 650L299 497L240 497L109 613Q98 622 93 627Q88 632 84.50 638.50Q81 645 81 651Q81 671 100 671L182 671Q207 671 216 650Z"  horiz-adv-x="537" vert-adv-y="1000"  />

      
      <glyph glyph-name="uni61" unicode="&#x61;" d="M423-12Q334-12 320 49Q238-13 161-13Q101-13 64.50 18Q28 49 28 100Q28 133 45 161Q62 189 88 207Q114 225 155 240.50Q196 256 232 264.50Q268 273 317 282L317 328Q317 376 306.50 393.50Q296 411 265 411Q237 411 220 395.50Q203 380 192 345Q172 286 115 286Q89 286 74 301.50Q59 317 59 347Q59 402 121 435.50Q183 469 280 469Q320 469 352.50 461.50Q385 454 412 437Q439 420 454 391Q469 362 469 322L469 94Q469 56 495 56Q510 56 524 63L524 13Q483-12 423-12M238 78Q276 78 317 106L317 225Q251 212 217.50 190.50Q184 169 184 131Q184 105 199 91.50Q214 78 238 78Z"  horiz-adv-x="547" vert-adv-y="1000"  />

      
      <glyph glyph-name="uni62" unicode="&#x62;" d="M13 622L163 705L219 705L219 424Q270 469 347 469Q440 469 498 403Q556 337 556 228Q556 116 495 50.50Q434-15 327-15Q246-15 195 32L124-15L68-15L68 553Q68 570 62 577Q56 584 43 584L13 584L13 622M298 398Q245 399 219 358L219 96Q246 55 298 55Q352 55 376 97Q400 139 400 228Q400 316 376 357Q352 398 298 398Z"  horiz-adv-x="585" vert-adv-y="1000"  />

      
      <glyph glyph-name="uni63" unicode="&#x63;" d="M464 348Q464 317 445 299Q426 281 398 281Q370 281 351.50 297Q333 313 328 344Q322 378 309 394Q296 410 270 410Q222 410 203 365.50Q184 321 184 228Q184 51 306 51Q390 51 436 161L491 130Q459 59 409 22Q359-15 280-15Q166-15 97 53Q28 121 28 228Q28 333 95.50 401.50Q163 470 270 470Q355 470 409.50 435Q464 400 464 348Z"  horiz-adv-x="501" vert-adv-y="1000"  />

      
      <glyph glyph-name="uni64" unicode="&#x64;" d="M312 584L312 622L461 705L518 705L518 85Q518 62 528.50 53.50Q539 45 573 41L573 0Q460 0 366-15L366 32Q320-15 239-15Q145-15 86.50 51.50Q28 118 28 228Q28 337 86.50 403.50Q145 470 239 470Q318 470 366 423L366 554Q366 584 341 584L312 584M288 56Q340 56 366 97L366 358Q339 399 288 399Q234 399 209 357.50Q184 316 184 228Q184 140 209 98Q234 56 288 56Z"  horiz-adv-x="595" vert-adv-y="1000"  />

      
      <glyph glyph-name="uni65" unicode="&#x65;" d="M185 254L185 253Q184 245 184 228Q184 139 213 95Q242 51 306 51Q349 51 387 80Q425 109 451 161L505 130Q471 60 419.50 22.50Q368-15 287-15Q167-15 97.50 52.50Q28 120 28 228Q28 334 96 402Q164 470 272 470Q377 470 434.50 412.50Q492 355 492 254L185 254M275 410Q235 410 215 387.50Q195 365 188 317L349 317Q349 360 328.50 385Q308 410 275 410Z"  horiz-adv-x="530" vert-adv-y="1000"  />

      
      <glyph glyph-name="uni66" unicode="&#x66;" d="M22 392L22 455L77 455L77 475Q77 582 143.50 643.50Q210 705 308 705Q359 705 391.50 684Q424 663 424 626Q424 596 404.50 575.50Q385 555 354 555Q331 555 315.50 567.50Q300 580 294.50 595Q289 610 280.50 622Q272 634 262 634Q245 634 236.50 619Q228 604 228 578L228 455L309 455L309 392L228 392L228 85Q228 63 240.50 54Q253 45 288 41L288 0L22 0L22 41Q55 45 66 54Q77 63 77 85L77 392L22 392Z"  horiz-adv-x="321" vert-adv-y="1000"  />

      
      <glyph glyph-name="uni67" unicode="&#x67;" d="M523 482Q523 460 508.50 444.50Q494 429 472 429Q454 429 439 441.50Q424 454 413 454Q395 454 383 437Q423 414 441.50 378Q460 342 460 302Q460 227 403.50 180.50Q347 134 252 134Q206 134 172 144Q152 147 140.50 140.50Q129 134 129 123Q129 107 168.50 100.50Q208 94 315 90Q418 86 464 53Q510 20 510-44Q510-118 440-157Q370-196 259-196Q215-196 176-190.50Q137-185 103-172.50Q69-160 48.50-137.50Q28-115 28-84Q28-37 79-12Q29 15 29 79Q29 117 49.50 142.50Q70 168 104 177Q43 224 43 302Q43 376 99.50 422.50Q156 469 252 469Q292 469 320 463Q346 496 381 517.50Q416 539 456 539Q485 539 504 524.50Q523 510 523 482M275-47Q211-45 158-36Q124-49 124-76Q124-102 158-120Q192-138 259-138Q320-138 352.50-122Q385-106 385-85Q385-63 364-56.50Q343-50 275-47M182 302Q182 246 198.50 219Q215 192 252 192Q288 192 304.50 219Q321 246 321 302Q321 411 252 411Q182 411 182 302Z"  horiz-adv-x="534" vert-adv-y="1000"  />

      
      <glyph glyph-name="uni68" unicode="&#x68;" d="M588 0L326 0L326 41Q360 45 370.50 53.50Q381 62 381 85L381 320Q381 353 364 369.50Q347 386 317 386Q272 386 229 356L229 85Q229 62 239.50 53.50Q250 45 284 41L284 0L22 0L22 41Q56 45 67 54Q78 63 78 85L78 554Q78 584 53 584L22 584L22 622L173 705L229 705L229 421Q260 442 300.50 455.50Q341 469 377 469Q532 469 532 316L532 85Q532 63 543.50 54Q555 45 588 41L588 0Z"  horiz-adv-x="611" vert-adv-y="1000"  />

      
      <glyph glyph-name="uni69" unicode="&#x69;" d="M282 0L20 0L20 41Q54 45 65 54Q76 63 76 85L76 319Q76 348 51 348L20 348L20 387L171 469L227 469L227 85Q227 62 237.50 53.50Q248 45 282 41L282 0M67 613Q67 646 90.50 670.50Q114 695 155 695Q194 695 218 670.50Q242 646 242 613Q242 580 218 556Q194 532 155 532Q114 532 90.50 556Q67 580 67 613Z"  horiz-adv-x="303" vert-adv-y="1000"  />

      
      <glyph glyph-name="uni6a" unicode="&#x6a;" d="M-6-196Q-61-196-94-173.50Q-127-151-127-108Q-127-82-106-61.50Q-85-41-57-41Q-35-41-19-54.50Q-3-68 4-83.50Q11-99 20-112Q29-125 39-125Q55-125 65-110Q75-95 75-69L75 319Q75 348 50 348L19 348L19 387L170 469L226 469L226 37Q226-74 159.50-135Q93-196-6-196M66 613Q66 646 89.50 670.50Q113 695 154 695Q193 695 217 670.50Q241 646 241 613Q241 580 217 556Q193 532 154 532Q113 532 89.50 556Q66 580 66 613Z"  horiz-adv-x="293" vert-adv-y="1000"  />

      
      <glyph glyph-name="uni6b" unicode="&#x6b;" d="M23 0L23 41Q56 45 67 54Q78 63 78 85L78 554Q78 584 54 584L23 584L23 622L174 705L229 705L229 246L320 334Q341 354 347 370.50Q353 387 340 399Q327 411 293 413L293 455L550 455L550 413Q513 410 490.50 398Q468 386 431 351L390 312L533 102Q556 69 571.50 57Q587 45 608 41L608 0L321 0L321 41Q357 45 365.50 62Q374 79 357 102L281 208L229 159L229 85Q229 62 240 53.50Q251 45 284 41L284 0L23 0Z"  horiz-adv-x="596" vert-adv-y="1000"  />

      
      <glyph glyph-name="uni6c" unicode="&#x6c;" d="M282 0L20 0L20 41Q54 45 65 54Q76 63 76 85L76 554Q76 584 51 584L20 584L20 622L171 705L227 705L227 85Q227 62 237.50 53.50Q248 45 282 41L282 0Z"  horiz-adv-x="303" vert-adv-y="1000"  />

      
      <glyph glyph-name="uni6d" unicode="&#x6d;" d="M590 0L329 0L329 41Q362 45 373 53.50Q384 62 384 85L384 320Q384 353 366.50 369.50Q349 386 320 386Q275 386 231 356L231 85Q231 62 242 53.50Q253 45 286 41L286 0L25 0L25 41Q58 45 69 54Q80 63 80 85L80 319Q80 348 56 348L25 348L25 387L176 469L231 469L231 421Q263 442 303 455.50Q343 469 379 469Q478 469 514 407Q548 434 595 451.50Q642 469 683 469Q839 469 839 316L839 85Q839 62 849.50 53.50Q860 45 894 41L894 0L633 0L633 41Q666 45 676.50 53.50Q687 62 687 85L687 320Q687 353 670 369.50Q653 386 624 386Q578 386 532 354Q535 336 535 316L535 85Q535 63 546 54Q557 45 590 41L590 0Z"  horiz-adv-x="918" vert-adv-y="1000"  />

      
      <glyph glyph-name="uni6e" unicode="&#x6e;" d="M588 0L326 0L326 41Q360 45 370.50 53.50Q381 62 381 85L381 320Q381 353 364 369.50Q347 386 317 386Q272 386 229 356L229 85Q229 62 239.50 53.50Q250 45 284 41L284 0L22 0L22 41Q56 45 67 54Q78 63 78 85L78 319Q78 348 53 348L22 348L22 387L173 469L229 469L229 421Q260 442 300.50 455.50Q341 469 377 469Q532 469 532 316L532 85Q532 63 543.50 54Q555 45 588 41L588 0Z"  horiz-adv-x="611" vert-adv-y="1000"  />

      
      <glyph glyph-name="uni6f" unicode="&#x6f;" d="M28 228Q28 334 98.50 401.50Q169 469 285 469Q401 469 471 401.50Q541 334 541 228Q541 121 471 53Q401-15 285-15Q169-15 98.50 53Q28 121 28 228M207 364.50Q207 364.50 195.50 341.75Q184 319 184 227.50Q184 136 207 90Q230 44 285 44Q340 44 363 90Q386 136 386 227.50Q386 319 363 364.50Q340 410 285 410Q230 410 207 364.50Z"  horiz-adv-x="570" vert-adv-y="1000"  />

      
      <glyph glyph-name="uni70" unicode="&#x70;" d="M18-182L17-140Q51-136 62-127.50Q73-119 73-98L73 319Q73 348 48 348L16 348L16 387L168 469L224 469L224 424Q275 469 352 469Q445 469 503 403Q561 337 561 228Q561 116 500 50.50Q439-15 332-15Q268-15 224 16L224-98Q224-119 234.50-127.50Q245-136 279-140L279-182L18-182M303 398Q250 399 224 358L224 96Q251 55 303 55Q357 55 381 97Q405 139 405 228Q405 316 381 357Q357 398 303 398Z"  horiz-adv-x="590" vert-adv-y="1000"  />

      
      <glyph glyph-name="uni71" unicode="&#x71;" d="M573-181L312-181L312-140Q345-136 355.50-127.50Q366-119 366-98L366 32Q319-15 239-15Q145-15 86.50 51.50Q28 118 28 228Q28 337 86.50 403.50Q145 470 239 470Q324 470 374 415L461 470L518 470L518-98Q518-119 528.50-127.50Q539-136 573-140L573-181M288 56Q340 56 366 97L366 358Q339 399 288 399Q234 399 209 357.50Q184 316 184 228Q184 140 209 98Q234 56 288 56Z"  horiz-adv-x="584" vert-adv-y="1000"  />

      
      <glyph glyph-name="uni72" unicode="&#x72;" d="M436 391Q436 355 416 334Q396 313 368 313Q347 313 333 321Q319 329 313 338.50Q307 348 298 356Q289 364 279 364Q248 364 228 336L228 85Q228 62 238.50 53.50Q249 45 283 41L283 0L21 0L21 41Q55 45 66 54Q77 63 77 85L77 319Q77 348 52 348L21 348L21 387L172 469L228 469L228 411Q250 437 283 453Q316 469 349 469Q389 469 412.50 448Q436 427 436 391Z"  horiz-adv-x="446" vert-adv-y="1000"  />

      
      <glyph glyph-name="uni73" unicode="&#x73;" d="M185 369Q185 349 205.50 334Q226 319 257 310Q288 301 324.50 288Q361 275 392 260Q423 245 443.50 216Q464 187 464 148Q464 72 406 28.50Q348-15 260-15Q217-15 174.50-2Q132 11 107 28L95 0L58 0L22 162L56 171Q93 110 147 76.50Q201 43 255 43Q286 43 306 57.50Q326 72 326 97Q326 118 304.50 134Q283 150 251 159Q219 168 181.50 181.50Q144 195 112 210Q80 225 59 254.50Q38 284 38 324Q38 387 93 428.50Q148 470 228 470Q304 470 362 429L374 455L411 455L440 311L404 300Q373 354 329.50 384Q286 414 244 414Q216 414 200.50 401.50Q185 389 185 369Z"  horiz-adv-x="486" vert-adv-y="1000"  />

      
      <glyph glyph-name="uni74" unicode="&#x74;" d="M330 63L330 3Q278-14 221-14Q146-14 107.50 16.50Q69 47 69 120L69 392L15 392L15 430Q77 453 113 495.50Q149 538 165 604L221 604L221 455L330 455L330 392L221 392L221 120Q221 53 274 53Q305 53 330 63Z"  horiz-adv-x="350" vert-adv-y="1000"  />

      
      <glyph glyph-name="uni75" unicode="&#x75;" d="M320 387L471 469L526 469L526 85Q526 62 537 53.50Q548 45 582 41L582 0Q468 0 376-15L376 33Q301-15 227-15Q71-15 71 139L71 319Q71 348 46 348L16 348L16 387L167 469L223 469L223 135Q223 101 240.50 85Q258 69 287 69Q328 69 376 99L376 319Q376 334 370 341Q364 348 350 348L320 348L320 387Z"  horiz-adv-x="605" vert-adv-y="1000"  />

      
      <glyph glyph-name="uni76" unicode="&#x76;" d="M202 0L62 344Q48 380 36 395Q24 410-3 413L-3 455L270 455L270 413Q231 410 222.50 397.50Q214 385 226 348L295 177L364 347Q377 384 367.50 396.50Q358 409 322 413L322 455L501 455L501 413Q476 410 462.50 395Q449 380 435 344L294 0L202 0Z"  horiz-adv-x="499" vert-adv-y="1000"  />

      
      <glyph glyph-name="uni77" unicode="&#x77;" d="M484 0L389 255L297 0L189 0L60 344Q47 381 36 395.50Q25 410-1 413L-1 455L259 455L259 413Q223 410 215.50 396.50Q208 383 222 344L287 169L354 350Q342 382 331 396Q320 410 301 413L301 455L557 455L557 413Q521 409 512.50 396.50Q504 384 517 344L581 171L646 344Q657 369 653 384Q649 399 637 405Q625 411 601 413L601 455L783 455L783 413Q758 410 744.50 395Q731 380 718 344L591 0L484 0Z"  horiz-adv-x="783" vert-adv-y="1000"  />

      
      <glyph glyph-name="uni78" unicode="&#x78;" d="M281 82L226 161L163 82Q152 67 161.50 55.50Q171 44 198 41L198 0L14 0L14 41Q39 44 53 52.50Q67 61 83 82L188 218L86 373Q75 387 69.50 393.50Q64 400 52 406Q40 412 22 413L22 455L295 455L295 413Q269 411 261.50 400.50Q254 390 265 373L309 308L361 373Q373 388 364.50 399Q356 410 327 413L327 455L513 455L513 413Q486 410 471.50 401.50Q457 393 442 373L347 252L460 82Q474 62 486.50 53Q499 44 521 41L521 0L251 0L251 41Q280 44 287 53.50Q294 63 281 82Z"  horiz-adv-x="535" vert-adv-y="1000"  />

      
      <glyph glyph-name="uni79" unicode="&#x79;" d="M435 344L262-82Q214-196 109-196Q64-196 33-172.50Q2-149 2-111Q2-83 21-64Q40-45 69-45Q89-45 104.50-57Q120-69 132-80.50Q144-92 158-92Q186-92 203-49L212-25L62 344Q54 364 49.50 373Q45 382 38 392.50Q31 403 21.50 407Q12 411-2 413L-2 455L270 455L270 413Q231 409 222.50 396.50Q214 384 228 344L294 177L363 344Q375 369 371 384Q367 399 355 405Q343 411 319 413L319 455L502 455L502 413Q477 410 463.50 395Q450 380 435 344Z"  horiz-adv-x="499" vert-adv-y="1000"  />

      
      <glyph glyph-name="uni7a" unicode="&#x7a;" d="M21 41L264 396L223 396Q123 396 70 299L33 313L69 455L457 455L457 413L214 59L275 59Q336 59 378 90Q420 121 455 175L491 157L427 0L21 0L21 41Z"  horiz-adv-x="498" vert-adv-y="1000"  />

      
      <glyph glyph-name="uni7b" unicode="&#x7b;" d="M306-170L306-211Q270-211 236.50-200.50Q203-190 173-169Q143-148 125-110.50Q107-73 107-26L107 138Q107 186 88.50 211Q70 236 25 236L25 279Q70 279 88.50 303.50Q107 328 107 376L107 539Q107 587 125 624Q143 661 173 682.50Q203 704 236.50 714.50Q270 725 306 725L306 683Q269 683 247 660Q225 637 225 590L225 431Q225 287 102 257Q225 226 225 83L225-76Q225-123 247-146.50Q269-170 306-170Z"  horiz-adv-x="331" vert-adv-y="1000"  />

      
      <glyph glyph-name="uni7c" unicode="&#x7c;" d="M135-211L135 720L195 720L195-211L135-211Z"  horiz-adv-x="331" vert-adv-y="1000"  />

      
      <glyph glyph-name="uni7d" unicode="&#x7d;" d="M24-211L24-170Q61-170 83-146.50Q105-123 105-76L105 83Q105 226 228 257Q105 287 105 431L105 590Q105 637 83 660Q61 683 24 683L24 725Q60 725 94 714.50Q128 704 158 682.50Q188 661 206 624Q224 587 224 539L224 376Q224 328 242.50 303.50Q261 279 306 279L306 236Q261 236 242.50 211Q224 186 224 138L224-26Q224-73 206-110.50Q188-148 158-169Q128-190 94-200.50Q60-211 24-211Z"  horiz-adv-x="331" vert-adv-y="1000"  />

      
      <glyph glyph-name="uni7e" unicode="&#x7e;" d="M498 425Q498 253 351 253Q319 253 288 265.50Q257 278 236.50 293Q216 308 192.50 320Q169 332 150 332Q124 332 110.50 318Q97 304 97 266L39 266Q39 438 186 438Q218 438 249.50 425.50Q281 413 302 398Q323 383 347 370.50Q371 358 390 358Q416 358 429 372.50Q442 387 442 425L498 425Z"  horiz-adv-x="537" vert-adv-y="1000"  />

      
      <glyph glyph-name="unia2" unicode="&#xa2;" d="M477 480Q477 449 457.50 431Q438 413 411 413Q358 413 348 476Q340 522 309 536L309 183L315 183Q403 183 449 293L503 261Q473 194 427 157.50Q381 121 309 117L309-30L249-30L249 120Q153 134 97 199Q41 264 41 359Q41 456 98 522.50Q155 589 249 600L249 720L309 720L309 601Q384 595 430.50 561.50Q477 528 477 480M185 359Q185 240 249 200L249 535Q185 507 185 359Z"  horiz-adv-x="590" vert-adv-y="1000"  />

      
      <glyph glyph-name="unia3" unicode="&#xa3;" d="M26 372L117 372Q79 442 79 510Q79 602 146.50 653.50Q214 705 323 705Q424 705 480 663.50Q536 622 536 561Q536 517 509.50 489Q483 461 445 461Q412 461 392 480.50Q372 500 372 528Q372 579 419 591Q434 594 434 601Q434 618 413.50 629Q393 640 362 640Q316 640 291 612.50Q266 585 266 539Q266 528 267 516.50Q268 505 268.50 496Q269 487 271.50 474Q274 461 275 454.50Q276 448 279.50 432.50Q283 417 284 413Q285 409 289.50 391.50Q294 374 295 372L425 372L425 313L309 313Q320 253 320 199Q320 173 315 145Q370 119 414 119Q452 119 477.50 136Q503 153 509 187L569 187Q552-15 405-15Q333-15 272 42Q226-15 152-15Q100-15 63.50 14.50Q27 44 27 95Q27 142 62.50 170.50Q98 199 149 199Q181 199 218 187Q206 234 155 313L26 313L26 372M152 45Q177 45 194.50 60Q212 75 220 98Q180 139 149 139Q125 139 110.50 126Q96 113 96 95Q96 72 112 58.50Q128 45 152 45Z"  horiz-adv-x="590" vert-adv-y="1000"  />

      
      <glyph glyph-name="unia4" unicode="&#xa4;" d="M78 345Q78 411 110 460L26 544L96 614L180 530Q231 562 295 562Q359 562 408 530L494 614L565 543L479 461Q512 410 512 345Q512 281 479 231L564 146L494 77L409 161Q360 128 295 128Q230 128 179 161L96 77L26 147L110 231Q78 277 78 345M201 439.50Q201 439.50 181.50 419.75Q162 400 162 345Q162 290 201 251Q240 212 295 212Q350 212 389.50 251.50Q429 291 429 345.50Q429 400 389.50 439.50Q350 479 295 479Q240 479 201 439.50Z"  horiz-adv-x="590" vert-adv-y="1000"  />

      
      <glyph glyph-name="unia5" unicode="&#xa5;" d="M27 246L27 305L188 305L83 558Q65 601 52 616Q39 631 13 634L13 676L293 676L293 634Q279 633 270.50 629Q262 625 259.50 617.50Q257 610 256 603.50Q255 597 258.50 584Q262 571 265 563.50Q268 556 274 541Q277 533 279 530L347 366L420 540Q427 558 430 567Q433 576 436.50 588.50Q440 601 438.50 607Q437 613 433.50 620Q430 627 421 630Q412 633 398 634L398 676L578 676L578 634Q551 631 538 616Q525 601 507 558L401 305L562 305L562 246L384 246L384 174L562 174L562 114L384 114L384 96Q384 55 398.50 42.50Q413 30 462 27L462-15L132-15L132 27Q181 30 195.50 42.50Q210 55 210 96L210 114L27 114L27 174L210 174L210 246L27 246Z"  horiz-adv-x="590" vert-adv-y="1000"  />

      
      <glyph glyph-name="unia8" unicode="&#xa8;" d="M89 605Q89 632 108 653Q127 674 160 674Q193 674 212.50 653Q232 632 232 605Q232 578 212.50 558.50Q193 539 160 539Q127 539 108 558.50Q89 578 89 605M293 605Q293 632 312.50 653Q332 674 365 674Q398 674 417.50 653Q437 632 437 605Q437 579 417.50 559Q398 539 365 539Q332 539 312.50 558.50Q293 578 293 605Z"  horiz-adv-x="527" vert-adv-y="1000"  />

      
      <glyph glyph-name="unia9" unicode="&#xa9;" d="M73.50 165Q73.50 165 49.25 206.50Q25 248 25 345.50Q25 443 73.50 526Q122 609 204.50 657Q287 705 384.50 705Q482 705 565 657Q648 609 696.50 526Q745 443 745 345.50Q745 248 696.50 165Q648 82 565 33.50Q482-15 384.50-15Q287-15 204.50 33.50Q122 82 73.50 165M66 345Q66 213 159.50 120.50Q253 28 385 28Q517 28 610 121Q703 214 703 345Q703 432 660.50 505Q618 578 544.50 621Q471 664 385 664Q298 664 224.50 621Q151 578 108.50 505Q66 432 66 345M527 554L552 432L521 424Q504 464 473.50 491Q443 518 409 518Q383 518 366 505.50Q349 493 340 468.50Q331 444 327.50 415.50Q324 387 324 347.50Q324 308 327.50 279Q331 250 340 225.50Q349 201 366 188.50Q383 176 409 176Q454 176 482 207Q510 238 522 279L569 263Q521 131 394 131Q297 131 240 189Q183 247 183 347Q183 447 240 505Q297 563 394 563Q444 563 484 538L491 554L527 554Z"  horiz-adv-x="769" vert-adv-y="1000"  />

      
      <glyph glyph-name="uniab" unicode="&#xab;" d="M271 31L242 9L59 188Q41 208 41 229Q41 252 59 270L242 451L271 428L186 229L271 31M468 31L438 9L256 188Q238 208 238 229Q238 252 256 270L438 451L468 428L382 229L468 31Z"  horiz-adv-x="510" vert-adv-y="1000"  />

      
      <glyph glyph-name="uniae" unicode="&#xae;" d="M-42 512Q-42 592 14.50 648.50Q71 705 151 705Q231 705 288 648.50Q345 592 345 512Q345 433 288 376.50Q231 320 151 320Q71 320 14.50 376.50Q-42 433-42 512M-5 512Q-5 448 41 402Q87 356 151.50 356Q216 356 261.50 402Q307 448 307 512Q307 577 261.50 623Q216 669 151.50 669Q87 669 41 623Q-5 577-5 512M253 558Q253 519 212 507L245 456Q254 441 269 438L269 417L190 417L141 502L134 502L134 456Q134 446 138 442.50Q142 439 152 438L152 417L42 417L42 438Q53 439 57 442.50Q61 446 61 456L61 574Q61 583 57.50 585Q54 587 42 589L42 610L169 610Q253 610 253 558M180 558Q180 581 152 581L142 581Q135 581 135 573L135 533L151 533Q180 533 180 558Z"  horiz-adv-x="303" vert-adv-y="1000"  />

      
      <glyph glyph-name="unib0" unicode="&#xb0;" d="M22 591Q22 638 55.50 671.50Q89 705 136 705Q183 705 216.50 671.50Q250 638 250 591Q250 544 216.50 510.50Q183 477 136 477Q89 477 55.50 510.50Q22 544 22 591M89.50 637.50Q89.50 637.50 79.75 627.75Q70 618 70 591Q70 564 89 545Q108 526 135.50 526Q163 526 182 544.50Q201 563 201 590.50Q201 618 182 637.50Q163 657 136 657Q109 657 89.50 637.50Z"  horiz-adv-x="271" vert-adv-y="1000"  />

      
      <glyph glyph-name="unib4" unicode="&#xb4;" d="M216 497L298 650Q309 671 332 671L415 671Q434 671 434 651Q434 639 410 616Q407 614 406 612L274 497L216 497Z"  horiz-adv-x="537" vert-adv-y="1000"  />

      
      <glyph glyph-name="unib5" unicode="&#xb5;" d="M257-15Q195-15 157 25Q168 3 188.50-25Q209-53 220.50-73.50Q232-94 232-112Q232-151 208.50-173.50Q185-196 150-196Q115-196 91-173Q67-150 67-111L67 455L218 455L218 135Q218 102 236 85.50Q254 69 283 69Q325 69 371 99L371 142L371 455L523 455L523 94Q523 56 550 56Q565 56 578 63L578 13Q538-12 480-12Q401-12 379 42Q330-15 257-15Z"  horiz-adv-x="589" vert-adv-y="1000"  />

      
      <glyph glyph-name="unibb" unicode="&#xbb;" d="M70 8L41 30L126 228L41 427L70 450L253 270Q270 252 270 228Q270 207 253 188L70 8M266 8L237 30L323 228L237 427L266 450L449 270Q467 252 467 228Q467 207 449 188L266 8Z"  horiz-adv-x="512" vert-adv-y="1000"  />

      
      <glyph glyph-name="unic0" unicode="&#xc0;" d="M419 688L645 103Q658 69 674 56Q690 43 718 39L718-3L404-3L404 39Q450 43 462 55Q474 67 462 100L427 189L179 189L146 100Q133 68 148.50 55.50Q164 43 211 39L211-3L-3-3L-3 39Q28 43 45 56Q62 69 74 102L300 688L419 688M317 878L399 725L341 725L210 841Q199 850 194 855Q189 860 185 866.50Q181 873 181 879Q181 899 201 899L283 899Q308 899 317 878M303 507L205 256L400 256L303 507Z"  horiz-adv-x="716" vert-adv-y="1000"  />

      
      <glyph glyph-name="unic1" unicode="&#xc1;" d="M299 685L419 685L645 100Q657 67 673.50 53.50Q690 40 718 36L718-5L404-5L404 36Q449 40 461.50 52Q474 64 461 97L427 186L179 186L145 97Q133 66 148.50 53Q164 40 211 36L211-5L-4-5L-4 36Q27 40 44 53Q61 66 73 99L299 685M302 505L205 253L400 253L302 505M321 723L403 876Q413 896 436 896L519 896Q539 896 539 877Q539 875 538.50 873Q538 871 537.50 869.50Q537 868 536 865.50Q535 863 534 862Q533 861 531 858.50Q529 856 528 855Q527 854 524 851Q521 848 520 847Q519 846 515.50 842.50Q512 839 510 838L378 723L321 723Z"  horiz-adv-x="716" vert-adv-y="1000"  />

      
      <glyph glyph-name="unic2" unicode="&#xc2;" d="M299 688L419 688L645 103Q657 69 673.50 56Q690 43 718 39L718-3L404-3L404 39Q449 43 461.50 55Q474 67 461 100L427 189L179 189L145 100Q133 68 148.50 55.50Q164 43 211 39L211-3L-4-3L-4 39Q27 43 44 56Q61 69 73 102L299 688M198 723L299 877Q315 900 337 900L379 900Q401 900 417 877L518 723L460 723L358 812L256 723L198 723M302 507L205 256L400 256L302 507Z"  horiz-adv-x="716" vert-adv-y="1000"  />

      
      <glyph glyph-name="unic3" unicode="&#xc3;" d="M299 688L419 688L645 103Q657 69 673.50 56Q690 43 718 39L718-3L404-3L404 39Q449 43 461.50 55Q474 67 461 100L427 189L179 189L145 100Q133 68 148.50 55.50Q164 43 211 39L211-3L-4-3L-4 39Q27 43 44 56Q61 69 73 102L299 688M302 507L205 256L400 256L302 507M508 885Q505 821 478.50 793.50Q452 766 417 766Q388 766 348.50 789Q309 812 292 812Q278 812 267.50 802Q257 792 253 773L206 773Q209 837 235.50 865Q262 893 297 893Q327 893 367 870Q407 847 425 847Q456 847 463 885L508 885Z"  horiz-adv-x="716" vert-adv-y="1000"  />

      
      <glyph glyph-name="unic4" unicode="&#xc4;" d="M299 688L419 688L645 103Q657 69 673.50 56Q690 43 718 39L718-3L404-3L404 39Q449 43 461.50 55Q474 67 461 100L427 189L179 189L145 100Q133 68 148.50 55.50Q164 43 211 39L211-3L-4-3L-4 39Q27 43 44 56Q61 69 73 102L299 688M183 833Q183 861 202 881.50Q221 902 254 902Q287 902 306.50 881.50Q326 861 326 833Q326 807 306.50 787Q287 767 254 767Q221 767 202 786.50Q183 806 183 833M302 507L205 256L400 256L302 507M387 833Q387 861 406.50 881.50Q426 902 459 902Q492 902 511.50 881Q531 860 531 833Q531 807 511.50 787Q492 767 459 767Q426 767 406.50 787Q387 807 387 833Z"  horiz-adv-x="716" vert-adv-y="1000"  />

      
      <glyph glyph-name="unic5" unicode="&#xc5;" d="M299 688L419 688L645 103Q657 69 673.50 56Q690 43 718 39L718-3L404-3L404 39Q449 43 461.50 55Q474 67 461 100L427 189L179 189L145 100Q133 68 148.50 55.50Q164 43 211 39L211-3L-4-3L-4 39Q27 43 44 56Q61 69 73 102L299 688M302 507L205 256L400 256L302 507M286.50 741Q286.50 741 271.75 755.50Q257 770 257 810Q257 850 286.50 879.50Q316 909 357 909Q398 909 427 879.50Q456 850 456 810Q456 770 427 741Q398 712 357 712Q316 712 286.50 741M313 810Q313 791 325.50 778Q338 765 356.50 765Q375 765 388 778Q401 791 401 810Q401 829 388 841.50Q375 854 356.50 854Q338 854 325.50 841.50Q313 829 313 810Z"  horiz-adv-x="716" vert-adv-y="1000"  />

      
      <glyph glyph-name="unic6" unicode="&#xc6;" d="M751 65Q840 65 916 107Q992 149 1045 218L1080 198L984-3L418-3L418 39Q466 43 481 55Q496 67 496 108L496 189L239 189L182 107Q162 78 174 60.50Q186 43 226 39L226-3L-2-3L-2 39Q27 42 51 57Q75 72 100 108L468 631Q449 641 393 646L393 688L981 688L1038 509L1002 493Q954 560 893 590.50Q832 621 741 621L700 621Q686 621 678 613Q670 605 670 591L670 391L786 391Q835 391 851.50 412Q868 433 869 476L916 476L916 239L869 239Q868 282 851.50 303Q835 324 786 324L670 324L670 94Q670 81 678 73Q686 65 700 65L751 65M288 257L496 257L496 552L288 257Z"  horiz-adv-x="1090" vert-adv-y="1000"  />

      
      <glyph glyph-name="unic7" unicode="&#xc7;" d="M413-59Q446-59 466.50-75.50Q487-92 487-121Q487-162 447-193Q407-224 346-224Q296-224 262.50-203Q229-182 229-153Q229-139 239-128Q249-117 264-117Q281-117 291.50-127Q302-137 306-148.50Q310-160 321.50-170Q333-180 354-180Q377-180 391-168Q405-156 405-136Q405-123 395.50-115Q386-107 372-107Q354-107 342-118L310-104L349-16Q206-6 120.50 91Q35 188 35 343Q35 506 129.50 604.50Q224 703 378 703Q472 703 538 658L552 688L599 688L647 489L607 477Q571 550 516 594.50Q461 639 396 639Q222 639 222 343Q222 275 231 223.50Q240 172 259.50 131Q279 90 313.50 68.50Q348 47 396 47Q474 47 528.50 95Q583 143 604 213L669 192Q600 0 411-15L389-64Q401-59 413-59Z"  horiz-adv-x="694" vert-adv-y="1000"  />

      
      <glyph glyph-name="unic8" unicode="&#xc8;" d="M359 65Q447 65 523 107Q599 149 652 218L687 198L591-3L24-3L24 39Q73 43 87.50 55Q102 67 102 108L102 577Q102 619 88 631Q74 643 24 646L24 688L588 688L646 509L609 493Q562 560 501 590.50Q440 621 349 621L307 621Q293 621 285 612.50Q277 604 277 591L277 391L393 391Q442 391 459 412Q476 433 477 476L523 476L523 239L477 239Q476 282 459 303Q442 324 393 324L277 324L277 94Q277 81 285 73Q293 65 307 65L359 65M313 878L396 725L338 725L207 841Q196 850 191 855Q186 860 182 866.50Q178 873 178 879Q178 899 198 899L280 899Q305 899 313 878Z"  horiz-adv-x="694" vert-adv-y="1000"  />

      
      <glyph glyph-name="unic9" unicode="&#xc9;" d="M359 65Q447 65 523 107Q599 149 652 218L687 198L591-3L24-3L24 39Q73 43 87.50 55Q102 67 102 108L102 577Q102 619 88 631Q74 643 24 646L24 688L588 688L646 509L609 493Q562 560 501 590.50Q440 621 349 621L307 621Q293 621 285 612.50Q277 604 277 591L277 391L393 391Q442 391 459 412Q476 433 477 476L523 476L523 239L477 239Q476 282 459 303Q442 324 393 324L277 324L277 94Q277 81 285 73Q293 65 307 65L359 65M318 725L400 878Q411 899 434 899L517 899Q536 899 536 879Q536 877 536 875Q536 873 535.50 871.50Q535 870 533.50 868Q532 866 531 864.50Q530 863 528 861Q526 859 525 857.50Q524 856 521 853.50Q518 851 517 849.50Q516 848 512.50 845Q509 842 508 841L376 725L318 725Z"  horiz-adv-x="694" vert-adv-y="1000"  />

      
      <glyph glyph-name="unica" unicode="&#xca;" d="M359 65Q447 65 523 107Q599 149 652 218L687 198L591-3L24-3L24 39Q73 43 87.50 55Q102 67 102 108L102 577Q102 619 88 631Q74 643 24 646L24 688L588 688L646 509L609 493Q562 560 501 590.50Q440 621 349 621L307 621Q293 621 285 612.50Q277 604 277 591L277 391L393 391Q442 391 459 412Q476 433 477 476L523 476L523 239L477 239Q476 282 459 303Q442 324 393 324L277 324L277 94Q277 81 285 73Q293 65 307 65L359 65M186 723L288 877Q303 900 325 900L368 900Q390 900 405 877L507 723L449 723L346 812L244 723L186 723Z"  horiz-adv-x="694" vert-adv-y="1000"  />

      
      <glyph glyph-name="unicb" unicode="&#xcb;" d="M359 65Q447 65 523 107Q599 149 652 218L687 198L591-3L24-3L24 39Q73 43 87.50 55Q102 67 102 108L102 577Q102 619 88 631Q74 643 24 646L24 688L588 688L646 509L609 493Q562 560 501 590.50Q440 621 349 621L307 621Q293 621 285 612.50Q277 604 277 591L277 391L393 391Q442 391 459 412Q476 433 477 476L523 476L523 239L477 239Q476 282 459 303Q442 324 393 324L277 324L277 94Q277 81 285 73Q293 65 307 65L359 65M168 833Q168 861 187 881.50Q206 902 239 902Q272 902 291.50 881.50Q311 861 311 833Q311 807 291.50 787Q272 767 239 767Q206 767 187 786.50Q168 806 168 833M372 833Q372 861 391.50 881.50Q411 902 444 902Q476 902 496 881Q516 860 516 833Q516 807 496 787Q476 767 444 767Q411 767 391.50 787Q372 807 372 833Z"  horiz-adv-x="694" vert-adv-y="1000"  />

      
      <glyph glyph-name="unicc" unicode="&#xcc;" d="M149 878L232 725L174 725L43 841Q32 850 27 855Q22 860 18 866.50Q14 873 14 879Q14 899 34 899L116 899Q140 899 149 878M352-3L22-3L22 39Q71 43 85.50 55Q100 67 100 108L100 577Q100 619 85.50 631Q71 643 22 646L22 688L352 688L352 646Q303 643 288.50 631Q274 619 274 577L274 108Q274 67 289 55Q304 43 352 39L352-3Z"  horiz-adv-x="372" vert-adv-y="1000"  />

      
      <glyph glyph-name="unicd" unicode="&#xcd;" d="M352-3L22-3L22 39Q71 43 85.50 55Q100 67 100 108L100 577Q100 619 85.50 631Q71 643 22 646L22 688L352 688L352 646Q303 643 288.50 631Q274 619 274 577L274 108Q274 67 289 55Q304 43 352 39L352-3M156 725L238 878Q248 899 272 899L354 899Q374 899 374 879Q374 877 373.50 875Q373 873 372.50 871.50Q372 870 371 868Q370 866 369 864.50Q368 863 366 861Q364 859 363 857.50Q362 856 359 853.50Q356 851 355 849.50Q354 848 350.50 845Q347 842 346 841L213 725L156 725Z"  horiz-adv-x="372" vert-adv-y="1000"  />

      
      <glyph glyph-name="unice" unicode="&#xce;" d="M352-3L22-3L22 39Q71 43 85.50 55Q100 67 100 108L100 577Q100 619 85.50 631Q71 643 22 646L22 688L352 688L352 646Q303 643 288.50 631Q274 619 274 577L274 108Q274 67 289 55Q304 43 352 39L352-3M28 723L130 877Q145 900 167 900L209 900Q231 900 247 877L348 723L290 723L188 812L86 723L28 723Z"  horiz-adv-x="372" vert-adv-y="1000"  />

      
      <glyph glyph-name="unicf" unicode="&#xcf;" d="M14 833Q14 861 33 881.50Q52 902 85 902Q118 902 137.50 881.50Q157 861 157 833Q157 807 137.50 787Q118 767 85 767Q52 767 33 786.50Q14 806 14 833M352-3L22-3L22 39Q71 43 85.50 55Q100 67 100 108L100 577Q100 619 85.50 631Q71 643 22 646L22 688L352 688L352 646Q303 643 288.50 631Q274 619 274 577L274 108Q274 67 289 55Q304 43 352 39L352-3M218 833Q218 861 237.50 881.50Q257 902 290 902Q323 902 342.50 881Q362 860 362 833Q362 807 342.50 787Q323 767 290 767Q257 767 237.50 787Q218 807 218 833Z"  horiz-adv-x="372" vert-adv-y="1000"  />

      
      <glyph glyph-name="unid0" unicode="&#xd0;" d="M24 324L24 391L102 391L102 577Q102 619 88 631Q74 643 25 646L25 688L354 688Q539 688 637.50 597.50Q736 507 736 343Q736 179 636.50 88Q537-3 352-3L25-3L25 39Q73 43 87.50 55Q102 67 102 108L102 324L24 324M548 343Q548 490 499 555.50Q450 621 354 621L307 621Q293 621 285 612.50Q277 604 277 591L277 391L358 391L358 324L277 324L277 94Q277 81 285 73Q293 65 307 65L352 65Q448 65 498 130.50Q548 196 548 343Z"  horiz-adv-x="772" vert-adv-y="1000"  />

      
      <glyph glyph-name="unid1" unicode="&#xd1;" d="M257-3L24-3L24 39Q73 43 87.50 55Q102 67 102 108L102 577Q102 619 88 631Q74 643 24 646L24 688L292 688L554 278L554 577Q554 619 540 631Q526 643 476 646L476 688L707 688L707 646Q658 643 644 631Q630 619 630 577L630-3L525-3L178 541L178 108Q178 67 193 55Q208 43 257 39L257-3M514 885Q510 821 483.50 793.50Q457 766 422 766Q393 766 353.50 789Q314 812 297 812Q283 812 272.50 802Q262 792 258 773L211 773Q214 837 240.50 865Q267 893 303 893Q332 893 372.50 870Q413 847 430 847Q444 847 454.50 856.50Q465 866 468 885L514 885Z"  horiz-adv-x="726" vert-adv-y="1000"  />

      
      <glyph glyph-name="unid2" unicode="&#xd2;" d="M132 80.50Q132 80.50 84 129.25Q36 178 36 342.50Q36 507 132 605Q228 703 395 703Q562 703 657.50 605.50Q753 508 753 343Q753 178 657.50 80.50Q562-17 395-17Q228-17 132 80.50M356 878L438 725L380 725L249 841Q238 850 233 855Q228 860 224 866.50Q220 873 220 879Q220 899 240 899L322 899Q347 899 356 878M231.50 462Q231.50 462 227.25 436.50Q223 411 223 343Q223 275 231.50 223.50Q240 172 259 131Q278 90 312 68.50Q346 47 395 47Q444 47 478 68.50Q512 90 531 131Q550 172 558 223.50Q566 275 566 343Q566 411 558 462Q550 513 531 554.50Q512 596 478 617.50Q444 639 395 639Q346 639 312 617.50Q278 596 259 554.50Q240 513 231.50 462Z"  horiz-adv-x="790" vert-adv-y="1000"  />

      
      <glyph glyph-name="unid3" unicode="&#xd3;" d="M132 80.50Q132 80.50 84 129.25Q36 178 36 342.50Q36 507 132 605Q228 703 395 703Q562 703 657.50 605.50Q753 508 753 343Q753 178 657.50 80.50Q562-17 395-17Q228-17 132 80.50M231.50 462Q231.50 462 227.25 436.50Q223 411 223 343Q223 275 231.50 223.50Q240 172 259 131Q278 90 312 68.50Q346 47 395 47Q444 47 478 68.50Q512 90 531 131Q550 172 558 223.50Q566 275 566 343Q566 411 558 462Q550 513 531 554.50Q512 596 478 617.50Q444 639 395 639Q346 639 312 617.50Q278 596 259 554.50Q240 513 231.50 462M362 725L444 878Q455 899 478 899L561 899Q580 899 580 879Q580 877 580 875Q580 873 579.50 871.50Q579 870 577.50 868Q576 866 575 864.50Q574 863 572 861Q570 859 569 857.50Q568 856 565.50 853.50Q563 851 561.50 849.50Q560 848 556.50 845Q553 842 552 841L420 725L362 725Z"  horiz-adv-x="790" vert-adv-y="1000"  />

      
      <glyph glyph-name="unid4" unicode="&#xd4;" d="M132 80.50Q132 80.50 84 129.25Q36 178 36 342.50Q36 507 132 605Q228 703 395 703Q562 703 657.50 605.50Q753 508 753 343Q753 178 657.50 80.50Q562-17 395-17Q228-17 132 80.50M231.50 462Q231.50 462 227.25 436.50Q223 411 223 343Q223 275 231.50 223.50Q240 172 259 131Q278 90 312 68.50Q346 47 395 47Q444 47 478 68.50Q512 90 531 131Q550 172 558 223.50Q566 275 566 343Q566 411 558 462Q550 513 531 554.50Q512 596 478 617.50Q444 639 395 639Q346 639 312 617.50Q278 596 259 554.50Q240 513 231.50 462M234 723L336 877Q351 900 373 900L416 900Q438 900 453 877L555 723L497 723L394 812L292 723L234 723Z"  horiz-adv-x="790" vert-adv-y="1000"  />

      
      <glyph glyph-name="unid5" unicode="&#xd5;" d="M132 80.50Q132 80.50 84 129.25Q36 178 36 342.50Q36 507 132 605Q228 703 395 703Q562 703 657.50 605.50Q753 508 753 343Q753 178 657.50 80.50Q562-17 395-17Q228-17 132 80.50M231.50 462Q231.50 462 227.25 436.50Q223 411 223 343Q223 275 231.50 223.50Q240 172 259 131Q278 90 312 68.50Q346 47 395 47Q444 47 478 68.50Q512 90 531 131Q550 172 558 223.50Q566 275 566 343Q566 411 558 462Q550 513 531 554.50Q512 596 478 617.50Q444 639 395 639Q346 639 312 617.50Q278 596 259 554.50Q240 513 231.50 462M546 885Q543 821 516 793.50Q489 766 454 766Q425 766 385.50 789Q346 812 329 812Q315 812 304.50 802Q294 792 290 773L243 773Q246 837 273 865Q300 893 335 893Q364 893 404.50 870Q445 847 462 847Q494 847 501 885L546 885Z"  horiz-adv-x="790" vert-adv-y="1000"  />

      
      <glyph glyph-name="unid6" unicode="&#xd6;" d="M132 80.50Q132 80.50 84 129.25Q36 178 36 342.50Q36 507 132 605Q228 703 395 703Q562 703 657.50 605.50Q753 508 753 343Q753 178 657.50 80.50Q562-17 395-17Q228-17 132 80.50M220 833Q220 861 239 881.50Q258 902 291 902Q324 902 343.50 881.50Q363 861 363 833Q363 807 343.50 787Q324 767 291.50 767Q259 767 239.50 786.50Q220 806 220 833M231.50 462Q231.50 462 227.25 436.50Q223 411 223 343Q223 275 231.50 223.50Q240 172 259 131Q278 90 312 68.50Q346 47 395 47Q444 47 478 68.50Q512 90 531 131Q550 172 558 223.50Q566 275 566 343Q566 411 558 462Q550 513 531 554.50Q512 596 478 617.50Q444 639 395 639Q346 639 312 617.50Q278 596 259 554.50Q240 513 231.50 462M425 833Q425 861 444.50 881.50Q464 902 497 902Q529 902 549 881Q569 860 569 833Q569 807 549 787Q529 767 497 767Q464 767 444.50 787Q425 807 425 833Z"  horiz-adv-x="790" vert-adv-y="1000"  />

      
      <glyph glyph-name="unid7" unicode="&#xd7;" d="M112 131L68 176L239 346L68 517L112 561L283 391L455 561L499 517L327 346L499 175L455 130L283 302L112 131Z"  horiz-adv-x="567" vert-adv-y="1000"  />

      
      <glyph glyph-name="unid8" unicode="&#xd8;" d="M36 343Q36 507 131.50 605Q227 703 395 703Q524 703 615 640L657 688L737 688L661 601Q753 505 753 343Q753 178 657.50 80.50Q562-17 395-17Q262-17 173 46L130-3L51-3L127 84Q36 181 36 343M223 343Q223 261 234 206L534 548Q492 640 395 640Q346 640 311.50 618Q277 596 258 554.50Q239 513 231 462Q223 411 223 343M565 343Q565 424 554 480L254 138Q296 47 395 47Q443 47 477.50 68.50Q512 90 530.50 131Q549 172 557 223.50Q565 275 565 343Z"  horiz-adv-x="790" vert-adv-y="1000"  />

      
      <glyph glyph-name="unid9" unicode="&#xd9;" d="M271 577L271 205Q271 128 317 91Q363 54 431 54Q509 54 552 97Q595 140 595 221L595 577Q595 619 580.50 631Q566 643 517 646L517 688L749 688L749 646Q700 643 685.50 631Q671 619 671 577L671 221Q671 104 598 43.50Q525-17 397-17Q252-17 174.50 44Q97 105 97 221L97 577Q97 619 82.50 631Q68 643 19 646L19 688L349 688L349 646Q300 643 285.50 631Q271 619 271 577M392 878L475 725L416 725L285 841Q274 850 269.50 855Q265 860 261 866.50Q257 873 257 879Q257 899 276 899L358 899Q383 899 392 878Z"  horiz-adv-x="767" vert-adv-y="1000"  />

      
      <glyph glyph-name="unida" unicode="&#xda;" d="M271 577L271 205Q271 128 317 91Q363 54 431 54Q509 54 552 97Q595 140 595 221L595 577Q595 619 580.50 631Q566 643 517 646L517 688L749 688L749 646Q700 643 685.50 631Q671 619 671 577L671 221Q671 104 598 43.50Q525-17 397-17Q252-17 174.50 44Q97 105 97 221L97 577Q97 619 82.50 631Q68 643 19 646L19 688L349 688L349 646Q300 643 285.50 631Q271 619 271 577M393 725L475 878Q485 899 508 899L591 899Q611 899 611 879Q611 867 586 845Q584 842 582 841L450 725L393 725Z"  horiz-adv-x="767" vert-adv-y="1000"  />

      
      <glyph glyph-name="unidb" unicode="&#xdb;" d="M271 580L271 207Q271 131 317 93.50Q363 56 431 56Q509 56 552 99Q595 142 595 224L595 580Q595 622 580.50 633.50Q566 645 517 649L517 690L749 690L749 649Q700 645 685.50 633.50Q671 622 671 580L671 224Q671 107 598 46Q525-15 397-15Q252-15 174.50 46Q97 107 97 224L97 580Q97 622 82.50 633.50Q68 645 19 649L19 690L349 690L349 649Q300 645 285.50 633.50Q271 622 271 580M223 726L325 880Q340 902 362 902L405 902Q427 902 442 880L544 726L486 726L383 815L281 726L223 726Z"  horiz-adv-x="767" vert-adv-y="1000"  />

      
      <glyph glyph-name="unidc" unicode="&#xdc;" d="M271 580L271 207Q271 131 317 93.50Q363 56 431 56Q509 56 552 99Q595 142 595 224L595 580Q595 622 580.50 633.50Q566 645 517 649L517 690L749 690L749 649Q700 645 685.50 633.50Q671 622 671 580L671 224Q671 107 598 46Q525-15 397-15Q252-15 174.50 46Q97 107 97 224L97 580Q97 622 82.50 633.50Q68 645 19 649L19 690L349 690L349 649Q300 645 285.50 633.50Q271 622 271 580M258 835Q258 863 277 883.50Q296 904 329 904Q362 904 381.50 883.50Q401 863 401 835Q401 809 381.50 789Q362 769 329 769Q296 769 277 789Q258 809 258 835M462 835Q462 863 481.50 883.50Q501 904 534 904Q566 904 586 883.50Q606 863 606 835Q606 809 586 789Q566 769 534 769Q501 769 481.50 789Q462 809 462 835Z"  horiz-adv-x="767" vert-adv-y="1000"  />

      
      <glyph glyph-name="unidd" unicode="&#xdd;" d="M174 41Q223 45 237.50 57Q252 69 252 110L252 250L74 580Q54 619 39.50 632Q25 645-4 649L-4 690L316 690L316 649Q273 645 263 625.50Q253 606 273 571L392 349L513 573Q534 612 523.50 628.50Q513 645 470 649L470 690L679 690L679 649Q652 645 637.50 632Q623 619 602 580L426 255L426 110Q426 69 441 57Q456 45 504 41L504 0L174 0L174 41M363 728L445 881Q456 901 479 901L562 901Q581 901 581 882Q581 870 557 847Q554 845 553 843L421 728L363 728Z"  horiz-adv-x="677" vert-adv-y="1000"  />

      
      <glyph glyph-name="unide" unicode="&#xde;" d="M20 690L350 690L350 649Q301 645 286.50 633.50Q272 622 272 580L272 543L360 543Q524 543 604.50 503Q685 463 685 361Q685 255 604.50 214Q524 173 357 173L272 173L272 110Q272 69 287 57Q302 45 350 41L350 0L20 0L20 41Q69 45 83.50 57Q98 69 98 110L98 580Q98 622 83.50 633.50Q69 645 20 649L20 690M497 361Q497 426 463 451Q429 476 360 476L272 476L272 241L357 241Q427 241 462 268Q497 295 497 361Z"  horiz-adv-x="701" vert-adv-y="1000"  />

      
      <glyph glyph-name="unidf" unicode="&#xdf;" d="M23 393L23 456L78 456L78 468Q78 584 148.50 645.50Q219 707 331 707Q424 707 480 667Q536 627 536 563Q536 522 508 490.50Q480 459 428 445Q525 429 581.50 374Q638 319 638 218Q638 117 577.50 52Q517-13 422-13Q355-13 310 26Q265 65 265 123Q265 154 281 171Q297 188 323 188Q350 188 367.50 170Q385 152 386 112Q389 78 396.50 61Q404 44 423 44Q456 44 469.50 87.50Q483 131 483 216Q483 318 437.50 357.50Q392 397 308 397L279 397L279 456Q337 456 366.50 486Q396 516 396 563Q396 598 376 623Q356 648 319 648Q229 648 229 546L229 87Q229 65 238.50 56Q248 47 271 43L271 2L23 2L23 43Q56 47 67 55.50Q78 64 78 87L78 393L23 393Z"  horiz-adv-x="668" vert-adv-y="1000"  />

      
      <glyph glyph-name="unie0" unicode="&#xe0;" d="M423-12Q334-12 320 49Q238-13 161-13Q101-13 64.50 18Q28 49 28 99Q28 133 45 161Q62 189 88 207Q114 225 155 240.50Q196 256 232 264.50Q268 273 317 282L317 328Q317 376 306.50 393.50Q296 411 265 411Q237 411 220 395.50Q203 380 192 345Q172 286 115 286Q89 286 74 301.50Q59 317 59 347Q59 401 121 435Q183 469 280 469Q320 469 352.50 461.50Q385 454 412 437Q439 420 454 390.50Q469 361 469 321L469 93Q469 56 495 56Q510 56 524 63L524 13Q483-12 423-12M237 661L320 508L262 508L131 623Q120 633 115 638Q110 643 106 649Q102 655 102 662Q102 681 122 681L204 681Q228 681 237 661M238 78Q276 78 317 106L317 225Q251 212 217.50 190.50Q184 169 184 131Q184 105 199 91.50Q214 78 238 78Z"  horiz-adv-x="547" vert-adv-y="1000"  />

      
      <glyph glyph-name="unie1" unicode="&#xe1;" d="M423-12Q334-12 320 49Q238-13 161-13Q101-13 64.50 18Q28 49 28 99Q28 133 45 161Q62 189 88 207Q114 225 155 240.50Q196 256 232 264.50Q268 273 317 282L317 328Q317 376 306.50 393.50Q296 411 265 411Q237 411 220 395.50Q203 380 192 345Q172 286 115 286Q89 286 74 301.50Q59 317 59 347Q59 401 121 435Q183 469 280 469Q320 469 352.50 461.50Q385 454 412 437Q439 420 454 390.50Q469 361 469 321L469 93Q469 56 495 56Q510 56 524 63L524 13Q483-12 423-12M238 78Q276 78 317 106L317 225Q251 212 217.50 190.50Q184 169 184 131Q184 105 199 91.50Q214 78 238 78M238 508L320 661Q330 681 353 681L436 681Q456 681 456 662Q456 650 431 627Q429 624 427 623L295 508L238 508Z"  horiz-adv-x="547" vert-adv-y="1000"  />

      
      <glyph glyph-name="unie2" unicode="&#xe2;" d="M422-12Q334-12 320 49Q238-13 161-13Q101-13 64.50 18Q28 49 28 99Q28 133 45 161Q62 189 88 207Q114 225 155 240.50Q196 256 232 264.50Q268 273 317 282L317 328Q317 376 306.50 393.50Q296 411 265 411Q237 411 220 395.50Q203 380 192 345Q172 286 115 286Q89 286 74 301.50Q59 317 59 347Q59 401 121 435Q183 469 280 469Q320 469 352.50 461.50Q385 454 412 437Q439 420 454 390.50Q469 361 469 321L469 93Q469 56 495 56Q510 56 524 63L524 13Q483-12 422-12M120 506L221 660Q237 682 259 682L301 682Q323 682 339 660L440 506L382 506L279 595L178 506L120 506M238 78Q276 78 317 106L317 225Q251 212 217.50 190.50Q184 169 184 131Q184 105 199 91.50Q214 78 238 78Z"  horiz-adv-x="547" vert-adv-y="1000"  />

      
      <glyph glyph-name="unie3" unicode="&#xe3;" d="M423-12Q334-12 320 49Q238-13 161-13Q101-13 64.50 18Q28 49 28 99Q28 133 45 161Q62 189 88 207Q114 225 155 240.50Q196 256 232 264.50Q268 273 317 282L317 328Q317 376 306.50 393.50Q296 411 265 411Q237 411 220 395.50Q203 380 192 345Q172 286 115 286Q89 286 74 301.50Q59 317 59 347Q59 401 121 435Q183 469 280 469Q320 469 352.50 461.50Q385 454 412 437Q439 420 454 390.50Q469 361 469 321L469 93Q469 56 495 56Q510 56 524 63L524 13Q483-12 423-12M430 668Q427 604 400.50 576Q374 548 339 548Q310 548 270.50 571.50Q231 595 213 595Q200 595 189 585Q178 575 175 555L128 555Q131 620 157.50 647.50Q184 675 219 675Q248 675 288.50 652Q329 629 347 629Q360 629 371 638.50Q382 648 385 668L430 668M238 78Q276 78 317 106L317 225Q251 212 217.50 190.50Q184 169 184 131Q184 105 199 91.50Q214 78 238 78Z"  horiz-adv-x="547" vert-adv-y="1000"  />

      
      <glyph glyph-name="unie4" unicode="&#xe4;" d="M422-12Q334-12 320 49Q238-13 161-13Q101-13 64.50 18Q28 49 28 99Q28 133 45 161Q62 189 88 207Q114 225 155 240.50Q196 256 232 264.50Q268 273 317 282L317 328Q317 376 306.50 393.50Q296 411 265 411Q237 411 220 395.50Q203 380 192 345Q172 286 115 286Q89 286 74 301.50Q59 317 59 347Q59 401 121 435Q183 469 280 469Q320 469 352.50 461.50Q385 454 412 437Q439 420 454 390.50Q469 361 469 321L469 93Q469 56 495 56Q510 56 524 63L524 13Q483-12 422-12M106 615Q106 643 125 663.50Q144 684 177 684Q210 684 229.50 663.50Q249 643 249 615Q249 589 229.50 569Q210 549 177 549Q144 549 125 569Q106 589 106 615M238 78Q276 78 317 106L317 225Q251 212 217.50 190.50Q184 169 184 131Q184 105 199 91.50Q214 78 238 78M310 615Q310 643 329.50 663.50Q349 684 382 684Q415 684 434.50 663.50Q454 643 454 615Q454 589 434 569Q414 549 382 549Q349 549 329.50 569Q310 589 310 615Z"  horiz-adv-x="547" vert-adv-y="1000"  />

      
      <glyph glyph-name="unie5" unicode="&#xe5;" d="M423-12Q334-12 320 49Q238-13 161-13Q101-13 64.50 18Q28 49 28 99Q28 133 45 161Q62 189 88 207Q114 225 155 240.50Q196 256 232 264.50Q268 273 317 282L317 328Q317 376 306.50 393.50Q296 411 265 411Q237 411 220 395.50Q203 380 192 345Q172 286 115 286Q89 286 74 301.50Q59 317 59 347Q59 401 121 435Q183 469 280 469Q320 469 352.50 461.50Q385 454 412 437Q439 420 454 390.50Q469 361 469 321L469 93Q469 56 495 56Q510 56 524 63L524 13Q483-12 423-12M203.50 537.50Q203.50 537.50 188.75 551.75Q174 566 174 606Q174 646 203.50 675.50Q233 705 274 705Q315 705 344 676Q373 647 373 606.50Q373 566 344 537.50Q315 509 274 509Q233 509 203.50 537.50M238 78Q276 78 317 106L317 225Q251 212 217.50 190.50Q184 169 184 131Q184 105 199 91.50Q214 78 238 78M230 606Q230 587 242.50 574Q255 561 273.50 561Q292 561 305 574Q318 587 318 606Q318 625 305 638Q292 651 273.50 651Q255 651 242.50 638Q230 625 230 606Z"  horiz-adv-x="547" vert-adv-y="1000"  />

      
      <glyph glyph-name="unie6" unicode="&#xe6;" d="M283 469Q377 469 415 410Q472 469 561 469Q666 469 723.50 411.50Q781 354 781 253L474 253Q473 244 473 228Q473 139 502 95Q531 51 595 51Q638 51 676 79.50Q714 108 740 161L794 130Q760 60 708 22.50Q656-15 576-15Q437-15 367 71Q263-13 163-13Q103-13 66.50 18Q30 49 30 99Q30 133 47 161Q64 189 90 207Q116 225 157 240.50Q198 256 234 264.50Q270 273 319 282L319 328Q319 376 308.50 393.50Q298 411 267 411Q239 411 221.50 395.50Q204 380 194 345Q174 286 117 286Q91 286 76 301.50Q61 317 61 347Q61 402 123 435.50Q185 469 283 469M342 114Q319 161 319 225Q253 212 219.50 190.50Q186 169 186 131Q186 105 201 91.50Q216 78 240 78Q285 78 342 114M564 410Q524 410 504 387Q484 364 477 316L637 316Q637 360 617 385Q597 410 564 410Z"  horiz-adv-x="821" vert-adv-y="1000"  />

      
      <glyph glyph-name="unie7" unicode="&#xe7;" d="M318-56Q352-56 372-73Q392-90 392-119Q392-159 352-190Q312-221 251-221Q201-221 168-200Q135-179 135-151Q135-137 145-126Q155-115 169-115Q186-115 196.50-124.50Q207-134 211-146Q215-158 227-168Q239-178 259-178Q282-178 296-166Q310-154 310-133Q310-121 300.50-113Q291-105 278-105Q259-105 247-116L215-102L254-14Q150-5 89 61Q28 127 28 228Q28 333 95.50 401Q163 469 270 469Q355 469 409.50 434.50Q464 400 464 348Q464 317 445 299Q426 281 398 281Q370 281 351.50 297Q333 313 328 344Q322 377 309 393.50Q296 410 270 410Q222 410 203 365Q184 320 184 228Q184 51 306 51Q390 51 436 161L491 130Q463 67 421 31Q379-5 316-13L294-61Q306-56 318-56Z"  horiz-adv-x="501" vert-adv-y="1000"  />

      
      <glyph glyph-name="unie8" unicode="&#xe8;" d="M185 253Q184 244 184 228Q184 139 213 95Q242 51 306 51Q349 51 387 79.50Q425 108 451 161L505 130Q471 60 419.50 22.50Q368-15 287-15Q167-15 97.50 52.50Q28 120 28 228Q28 333 96 401Q164 469 272 469Q377 469 434.50 411.50Q492 354 492 253L185 253M228 650L311 497L253 497L122 612Q106 626 99.50 634Q93 642 93 651Q93 670 113 670L195 670Q219 670 228 650M275 410Q235 410 215 387Q195 364 188 316L349 316Q349 360 328.50 385Q308 410 275 410Z"  horiz-adv-x="530" vert-adv-y="1000"  />

      
      <glyph glyph-name="unie9" unicode="&#xe9;" d="M185 253Q184 244 184 228Q184 139 213 95Q242 51 306 51Q349 51 387 79.50Q425 108 451 161L505 130Q471 60 419.50 22.50Q368-15 287-15Q167-15 97.50 52.50Q28 120 28 228Q28 333 96 401Q164 469 272 469Q377 469 434.50 411.50Q492 354 492 253L185 253M275 410Q235 410 215 387Q195 364 188 316L348 316Q348 360 328 385Q308 410 275 410M229 497L311 650Q321 670 345 670L427 670Q447 670 447 651Q447 639 423 616Q420 614 419 612L286 497L229 497Z"  horiz-adv-x="530" vert-adv-y="1000"  />

      
      <glyph glyph-name="uniea" unicode="&#xea;" d="M185 253Q184 244 184 228Q184 139 213 95Q242 51 306 51Q349 51 387 79.50Q425 108 451 161L505 130Q471 60 419.50 22.50Q368-15 287-15Q167-15 97.50 52.50Q28 120 28 228Q28 333 96 401Q164 469 272 469Q377 469 434.50 411.50Q492 354 492 253L185 253M117 495L218 649Q234 671 256 671L298 671Q320 671 336 649L437 495L379 495L277 584L175 495L117 495M275 410Q235 410 215 387Q195 364 188 316L349 316Q349 360 328.50 385Q308 410 275 410Z"  horiz-adv-x="530" vert-adv-y="1000"  />

      
      <glyph glyph-name="unieb" unicode="&#xeb;" d="M185 253Q184 244 184 228Q184 139 213 95Q242 51 306 51Q349 51 387 79.50Q425 108 451 161L505 130Q471 60 419.50 22.50Q368-15 287-15Q167-15 97.50 52.50Q28 120 28 228Q28 333 96 401Q164 469 272 469Q377 469 434.50 411.50Q492 354 492 253L185 253M104 604Q104 632 123 652.50Q142 673 175 673Q208 673 227.50 652.50Q247 632 247 604Q247 578 227.50 558Q208 538 175 538Q142 538 123 558Q104 578 104 604M275 410Q235 410 215 387Q195 364 188 316L349 316Q349 360 328.50 385Q308 410 275 410M308 604Q308 632 327.50 652.50Q347 673 380 673Q413 673 432.50 652.50Q452 632 452 604Q452 578 432 558Q412 538 380 538Q347 538 327.50 558Q308 578 308 604Z"  horiz-adv-x="530" vert-adv-y="1000"  />

      
      <glyph glyph-name="uniec" unicode="&#xec;" d="M112 650L195 497L137 497L6 612Q-5 622-10 627Q-15 632-19 638.50Q-23 645-23 651Q-23 670-3 670L79 670Q103 670 112 650M282 0L20 0L20 41Q54 45 65 53.50Q76 62 76 85L76 318Q76 348 51 348L20 348L20 386L171 469L227 469L227 85Q227 62 237.50 53.50Q248 45 282 41L282 0Z"  horiz-adv-x="303" vert-adv-y="1000"  />

      
      <glyph glyph-name="unied" unicode="&#xed;" d="M282 0L21 0L21 41Q54 45 65 53.50Q76 62 76 85L76 318Q76 348 52 348L21 348L21 386L172 469L227 469L227 85Q227 62 238 53.50Q249 45 282 41L282 0M117 497L198 650Q209 670 232 670L315 670Q335 670 335 651Q335 639 310 616Q307 614 306 612L174 497L117 497Z"  horiz-adv-x="303" vert-adv-y="1000"  />

      
      <glyph glyph-name="uniee" unicode="&#xee;" d="M-9 495L93 649Q108 671 130 671L172 671Q194 671 210 649L311 495L253 495L151 584L49 495L-9 495M282 0L21 0L21 41Q54 45 65 53.50Q76 62 76 85L76 318Q76 348 51 348L21 348L21 386L171 469L227 469L227 85Q227 62 237.50 53.50Q248 45 282 41L282 0Z"  horiz-adv-x="303" vert-adv-y="1000"  />

      
      <glyph glyph-name="unief" unicode="&#xef;" d="M-22 604Q-22 632-3 652.50Q16 673 49 673Q82 673 101.50 652.50Q121 632 121 604Q121 578 101.50 558Q82 538 49 538Q16 538-3 558Q-22 578-22 604M282 0L20 0L20 41Q54 45 65 53.50Q76 62 76 85L76 318Q76 348 51 348L20 348L20 386L171 469L226 469L226 85Q226 62 237 53.50Q248 45 282 41L282 0M182 604Q182 632 201.50 652.50Q221 673 254 673Q287 673 306.50 652.50Q326 632 326 604Q326 578 306 558Q286 538 254 538Q221 538 201.50 558Q182 578 182 604Z"  horiz-adv-x="303" vert-adv-y="1000"  />

      
      <glyph glyph-name="unif0" unicode="&#xf0;" d="M213 517L213 580L322 618Q303 667 276 705L338 705Q369 678 400 646L525 690L525 627L439 596Q541 453 541 284Q541 147 472.50 66Q404-15 287-15Q169-15 98.50 52.50Q28 120 28 227Q28 332 95.50 400.50Q163 469 266 469Q326 469 371 440Q360 512 340 562L213 517M385 240Q384 314 379 374Q340 410 286 410Q231 410 208 364.50Q185 319 185 226Q185 135 208.50 89.50Q232 44 287 44Q341 44 363 92.50Q385 141 385 240Z"  horiz-adv-x="568" vert-adv-y="1000"  />

      
      <glyph glyph-name="unif1" unicode="&#xf1;" d="M588 0L326 0L326 41Q360 45 370.50 53.50Q381 62 381 85L381 319Q381 353 364 369Q347 385 317 385Q272 385 229 356L229 85Q229 62 239.50 53.50Q250 45 284 41L284 0L22 0L22 41Q56 45 67 53.50Q78 62 78 85L78 318Q78 348 53 348L22 348L22 386L173 469L229 469L229 421Q260 442 300.50 455.50Q341 469 377 469Q532 469 532 315L532 85Q532 62 543 53.50Q554 45 588 41L588 0M456 657Q453 593 426.50 565Q400 537 365 537Q336 537 296.50 560.50Q257 584 239 584Q226 584 215.50 574Q205 564 201 544L154 544Q157 609 183.50 637Q210 665 245 665Q274 665 314.50 641.50Q355 618 373 618Q386 618 397 627.50Q408 637 411 657L456 657Z"  horiz-adv-x="611" vert-adv-y="1000"  />

      
      <glyph glyph-name="unif2" unicode="&#xf2;" d="M28 228Q28 334 98.50 401.50Q169 469 285 469Q401 469 471 401.50Q541 334 541 228Q541 121 471 53Q401-15 285-15Q169-15 98.50 53Q28 121 28 228M242 650L324 497L266 497L135 612Q124 622 119 627Q114 632 110 638.50Q106 645 106 651Q106 670 126 670L208 670Q233 670 242 650M207 364.50Q207 364.50 195.50 341.75Q184 319 184 227.50Q184 136 207 90Q230 44 285 44Q340 44 363 90Q386 136 386 227.50Q386 319 363 364.50Q340 410 285 410Q230 410 207 364.50Z"  horiz-adv-x="570" vert-adv-y="1000"  />

      
      <glyph glyph-name="unif3" unicode="&#xf3;" d="M28 228Q28 334 98.50 401.50Q169 469 285 469Q401 469 471 401.50Q541 334 541 228Q541 121 471 53Q401-15 285-15Q169-15 98.50 53Q28 121 28 228M207 364.50Q207 364.50 195.50 341.75Q184 319 184 227.50Q184 136 207 90Q230 44 285 44Q340 44 363 90Q386 136 386 227.50Q386 319 363 364.50Q340 410 285 410Q230 410 207 364.50M242 497L324 650Q335 670 358 670L441 670Q460 670 460 651Q460 639 436 616Q433 614 432 612L300 497L242 497Z"  horiz-adv-x="570" vert-adv-y="1000"  />

      
      <glyph glyph-name="unif4" unicode="&#xf4;" d="M28 228Q28 334 98.50 401.50Q169 469 285 469Q401 469 471 401.50Q541 334 541 228Q541 121 471 53Q401-15 285-15Q169-15 98.50 53Q28 121 28 228M126 495L228 649Q243 671 265 671L308 671Q330 671 345 649L447 495L389 495L286 584L184 495L126 495M207 364.50Q207 364.50 195.50 341.75Q184 319 184 227.50Q184 136 207 90Q230 44 285 44Q340 44 363 90Q386 136 386 227.50Q386 319 363 364.50Q340 410 285 410Q230 410 207 364.50Z"  horiz-adv-x="570" vert-adv-y="1000"  />

      
      <glyph glyph-name="unif5" unicode="&#xf5;" d="M28 228Q28 334 98.50 401.50Q169 469 285 469Q401 469 471 401.50Q541 334 541 228Q541 121 471 53Q401-15 285-15Q169-15 98.50 53Q28 121 28 228M438 657Q434 593 407.50 565Q381 537 346 537Q317 537 277.50 560.50Q238 584 221 584Q207 584 196.50 574Q186 564 182 544L135 544Q138 609 164.50 637Q191 665 227 665Q256 665 296.50 641.50Q337 618 354 618Q368 618 378.50 627.50Q389 637 392 657L438 657M207 364.50Q207 364.50 195.50 341.75Q184 319 184 227.50Q184 136 207 90Q230 44 285 44Q340 44 363 90Q386 136 386 227.50Q386 319 363 364.50Q340 410 285 410Q230 410 207 364.50Z"  horiz-adv-x="570" vert-adv-y="1000"  />

      
      <glyph glyph-name="unif6" unicode="&#xf6;" d="M28 228Q28 334 98.50 401.50Q169 469 285 469Q401 469 471 401.50Q541 334 541 228Q541 121 471 53Q401-15 285-15Q169-15 98.50 53Q28 121 28 228M112 604Q112 632 131 652.50Q150 673 183 673Q216 673 235.50 652.50Q255 632 255 604Q255 578 235.50 558Q216 538 183 538Q150 538 131 558Q112 578 112 604M207 364.50Q207 364.50 195.50 341.75Q184 319 184 227.50Q184 136 207 90Q230 44 285 44Q340 44 363 90Q386 136 386 227.50Q386 319 363 364.50Q340 410 285 410Q230 410 207 364.50M316 604Q316 632 335.50 652.50Q355 673 388 673Q421 673 440.50 652.50Q460 632 460 604Q460 578 440.50 558Q421 538 388 538Q356 538 336 558Q316 578 316 604Z"  horiz-adv-x="570" vert-adv-y="1000"  />

      
      <glyph glyph-name="unif7" unicode="&#xf7;" d="M12 315L12 378L555 378L555 315L12 315M213 460Q213 460 200.50 473.50Q188 487 188 524.50Q188 562 213 589Q238 616 281.50 616Q325 616 351 589Q377 562 377 525Q377 488 351 460.50Q325 433 281.50 433Q238 433 213 460M213 104Q213 104 200.50 117.50Q188 131 188 168.50Q188 206 213 233Q238 260 281.50 260Q325 260 351 233Q377 206 377 169Q377 132 351 104.50Q325 77 281.50 77Q238 77 213 104Z"  horiz-adv-x="567" vert-adv-y="1000"  />

      
      <glyph glyph-name="unif8" unicode="&#xf8;" d="M28 228Q28 334 98.50 401.50Q169 469 285 469Q370 469 433 431L455 454L533 454L478 394Q541 328 541 228Q541 121 471 53Q401-15 285-15Q199-15 137 23L115 0L35 0L91 60Q28 127 28 228M184 228Q184 193 187 165L366 358Q342 410 285 410Q230 410 207 364.50Q184 319 184 228M386 228Q386 262 383 291L204 96Q226 44 285 44Q340 44 363 90Q386 136 386 228Z"  horiz-adv-x="570" vert-adv-y="1000"  />

      
      <glyph glyph-name="unif9" unicode="&#xf9;" d="M320 348L320 386L471 469L526 469L526 85Q526 62 537 53.50Q548 45 582 41L582 0Q469 0 376-15L376 32Q301-15 227-15Q71-15 71 139L71 318Q71 348 46 348L16 348L16 386L167 469L223 469L223 135Q223 101 240.50 85Q258 69 287 69Q328 69 376 98L376 318Q376 334 370 341Q364 348 350 348L320 348M259 650L342 497L284 497L153 612Q142 622 137 627Q132 632 128 638.50Q124 645 124 651Q124 670 144 670L226 670Q250 670 259 650Z"  horiz-adv-x="605" vert-adv-y="1000"  />

      
      <glyph glyph-name="unifa" unicode="&#xfa;" d="M320 348L320 386L471 469L526 469L526 85Q526 62 537 53.50Q548 45 582 41L582 0Q469 0 376-15L376 32Q301-15 227-15Q71-15 71 139L71 318Q71 348 46 348L16 348L16 386L167 469L223 469L223 135Q223 101 240.50 85Q258 69 287 69Q328 69 376 98L376 318Q376 334 370 341Q364 348 350 348L320 348M266 497L348 650Q358 670 381 670L464 670Q484 670 484 651Q484 639 460 616Q457 614 455 612L323 497L266 497Z"  horiz-adv-x="605" vert-adv-y="1000"  />

      
      <glyph glyph-name="unifb" unicode="&#xfb;" d="M320 348L320 387L471 469L526 469L526 85Q526 62 537 53.50Q548 45 582 41L582 0Q468 0 376-15L376 33Q301-15 227-15Q71-15 71 139L71 319Q71 348 46 348L16 348L16 387L167 469L223 469L223 135Q223 101 240.50 85Q258 69 287 69Q328 69 376 99L376 319Q376 334 370 341Q364 348 350 348L320 348M138 495L239 649Q255 672 277 672L319 672Q341 672 357 649L458 495L400 495L298 584L196 495L138 495Z"  horiz-adv-x="605" vert-adv-y="1000"  />

      
      <glyph glyph-name="unifc" unicode="&#xfc;" d="M320 387L471 469L526 469L526 85Q526 62 537 53.50Q548 45 582 41L582 0Q468 0 376-15L376 33Q301-15 227-15Q71-15 71 139L71 319Q71 348 46 348L16 348L16 387L167 469L223 469L223 135Q223 101 240.50 85Q258 69 287 69Q328 69 376 99L376 319Q376 334 370 341Q364 348 350 348L320 348L320 387M124 605Q124 632 143 653Q162 674 195 674Q228 674 247.50 653Q267 632 267 605Q267 578 247.50 558.50Q228 539 195 539Q162 539 143 558.50Q124 578 124 605M328 605Q328 632 347.50 653Q367 674 400 674Q433 674 452.50 653Q472 632 472 605Q472 579 452.50 559Q433 539 400 539Q367 539 347.50 558.50Q328 578 328 605Z"  horiz-adv-x="605" vert-adv-y="1000"  />

      
      <glyph glyph-name="unifd" unicode="&#xfd;" d="M435 344L262-82Q214-196 109-196Q64-196 33-172.50Q2-149 2-111Q2-83 21-64Q40-45 69-45Q89-45 104.50-56.50Q120-68 132-80Q144-92 158-92Q186-92 203-49L212-25L62 344Q54 364 49.50 373Q45 382 38 392.50Q31 403 21.50 407.50Q12 412-2 413L-2 455L270 455L270 413Q231 410 222.50 397Q214 384 228 344L294 177L363 344Q375 369 371 384Q367 399 355 405Q343 411 319 413L319 455L502 455L502 413Q477 410 463.50 395Q450 380 435 344M256 497L338 650Q348 671 371 671L454 671Q474 671 474 651Q474 639 449 616Q447 614 445 612L313 497L256 497Z"  horiz-adv-x="499" vert-adv-y="1000"  />

      
      <glyph glyph-name="unife" unicode="&#xfe;" d="M18-182L17-140Q51-136 62-127.50Q73-119 73-98L73 554Q73 584 48 584L16 584L16 622L168 705L224 705L224 424Q275 469 352 469Q445 469 503 403Q561 337 561 228Q561 116 500 50.50Q439-15 332-15Q268-15 224 16L224-98Q224-119 234.50-127.50Q245-136 279-140L279-182L18-182M303 398Q250 399 224 358L224 96Q251 55 303 55Q357 55 381 97Q405 139 405 228Q405 316 381 357Q357 398 303 398Z"  horiz-adv-x="590" vert-adv-y="1000"  />

      
      <glyph glyph-name="uniff" unicode="&#xff;" d="M435 344L262-82Q214-196 109-196Q64-196 33-172.50Q2-149 2-111Q2-83 21-64Q40-45 69-45Q89-45 104.50-56.50Q120-68 132-80Q144-92 158-92Q186-92 203-49L212-25L62 344Q54 364 49.50 373Q45 382 38 392.50Q31 403 21.50 407.50Q12 412-2 413L-2 455L270 455L270 413Q231 410 222.50 397Q214 384 228 344L294 177L363 344Q375 369 371 384Q367 399 355 405Q343 411 319 413L319 455L502 455L502 413Q477 410 463.50 395Q450 380 435 344M76 605Q76 632 95 653Q114 674 147 674Q180 674 199.50 653Q219 632 219 605Q219 578 199.50 558.50Q180 539 147.50 539Q115 539 95.50 558.50Q76 578 76 605M281 605Q281 632 300.50 653Q320 674 353 674Q385 674 405 653Q425 632 425 605Q425 579 405 559Q385 539 353 539Q320 539 300.50 558.50Q281 578 281 605Z"  horiz-adv-x="499" vert-adv-y="1000"  />

      
      <glyph glyph-name="uni0153" unicode="&#x0153;" d="M543 254Q543 250 543 242Q543 234 543 230Q543 139 572 95Q601 51 666 51Q708 51 746.50 80Q785 109 811 161L865 130Q831 60 779 22.50Q727-15 647-15Q526-15 465 64Q407-7 302-13Q261-14 229-9Q138 6 84.50 70.50Q31 135 31 228Q31 334 101 402Q171 470 287 470Q401 470 465 391Q518 462 615 468Q657 469 683 465Q764 451 807.50 395.50Q851 340 851 254L543 254M209 364.50Q209 364.50 197.50 341.75Q186 319 186 227.50Q186 136 209 90Q232 44 287 44Q342 44 365 90Q388 136 388 227.50Q388 319 365 364.50Q342 410 287 410Q232 410 209 364.50M633 410Q594 410 574 387.50Q554 365 547 317L707 317Q707 360 687 385Q667 410 633 410Z"  horiz-adv-x="879" vert-adv-y="1000"  />

      
      <glyph glyph-name="uni0178" unicode="&#x0178;" d="M169 41Q218 45 232.50 57Q247 69 247 110L247 250L69 580Q49 619 34.50 632Q20 645-8 649L-8 690L311 690L311 649Q268 645 258 625.50Q248 606 268 571L387 349L508 573Q529 612 518.50 628.50Q508 645 465 649L465 690L674 690L674 649Q647 645 632.50 632Q618 619 597 580L422 255L422 110Q422 69 436.50 57Q451 45 499 41L499 0L169 0L169 41M158 835Q158 863 177 883.50Q196 904 229 904Q262 904 281.50 883.50Q301 863 301 835Q301 809 281.50 789Q262 769 229 769Q196 769 177 789Q158 809 158 835M362 835Q362 863 381.50 883.50Q401 904 434 904Q467 904 486.50 883.50Q506 863 506 835Q506 809 486.50 789Q467 769 434 769Q401 769 381.50 789Q362 809 362 835Z"  horiz-adv-x="667" vert-adv-y="1000"  />

      
      <glyph glyph-name="uni2014" unicode="&#x2014;" d="M19 198L19 257L834 257L834 198L19 198Z"  horiz-adv-x="853" vert-adv-y="1000"  />

      
      <glyph glyph-name="uni2018" unicode="&#x2018;" d="M201.50 536Q201.50 536 214.25 522.50Q227 509 227 471.50Q227 434 202 407Q177 380 134 380Q89 380 63.50 409Q38 438 38 482Q38 532 77 598.50Q116 665 163 710L195 684Q147 621 131 563Q176 563 201.50 536Z"  horiz-adv-x="267" vert-adv-y="1000"  />

      
      <glyph glyph-name="uni2019" unicode="&#x2019;" d="M64.50 552Q64.50 552 51.75 565.50Q39 579 39 616.50Q39 654 64 681Q89 708 133 708Q177 708 202.50 679Q228 650 228 606Q228 556 189 489.50Q150 423 103 378L72 404Q120 467 136 525Q90 525 64.50 552Z"  horiz-adv-x="267" vert-adv-y="1000"  />

      
      <glyph glyph-name="uni201A" unicode="&#x201A;" d="M44.50 14Q44.50 14 31.75 27.50Q19 41 19 78.50Q19 116 44 143.50Q69 171 113 171Q157 171 182.50 142Q208 113 208 68Q208 18 169-48Q130-114 83-160L52-133Q100-71 116-13Q70-13 44.50 14Z"  horiz-adv-x="228" vert-adv-y="1000"  />

      
      <glyph glyph-name="uni201C" unicode="&#x201C;" d="M188.50 536Q188.50 536 201.25 522.50Q214 509 214 471.50Q214 434 189 407Q164 380 120 380Q76 380 50 409Q24 438 24 482Q24 532 63.50 598.50Q103 665 150 710L181 684Q133 621 117 563Q163 563 188.50 536M415.50 536Q415.50 536 428.25 522.50Q441 509 441 471.50Q441 434 416 407Q391 380 347 380Q303 380 277 409Q251 438 251 482Q251 532 290.50 598.50Q330 665 377 710L408 684Q360 621 344 563Q390 563 415.50 536Z"  horiz-adv-x="467" vert-adv-y="1000"  />

      
      <glyph glyph-name="uni201D" unicode="&#x201D;" d="M66 552Q66 552 53 565.50Q40 579 40 616.50Q40 654 65.50 681Q91 708 134 708Q179 708 204.50 679Q230 650 230 606Q230 556 190.50 489.50Q151 423 105 378L73 404Q121 467 137 525Q92 525 66 552M292 552Q292 552 279 565.50Q266 579 266 616.50Q266 654 291 681Q316 708 360 708Q405 708 430.50 679Q456 650 456 606Q456 556 416.50 489.50Q377 423 331 378L299 404Q347 467 363 525Q318 525 292 552Z"  horiz-adv-x="497" vert-adv-y="1000"  />

      
      <glyph glyph-name="uni201E" unicode="&#x201E;" d="M66 14Q66 14 53 27.50Q40 41 40 78.50Q40 116 65.50 143.50Q91 171 134 171Q179 171 204.50 142Q230 113 230 68Q230 18 190.50-48Q151-114 105-160L73-133Q121-71 137-13Q92-13 66 14M291.50 14Q291.50 14 278.75 27.50Q266 41 266 78.50Q266 116 291 143.50Q316 171 360 171Q405 171 430.50 142Q456 113 456 68Q456 18 416.50-48Q377-114 330-160L299-133Q347-71 363-13Q317-13 291.50 14Z"  horiz-adv-x="497" vert-adv-y="1000"  />

      
      <glyph glyph-name="uni2022" unicode="&#x2022;" d="M57 138Q57 138 38 157Q19 176 19 230Q19 284 57 322.50Q95 361 149 361Q204 361 242 322.50Q280 284 280 230Q280 176 242 138Q204 100 149 100Q95 100 57 138Z"  horiz-adv-x="300" vert-adv-y="1000"  />

      
      <glyph glyph-name="uni2026" unicode="&#x2026;" d="M67.50 14.50Q67.50 14.50 54.75 28.25Q42 42 42 79Q42 116 67.50 143.50Q93 171 136.50 171Q180 171 206 143.50Q232 116 232 79Q232 42 206 14.50Q180-13 136.50-13Q93-13 67.50 14.50M331 14.50Q331 14.50 318.50 28.25Q306 42 306 79Q306 116 331 143.50Q356 171 399.50 171Q443 171 469 143.50Q495 116 495 79Q495 42 469 14.50Q443-13 399.50-13Q356-13 331 14.50M594 14.50Q594 14.50 581.50 28.25Q569 42 569 79Q569 116 594 143.50Q619 171 663 171Q707 171 733 143.50Q759 116 759 79Q759 42 733 14.50Q707-13 663-13Q619-13 594 14.50Z"  horiz-adv-x="802" vert-adv-y="1000"  />

      
      <glyph glyph-name="uni2039" unicode="&#x2039;" d="M249 31L219 9L37 188Q19 208 19 229Q19 252 37 270L219 451L249 428L163 229L249 31Z"  horiz-adv-x="268" vert-adv-y="1000"  />

      
      <glyph glyph-name="uni203A" unicode="&#x203A;" d="M49 9L19 31L105 229L19 428L49 451L231 270Q249 253 249 229Q249 208 231 188L49 9Z"  horiz-adv-x="268" vert-adv-y="1000"  />

      
      <glyph glyph-name="uni20AC" unicode="&#x20AC;" d="M29 379L29 438L81 438Q102 567 176.50 636Q251 705 352 705Q437 705 493 662.50Q549 620 549 561Q549 516 523 488.50Q497 461 458 461Q425 461 405 481Q385 501 385 527.50Q385 554 398.50 570Q412 586 433 591Q448 594 448 601Q448 618 427 631.50Q406 645 375 645Q316 645 291.50 595.50Q267 546 261 438L434 438L434 379L260 379L260 306L434 306L434 247L264 247Q272 148 301.50 100Q331 52 384 52Q471 52 517 161L571 130Q507-15 358-15Q254-15 179 52.50Q104 120 82 247L28 247L28 306L74 306Q73 319 73 345Q73 368 74 379L29 379Z"  horiz-adv-x="590" vert-adv-y="1000"  />

      
      <glyph glyph-name="uni2122" unicode="&#x2122;" d="M74 657Q74 666 65 666Q54 666 41 655.50Q28 645 19 627L4 633L22 697L38 697Q39 690 48 690L171 690Q178 690 181 696L197 696L213 633L198 627Q189 645 176 655.50Q163 666 152 666Q143 666 143 657L143 517Q143 507 147 504Q151 501 163 499L163 483L54 483L54 499Q66 501 70 504Q74 507 74 517L74 657M485 483L378 483L378 499Q390 501 393 504Q396 507 396 517L396 631L343 483L321 483L267 631L267 517Q267 507 270.50 503.50Q274 500 286 499L286 483L219 483L219 499Q230 501 234 504Q238 507 238 517L238 657Q238 666 234 669.50Q230 673 219 675L219 690L319 690L353 596L388 690L485 690L485 675Q474 673 470.50 669.50Q467 666 467 657L467 517Q467 507 470.50 504Q474 501 485 499L485 483Z"  horiz-adv-x="502" vert-adv-y="1000"  />

      

  </font>
</defs>
</svg>
