<?xml version="1.0" standalone="no"?>
  <!DOCTYPE svg PUBLIC "-//W3C//DTD SVG 1.1//EN" "http://www.w3.org/Graphics/SVG/1.1/DTD/svg11.dtd" >
  <svg>
  <metadata>
  Created by font-carrier
  </metadata>
  <defs>
  <font id="ScalySansCaps-BoldItalic" horiz-adv-x="1234" vert-adv-y="1234" >
    <font-face
      
      font-family="ScalySansCaps-BoldItalic"
      
      font-weight="400"
      
      font-stretch="normal"
      
      units-per-em="1000"
      
      ascent="0"
      
      descent="0"
      
    />
      <missing-glyph />

      

      
      <glyph glyph-name="uni21" unicode="&#x21;" d="M237 175L367 756L228 756L111 175L237 175M130-33Q166-33 194-9Q222 13 228 44Q236 74 216 98Q199 121 163 121Q129 121 99 97Q71 74 64 44Q58 15 77-10Q96-33 130-33Z"  horiz-adv-x="264" vert-adv-y="1000"  />

      
      <glyph glyph-name="uni24" unicode="&#x24;" d="M561 516L643 623Q609 647 588 658Q575 666 552 674Q546 676 527 681Q510 685 504 686Q496 688 478 688Q473 688 469 689L469 689L482 749L389 749L374 686Q297 677 232 626Q169 575 151 496Q145 469 148 444Q151 422 165 397Q182 372 203 352Q231 329 263 309L290 291L246 83Q245 83 230 86Q224 87 200 96Q193 101 186 104Q185 105 173 112Q170 115 158 123Q147 132 117 154L30 53Q45 41 64 26.50Q83 12 87 9Q91 7 122-9Q143-19 173-26Q200-31 222-32L210-89L304-89L317-27Q320-27 340-22Q345-20 357.50-17Q370-14 376-12Q390-8 407 3Q427 15 437 22Q474 48 501 89Q527 128 536 172Q545 211 536 247Q529 282 504 304Q496 315 471 332Q466 336 412 372Q410 374 404 376L403 377L445 576Q435 577 435 577Q436 576 438 576Q444 576 452 574Q457 574 465 570Q467 569 473 567.50Q479 566 483 564Q486 563 498 557Q506 554 511 550Q522 544 524 543Q530 540 561 516M350 572L311 390Q318 422 326 423Q328 423 330 421L338 416L337 417Q337 420 304 445Q277 466 284 502Q297 563 350 572M405 202Q410 193 402 162Q396 132 371 110Q347 89 342 88L378 258Q358 258 358 254Q358 253 359 251Q403 207 405 202Z"  horiz-adv-x="534" vert-adv-y="1000"  />

      
      <glyph glyph-name="uni25" unicode="&#x25;" d="M273 300Q313 300 355 316Q398 334 428 358Q462 386 484 421Q506 454 514 495Q523 536 515 570Q507 606 486 632Q464 661 431 675Q399 691 356 691Q314 691 273 675Q236 661 200 632Q171 609 145 569Q123 534 114 495Q106 456 114 420Q123 384 143 358Q163 332 197 315Q232 300 273 300M172-64L940 712L813 712L45-64L172-64M634-33Q674-33 717-17Q757-1 789 26Q822 53 844 88Q868 123 875 162Q884 203 876 237Q869 271 847 299Q825 328 792 342Q762 357 717 357Q675 357 634 341Q594 326 561 299Q529 273 506 236Q483 197 475 162Q468 123 475 87Q484 51 504 25Q525 0 559-17Q596-33 634-33M334 590Q353 590 367 583Q382 577 391 563Q402 550 405 533Q410 515 404 495Q401 476 388 456Q377 440 362 426Q348 415 329 407Q308 400 294 400Q280 400 262 407Q249 414 238 427Q228 443 224 457Q222 471 225 495Q231 518 241 534Q253 552 268 564Q284 577 300 583Q317 590 334 590M661 250Q678 257 696 257Q714 257 728 250Q743 244 752 230Q762 219 765 200Q770 182 764 162Q761 144 748 124Q734 105 722 94Q707 82 690 75Q671 68 655 68Q641 68 623 75Q610 82 598 95Q589 108 585 124Q582 142 585 162Q592 186 602 201Q615 221 628 231Q642 244 661 250Z"  horiz-adv-x="850" vert-adv-y="1000"  />

      
      <glyph glyph-name="uni26" unicode="&#x26;" d="M597 5Q614 17 622 25L665 68L602 127Q558 86 543 76Q532 69 521 69Q519 69 515 69.50Q511 70 509 70Q508 70 505.50 71Q503 72 501 72L493 80Q492 81 491 82Q492 82 516 101Q538 118 551 134Q568 152 578 176Q588 197 603 255L488 255Q481 217 474 202Q466 186 461 180Q454 171 442 161L435 156L437 157L337 302L319 329Q311 343 310 345Q308 349 308 356Q308 358 308.50 362Q309 366 309 368Q314 385 327 397Q340 409 366 409Q388 409 395 396Q404 384 399 366Q396 357 388 352Q374 344 368 341L321 320L374 244L415 263Q465 286 490 310Q515 334 521 367Q536 431 499 469Q465 506 389 506Q346 506 313 495Q278 485 251 464Q227 447 208 418Q191 391 185 366Q179 333 194 303Q213 268 214 267L199 260Q165 243 138 224Q113 205 98 186Q86 170 75 147Q70 135 64 109Q58 82 66 54Q75 29 95 10Q116-8 148-20Q179-30 222-30Q273-30 321-16Q371-1 390 12Q399 0 423-15Q449-30 490-30Q547-30 597 5M266 192L337 89L332 87Q327 85 323 84Q312 80 294 76Q293 76 268 73L241 73Q236 73 224 77Q211 83 208 86Q202 92 197 100Q194 108 196 117Q198 124 203 141Q206 148 214 158Q221 166 232 173Q243 181 264 191L266 192Z"  horiz-adv-x="625" vert-adv-y="1000"  />

      
      <glyph glyph-name="uni28" unicode="&#x28;" d="M204-265L340-265Q300-202 285-151Q272-102 266-43Q262 13 265 81Q270 147 283 210Q297 276 320 339Q343 403 374 463Q407 527 439 572Q479 628 542 686L409 686Q384 666 371 654Q361 644 349 629Q346 625 342 619.50Q338 614 333 606.50Q328 599 324 594Q321 590 309 571.50Q297 553 289 540Q237 458 201 376Q168 298 150 213Q132 127 132 47Q132-31 150-115Q159-158 160-164Q162-171 170-199Q174-209 182-227Q190-240 204-265Z"  horiz-adv-x="363" vert-adv-y="1000"  />

      
      <glyph glyph-name="uni29" unicode="&#x29;" d="M172-115Q227-29 261 51Q292 124 311 213Q329 299 329 376Q329 459 312 540Q306 573 300 594Q295 618 290 630Q286 644 278 655Q273 664 255 686L121 686Q162 624 176 572Q189 529 194 463Q200 407 195 338Q192 276 178 210Q165 150 140 81Q113 8 86-43Q54-105 21-152Q-12-200-82-265L55-265Q78-242 94-224Q110-206 119-195Q135-173 143-161Q151-150 172-115Z"  horiz-adv-x="363" vert-adv-y="1000"  />

      
      <glyph glyph-name="uni2a" unicode="&#x2a;" d="M404 471L457 680L335 680L298 471L404 471M380 399L601 458L589 567L368 492L380 399M289 399L340 492L151 567L93 458L289 399M389 200L500 271L404 438L308 376L389 200M197 200L353 376L281 436L115 270L197 200Z"  horiz-adv-x="500" vert-adv-y="1000"  />

      
      <glyph glyph-name="uni2b" unicode="&#x2b;" d="M368 188L577 188L598 285L389 285L433 494L327 494L283 285L74 285L53 188L262 188L218-20L324-20L368 188Z"  horiz-adv-x="550" vert-adv-y="1000"  />

      
      <glyph glyph-name="uni2c" unicode="&#x2c;" d="M188-22Q196-9 201 8Q205 18 209 36Q227 120 145 120Q120 120 105 115Q86 110 51 88L73-27Q72-32 67-39Q65-43 61-53Q57-61 54-66Q49-76 45-83Q43-87 28-113Q26-115 22-122Q18-129 10.50-141Q3-153-5-165L90-165L118-129Q137-103 161-67Q181-34 188-22Z"  horiz-adv-x="252" vert-adv-y="1000"  />

      
      <glyph glyph-name="uni2d" unicode="&#x2d;" d="M53 170L294 170L319 286L78 286L53 170Z"  horiz-adv-x="276" vert-adv-y="1000"  />

      
      <glyph glyph-name="uni2e" unicode="&#x2e;" d="M119-32Q154-32 182-9Q211 16 217 45Q223 75 205 98Q188 121 152 121Q115 121 88 98Q60 75 54 45Q48 14 65-9Q83-32 119-32Z"  horiz-adv-x="251" vert-adv-y="1000"  />

      
      <glyph glyph-name="uni2f" unicode="&#x2f;" d="M76-265L540 680L420 680L-44-265L76-265Z"  horiz-adv-x="409" vert-adv-y="1000"  />

      
      <glyph glyph-name="uni30" unicode="&#x30;" d="M150-6Q191-35 248-35Q305-35 358-6Q408 22 452 72Q494 121 524 188Q556 256 572 334Q589 411 586 480Q583 550 563 595Q542 645 502 673Q464 702 404 702Q346 702 294 673Q242 645 200 595Q162 552 128 480Q100 417 81 334Q64 253 67 187Q70 119 90 72Q111 24 150-6M379 586Q400 586 415 571Q431 557 440 523Q449 488 448 442Q448 396 434 334Q422 275 401 225Q380 172 359 144Q336 111 314 96Q293 81 273 81Q254 81 237 96Q222 111 213 144Q205 173 205 225Q206 271 219 334Q232 394 252 442Q276 496 294 523Q319 557 338 571Q360 586 379 586Z"  horiz-adv-x="500" vert-adv-y="1000"  />

      
      <glyph glyph-name="uni31" unicode="&#x31;" d="M193-20L325-20L474 680L204 680L179 565L317 565L193-20Z"  horiz-adv-x="499" vert-adv-y="1000"  />

      
      <glyph glyph-name="uni32" unicode="&#x32;" d="M17-20L466-20L490 95L234 95L394 253Q434 294 468 336Q503 379 521 411Q532 431 537 446Q546 468 548 485Q568 575 527 629Q489 682 396 682Q342 682 297 665Q250 649 196 613Q183 606 173 598Q163 592 132 567L192 477Q240 514 255 525Q257 527 280 542Q289 548 298 552Q300 553 303 555Q306 557 308.50 558Q311 559 314 560Q336 571 365 571Q400 571 413 551Q428 532 417 486Q413 466 409 456Q405 444 396 429Q392 421 375 399Q363 382 346 364Q344 362 293 305Q258 268 238 250L30 45L17-20Z"  horiz-adv-x="500" vert-adv-y="1000"  />

      
      <glyph glyph-name="uni33" unicode="&#x33;" d="M183-29Q233-29 285-10Q336 10 374 40Q413 72 441 115Q469 158 478 206Q493 279 465 330Q439 381 422 383L402 372Q403 372 404 373Q422 386 425 389Q439 401 444 406Q449 411 461 425Q486 453 497 477Q510 503 516 531Q531 600 495 644Q460 688 385 688Q332 688 281 670Q267 664 260 660Q258 659 253.50 657Q249 655 245.50 653Q242 651 238 649Q236 648 211 633Q206 630 161 600L213 510Q227 519 242 529Q257 539 266 544.50Q275 550 279 553Q296 564 306 568Q313 572 325 574Q328 575 343 575Q364 575 373 562Q382 551 376 520Q371 499 357 477Q342 454 322 435Q312 425 302 418Q290 410 283 406Q278 402 261 395Q258 393 251.50 390.50Q245 388 234 384.50Q223 381 214 377L195 288L264 288Q308 288 328 264Q348 241 339 197Q333 170 320 149Q307 126 290 112Q275 98 255 89Q238 82 215 82Q209 82 197 84Q194 85 178 89Q176 90 168 94Q160 98 154 100Q127 115 99 131L27 23Q56 6 80-7Q92-13 114-21Q121-23 147-28Q159-29 183-29Z"  horiz-adv-x="500" vert-adv-y="1000"  />

      
      <glyph glyph-name="uni34" unicode="&#x34;" d="M430 150L512 150L535 259L453 259L543 680L453 680L50 225L34 150L305 150L269-20L394-20L430 150M362 419L328 259L219 259L362 419Z"  horiz-adv-x="500" vert-adv-y="1000"  />

      
      <glyph glyph-name="uni35" unicode="&#x35;" d="M203-33Q252-33 300-13Q352 10 384 39Q422 72 447 117Q472 158 483 213Q509 329 449 390Q436 406 421 415Q404 427 386 432Q369 439 339 442Q315 446 302 446L327 565L535 565L560 680L221 680L148 338L180 338Q213 338 225 337Q248 337 256 335Q271 333 278 331Q280 330 288 328.50Q296 327 301 325Q374 301 353 207Q347 177 333 155Q321 135 301 115Q285 101 263 91Q241 83 221 83Q212 83 200 85Q197 86 190.50 87.50Q184 89 181 90Q167 97 159 102Q143 114 107 138L26 32Q50 16 64 6Q66 5 84-7Q88-9 106-16Q110-17 118-19.50Q126-22 130-23Q168-33 203-33Z"  horiz-adv-x="500" vert-adv-y="1000"  />

      
      <glyph glyph-name="uni36" unicode="&#x36;" d="M261-35Q309-35 355-15Q398 5 435 39Q472 74 495 118Q521 163 531 215Q550 306 513 363Q477 420 391 420Q349 420 312 412Q269 404 261 401L262 404Q263 406 265 410Q267 414 269 419Q284 450 287 456Q292 466 306 484Q316 497 327 508Q345 524 354 530Q369 540 383 546Q397 554 413 559Q424 563 444 567Q458 569 481 571Q488 572 529 572L563 572L586 684L543 686Q501 686 483 684Q452 682 436 679Q417 676 395 670Q381 666 356 655Q293 627 249 584Q187 525 151 455Q117 389 95 293Q64 140 104 52Q146-35 261-35M346 309Q379 309 394 284Q409 260 397 208Q391 177 378 153Q366 129 350 113Q332 95 318 88Q303 80 287 80Q191 80 229 286Q251 294 289 302Q317 309 346 309Z"  horiz-adv-x="500" vert-adv-y="1000"  />

      
      <glyph glyph-name="uni37" unicode="&#x37;" d="M426 296L613 607L629 680L208 680L183 565L451 565L319 345L284 289Q277 278 262.50 256.50Q248 235 243 228Q236 218 222.50 198Q209 178 202 168Q176 132 167 121Q145 94 138 86Q133 81 126 72.50Q119 64 107.50 50.50Q96 37 87 26L182-44L250 41Q258 51 271 67.50Q284 84 288 89Q293 96 298.50 103Q304 110 309.50 117.50Q315 125 318 129Q333 148 345 168Q351 177 364 196.50Q377 216 384 227Q412 271 426 296Z"  horiz-adv-x="500" vert-adv-y="1000"  />

      
      <glyph glyph-name="uni38" unicode="&#x38;" d="M231-39Q284-39 330-24Q376-10 414 19Q451 47 475 83Q501 122 510 164Q514 184 514 205Q514 225 507 242Q501 259 488 277Q475 296 455 315L409 359L464 405Q504 439 523 468Q544 499 551 536Q566 610 526 656Q489 702 403 702Q358 702 318 689Q279 677 244 652Q214 630 189 596Q169 567 159 526Q152 490 159 455Q168 419 190 396L233 346L182 305Q116 252 88 215Q60 180 51 140Q44 103 53 69Q64 36 86 12Q108-10 148-26Q186-39 231-39M373 591Q398 591 412 576Q427 561 421 537Q418 520 402 497Q388 476 366 457L336 430L311 465Q298 485 294 496Q292 508 295 526Q301 557 323 574Q344 591 373 591M342 228Q363 206 369 189Q375 174 369 152Q363 116 331 95Q301 74 261 74Q223 74 201 93Q182 112 188 141Q192 162 206 180Q224 202 253 228L302 272L342 228Z"  horiz-adv-x="500" vert-adv-y="1000"  />

      
      <glyph glyph-name="uni39" unicode="&#x39;" d="M401 69Q461 126 497 195Q534 268 553 358Q586 511 544 598Q502 685 388 685Q338 685 295 665Q247 644 214 611Q181 579 154 532Q128 482 117 435Q99 344 135 287Q172 230 257 230Q293 230 336 238Q386 249 387 249L379 232Q371 213 361 195Q349 175 343 166Q335 156 321 143Q297 119 266 105Q255 100 235 92Q218 86 205 84Q200 83 187.50 82Q175 81 169 80Q155 79 121 79L86 79L62-35L107-35Q131-35 165-33Q171-32 188-30.50Q205-29 213-28Q247-21 254-19Q269-15 294-4Q354 22 401 69M361 571Q458 571 419 365Q399 359 360 349Q328 342 303 342Q270 342 254 367Q240 390 251 443Q256 470 270 497Q285 525 298 538Q312 552 330 563Q345 571 361 571Z"  horiz-adv-x="500" vert-adv-y="1000"  />

      
      <glyph glyph-name="uni3a" unicode="&#x3a;" d="M143 355Q163 332 197 332Q231 332 259 355Q288 380 294 409Q300 439 282 462Q265 485 229 485Q192 485 165 462Q137 439 131 409Q125 379 143 355M119-32Q154-32 182-9Q211 16 217 45Q223 75 205 98Q188 121 152 121Q115 121 88 98Q60 75 54 45Q48 14 65-9Q83-32 119-32Z"  horiz-adv-x="251" vert-adv-y="1000"  />

      
      <glyph glyph-name="uni3b" unicode="&#x3b;" d="M197 332Q232 332 260 355Q289 380 295 409Q301 439 283 462Q266 485 229 485Q193 485 166 462Q138 439 132 409Q126 379 144 355Q164 332 197 332M188-21Q203 12 209 36Q227 120 145 120Q120 120 105 115Q84 109 51 88L73-27Q72-32 67-39Q65-43 61-53Q57-61 54-66Q49-76 44-83Q42-87 27-113Q-3-158-8-165L89-165L118-129Q137-103 161-67Q181-35 188-21Z"  horiz-adv-x="251" vert-adv-y="1000"  />

      
      <glyph glyph-name="uni3c" unicode="&#x3c;" d="M56 198L529-34L552 75L217 237L621 399L644 508L73 276L56 198Z"  horiz-adv-x="550" vert-adv-y="1000"  />

      
      <glyph glyph-name="uni3d" unicode="&#x3d;" d="M54 253L604 253L624 350L74 350L54 253M24 114L574 114L595 211L45 211L24 114Z"  horiz-adv-x="550" vert-adv-y="1000"  />

      
      <glyph glyph-name="uni3e" unicode="&#x3e;" d="M7-34L578 198L595 276L122 508L99 399L434 237L30 75L7-34Z"  horiz-adv-x="550" vert-adv-y="1000"  />

      
      <glyph glyph-name="uni3f" unicode="&#x3f;" d="M408 316Q443 345 459 374Q475 401 485 446Q494 488 491 527Q488 571 476 601Q464 636 442 666Q423 693 389 716Q379 724 366 730Q358 735 342 740Q330 746 313 749Q308 750 300.50 752Q293 754 278.50 757Q264 760 253 763L190 646Q259 637 287 620Q319 603 335 578Q353 555 359 518Q365 484 356 444Q353 424 344 409Q335 393 327 385L166 385L120 169L245 169L268 276L294 276Q308 276 328 278Q345 282 356 285Q377 293 383 298Q392 304 408 316M140-32Q175-32 203-9Q232 16 238 45Q244 75 226 98Q209 121 173 121Q136 121 109 98Q81 75 75 45Q69 14 86-9Q104-32 140-32Z"  horiz-adv-x="418" vert-adv-y="1000"  />

      
      <glyph glyph-name="uni41" unicode="&#x41;" d="M476-20L616-20L509 699L384 699L-29-20L111-20L220 175L449 175L476-20M404 499L434 290L285 290L404 499Z"  horiz-adv-x="595" vert-adv-y="1000"  />

      
      <glyph glyph-name="uni42" unicode="&#x42;" d="M349-20Q394-20 436-5Q478 10 510 36Q543 63 564 99Q585 132 594 176Q610 251 580 301Q551 351 547 351Q537 348 582 394Q626 439 638 498Q647 537 638 571Q631 606 608 632Q585 659 552 670Q524 680 468 680L229 680L80-20L349-20M491 555Q508 535 499 491Q490 445 460 420Q452 414 443 408Q431 402 428 401Q426 400 409 398Q406 398 397.50 397.50Q389 397 382 397L300 397L337 571L425 571Q462 571 473 567Q485 564 491 555M364 282Q421 282 445 257Q469 233 459 182Q454 159 441 138Q430 118 415 108Q400 99 382 93Q366 89 323 89L235 89L276 282L364 282Z"  horiz-adv-x="591" vert-adv-y="1000"  />

      
      <glyph glyph-name="uni43" unicode="&#x43;" d="M658 516L743 613Q724 632 712 640Q706 645 694 651Q684 658 677 660Q664 666 658 668Q602 692 529 692Q451 692 380 664Q312 638 251 587Q194 539 152 473Q113 411 96 333Q79 253 91 187Q103 123 141 71Q179 23 241-6Q304-33 383-33Q408-33 432-30Q455-27 484-21Q493-19 509-15Q513-14 520.50-11.50Q528-9 532-8L556 1Q560 3 566 5.50Q572 8 583.50 12.50Q595 17 604 21L589 123Q523 97 485 89Q452 83 413 83Q360 83 321 101Q284 118 260 151Q237 184 230 231Q224 279 236 338Q249 395 274 437Q301 482 335 513Q368 543 413 561Q452 577 502 577Q548 577 577 566Q610 556 658 516Z"  horiz-adv-x="605" vert-adv-y="1000"  />

      
      <glyph glyph-name="uni44" unicode="&#x44;" d="M610 85Q667 136 705 201Q741 262 757 333Q774 408 760 471Q748 536 710 581Q675 626 611 654Q553 680 474 680L229 680L80-20L324-20Q416-20 483 4Q549 27 610 85M437 571Q488 571 527 553Q568 534 590 505Q614 477 623 430Q632 384 621 334Q617 310 604 282Q590 250 577 229Q564 207 543 181Q526 160 504 141Q468 112 433 101Q396 89 335 89L235 89L337 571L437 571Z"  horiz-adv-x="711" vert-adv-y="1000"  />

      
      <glyph glyph-name="uni45" unicode="&#x45;" d="M80-20L510-20L533 89L235 89L276 282L515 282L538 391L299 391L337 571L626 571L650 680L229 680L80-20Z"  horiz-adv-x="539" vert-adv-y="1000"  />

      
      <glyph glyph-name="uni46" unicode="&#x46;" d="M337 571L626 571L650 680L229 680L80-20L212-20L274 275L513 275L537 385L298 385L337 571Z"  horiz-adv-x="522" vert-adv-y="1000"  />

      
      <glyph glyph-name="uni47" unicode="&#x47;" d="M574-10Q577-9 584.50-7Q592-5 597-3Q598-3 644 12L708 315L576 315L528 91Q521 90 507 87.50Q493 85 486 84Q465 81 442 81Q390 81 342 100Q301 118 271 153Q243 189 233 233Q224 283 235 337Q244 382 269 426Q294 469 330 502Q372 543 419 560Q463 577 530 577Q569 577 600 570Q633 564 656 554Q658 553 662 550.50Q666 548 668 547Q672 546 708 521L780 629Q736 656 725 661Q712 669 687 675Q662 684 621 687Q586 691 546 691Q464 691 390 663Q314 636 255 587Q195 539 153 473Q114 412 95 331Q79 253 94 188Q109 123 148 73Q189 25 251-5Q313-33 395-33Q440-33 488-27Q533-22 574-10Z"  horiz-adv-x="708" vert-adv-y="1000"  />

      
      <glyph glyph-name="uni48" unicode="&#x48;" d="M551-20L683-20L832 680L700 680L639 397L300 397L361 680L229 680L80-20L212-20L276 282L615 282L551-20Z"  horiz-adv-x="771" vert-adv-y="1000"  />

      
      <glyph glyph-name="uni49" unicode="&#x49;" d="M80-20L212-20L361 680L229 680L80-20Z"  horiz-adv-x="300" vert-adv-y="1000"  />

      
      <glyph glyph-name="uni4a" unicode="&#x4a;" d="M131-146Q145-132 155-117Q157-115 163.50-105Q170-95 174-90L192-60Q195-54 201.50-41Q208-28 212-21L361 680L229 680L96 57Q86 12 71-23Q55-61 37-86Q32-93 24-103Q16-113 7-121L-17-145Q-18-146-66-190L4-263Q42-233 59-218Q74-206 85-195Q88-192 92.50-187.50Q97-183 101-179.50Q105-176 108-172Q112-168 115.50-164Q119-160 123.50-154.50Q128-149 131-146Z"  horiz-adv-x="300" vert-adv-y="1000"  />

      
      <glyph glyph-name="uni4b" unicode="&#x4b;" d="M443-20L603-20L393 339L739 680L586 680L238 333L443-20M80-20L212-20L361 680L229 680L80-20Z"  horiz-adv-x="571" vert-adv-y="1000"  />

      
      <glyph glyph-name="uni4c" unicode="&#x4c;" d="M80-20L507-20L530 89L235 89L361 680L229 680L80-20Z"  horiz-adv-x="495" vert-adv-y="1000"  />

      
      <glyph glyph-name="uni4d" unicode="&#x4d;" d="M658-20L790-20L939 680L782 680L453 137L441 113Q440 109 445.50 104Q451 99 465 91Q480 100 479 108Q479 116 476 137L385 680L229 680L80-20L205-20L277 321Q290 384 304 450.50Q318 517 324 547.50Q330 578 332 588Q336 607 329 598Q323 591 310 566Q283 511 284 501Q285 497 286 489.50Q287 482 288 478L369-20L481-20L790 491Q793 495 797.50 503.50Q802 512 804 515Q810 526 807 581Q805 614 801 615Q798 616 792 600Q780 564 738 360L658-20Z"  horiz-adv-x="878" vert-adv-y="1000"  />

      
      <glyph glyph-name="uni4e" unicode="&#x4e;" d="M534-26L669-26L820 680L688 680L581 181Q614 110 614 112Q615 114 613 117Q611 133 609 135Q608 137 607.50 141Q607 145 607 147Q607 154 604 158Q603 163 600 166L376 680L229 680L80-20L212-20L302 403Q344 582 318 591Q306 596 299.50 583Q293 570 292 540Q294 536 295 533Q297 531 297 524Q301 514 303 510Q306 504 306 501L534-26Z"  horiz-adv-x="759" vert-adv-y="1000"  />

      
      <glyph glyph-name="uni4f" unicode="&#x4f;" d="M375-33Q450-33 525-5Q599 24 654 72Q716 126 752 187Q794 255 808 330Q824 406 812 473Q799 543 764 588Q728 638 667 665Q610 692 529 692Q450 692 379 664Q307 637 249 588Q196 543 151 473Q112 409 95 330Q79 249 91 186Q102 125 140 71Q177 23 237-6Q298-33 375-33M505 580Q548 580 582 561Q617 544 640 508Q664 476 671 428Q680 382 668 330Q658 278 629 230Q604 187 564 150Q530 118 484 98Q440 79 399 79Q359 79 321 98Q288 117 263 151Q241 185 232 231Q225 278 235 330Q247 382 274 429Q301 474 339 509Q375 542 419 561Q461 580 505 580Z"  horiz-adv-x="763" vert-adv-y="1000"  />

      
      <glyph glyph-name="uni50" unicode="&#x50;" d="M340 222Q399 222 452 240Q505 258 545 289Q586 321 613 366Q640 411 652 465Q662 514 656 553Q650 594 628 620Q604 655 564 667Q526 680 461 680L229 680L80-20L212-20L264 228L274 226Q278 226 286.50 225.50Q295 225 299 224Q308 224 320 222L340 222M505 549Q528 520 516 460Q507 416 482 386Q458 356 427 344Q397 333 350 333Q345 333 333.50 333.50Q322 334 316 334Q292 336 287 336L337 571L425 571Q464 571 478 566Q496 562 505 549Z"  horiz-adv-x="556" vert-adv-y="1000"  />

      
      <glyph glyph-name="uni51" unicode="&#x51;" d="M471-25Q508-19 569 14Q630 46 679 95Q729 143 761 202Q794 260 808 329Q824 406 812 473Q800 541 764 588Q730 637 667 665Q610 692 529 692Q450 692 379 664Q307 637 249 588Q192 540 151 473Q111 405 95 330Q83 274 88 218Q95 159 113 118Q134 74 168 38Q204 4 251-14Q263-18 267-20Q277-22 283-24Q295-26 302-28Q315-30 317-31L323-40Q341-71 344-77Q347-82 354-91.50Q361-101 364-106Q368-111 375.50-119Q383-127 387-132Q389-134 393-138Q397-142 399.50-145Q402-148 406-151.50Q410-155 413-158Q417-162 425.50-169.50Q434-177 438-181Q461-198 463-200Q487-216 492-220Q497-223 549-254L642-155Q615-142 587-128Q578-122 562-114Q547-103 543-100Q535-92 523-83Q505-68 482-38Q479-34 474.50-27.50Q470-21 469-20L469-21Q470-23 471-25M419 561Q461 580 505 580Q549 580 583 561Q618 544 641 508Q665 476 672 428Q681 382 669 330Q659 278 630 230Q605 187 565 150Q531 118 485 98Q441 79 399 79Q358 79 320 98Q288 115 262 151Q240 185 231 231Q224 278 234 330Q246 384 274 429Q304 477 339 509Q375 542 419 561Z"  horiz-adv-x="763" vert-adv-y="1000"  />

      
      <glyph glyph-name="uni52" unicode="&#x52;" d="M442-20L592-20L457 282Q469 285 495 297Q521 309 550 332Q588 363 612 401Q638 442 645 482Q654 526 646 561Q639 599 618 624Q608 637 590 651Q574 663 555 669Q541 674 510 678Q494 680 455 680L229 680L80-20L212-20L272 263L320 263L442-20M495 558Q519 535 507 481Q484 372 377 372L295 372L337 571L419 571Q446 571 454 570Q470 570 475 568Q483 567 487 564Q492 563 495 558Z"  horiz-adv-x="584" vert-adv-y="1000"  />

      
      <glyph glyph-name="uni53" unicode="&#x53;" d="M562 518L643 623Q609 647 588 658Q575 666 552 674Q529 682 496 687Q476 691 436 691Q379 691 334 677Q286 664 248 637Q211 612 185 575Q159 537 151 496Q139 439 166 394Q192 351 263 306Q277 298 299.50 284.50Q322 271 330 266Q355 253 360 248Q390 230 398 202Q404 190 398 163Q389 124 359 103Q328 83 281 83Q236 83 200 98Q191 102 173 112L117 154L30 53Q45 41 64 26.50Q83 12 87 9Q95 4 123-9Q177-33 250-33Q360-33 439 23Q517 80 535 171Q544 212 536 246Q528 283 506 305Q478 336 412 375Q402 381 386.50 391Q371 401 360.50 408Q350 415 342 420Q313 441 302 452Q289 468 287 477Q285 486 288 503Q296 536 326 556Q356 576 404 576Q425 576 445 572Q469 569 484 563Q496 560 508 552Q517 548 562 518Z"  horiz-adv-x="534" vert-adv-y="1000"  />

      
      <glyph glyph-name="uni54" unicode="&#x54;" d="M456 571L676 571L700 680L128 680L104 571L324 571L199-20L331-20L456 571Z"  horiz-adv-x="539" vert-adv-y="1000"  />

      
      <glyph glyph-name="uni55" unicode="&#x55;" d="M556 28Q609 66 638 112Q665 155 681 226L778 680L646 680L554 251Q549 224 542 201Q534 175 530 167Q525 156 515 144Q513 142 509 138Q505 134 501.50 130.50Q498 127 494 123Q439 74 366 74Q292 74 258 123Q250 135 246 144Q242 157 241 168Q241 188 243 201Q246 218 252 251L344 680L212 680L115 226Q101 157 110 111Q119 66 157 28Q227-39 343-39Q459-39 556 28Z"  horiz-adv-x="700" vert-adv-y="1000"  />

      
      <glyph glyph-name="uni56" unicode="&#x56;" d="M329-37L752 680L618 680L312 150L303 132Q300 123 328 52Q350 136 347 151L259 680L119 680L242-37L329-37Z"  horiz-adv-x="583" vert-adv-y="1000"  />

      
      <glyph glyph-name="uni57" unicode="&#x57;" d="M618-33L1034 680L901 680L620 186L584 398L752 680L632 680L557 555L536 680L409 680L458 386L338 184L259 680L119 680L247-33L327-33L485 231L530-33L618-33Z"  horiz-adv-x="864" vert-adv-y="1000"  />

      
      <glyph glyph-name="uni58" unicode="&#x58;" d="M450-20L601-20L433 336L741 680L591 680L383 447L272 680L122 680L282 337L-38-20L113-20L335 227L450-20Z"  horiz-adv-x="572" vert-adv-y="1000"  />

      
      <glyph glyph-name="uni59" unicode="&#x59;" d="M399 303L728 680L584 680L363 421L256 680L113 680L266 298L199-20L331-20L399 303Z"  horiz-adv-x="550" vert-adv-y="1000"  />

      
      <glyph glyph-name="uni5a" unicode="&#x5a;" d="M13-20L575-20L598 89L215 89L691 611L706 680L162 680L138 571L503 571L26 43L13-20Z"  horiz-adv-x="595" vert-adv-y="1000"  />

      
      <glyph glyph-name="uni5b" unicode="&#x5b;" d="M-8-265L206-265L226-169L138-169L298 584L386 584L407 680L193 680L-8-265Z"  horiz-adv-x="250" vert-adv-y="1000"  />

      
      <glyph glyph-name="uni5c" unicode="&#x5c;" d="M219-265L339-265L277 680L156 680L219-265Z"  horiz-adv-x="409" vert-adv-y="1000"  />

      
      <glyph glyph-name="uni5d" unicode="&#x5d;" d="M-68-265L146-265L347 680L133 680L112 584L200 584L40-169L-48-169L-68-265Z"  horiz-adv-x="250" vert-adv-y="1000"  />

      
      <glyph glyph-name="uni5f" unicode="&#x5f;" d="M-41-77L509-77L529 20L-21 20L-41-77Z"  horiz-adv-x="500" vert-adv-y="1000"  />

      
      <glyph glyph-name="uni60" unicode="&#x60;" d="M280 499L403 499L329 702L183 702L280 499Z"  horiz-adv-x="383" vert-adv-y="1000"  />

      
      <glyph glyph-name="uni61" unicode="&#x61;" d="M393-20L520-20L422 510L310 510L-13-20L115-20L197 113L366 113L393-20M330 341L351 215L255 215L330 341Z"  horiz-adv-x="516" vert-adv-y="1000"  />

      
      <glyph glyph-name="uni62" unicode="&#x62;" d="M290-20Q327-20 363-9Q399 3 425 23Q454 45 472 71Q491 97 497 130Q509 184 482 223Q469 242 475.50 249.50Q482 257 508 252Q463 244 466 260Q468 266 478 277Q514 314 524 360Q554 498 374 498L173 498L63-20L290-20M340 395Q380 395 390 386Q400 378 394 349Q388 320 368 307Q360 301 359 300Q358 299 355.50 298.50Q353 298 352 298Q345 298 338 297L312 297L256 297L277 395L340 395M359 184Q366 178 369 166Q372 153 368 138Q365 121 355 109Q344 95 335 90Q329 88 325 86Q323 86 321 85Q319 84 317 83L304 83L274 83L211 83L234 194L297 194L334 194Q349 194 359 184Z"  horiz-adv-x="495" vert-adv-y="1000"  />

      
      <glyph glyph-name="uni63" unicode="&#x63;" d="M530 351L610 447Q561 483 521 495Q482 507 432 507Q370 507 311 486Q253 465 207 429Q161 392 129 344Q97 295 85 241Q73 185 84 133Q96 83 127 48Q161 11 209-9Q258-29 325-29Q361-29 401-21Q449-10 507 12L489 109Q449 91 432 84Q428 83 421 80.50Q414 78 410 77Q408 77 388 74Q384 74 375.50 73.50Q367 73 362 73Q317 73 285 83Q258 94 240 116Q221 141 214 173Q208 205 216 245Q225 281 243 311Q262 340 286 361Q310 381 342 392Q371 403 408 403Q426 403 444 400Q464 397 474 393Q484 390 490 384Q501 377 530 351Z"  horiz-adv-x="516" vert-adv-y="1000"  />

      
      <glyph glyph-name="uni64" unicode="&#x64;" d="M519 52Q563 90 594 141Q625 194 635 239Q640 259 640 289Q640 318 636 339Q634 360 623 386Q614 409 601 424Q573 462 522 480Q472 498 399 498L198 498L88-20L289-20Q364-20 421-2Q476 16 519 52M475 368Q497 347 505 312Q514 279 505 240Q497 202 474 167Q452 133 422 112Q396 96 372 89Q346 83 299 83L236 83L302 395L371 395Q401 395 412 393Q430 392 440 389Q453 386 460 381Q470 376 475 368Z"  horiz-adv-x="609" vert-adv-y="1000"  />

      
      <glyph glyph-name="uni65" unicode="&#x65;" d="M88-20L440-20L462 83L236 83L259 194L441 194L463 297L281 297L302 395L522 395L544 498L198 498L88-20Z"  horiz-adv-x="478" vert-adv-y="1000"  />

      
      <glyph glyph-name="uni66" unicode="&#x66;" d="M302 395L522 395L544 498L198 498L88-20L214-20L258 187L440 187L462 290L280 290L302 395Z"  horiz-adv-x="463" vert-adv-y="1000"  />

      
      <glyph glyph-name="uni67" unicode="&#x67;" d="M490-11Q493-10 499-8.50Q505-7 508-6Q510-6 524-2Q538 2 550 5L599 234L473 234L440 79Q417 77 406 75Q382 73 372 73Q335 73 299 86Q268 100 245 122Q225 145 216 175Q208 206 216 244Q224 280 243 310Q262 338 291 360Q319 381 353 393Q385 404 425 404Q450 404 477 398Q508 391 522 384Q523 384 572 352L645 454Q601 479 592 483Q582 488 560 494Q539 500 506 503Q474 506 445 506Q379 506 319 485Q257 463 211 429Q162 393 130 344Q97 296 85 240Q74 185 86 134Q100 84 132 48Q168 11 218-10Q268-30 338-30Q365-30 412-25Q463-18 490-11Z"  horiz-adv-x="624" vert-adv-y="1000"  />

      
      <glyph glyph-name="uni68" unicode="&#x68;" d="M466-20L591-20L701 498L576 498L533 297L281 297L324 498L198 498L88-20L214-20L259 194L511 194L466-20Z"  horiz-adv-x="687" vert-adv-y="1000"  />

      
      <glyph glyph-name="uni69" unicode="&#x69;" d="M88-20L214-20L324 498L198 498L88-20Z"  horiz-adv-x="310" vert-adv-y="1000"  />

      
      <glyph glyph-name="uni6a" unicode="&#x6a;" d="M126-114Q138-100 143-94Q149-87 159-73Q165-65 175-49Q184-36 196-16L305 498L179 498L86 63Q77 20 65-9Q52-38 37-56Q27-68 23-72Q22-73 20.50-74.50Q19-76 18-77Q17-78 16-79.50Q15-81 13.50-82.50Q12-84 10-85Q8-87 2-93Q-4-99-8-102Q-19-111-48-139L26-205Q71-167 73-166Q89-152 93-148Q96-145 102-139.50Q108-134 110-132Q116-126 126-114Z"  horiz-adv-x="291" vert-adv-y="1000"  />

      
      <glyph glyph-name="uni6b" unicode="&#x6b;" d="M383-20L551-20L374 239L648 498L486 498L220 239L383-20M88-20L214-20L324 498L198 498L88-20Z"  horiz-adv-x="534" vert-adv-y="1000"  />

      
      <glyph glyph-name="uni6c" unicode="&#x6c;" d="M88-20L440-20L462 83L236 83L324 498L198 498L88-20Z"  horiz-adv-x="436" vert-adv-y="1000"  />

      
      <glyph glyph-name="uni6d" unicode="&#x6d;" d="M541-20L666-20L776 498L637 498L392 131Q384 117 380 108Q377 103 379 36Q424 105 424 112Q425 116 421 131L337 498L198 498L88-20L214-20L225 34Q300 382 303 409Q304 422 292 395Q279 368 252 299L322-20L417-20L642 319Q666 399 654 399Q652 399 648 396Q627 378 585 189L541-20Z"  horiz-adv-x="763" vert-adv-y="1000"  />

      
      <glyph glyph-name="uni6e" unicode="&#x6e;" d="M463-26L570-26L682 498L563 498L536 370Q477 98 480 49Q482 19 494 62Q502 89 515 149L312 498L198 498L88-20L208-20L240 132Q288 357 301 420Q303 429 300 425Q292 414 261 329L463-26Z"  horiz-adv-x="668" vert-adv-y="1000"  />

      
      <glyph glyph-name="uni6f" unicode="&#x6f;" d="M318-29Q380-29 439-8Q499 13 543 48Q588 83 621 133Q653 181 665 239Q678 299 666 345Q656 394 624 430Q594 466 543 487Q496 507 432 507Q368 507 310 486Q252 465 206 430Q162 396 128 345Q98 299 85 239Q73 183 84 133Q97 82 125 48Q156 12 205-9Q252-29 318-29M410 403Q443 403 470 391Q496 379 513 358Q529 340 535 306Q541 274 534 239Q527 204 507 172Q488 141 462 119Q436 98 404 86Q372 74 340 74Q307 74 280 86Q256 97 236 120Q219 141 213 172Q207 202 215 239Q223 276 242 306Q264 339 287 358Q311 378 345 391Q378 403 410 403Z"  horiz-adv-x="647" vert-adv-y="1000"  />

      
      <glyph glyph-name="uni70" unicode="&#x70;" d="M327 160Q365 160 406 173Q445 186 475 209Q504 231 526 264Q547 298 553 331Q571 411 527 455Q487 498 389 498L198 498L88-20L214-20L252 161Q245 164 247 164Q248 165 266 163Q298 160 327 160M359 395Q407 395 421 382Q436 370 428 334Q422 300 397 281Q373 263 341 263Q319 263 287 267L273 269Q273 269 275 268L302 395L359 395Z"  horiz-adv-x="495" vert-adv-y="1000"  />

      
      <glyph glyph-name="uni71" unicode="&#x71;" d="M420-16Q499 3 572 73Q644 142 665 239Q678 299 666 345Q656 394 624 430Q594 466 543 487Q496 507 432 507Q368 507 310 486Q252 465 206 430Q162 396 128 345Q98 299 85 239Q73 186 84 136Q96 86 125 49Q139 31 152 21Q165 11 185-1Q206-11 226-16Q262-25 269-27Q289-60 309-85Q334-114 355-131Q373-144 376-147Q390-155 398-160Q402-162 411-166.50Q420-171 425-174Q433-177 478-197L563-110Q525-93 513-88Q509-86 502.50-83Q496-80 494-79Q487-74 478-69Q468-61 462-55Q450-47 445-43Q443-41 439-36.50Q435-32 433-30Q432-28 429.50-25.50Q427-23 425-20.50Q423-18 421-15L420-16M410 403Q443 403 470 391Q496 379 513 358Q529 340 535 306Q541 274 534 239Q527 204 507 172Q488 141 462 119Q436 98 404 86Q372 74 340 74Q307 74 280 86Q256 97 236 120Q219 141 213 172Q207 202 215 239Q223 276 242 306Q264 339 287 358Q311 378 345 391Q378 403 410 403Z"  horiz-adv-x="647" vert-adv-y="1000"  />

      
      <glyph glyph-name="uni72" unicode="&#x72;" d="M369-20L513-20L421 187Q452 192 496 236Q542 282 554 342Q569 417 525 457Q483 498 384 498L198 498L88-20L214-20L255 175L284 175L369-20M411 387Q429 372 421 339Q415 308 392 291L380 283Q379 282 370 280L354 278L327 278L277 278L302 395L352 395Q376 395 383 394Q396 394 399 393Q404 393 405 391Q409 389 411 387Z"  horiz-adv-x="513" vert-adv-y="1000"  />

      
      <glyph glyph-name="uni73" unicode="&#x73;" d="M461 349L528 454Q496 474 481 481Q469 487 451 493Q411 506 357 506Q266 506 203 465Q141 425 126 356Q117 312 138 276Q159 242 214 213L293 170Q314 160 320 147Q327 137 322 117Q318 96 299 84Q282 73 249 73Q215 73 184 87L163 99Q119 136 113 141L35 36Q44 30 56 21.50Q68 13 74.50 9Q81 5 85 2Q89 0 93.50-2.50Q98-5 104-7.50Q110-10 113-12Q159-29 218-29Q309-29 372 13Q435 55 450 127Q455 148 452 172Q448 197 437 212Q426 231 404 246Q383 263 351 280Q334 290 301 308Q280 322 272 326Q262 334 258 337Q257 339 255 342Q253 345 252 347Q251 353 252 363Q257 382 276 392Q294 402 333 402Q360 402 390 393Q406 388 414 383Q426 377 461 349Z"  horiz-adv-x="464" vert-adv-y="1000"  />

      
      <glyph glyph-name="uni74" unicode="&#x74;" d="M371 395L541 395L563 498L98 498L76 395L246 395L158-20L283-20L371 395Z"  horiz-adv-x="448" vert-adv-y="1000"  />

      
      <glyph glyph-name="uni75" unicode="&#x75;" d="M459 6Q511 33 537 77Q563 119 579 195L644 498L519 498L452 182Q428 70 322 70Q216 70 240 182L307 498L182 498L117 195Q102 122 110 76Q119 32 157 6Q181-10 223-23Q264-34 300-34Q338-34 382-23Q430-10 459 6Z"  horiz-adv-x="614" vert-adv-y="1000"  />

      
      <glyph glyph-name="uni76" unicode="&#x76;" d="M284-32L619 498L484 498L268 139Q264 133 260 126Q258 122 272 76Q309 128 304 140L231 498L96 498L208-32L284-32Z"  horiz-adv-x="503" vert-adv-y="1000"  />

      
      <glyph glyph-name="uni77" unicode="&#x77;" d="M515-29L844 498L717 498L518 170L490 289L625 498L503 498L460 428L444 498L322 498L367 283L295 170L231 498L96 498L212-29L284-29L397 147L439-29L515-29Z"  horiz-adv-x="729" vert-adv-y="1000"  />

      
      <glyph glyph-name="uni78" unicode="&#x78;" d="M365-20L512-20L370 245L615 498L469 498L325 347L246 498L97 498L224 245L-22-20L123-20L276 143L365-20Z"  horiz-adv-x="497" vert-adv-y="1000"  />

      
      <glyph glyph-name="uni79" unicode="&#x79;" d="M339 209L601 498L456 498L308 326L234 498L90 498L214 209L166-20L291-20L339 209Z"  horiz-adv-x="478" vert-adv-y="1000"  />

      
      <glyph glyph-name="uni7a" unicode="&#x7a;" d="M21-20L480-20L502 83L220 83L562 428L577 498L131 498L109 395L378 395L36 50L21-20Z"  horiz-adv-x="509" vert-adv-y="1000"  />

      
      <glyph glyph-name="uni7b" unicode="&#x7b;" d="M274-263L355-263L377-160L308-160Q299-160 290-154Q283-149 278-141Q275-132 275-119Q278-95 281-80L324 122L331 157Q334 172 334 183Q335 192 331 204Q327 218 325 222Q310 257 274 265L343 253L270 236Q304 244 331 270Q358 297 367 330Q370 339 373 351Q374 355 375.50 364Q377 373 378 377L421 578Q427 605 432 619Q439 635 444 640Q454 650 463 654Q473 659 482 659L551 659L573 762L492 762Q408 762 364 725Q320 690 303 610L256 390Q236 297 185 297L124 297L104 202L165 202Q217 202 196 109L149-111Q134-189 162-226Q193-263 274-263Z"  horiz-adv-x="409" vert-adv-y="1000"  />

      
      <glyph glyph-name="uni7c" unicode="&#x7c;" d="M12-259L132-259L346 749L226 749L12-259Z"  horiz-adv-x="250" vert-adv-y="1000"  />

      
      <glyph glyph-name="uni7d" unicode="&#x7d;" d="M334 202L395 202L415 295L355 297Q304 297 323 390L370 610Q387 689 357 725Q329 762 245 762L164 762L142 659L211 659Q220 659 229 653Q239 646 241 640Q245 631 244 618Q244 606 238 578L195 377Q194 371 193 365Q192 359 190.50 352Q189 345 188 342Q186 332 186 316Q186 309 188 295L194 277Q210 242 245 235L177 249L250 263Q217 257 189 229Q165 205 152 169Q150 163 146 147Q146 144 145 140Q144 136 143 131Q142 126 141 122L98-80Q91-111 87-120Q82-134 75-141Q70-148 57-155Q45-160 37-160L-32-160L-54-263L27-263Q109-263 155-226Q201-187 216-111L263 109Q275 160 293 181Q311 202 334 202Z"  horiz-adv-x="409" vert-adv-y="1000"  />

      
      <glyph glyph-name="uni7e" unicode="&#x7e;" d="M501 171Q525 179 545 189Q565 199 610 228L568 307Q509 271 505 269Q492 262 477 257Q447 248 421 248Q408 248 396 251Q390 253 365 264L320 285Q298 298 275 303Q257 308 232 308Q189 308 136 288Q134 287 125 283Q116 279 111 277Q97 271 89 267Q71 257 66 253Q57 247 25 225L62 148Q118 184 152 198Q181 209 206 209Q220 209 231 205Q244 202 261 192L301 172Q308 169 318.50 165.50Q329 162 333 160Q344 157 364 153Q375 152 396 152Q441 152 501 171Z"  horiz-adv-x="544" vert-adv-y="1000"  />

      
      <glyph glyph-name="unia8" unicode="&#xa8;" d="M398 502Q429 502 456 524Q482 546 488 572Q494 601 476 622Q461 643 428 643Q394 643 368 621Q343 602 337 572Q331 546 348 523Q366 502 398 502M223 502Q254 502 281 524Q307 546 313 572Q319 601 301 622Q286 643 253 643Q219 643 193 621Q168 602 162 572Q156 546 173 523Q191 502 223 502Z"  horiz-adv-x="406" vert-adv-y="1000"  />

      
      <glyph glyph-name="unib4" unicode="&#xb4;" d="M348 477L532 680L386 680L225 477L348 477Z"  horiz-adv-x="383" vert-adv-y="1000"  />

      
      <glyph glyph-name="unic0" unicode="&#xc0;" d="M406 695L532 695L439 853L287 853L406 695M476-20L616-20L509 699L384 699L-29-20L111-20L220 175L449 175L476-20M404 499L434 290L285 290L404 499Z"  horiz-adv-x="595" vert-adv-y="1000"  />

      
      <glyph glyph-name="unic1" unicode="&#xc1;" d="M497 695L682 853L530 853L369 695L497 695M476-20L616-20L509 699L384 699L-29-20L111-20L220 175L449 175L476-20M404 499L434 290L285 290L404 499Z"  horiz-adv-x="595" vert-adv-y="1000"  />

      
      <glyph glyph-name="unic2" unicode="&#xc2;" d="M509 676L641 676L521 833L434 833L250 676L380 676L456 733L509 676M476-20L616-20L509 699L384 699L-29-20L111-20L220 175L449 175L476-20M404 499L434 290L285 290L404 499Z"  horiz-adv-x="595" vert-adv-y="1000"  />

      
      <glyph glyph-name="unic3" unicode="&#xc3;" d="M602 703Q622 710 639 720Q644 723 688 756L648 828Q607 802 592 795Q578 788 573 786Q570 784 560 782Q558 782 554 781.50Q550 781 547 781Q541 781 532 784Q529 785 522.50 789Q516 793 511 795Q489 809 483 812Q473 819 464 822Q454 827 447 828Q442 830 433 830Q429 831 416 831Q377 831 338 813Q319 806 308 800Q303 798 247 766L287 687Q298 693 308.50 699Q319 705 325 708Q331 711 332 712Q334 713 338 715.50Q342 718 344 719Q346 720 348 721.50Q350 723 351 723Q353 725 359 725Q371 731 383 731Q392 731 398 728Q412 722 423 715Q474 685 517 685Q557 685 602 703M476-20L616-20L509 699L384 699L-29-20L111-20L220 175L449 175L476-20M404 499L434 290L285 290L404 499Z"  horiz-adv-x="595" vert-adv-y="1000"  />

      
      <glyph glyph-name="unic4" unicode="&#xc4;" d="M486 709Q504 688 536 688Q568 688 595 710Q620 731 626 758Q632 788 615 808Q600 829 566 829Q533 829 507 807Q481 785 475 758Q469 732 486 709M350 688Q382 688 409 710Q435 732 441 758Q447 788 430 808Q415 829 380 829Q348 829 322 807Q296 785 290 758Q284 732 301 709Q319 688 350 688M476-20L616-20L509 699L384 699L-29-20L111-20L220 175L449 175L476-20M404 499L434 290L285 290L404 499Z"  horiz-adv-x="595" vert-adv-y="1000"  />

      
      <glyph glyph-name="unic5" unicode="&#xc5;" d="M378 718Q401 689 446 689Q491 689 527 719Q564 749 571 788Q580 829 557 858Q534 888 489 888Q444 888 407 858Q371 828 362 788Q354 748 378 718M476-20L616-20L509 699L384 699L-29-20L111-20L220 175L449 175L476-20M472 810Q478 810 482 804Q486 800 483 788Q481 778 474 772Q469 767 463 767Q459 767 453 773Q448 779 450 788Q452 796 460 804Q468 810 472 810M404 499L434 290L285 290L404 499Z"  horiz-adv-x="595" vert-adv-y="1000"  />

      
      <glyph glyph-name="unic6" unicode="&#xc6;" d="M338-20L765-20L788 89L488 89L529 282L772 282L795 391L552 391L590 571L884 571L908 680L512 680L444 680L-58-20L91-20L226 175L379 175L338-20M449 501L404 290L301 290L449 501Z"  horiz-adv-x="794" vert-adv-y="1000"  />

      
      <glyph glyph-name="unic8" unicode="&#xc8;" d="M429 695L555 695L463 853L311 853L429 695M80-20L510-20L533 89L235 89L276 282L515 282L538 391L299 391L337 571L626 571L650 680L229 680L80-20Z"  horiz-adv-x="539" vert-adv-y="1000"  />

      
      <glyph glyph-name="unic9" unicode="&#xc9;" d="M506 695L691 853L539 853L378 695L506 695M80-20L510-20L533 89L235 89L276 282L515 282L538 391L299 391L337 571L626 571L650 680L229 680L80-20Z"  horiz-adv-x="539" vert-adv-y="1000"  />

      
      <glyph glyph-name="unica" unicode="&#xca;" d="M518 676L651 676L530 833L443 833L261 676L389 676L466 733L518 676M80-20L510-20L533 89L235 89L276 282L515 282L538 391L299 391L337 571L626 571L650 680L229 680L80-20Z"  horiz-adv-x="539" vert-adv-y="1000"  />

      
      <glyph glyph-name="unicb" unicode="&#xcb;" d="M548 690Q580 690 607 712Q632 733 638 761Q644 790 627 810Q610 831 578 831Q546 831 519 810Q494 789 488 761Q482 734 499 711Q517 690 548 690M363 690Q393 690 421 712Q447 734 453 761Q459 789 441 810Q423 831 393 831Q361 831 334 810Q308 788 302 761Q296 734 313 711Q331 690 363 690M80-20L510-20L533 89L235 89L276 282L515 282L538 391L299 391L337 571L626 571L650 680L229 680L80-20Z"  horiz-adv-x="539" vert-adv-y="1000"  />

      
      <glyph glyph-name="unicc" unicode="&#xcc;" d="M277 695L403 695L311 853L159 853L277 695M80-20L212-20L361 680L229 680L80-20Z"  horiz-adv-x="300" vert-adv-y="1000"  />

      
      <glyph glyph-name="unicd" unicode="&#xcd;" d="M325 695L510 853L358 853L198 695L325 695M80-20L212-20L361 680L229 680L80-20Z"  horiz-adv-x="300" vert-adv-y="1000"  />

      
      <glyph glyph-name="unice" unicode="&#xce;" d="M363 676L495 676L375 833L288 833L104 676L234 676L310 733L363 676M80-20L212-20L361 680L229 680L80-20Z"  horiz-adv-x="300" vert-adv-y="1000"  />

      
      <glyph glyph-name="unicf" unicode="&#xcf;" d="M375 688Q407 688 434 710Q459 731 465 758Q471 788 454 808Q439 829 405 829Q372 829 346 807Q321 786 315 758Q309 732 326 709Q344 688 375 688M223 688Q255 688 282 710Q307 731 313 758Q319 788 302 808Q287 829 253 829Q220 829 194 807Q169 786 163 758Q157 732 174 709Q192 688 223 688M80-20L212-20L361 680L229 680L80-20Z"  horiz-adv-x="300" vert-adv-y="1000"  />

      
      <glyph glyph-name="unid2" unicode="&#xd2;" d="M477 695L603 695L511 853L359 853L477 695M375-33Q450-33 525-5Q599 24 654 72Q716 126 752 187Q794 255 808 330Q824 406 812 473Q799 543 764 588Q728 638 667 665Q610 692 529 692Q450 692 379 664Q307 637 249 588Q196 543 151 473Q112 409 95 330Q79 249 91 186Q102 125 140 71Q177 23 237-6Q298-33 375-33M504 576Q548 576 582 557Q614 541 640 505Q663 473 671 426Q680 381 668 330Q658 280 629 233Q601 187 565 155Q531 123 485 103Q441 84 400 84Q361 84 323 103Q289 122 265 155Q242 191 233 234Q224 278 235 330Q247 383 274 427Q300 469 339 505Q378 540 419 557Q461 576 504 576Z"  horiz-adv-x="763" vert-adv-y="1000"  />

      
      <glyph glyph-name="unid3" unicode="&#xd3;" d="M573 695L758 853L606 853L446 695L573 695M375-33Q450-33 525-5Q599 24 654 72Q716 126 752 187Q794 255 808 330Q824 406 812 473Q799 543 764 588Q728 638 667 665Q610 692 529 692Q450 692 379 664Q307 637 249 588Q196 543 151 473Q112 409 95 330Q79 249 91 186Q102 125 140 71Q177 23 237-6Q298-33 375-33M504 576Q548 576 582 557Q614 541 640 505Q663 473 671 426Q680 381 668 330Q658 280 629 233Q601 187 565 155Q531 123 485 103Q441 84 400 84Q361 84 323 103Q289 122 265 155Q242 191 233 234Q224 278 235 330Q247 383 274 427Q300 469 339 505Q378 540 419 557Q461 576 504 576Z"  horiz-adv-x="763" vert-adv-y="1000"  />

      
      <glyph glyph-name="unid4" unicode="&#xd4;" d="M589 676L722 676L601 833L514 833L330 676L460 676L537 733L589 676M375-33Q450-33 525-5Q599 24 654 72Q716 126 752 187Q794 255 808 330Q824 406 812 473Q799 543 764 588Q728 638 667 665Q610 692 529 692Q450 692 379 664Q307 637 249 588Q196 543 151 473Q112 409 95 330Q79 249 91 186Q102 125 140 71Q177 23 237-6Q298-33 375-33M504 576Q548 576 582 557Q614 541 640 505Q663 473 671 426Q680 381 668 330Q658 280 629 233Q601 187 565 155Q531 123 485 103Q441 84 400 84Q361 84 323 103Q289 122 265 155Q242 191 233 234Q224 278 235 330Q247 383 274 427Q300 469 339 505Q378 540 419 557Q461 576 504 576Z"  horiz-adv-x="763" vert-adv-y="1000"  />

      
      <glyph glyph-name="unid5" unicode="&#xd5;" d="M676 690Q696 697 713 707Q723 713 763 743L722 815Q681 789 666 782Q652 775 647 773Q644 772 634 769Q632 769 628 768.50Q624 768 621 768Q615 768 606 771Q603 772 596 776Q589 780 585 782Q563 796 557 799Q547 806 538 809Q528 814 521 815Q516 817 507 817Q504 818 490 818Q451 818 412 800Q392 792 382 787Q379 786 321 753L361 674Q372 680 382.50 686Q393 692 399 695Q405 698 406 699Q408 700 412 702.50Q416 705 418 706L426 710Q428 712 433 712Q447 718 458 718Q466 718 472 715Q494 704 497 702Q548 672 591 672Q631 672 676 690M375-33Q450-33 525-5Q599 24 654 72Q716 126 752 187Q794 255 808 330Q824 406 812 473Q799 543 764 588Q728 638 667 665Q610 692 529 692Q450 692 379 664Q307 637 249 588Q196 543 151 473Q112 409 95 330Q79 249 91 186Q102 125 140 71Q177 23 237-6Q298-33 375-33M504 576Q548 576 582 557Q614 541 640 505Q663 473 671 426Q680 381 668 330Q658 280 629 233Q601 187 565 155Q531 123 485 103Q441 84 400 84Q361 84 323 103Q289 122 265 155Q242 191 233 234Q224 278 235 330Q247 383 274 427Q300 469 339 505Q378 540 419 557Q461 576 504 576Z"  horiz-adv-x="763" vert-adv-y="1000"  />

      
      <glyph glyph-name="unid6" unicode="&#xd6;" d="M582 710Q598 689 631 689Q664 689 691 711Q716 732 722 760Q728 787 711 809Q697 830 661 830Q628 830 602 808Q578 789 572 760Q566 734 582 710M380 710Q398 689 429 689Q460 689 488 711Q514 733 520 760Q526 788 508 809Q493 830 459 830Q426 830 400 808Q375 789 369 760Q363 733 380 710M375-33Q450-33 525-5Q599 24 654 72Q716 126 752 187Q794 255 808 330Q824 406 812 473Q799 543 764 588Q728 638 667 665Q610 692 529 692Q450 692 379 664Q307 637 249 588Q196 543 151 473Q112 409 95 330Q79 249 91 186Q102 125 140 71Q177 23 237-6Q298-33 375-33M504 576Q548 576 582 557Q614 541 640 505Q663 473 671 426Q680 381 668 330Q658 280 629 233Q601 187 565 155Q531 123 485 103Q441 84 400 84Q361 84 323 103Q289 122 265 155Q242 191 233 234Q224 278 235 330Q247 383 274 427Q300 469 339 505Q378 540 419 557Q461 576 504 576Z"  horiz-adv-x="763" vert-adv-y="1000"  />

      
      <glyph glyph-name="unid9" unicode="&#xd9;" d="M485 695L611 695L518 853L366 853L485 695M556 28Q609 66 638 112Q665 155 681 226L778 680L646 680L554 251Q549 224 542 201Q534 175 530 167Q525 156 515 144Q513 142 509 138Q505 134 501.50 130.50Q498 127 494 123Q439 74 366 74Q292 74 258 123Q250 135 246 144Q242 157 241 168Q241 188 243 201Q246 218 252 251L344 680L212 680L115 226Q101 157 110 111Q119 66 157 28Q227-39 343-39Q459-39 556 28Z"  horiz-adv-x="700" vert-adv-y="1000"  />

      
      <glyph glyph-name="unida" unicode="&#xda;" d="M539 695L724 853L572 853L412 695L539 695M556 28Q609 66 638 112Q665 155 681 226L778 680L646 680L554 251Q549 224 542 201Q534 175 530 167Q525 156 515 144Q513 142 509 138Q505 134 501.50 130.50Q498 127 494 123Q439 74 366 74Q292 74 258 123Q250 135 246 144Q242 157 241 168Q241 188 243 201Q246 218 252 251L344 680L212 680L115 226Q101 157 110 111Q119 66 157 28Q227-39 343-39Q459-39 556 28Z"  horiz-adv-x="700" vert-adv-y="1000"  />

      
      <glyph glyph-name="unidb" unicode="&#xdb;" d="M565 676L698 676L577 833L490 833L306 676L436 676L513 733L565 676M556 28Q609 66 638 112Q665 155 681 226L778 680L646 680L554 251Q549 224 542 201Q534 175 530 167Q525 156 515 144Q513 142 509 138Q505 134 501.50 130.50Q498 127 494 123Q439 74 366 74Q292 74 258 123Q250 135 246 144Q242 157 241 168Q241 188 243 201Q246 218 252 251L344 680L212 680L115 226Q101 157 110 111Q119 66 157 28Q227-39 343-39Q459-39 556 28Z"  horiz-adv-x="700" vert-adv-y="1000"  />

      
      <glyph glyph-name="unidc" unicode="&#xdc;" d="M605 692Q638 692 664 713Q688 732 695 762Q701 791 684 811Q668 832 635 832Q603 832 576 811Q551 790 545 762Q539 735 556 713Q574 692 605 692M403 692Q436 692 462 713Q486 732 493 762Q499 791 482 811Q466 832 433 832Q401 832 374 811Q349 790 343 762Q337 735 354 713Q372 692 403 692M556 28Q609 66 638 112Q665 155 681 226L778 680L646 680L554 251Q549 224 542 201Q534 175 530 167Q525 156 515 144Q513 142 509 138Q505 134 501.50 130.50Q498 127 494 123Q439 74 366 74Q292 74 258 123Q250 135 246 144Q242 157 241 168Q241 188 243 201Q246 218 252 251L344 680L212 680L115 226Q101 157 110 111Q119 66 157 28Q227-39 343-39Q459-39 556 28Z"  horiz-adv-x="700" vert-adv-y="1000"  />

      
      <glyph glyph-name="unie0" unicode="&#xe0;" d="M343 499L466 499L392 702L246 702L343 499M393-20L520-20L422 510L310 510L-13-20L115-20L197 113L366 113L393-20M330 341L351 215L255 215L330 341Z"  horiz-adv-x="516" vert-adv-y="1000"  />

      
      <glyph glyph-name="unie1" unicode="&#xe1;" d="M395 498L579 702L433 702L273 498L395 498M393-20L520-20L422 510L310 510L-13-20L115-20L197 113L366 113L393-20M330 341L351 215L255 215L330 341Z"  horiz-adv-x="516" vert-adv-y="1000"  />

      
      <glyph glyph-name="unie2" unicode="&#xe2;" d="M433 499L560 499L461 702L369 702L186 499L311 499L390 586L433 499M393-20L520-20L422 510L310 510L-13-20L115-20L197 113L366 113L393-20M330 341L351 215L255 215L330 341Z"  horiz-adv-x="516" vert-adv-y="1000"  />

      
      <glyph glyph-name="unie3" unicode="&#xe3;" d="M516 520Q536 527 553 537Q563 543 603 573L562 645Q521 619 506 612Q492 605 487 603Q484 602 474 599Q472 599 468 598.50Q464 598 461 598Q455 598 446 601Q443 602 436 606Q429 610 425 612Q403 626 397 629Q387 636 378 639Q368 644 361 645Q356 647 347 647Q343 648 330 648Q291 648 252 630Q232 622 222 617Q219 616 161 583L201 504Q212 510 222.50 516Q233 522 239 525Q245 528 246 529Q248 530 252 532.50Q256 535 258 536L266 540Q269 542 273 542Q285 548 297 548Q306 548 312 545Q326 540 337 532Q388 502 431 502Q471 502 516 520M393-20L520-20L422 510L310 510L-13-20L115-20L197 113L366 113L393-20M330 341L351 215L255 215L330 341Z"  horiz-adv-x="516" vert-adv-y="1000"  />

      
      <glyph glyph-name="unie4" unicode="&#xe4;" d="M457 502Q488 502 515 524Q541 546 547 572Q553 601 535 622Q520 643 487 643Q453 643 427 621Q402 602 396 572Q390 546 407 523Q425 502 457 502M282 502Q313 502 340 524Q366 546 372 572Q378 601 360 622Q345 643 312 643Q278 643 252 621Q227 602 221 572Q215 546 232 523Q250 502 282 502M393-20L520-20L422 510L310 510L-13-20L115-20L197 113L366 113L393-20M330 341L351 215L255 215L330 341Z"  horiz-adv-x="516" vert-adv-y="1000"  />

      
      <glyph glyph-name="unie5" unicode="&#xe5;" d="M366 497Q410 497 446 527Q482 557 491 596Q500 636 476 666Q453 696 408 696Q364 696 326 666Q291 637 282 596Q273 556 297 526Q320 497 366 497M393-20L520-20L422 510L310 510L-13-20L115-20L197 113L366 113L393-20M391 618Q396 618 401 612Q406 607 403 596Q401 586 394 580Q389 575 382 575Q378 575 372 581Q368 586 370 596Q373 606 379 612Q386 618 391 618M330 341L351 215L255 215L330 341Z"  horiz-adv-x="516" vert-adv-y="1000"  />

      
      <glyph glyph-name="unie6" unicode="&#xe6;" d="M297-21L648-21L670 83L445 83L468 194L650 194L672 297L489 297L510 395L731 395L753 498L432 498L373 498L-44-21L98-21L204 114L325 114L297-21M365 324L343 220L285 220L365 324Z"  horiz-adv-x="686" vert-adv-y="1000"  />

      
      <glyph glyph-name="unie8" unicode="&#xe8;" d="M344 499L467 499L393 702L247 702L344 499M88-20L440-20L462 83L236 83L259 194L441 194L463 297L281 297L302 395L522 395L544 498L198 498L88-20Z"  horiz-adv-x="478" vert-adv-y="1000"  />

      
      <glyph glyph-name="unie9" unicode="&#xe9;" d="M423 498L607 702L461 702L301 498L423 498M88-20L440-20L462 83L236 83L259 194L441 194L463 297L281 297L302 395L522 395L544 498L198 498L88-20Z"  horiz-adv-x="478" vert-adv-y="1000"  />

      
      <glyph glyph-name="uniea" unicode="&#xea;" d="M437 499L564 499L465 702L373 702L190 499L315 499L394 586L437 499M88-20L440-20L462 83L236 83L259 194L441 194L463 297L281 297L302 395L522 395L544 498L198 498L88-20Z"  horiz-adv-x="478" vert-adv-y="1000"  />

      
      <glyph glyph-name="unieb" unicode="&#xeb;" d="M462 500Q493 500 520 522Q546 544 552 570Q558 600 541 620Q526 641 492 641Q459 641 433 619Q407 597 401 570Q395 544 412 521Q430 500 462 500M287 500Q318 500 345 522Q371 544 377 570Q383 600 366 620Q351 641 317 641Q284 641 258 619Q232 597 226 570Q220 544 237 521Q255 500 287 500M88-20L440-20L462 83L236 83L259 194L441 194L463 297L281 297L302 395L522 395L544 498L198 498L88-20Z"  horiz-adv-x="478" vert-adv-y="1000"  />

      
      <glyph glyph-name="uniec" unicode="&#xec;" d="M239 499L362 499L288 702L142 702L239 499M88-20L214-20L324 498L198 498L88-20Z"  horiz-adv-x="310" vert-adv-y="1000"  />

      
      <glyph glyph-name="unied" unicode="&#xed;" d="M288 498L472 702L326 702L165 498L288 498M88-20L214-20L324 498L198 498L88-20Z"  horiz-adv-x="310" vert-adv-y="1000"  />

      
      <glyph glyph-name="uniee" unicode="&#xee;" d="M326 499L454 499L354 702L263 702L80 499L205 499L283 585L326 499M88-20L214-20L324 498L198 498L88-20Z"  horiz-adv-x="310" vert-adv-y="1000"  />

      
      <glyph glyph-name="unief" unicode="&#xef;" d="M340 502Q371 502 398 524Q424 546 430 572Q436 601 418 622Q403 643 370 643Q336 643 310 621Q285 602 279 572Q273 546 290 523Q308 502 340 502M190 502Q221 502 248 524Q274 546 280 572Q286 601 268 622Q253 643 220 643Q186 643 160 621Q135 602 129 572Q123 546 140 523Q158 502 190 502M88-20L214-20L324 498L198 498L88-20Z"  horiz-adv-x="310" vert-adv-y="1000"  />

      
      <glyph glyph-name="unif2" unicode="&#xf2;" d="M391 499L514 499L440 702L294 702L391 499M318-29Q380-29 439-8Q499 13 543 48Q588 83 621 133Q653 181 665 239Q678 299 666 345Q656 394 624 430Q594 466 543 487Q496 507 432 507Q368 507 310 486Q252 465 206 430Q162 396 128 345Q98 299 85 239Q73 183 84 133Q97 82 125 48Q156 12 205-9Q252-29 318-29M410 403Q443 403 470 391Q496 379 513 358Q529 340 535 306Q541 274 534 239Q527 204 507 172Q488 141 462 119Q436 98 404 86Q372 74 340 74Q307 74 280 86Q256 97 236 120Q219 141 213 172Q207 202 215 239Q223 276 242 306Q264 339 287 358Q311 378 345 391Q378 403 410 403Z"  horiz-adv-x="647" vert-adv-y="1000"  />

      
      <glyph glyph-name="unif3" unicode="&#xf3;" d="M467 498L651 702L505 702L345 498L467 498M318-29Q380-29 439-8Q499 13 543 48Q588 83 621 133Q653 181 665 239Q678 299 666 345Q656 394 624 430Q594 466 543 487Q496 507 432 507Q368 507 310 486Q252 465 206 430Q162 396 128 345Q98 299 85 239Q73 183 84 133Q97 82 125 48Q156 12 205-9Q252-29 318-29M410 403Q443 403 470 391Q496 379 513 358Q529 340 535 306Q541 274 534 239Q527 204 507 172Q488 141 462 119Q436 98 404 86Q372 74 340 74Q307 74 280 86Q256 97 236 120Q219 141 213 172Q207 202 215 239Q223 276 242 306Q264 339 287 358Q311 378 345 391Q378 403 410 403Z"  horiz-adv-x="647" vert-adv-y="1000"  />

      
      <glyph glyph-name="unif4" unicode="&#xf4;" d="M497 499L624 499L525 702L433 702L250 499L375 499L454 586L497 499M318-29Q380-29 439-8Q499 13 543 48Q588 83 621 133Q653 181 665 239Q678 299 666 345Q656 394 624 430Q594 466 543 487Q496 507 432 507Q368 507 310 486Q252 465 206 430Q162 396 128 345Q98 299 85 239Q73 183 84 133Q97 82 125 48Q156 12 205-9Q252-29 318-29M410 403Q443 403 470 391Q496 379 513 358Q529 340 535 306Q541 274 534 239Q527 204 507 172Q488 141 462 119Q436 98 404 86Q372 74 340 74Q307 74 280 86Q256 97 236 120Q219 141 213 172Q207 202 215 239Q223 276 242 306Q264 339 287 358Q311 378 345 391Q378 403 410 403Z"  horiz-adv-x="647" vert-adv-y="1000"  />

      
      <glyph glyph-name="unif5" unicode="&#xf5;" d="M576 519Q596 526 613 536Q618 539 662 572L622 644Q581 618 566 611Q552 604 547 602Q544 600 534 598Q532 598 528 597.50Q524 597 521 597Q515 597 506 600Q503 601 496.50 605Q490 609 485 611Q463 625 457 628Q448 634 437 638Q427 643 420 644Q415 646 407 646Q403 647 390 647Q351 647 312 629Q294 622 281 616Q278 615 220 582L261 503Q272 509 282.50 515Q293 521 299 524Q305 527 306 528Q308 529 312 531.50Q316 534 318 535Q320 536 322 537.50Q324 539 325 539Q327 541 333 541Q345 547 357 547Q366 547 372 544Q383 540 396 531Q447 501 490 501Q531 501 576 519M318-29Q380-29 439-8Q499 13 543 48Q588 83 621 133Q653 181 665 239Q678 299 666 345Q656 394 624 430Q594 466 543 487Q496 507 432 507Q368 507 310 486Q252 465 206 430Q162 396 128 345Q98 299 85 239Q73 183 84 133Q97 82 125 48Q156 12 205-9Q252-29 318-29M410 403Q443 403 470 391Q496 379 513 358Q529 340 535 306Q541 274 534 239Q527 204 507 172Q488 141 462 119Q436 98 404 86Q372 74 340 74Q307 74 280 86Q256 97 236 120Q219 141 213 172Q207 202 215 239Q223 276 242 306Q264 339 287 358Q311 378 345 391Q378 403 410 403Z"  horiz-adv-x="647" vert-adv-y="1000"  />

      
      <glyph glyph-name="unif6" unicode="&#xf6;" d="M545 502Q577 502 604 524Q629 545 635 572Q641 600 624 622Q610 643 575 643Q542 643 516 621Q491 600 485 572Q479 546 496 523Q514 502 545 502M310 502Q342 502 369 524Q394 545 400 572Q406 600 389 622Q375 643 340 643Q307 643 281 621Q256 600 250 572Q244 546 261 523Q279 502 310 502M318-29Q380-29 439-8Q499 13 543 48Q588 83 621 133Q653 181 665 239Q678 299 666 345Q656 394 624 430Q594 466 543 487Q496 507 432 507Q368 507 310 486Q252 465 206 430Q162 396 128 345Q98 299 85 239Q73 183 84 133Q97 82 125 48Q156 12 205-9Q252-29 318-29M410 403Q443 403 470 391Q496 379 513 358Q529 340 535 306Q541 274 534 239Q527 204 507 172Q488 141 462 119Q436 98 404 86Q372 74 340 74Q307 74 280 86Q256 97 236 120Q219 141 213 172Q207 202 215 239Q223 276 242 306Q264 339 287 358Q311 378 345 391Q378 403 410 403Z"  horiz-adv-x="647" vert-adv-y="1000"  />

      
      <glyph glyph-name="unif7" unicode="&#xf7;" d="M296 372Q315 349 351 349Q387 349 416 373Q445 396 451 427Q458 459 439 483Q422 506 385 506Q349 506 319 482Q291 459 284 427Q278 396 296 372M40 188L590 188L611 285L61 285L40 188M215-8Q234-31 270-31Q306-31 335-7Q364 16 370 48Q377 79 358 103Q341 126 304 126Q268 126 238 102Q210 79 203 48Q197 16 215-8Z"  horiz-adv-x="550" vert-adv-y="1000"  />

      
      <glyph glyph-name="unif9" unicode="&#xf9;" d="M375 499L498 499L424 702L278 702L375 499M459 6Q511 33 537 77Q563 119 579 195L644 498L519 498L452 182Q428 70 322 70Q216 70 240 182L307 498L182 498L117 195Q102 122 110 76Q119 32 157 6Q181-10 223-23Q264-34 300-34Q338-34 382-23Q430-10 459 6Z"  horiz-adv-x="614" vert-adv-y="1000"  />

      
      <glyph glyph-name="unifa" unicode="&#xfa;" d="M452 498L636 702L490 702L330 498L452 498M459 6Q511 33 537 77Q563 119 579 195L644 498L519 498L452 182Q428 70 322 70Q216 70 240 182L307 498L182 498L117 195Q102 122 110 76Q119 32 157 6Q181-10 223-23Q264-34 300-34Q338-34 382-23Q430-10 459 6Z"  horiz-adv-x="614" vert-adv-y="1000"  />

      
      <glyph glyph-name="unifb" unicode="&#xfb;" d="M479 499L606 499L506 702L415 702L232 499L357 499L436 586L479 499M459 6Q511 33 537 77Q563 119 579 195L644 498L519 498L452 182Q428 70 322 70Q216 70 240 182L307 498L182 498L117 195Q102 122 110 76Q119 32 157 6Q181-10 223-23Q264-34 300-34Q338-34 382-23Q430-10 459 6Z"  horiz-adv-x="614" vert-adv-y="1000"  />

      
      <glyph glyph-name="unifc" unicode="&#xfc;" d="M452 522Q468 501 501 501Q534 501 561 523Q587 544 591 571Q597 600 581 621Q567 642 531 642Q498 642 472 620Q447 599 441 571Q437 545 452 522M274 522Q290 501 323 501Q356 501 383 523Q409 544 413 571Q419 600 403 621Q389 642 353 642Q320 642 294 620Q269 599 263 571Q259 545 274 522M459 6Q511 33 537 77Q563 119 579 195L644 498L519 498L452 182Q428 70 322 70Q216 70 240 182L307 498L182 498L117 195Q102 122 110 76Q119 32 157 6Q181-10 223-23Q264-34 300-34Q338-34 382-23Q430-10 459 6Z"  horiz-adv-x="614" vert-adv-y="1000"  />

      
      <glyph glyph-name="uniff" unicode="&#xff;" d="M438 503Q469 503 496 525Q522 547 528 573Q534 603 517 623Q502 644 468 644Q435 644 409 622Q383 600 377 573Q371 547 388 524Q406 503 438 503M263 503Q294 503 321 525Q347 547 353 573Q359 603 342 623Q327 644 293 644Q260 644 234 622Q208 600 202 573Q196 547 213 524Q231 503 263 503M339 209L601 498L456 498L308 326L234 498L90 498L214 209L166-20L291-20L339 209Z"  horiz-adv-x="478" vert-adv-y="1000"  />

      
      <glyph glyph-name="uni0178" unicode="&#x0178;" d="M515 687Q547 687 574 709Q600 731 606 758Q612 787 595 807Q580 828 545 828Q513 828 487 806Q461 784 455 758Q449 731 466 708Q484 687 515 687M313 687Q345 687 372 709Q398 731 404 758Q410 787 393 807Q378 828 343 828Q310 828 284 806Q259 786 253 758Q247 731 264 708Q282 687 313 687M399 303L728 680L584 680L363 421L256 680L113 680L266 298L199-20L331-20L399 303Z"  horiz-adv-x="550" vert-adv-y="1000"  />

      
      <glyph glyph-name="uni02DC" unicode="&#x02DC;" d="M472 520Q492 527 509 537Q519 543 559 573L518 645Q477 619 462 612Q448 605 443 603Q440 602 430 599Q428 599 424 598.50Q420 598 417 598Q411 598 402 601Q399 602 392.50 606Q386 610 381 612Q359 626 353 629Q343 636 334 639Q324 644 317 645Q312 647 303 647Q299 648 286 648Q247 648 208 630Q188 622 178 617Q175 616 117 583L157 504Q168 510 178.50 516Q189 522 195 525Q201 528 202 529Q204 530 208 532.50Q212 535 214 536L222 540Q225 542 229 542Q241 548 253 548Q262 548 268 545Q282 540 293 532Q344 502 387 502Q427 502 472 520Z"  horiz-adv-x="454" vert-adv-y="1000"  />

      
      <glyph glyph-name="uni02DD" unicode="&#x02DD;" d="M368 477L552 680L406 680L245 477L368 477M231 477L415 680L269 680L107 477L231 477Z"  horiz-adv-x="383" vert-adv-y="1000"  />

      
      <glyph glyph-name="uni2013" unicode="&#x2013;" d="M40 188L590 188L611 285L61 285L40 188Z"  horiz-adv-x="550" vert-adv-y="1000"  />

      
      <glyph glyph-name="uni2018" unicode="&#x2018;" d="M217 395Q237 395 255 400Q275 407 311 426L289 541Q290 543 291.50 547.50Q293 552 294 554Q295 556 296 558Q297 560 298 562.50Q299 565 300 566Q301 567 302.50 570Q304 573 305 575.50Q306 578 307 580L316 598Q320 605 325.50 614.50Q331 624 333 627Q344 647 368 680L271 680L244 643Q211 600 199 581Q183 557 172 535Q159 509 152 479Q134 395 217 395Z"  horiz-adv-x="252" vert-adv-y="1000"  />

      
      <glyph glyph-name="uni2019" unicode="&#x2019;" d="M310 551Q318 564 323 581Q328 594 330 608Q348 692 266 692Q242 692 227 687Q208 682 173 660L194 546Q192 542 188 534Q186 530 182 520Q181 518 179.50 513.50Q178 509 176 506Q174 502 167 489Q164 485 160.50 478.50Q157 472 154.50 468Q152 464 150 460Q142 447 115 407L212 407L240 444Q267 480 283 505Q300 532 310 551Z"  horiz-adv-x="252" vert-adv-y="1000"  />

      
      <glyph glyph-name="uni201A" unicode="&#x201A;" d="M188-22Q196-9 201 8Q205 18 209 36Q227 120 145 120Q120 120 105 115Q86 110 51 88L73-27Q72-32 67-39Q65-43 61-53Q57-61 54-66Q49-76 45-83Q43-87 28-113Q26-115 22-122Q18-129 10.50-141Q3-153-5-165L90-165L118-129Q137-103 161-67Q181-34 188-22Z"  horiz-adv-x="252" vert-adv-y="1000"  />

      
      <glyph glyph-name="uni201C" unicode="&#x201C;" d="M401 396Q404 396 410 396.50Q416 397 419 397Q435 400 436 400L454 406Q463 409 496 424L473 542Q475 547 484 568Q492 584 498 594Q505 608 508 613L516 625Q518 627 520.50 630.50Q523 634 524 636Q526 638 530.50 643Q535 648 544 659Q553 670 562 680L454 680Q401 614 373 567Q345 518 336 480Q318 396 401 396M217 396Q220 396 226 396.50Q232 397 235 397Q251 400 252 400Q255 401 261 403.50Q267 406 270 407L312 425L289 542Q291 547 300 568Q308 584 314 594Q330 622 332 625Q340 636 378 680L270 680Q220 621 188 567Q162 523 152 480Q134 396 217 396Z"  horiz-adv-x="437" vert-adv-y="1000"  />

      
      <glyph glyph-name="uni201D" unicode="&#x201D;" d="M397 408Q453 475 479 521Q508 570 515 608Q533 692 451 692Q439 692 433 691Q424 691 415 688Q408 686 397 681Q392 679 356 663L379 547Q373 532 367 520Q358 499 355 494Q353 491 350 485Q347 479 345 476Q342 469 337 463Q335 459 328 452Q327 450 322.50 445Q318 440 308.50 429.50Q299 419 290 408L397 408M213 408Q265 468 295 521Q323 569 331 608Q349 692 267 692Q255 692 249 691Q241 691 232 688L214 682Q205 679 172 664L196 546Q192 536 184 520Q178 505 171 494Q169 490 160 475Q156 468 152 462Q150 458 143 451Q138 445 106 408L213 408Z"  horiz-adv-x="437" vert-adv-y="1000"  />

      
      <glyph glyph-name="uni201E" unicode="&#x201E;" d="M275-164Q331-97 357-51Q386-1 393 35Q412 120 330 120Q317 120 311 119Q302 119 293 116Q281 112 274 109Q271 108 235 90L258-26Q252-41 246-53Q239-68 233-79Q231-82 228-88Q225-94 223-97Q221-101 215-109Q209-118 207-120Q206-122 201.50-127Q197-132 187.50-142.50Q178-153 169-164L275-164M91-164Q148-97 173-52Q202 0 209 35Q228 120 146 120Q133 120 127 119Q119 119 110 116Q98 112 92 109Q83 106 50 91L74-27Q70-36 62-52Q60-55 56-64Q52-73 49-79Q47-82 43.50-88Q40-94 38-97Q31-109 30-110Q30-111 22-121Q21-122 17-127Q13-132 3.50-142.50Q-6-153-15-164L91-164Z"  horiz-adv-x="437" vert-adv-y="1000"  />

      
      <glyph glyph-name="uni2030" unicode="&#x2030;" d="M273 300Q313 300 355 316Q398 334 428 358Q462 386 484 421Q506 454 514 495Q523 536 515 570Q507 606 486 632Q464 661 431 675Q399 691 356 691Q314 691 273 675Q236 661 200 632Q171 609 145 569Q123 534 114 495Q106 456 114 420Q123 384 143 358Q163 332 197 315Q232 300 273 300M172-64L940 712L813 712L45-64L172-64M1018-33Q1058-33 1101-17Q1141-1 1173 26Q1206 53 1228 88Q1252 123 1259 162Q1268 203 1260 237Q1253 271 1231 299Q1209 328 1176 342Q1146 357 1101 357Q1059 357 1018 341Q978 326 945 299Q913 273 890 236Q867 197 859 162Q852 123 859 87Q868 51 888 25Q909 0 943-17Q980-33 1018-33M634-33Q674-33 717-17Q757-1 789 26Q822 53 844 88Q868 123 875 162Q884 203 876 237Q869 271 847 299Q825 328 792 342Q762 357 717 357Q675 357 634 341Q594 326 561 299Q529 273 506 236Q483 197 475 162Q468 123 475 87Q484 51 504 25Q525 0 559-17Q596-33 634-33M334 590Q353 590 367 583Q382 577 391 563Q402 550 405 533Q410 515 404 495Q401 476 388 456Q377 440 362 426Q348 415 329 407Q308 400 294 400Q280 400 262 407Q249 414 238 427Q228 443 224 457Q222 471 225 495Q231 518 241 534Q253 552 268 564Q284 577 300 583Q317 590 334 590M1045 250Q1062 257 1080 257Q1098 257 1112 250Q1127 244 1136 230Q1147 217 1150 200Q1155 182 1149 162Q1146 142 1134 124Q1124 108 1107 94Q1093 83 1074 75Q1055 68 1039 68Q1024 68 1007 75Q994 82 982 95Q973 108 969 124Q966 142 969 162Q976 186 986 201Q999 221 1012 231Q1026 244 1045 250M661 250Q678 257 696 257Q714 257 728 250Q743 244 752 230Q762 219 765 200Q770 182 764 162Q761 144 748 124Q734 105 722 94Q707 82 690 75Q671 68 655 68Q641 68 623 75Q610 82 598 95Q589 108 585 124Q582 142 585 162Q592 186 602 201Q615 221 628 231Q642 244 661 250Z"  horiz-adv-x="1234" vert-adv-y="1000"  />

      
      <glyph glyph-name="uni2039" unicode="&#x2039;" d="M54 226L289-11L318 127L217 226L360 325L390 465L54 226Z"  horiz-adv-x="321" vert-adv-y="1000"  />

      
      <glyph glyph-name="uni203A" unicode="&#x203A;" d="M27-11L364 226L128 465L98 325L200 226L56 127L27-11Z"  horiz-adv-x="321" vert-adv-y="1000"  />

      
      <glyph glyph-name="uni2215" unicode="&#x2215;" d="M173 90L392 350L240 350L29 90L173 90Z"  horiz-adv-x="333" vert-adv-y="1000"  />

      
      <glyph glyph-name="uni221E" unicode="&#x221E;" d="M463-44L552 29L397 226L636 423L578 497L339 300L184 497L94 423L249 226L10 29L68-45L307 152L463-44Z"  horiz-adv-x="550" vert-adv-y="1000"  />

      

  </font>
</defs>
</svg>
