<?xml version="1.0" standalone="no"?>
  <!DOCTYPE svg PUBLIC "-//W3C//DTD SVG 1.1//EN" "http://www.w3.org/Graphics/SVG/1.1/DTD/svg11.dtd" >
  <svg>
  <metadata>
  Created by font-carrier
  </metadata>
  <defs>
  <font id="ScalySansRemakeBoldItalic" horiz-adv-x="1009" vert-adv-y="1009" >
    <font-face
      
      font-family="ScalySansRemakeBoldItalic"
      
      font-weight="400"
      
      font-stretch="normal"
      
      units-per-em="1000"
      
      ascent="839"
      
      descent="-240"
      
    />
      <missing-glyph />

      

      
      <glyph glyph-name="uni21" unicode="&#x21;" d="M177 62Q177 28 151 4Q125-20 88-20Q58-20 37.50 3.50Q17 27 17 59Q17 93 43 117.50Q69 142 106 142Q135 142 156 118.50Q177 95 177 62M268 741L175 196L61 196L137 715L268 741Z"  horiz-adv-x="264" vert-adv-y="1000"  />

      
      <glyph glyph-name="uni22" unicode="&#x22;" d="M239 665L204 436L120 436L156 665L239 665M402 665L365 436L282 436L318 665L402 665Z"  horiz-adv-x="412" vert-adv-y="1000"  />

      
      <glyph glyph-name="uni23" unicode="&#x23;" d="M573 485L551 384L441 384L424 289L535 289L516 191L405 191L368 0L260 0L295 191L197 191L161 0L52 0L89 191L-23 191L-5 289L109 289L128 384L13 384L35 485L150 485L184 663L292 663L258 485L354 485L388 663L497 663L464 485L573 485M332 384L234 384L217 289L313 289L332 384Z"  horiz-adv-x="550" vert-adv-y="1000"  />

      
      <glyph glyph-name="uni24" unicode="&#x24;" d="M576 631L518 539Q475 559 454.50 566Q434 573 404 576L373 390Q394 374 410 365Q480 318 489 310Q513 291 528 260.50Q543 230 543 199Q543 167 527 130.50Q511 94 485 67Q453 31 415 14Q377-3 311-13L302-69L235-69L244-13Q199-8 160 4Q121 17 60 46L114 152Q160 121 186.50 110.50Q213 100 262 95L294 302Q239 335 198 370Q160 401 145 428.50Q130 456 130 490Q130 567 192 618.50Q254 670 354 678L363 734L429 734L420 678Q451 675 488 667Q536 655 576 631M338 576Q258 570 258 505Q258 482 270.50 467Q283 452 315 434L338 576M413 177Q413 204 400 221Q387 238 352 258L328 95Q373 102 393 121.50Q413 141 413 177Z"  horiz-adv-x="543" vert-adv-y="1000"  />

      
      <glyph glyph-name="uni25" unicode="&#x25;" d="M332.50 624Q332.50 624 358.25 598Q384 572 384 498.50Q384 425 332.50 373.50Q281 322 207 322Q135 322 83 373.50Q31 425 31 498.50Q31 572 83 624Q135 676 207 676Q281 676 332.50 624M752 690L183-44L88-44L657 690L752 690M277.50 429Q277.50 429 291.75 443.50Q306 458 306 498.50Q306 539 277.50 568Q249 597 207 597Q167 597 138 568Q109 539 109 498.50Q109 458 138 429Q167 400 207 400Q249 400 277.50 429M819 163Q819 91 767 39Q715-13 642-13Q569-13 517.50 38.50Q466 90 466 163Q466 236 517.50 287.50Q569 339 642 339Q715 339 767 287.50Q819 236 819 163M741 163Q741 205 712 233.50Q683 262 642 262Q601 262 572.50 233.50Q544 205 544 163Q544 122 572.50 93Q601 64 642 64Q683 64 712 93Q741 122 741 163Z"  horiz-adv-x="850" vert-adv-y="1000"  />

      
      <glyph glyph-name="uni26" unicode="&#x26;" d="M715-150Q689-173 675-184Q621-227 585-227Q536-227 478-142L348 47Q292 14 262 5Q218-9 157-9Q115-9 91 1Q62 13 46 54.50Q30 96 30 159Q30 296 104 388.50Q178 481 287 481Q349 481 383 457.50Q417 434 417 393Q417 346 390 304Q379 288 365 277Q351 266 324 252L379 175Q421 217 442 253Q483 322 496 404L516 531L421 531L432 607L702 607L690 531L609 531L587 392Q581 346 559.50 292.50Q538 239 512 199Q487 162 429 104L529-42Q534-49 556-77Q574-100 583.50-108Q593-116 604.50-116Q616-116 627.50-108Q639-100 661-76L715-150M307 381Q307 413 278 413Q248 413 210 364Q184 330 166.50 276.50Q149 223 149 175Q149 80 196 80Q218 80 246 90Q259 94 297 117L197 259Q224 268 237.50 275.50Q251 283 265 297Q307 335 307 381Z"  horiz-adv-x="596" vert-adv-y="1000"  />

      
      <glyph glyph-name="uni27" unicode="&#x27;" d="M240 665L205 436L120 436L156 665L240 665Z"  horiz-adv-x="251" vert-adv-y="1000"  />

      
      <glyph glyph-name="uni28" unicode="&#x28;" d="M381 666Q193 350 193 41Q193-19 201-93Q208-147 214.50-176.50Q221-206 236-253L128-253Q117-225 117-224Q101-178 89.50-96.50Q78-15 78 53Q78 207 129 366Q180 525 274 666L381 666Z"  horiz-adv-x="309" vert-adv-y="1000"  />

      
      <glyph glyph-name="uni29" unicode="&#x29;" d="M247 358Q247 205 196 46.50Q145-112 50-253L-56-253Q131 63 131 372Q131 443 123 505Q117 558 110.50 587Q104 616 89 665L196 665Q205 645 207 636Q223 591 235 509Q247 427 247 358Z"  horiz-adv-x="309" vert-adv-y="1000"  />

      
      <glyph glyph-name="uni2a" unicode="&#x2a;" d="M191 532L163 445L19 483L52 586L191 532M243 375L163 249L76 313L169 428L243 375M305 690L296 541L205 541L196 690L305 690M426 313L337 250L258 375L331 428L426 313M480 482L336 445L308 532L447 586L480 482Z"  horiz-adv-x="500" vert-adv-y="1000"  />

      
      <glyph glyph-name="uni2b" unicode="&#x2b;" d="M316 197L316 0L234 0L234 197L36 197L36 280L234 280L234 477L316 477L316 280L513 280L513 197L316 197Z"  horiz-adv-x="550" vert-adv-y="1000"  />

      
      <glyph glyph-name="uni2c" unicode="&#x2c;" d="M184 79Q184 34 150.50-33.50Q117-101 63-166L-10-166Q14-130 33-92Q52-54 62-16L27 119Q58 133 75 137Q92 141 117 141Q152 141 168 126Q184 111 184 79Z"  horiz-adv-x="251" vert-adv-y="1000"  />

      
      <glyph glyph-name="uni2d" unicode="&#x2d;" d="M257 287L239 175L27 175L46 287L257 287Z"  horiz-adv-x="276" vert-adv-y="1000"  />

      
      <glyph glyph-name="uni2e" unicode="&#x2e;" d="M184 69Q184 35 158.50 11Q133-13 96-13Q66-13 45 10.50Q24 34 24 66Q24 100 50 124.50Q76 149 113 149Q142 149 163 125.50Q184 102 184 69Z"  horiz-adv-x="251" vert-adv-y="1000"  />

      
      <glyph glyph-name="uni2f" unicode="&#x2f;" d="M496 665L98-247L-23-247L375 665L496 665Z"  horiz-adv-x="409" vert-adv-y="1000"  />

      
      <glyph glyph-name="uni30" unicode="&#x30;" d="M537 269Q537 145 461 66.50Q385-12 264-13Q166-13 112 42.50Q58 98 58 197Q58 209 60 232Q74 343 146.50 410Q219 477 325 477Q426 477 481.50 422.50Q537 368 537 269M415 255Q415 311 387.50 349Q360 387 319 387Q264 387 220 334.50Q176 282 176 214Q176 156 205 117Q234 78 276 78Q331 78 373 131.50Q415 185 415 255Z"  horiz-adv-x="528" vert-adv-y="1000"  />

      
      <glyph glyph-name="uni31" unicode="&#x31;" d="M344 487L267 0L147 0L202 354L74 304L45 399L287 487L344 487Z"  horiz-adv-x="365" vert-adv-y="1000"  />

      
      <glyph glyph-name="uni32" unicode="&#x32;" d="M431 360Q431 304 405 258.50Q379 213 323 171L215 89L405 89L391 0L12 0L21 57L164 164Q245 226 274 269Q304 313 304 343Q304 364 288 376.50Q272 389 246 389Q206 389 114 329L59 418Q82 431 122 450Q202 488 287 488Q357 488 394 455Q431 422 431 360Z"  horiz-adv-x="429" vert-adv-y="1000"  />

      
      <glyph glyph-name="uni33" unicode="&#x33;" d="M393 358Q393 275 330 224Q311 208 293 198.50Q275 189 240 177L252 178Q377 188 377 49Q377-58 295.50-134.50Q214-211 100-211Q73-211 42-205Q4-198-41-177L2-89Q8-92 29-103Q63-116 100-116Q161-116 205.50-67Q250-18 250 48Q250 82 226.50 101Q203 120 161 120L105 120L123 196Q182 215 223.50 255.50Q265 296 265 336Q265 357 249.50 373.50Q234 390 214 390Q171 390 96 348L57 424Q91 444 110 452Q179 484 258 484Q321 484 357 451Q393 418 393 358Z"  horiz-adv-x="410" vert-adv-y="1000"  />

      
      <glyph glyph-name="uni34" unicode="&#x34;" d="M439 89L425 0L362 0L329-208L215-208L247 0L-11 0L-4 44L338 487L439 487L376 89L439 89M306 323Q296 306 291 296Q290 295 288 292Q286 289 282 283Q278 277 275 271Q267 259 262 253L136 89L262 89L286 241Q290 271 306 323Z"  horiz-adv-x="465" vert-adv-y="1000"  />

      
      <glyph glyph-name="uni35" unicode="&#x35;" d="M432 481L416 380L232 380L208 228Q273 221 307 205Q345 187 366 147.50Q387 108 387 55Q387-53 307.50-132Q228-211 118-211Q58-211-15-183L19-89Q85-116 126-116Q181-116 221.50-70Q262-24 262 40Q262 94 229 115Q213 125 186 132Q159 139 138 139L74 139L128 481L432 481Z"  horiz-adv-x="402" vert-adv-y="1000"  />

      
      <glyph glyph-name="uni36" unicode="&#x36;" d="M556 640L516 545Q454 577 419 577Q363 577 314.50 530.50Q266 484 237.50 404Q209 324 209 231Q209 160 232.50 118.50Q256 77 294 77Q340 77 374.50 124.50Q409 172 409 237Q409 277 384.50 296.50Q360 316 308 316L283 316L295 393Q351 404 383 404Q451 404 494 359.50Q537 315 537 245Q537 137 464 62.50Q391-12 285-12Q185-12 133 49Q81 110 81 227Q81 345 125 449Q169 553 243 614.50Q317 676 402 676Q427 676 461 671Q502 663 556 640Z"  horiz-adv-x="550" vert-adv-y="1000"  />

      
      <glyph glyph-name="uni37" unicode="&#x37;" d="M459 481L448 412L299 108Q275 61 242 5Q200-67 171.50-108Q143-149 89-215L5-152Q73-70 102-27Q158 54 204 152L309 374L50 374L67 481L459 481Z"  horiz-adv-x="420" vert-adv-y="1000"  />

      
      <glyph glyph-name="uni38" unicode="&#x38;" d="M530 551Q530 522 518 494Q507 468 489.50 449Q472 430 436 405L373 361L439 304Q472 276 491.50 239.50Q511 203 511 168Q511 88 435.50 38.50Q360-11 239-11Q144-11 95 26.50Q46 64 46 137Q46 181 73.50 229Q101 277 142 304L227 361L184 405Q159 430 145 462Q131 494 131 524Q131 591 194.50 633.50Q258 676 359 676Q439 676 484.50 642.50Q530 609 530 551M383 179Q383 220 355 247L293 304L237 266Q208 246 189 215Q170 184 170 155Q170 120 196.50 98Q223 76 265 76Q312 76 347.50 107Q383 138 383 179M404 527Q404 554 386.50 571Q369 588 341 588Q305 588 281 568.50Q257 549 257 520Q257 491 275 468L312 424L370 462Q404 485 404 527Z"  horiz-adv-x="507" vert-adv-y="1000"  />

      
      <glyph glyph-name="uni39" unicode="&#x39;" d="M523 246Q523 128 479 24Q435-80 360.50-141.50Q286-203 202-203Q184-203 142-197Q114-193 96.50-186.50Q79-180 49-164L89-69Q143-105 186-105Q241-105 289-58Q337-11 365.50 69.50Q394 150 394 243Q394 313 371 354.50Q348 396 309 396Q263 396 229 348.50Q195 301 195 237Q195 193 217.50 175.50Q240 158 296 158L322 158L309 83Q263 68 229 68Q155 68 111 111.50Q67 155 67 228Q67 336 140 410Q213 484 318 484Q418 484 470.50 423.50Q523 363 523 246Z"  horiz-adv-x="550" vert-adv-y="1000"  />

      
      <glyph glyph-name="uni3a" unicode="&#x3a;" d="M184 69Q184 35 158.50 11Q133-13 96-13Q66-13 45 10.50Q24 34 24 66Q24 100 50 124.50Q76 149 113 149Q142 149 163 125.50Q184 102 184 69M238 402Q238 368 211.50 344Q185 320 148 320Q119 320 98.50 343.50Q78 367 78 400Q78 434 103.50 457.50Q129 481 165 481Q195 481 216.50 458Q238 435 238 402Z"  horiz-adv-x="251" vert-adv-y="1000"  />

      
      <glyph glyph-name="uni3b" unicode="&#x3b;" d="M184 79Q184 34 150.50-33.50Q117-101 63-166L-10-166Q14-130 33-92Q52-54 62-16L27 119Q58 133 75 137Q92 141 117 141Q152 141 168 126Q184 111 184 79M237 402Q237 368 210.50 344Q184 320 147 320Q118 320 97.50 343.50Q77 367 77 400Q77 434 102.50 457.50Q128 481 165 481Q195 481 216 458Q237 435 237 402Z"  horiz-adv-x="251" vert-adv-y="1000"  />

      
      <glyph glyph-name="uni3c" unicode="&#x3c;" d="M512 0L37 211L37 266L512 477L512 397L155 239L512 81L512 0Z"  horiz-adv-x="550" vert-adv-y="1000"  />

      
      <glyph glyph-name="uni3d" unicode="&#x3d;" d="M527 274L23 274L23 357L527 357L527 274M527 110L23 110L23 192L527 192L527 110Z"  horiz-adv-x="550" vert-adv-y="1000"  />

      
      <glyph glyph-name="uni3e" unicode="&#x3e;" d="M512 212L37 0L37 81L395 239L37 397L37 477L512 266L512 212Z"  horiz-adv-x="550" vert-adv-y="1000"  />

      
      <glyph glyph-name="uni3f" unicode="&#x3f;" d="M470 580Q470 488 411 427Q396 413 364 386Q314 345 256 306Q279 275 309 243L224 186Q186 224 164 253Q140 285 116 338Q190 380 247 421Q283 448 298 461Q345 509 345 571Q345 601 326 618Q307 635 274 635Q220 635 170 588Q195 546 205 531L116 486Q79 518 66.50 536.50Q54 555 54 578Q54 616 90 652Q126 688 184 709.50Q242 731 305 731Q385 731 427.50 692Q470 653 470 580M257 71Q257 36 231.50 12Q206-12 169-12Q139-12 118 11Q97 34 97 67Q97 101 123.50 125Q150 149 186 149Q215 149 236 126Q257 103 257 71Z"  horiz-adv-x="479" vert-adv-y="1000"  />

      
      <glyph glyph-name="uni40" unicode="&#x40;" d="M909 266Q909 146 838.50 68Q768-10 659-10Q598-10 569.50 17.50Q541 45 541 104L541 113L546 137Q522 94 503 73Q484 52 451 31Q409 6 378 6Q337 6 310 51Q283 96 283 165Q283 299 355.50 390.50Q428 482 533 482Q583 482 687 452L632 150Q627 117 627 112Q627 69 676 69Q737 69 777 123Q817 177 817 258Q817 380 726 468Q635 556 508 556Q422 556 348 512.50Q274 469 230.50 394.50Q187 320 187 234Q187 149 229.50 76Q272 3 345-40.50Q418-84 503-84Q532-84 556-79Q598-72 644-50L677-137Q652-149 643-151Q577-178 497-178Q418-178 343-144.50Q268-111 213.50-55Q159 1 125.50 77.50Q92 154 92 235Q92 317 125.50 394Q159 471 214.50 527Q270 583 346.50 616.50Q423 650 505 650Q613 650 706 598Q799 546 854 457Q909 368 909 266M569 378Q544 387 510 387Q464 387 429 324.50Q394 262 394 178Q394 146 400 132.50Q406 119 419 119Q430 119 449.50 133Q469 147 486 168Q501 186 518 219Q549 281 558 324L569 378Z"  horiz-adv-x="1000" vert-adv-y="1000"  />

      
      <glyph glyph-name="uni41" unicode="&#x41;" d="M564 0L431 0L405 164L182 164L102 0L-31 0L313 665L429 665L564 0M387 272L348 513L234 272L387 272Z"  horiz-adv-x="595" vert-adv-y="1000"  />

      
      <glyph glyph-name="uni42" unicode="&#x42;" d="M592 520Q592 486 577.50 452.50Q563 419 537 395Q517 376 498 367Q480 357 464 353.50Q448 350 418 348Q483 346 521 307.50Q559 269 559 204Q559 151 532 103Q503 49 453 24.50Q403 0 322 0L49 0L155 665L397 665Q464 665 496 655.50Q528 646 554 620Q592 579 592 520M420 212Q420 250 394 267.50Q368 285 311 285L230 285L201 102L282 102Q348 102 384 130.50Q420 159 420 212M446 500Q446 533 424.50 548.50Q403 564 355 564L274 564L246 393L322 393Q377 393 411.50 422.50Q446 452 446 500Z"  horiz-adv-x="591" vert-adv-y="1000"  />

      
      <glyph glyph-name="uni43" unicode="&#x43;" d="M650 610L585 518Q552 543 527 552Q487 567 441 567Q331 567 256 487Q181 407 181 290Q181 203 235 152.50Q289 102 383 102Q415 102 452 110Q485 117 535 139L562 36Q496 6 450-3Q397-13 347-13Q202-13 120.50 65Q39 143 39 281Q39 371 81 457Q120 532 184 586Q240 634 302 655.50Q364 677 444 677Q524 677 579 654Q607 642 650 610Z"  horiz-adv-x="605" vert-adv-y="1000"  />

      
      <glyph glyph-name="uni44" unicode="&#x44;" d="M714 384Q714 290 665 201Q555 0 296 0L49 0L154 665L402 665Q494 665 553.50 641.50Q613 618 655 565Q714 488 714 384M575 382Q575 474 528 513.50Q481 553 372 553L272 553L202 112L302 112Q424 112 499.50 187Q575 262 575 382Z"  horiz-adv-x="711" vert-adv-y="1000"  />

      
      <glyph glyph-name="uni45" unicode="&#x45;" d="M568 665L551 557L272 557L245 393L473 393L457 285L228 285L200 108L488 108L475 0L57 0L162 665L568 665Z"  horiz-adv-x="539" vert-adv-y="1000"  />

      
      <glyph glyph-name="uni46" unicode="&#x46;" d="M574 665L557 557L272 557L244 386L479 386L462 279L227 279L183 0L57 0L162 665L574 665Z"  horiz-adv-x="522" vert-adv-y="1000"  />

      
      <glyph glyph-name="uni47" unicode="&#x47;" d="M705 622L659 521Q641 528 607 543Q536 569 476 569Q353 569 267.50 489.50Q182 410 182 296Q182 208 243 152.50Q304 97 401 97Q440 97 496 115L524 297L654 297L611 24Q589 20 539 7Q443-14 373-14Q223-14 134.50 66.50Q46 147 46 282Q46 386 102 480Q141 544 198 589Q256 636 319.50 656Q383 676 469 676Q539 676 610 659Q649 648 705 622Z"  horiz-adv-x="708" vert-adv-y="1000"  />

      
      <glyph glyph-name="uni48" unicode="&#x48;" d="M756 665L652 0L525 0L570 285L228 285L182 0L57 0L161 665L288 665L246 399L588 399L630 665L756 665Z"  horiz-adv-x="771" vert-adv-y="1000"  />

      
      <glyph glyph-name="uni49" unicode="&#x49;" d="M287 665L181 0L55 0L160 665L287 665Z"  horiz-adv-x="300" vert-adv-y="1000"  />

      
      <glyph glyph-name="uni4a" unicode="&#x4a;" d="M287 665L184 13Q170-73 150.50-117.50Q131-162 94-191Q31-241-71-241Q-102-241-127-235.50Q-152-230-207-211L-164-96L-138-105Q-88-123-65-123Q-24-123 5-99Q28-78 40-45Q57 7 70 94L161 665L287 665Z"  horiz-adv-x="300" vert-adv-y="1000"  />

      
      <glyph glyph-name="uni4b" unicode="&#x4b;" d="M640 665L357 337L542 0L402 0L228 318L178 0L49 0L155 665L284 665L235 362L488 665L640 665Z"  horiz-adv-x="571" vert-adv-y="1000"  />

      
      <glyph glyph-name="uni4c" unicode="&#x4c;" d="M470 108L456 0L58 0L162 665L289 665L201 108L470 108Z"  horiz-adv-x="495" vert-adv-y="1000"  />

      
      <glyph glyph-name="uni4d" unicode="&#x4d;" d="M858 665L752 0L632 0L727 532L705 473L668 393L455 0L341 0L271 341Q268 353 263 400Q255 458 252 520L176 0L62 0L167 665L319 665L422 190Q427 164 427 152Q427 150 426.50 146Q426 142 426 139Q435 168 447 190L706 665L858 665Z"  horiz-adv-x="878" vert-adv-y="1000"  />

      
      <glyph glyph-name="uni4e" unicode="&#x4e;" d="M738 665L634 0L498 0L303 386Q290 412 282 436Q268 474 259 532L246 412L184 0L62 0L166 665L311 665L512 247Q520 228 529 203Q538 175 544 133L556 279L616 665L738 665Z"  horiz-adv-x="759" vert-adv-y="1000"  />

      
      <glyph glyph-name="uni4f" unicode="&#x4f;" d="M761 387Q761 277 706.50 185Q652 93 558.50 40Q465-13 353-13Q213-13 129 66.50Q45 146 45 278Q45 308 49 332Q72 487 183.50 582Q295 677 452 677Q594 677 677.50 598.50Q761 520 761 387M624 386Q624 467 573.50 519Q523 571 444 571Q336 571 259 485Q182 399 182 279Q182 197 231 145Q280 93 358 93Q467 93 545.50 179Q624 265 624 386Z"  horiz-adv-x="763" vert-adv-y="1000"  />

      
      <glyph glyph-name="uni50" unicode="&#x50;" d="M592 483Q592 363 515.50 293.50Q439 224 307 224Q264 224 221 229L185 0L56 0L161 665L390 665Q486 665 539 617.50Q592 570 592 483M459 472Q459 557 360 557L273 557L237 335L252 334Q264 333 297 333Q344 333 369.50 340Q395 347 416 365Q435 382 447 411Q459 440 459 472Z"  horiz-adv-x="556" vert-adv-y="1000"  />

      
      <glyph glyph-name="uni51" unicode="&#x51;" d="M761 387Q761 288 712 197Q678 133 625 86Q585 50 554 33Q523 16 465-2L327-88Q336-90 352-94.50Q368-99 373-101Q489-129 622-129Q675-129 735-122L706-228Q635-239 577-239Q498-239 414-226Q333-213 271.50-192.50Q210-172 134-130L116-120L295-6Q246-2 214 9Q138 37 91.50 110.50Q45 184 45 275Q45 388 98 480Q151 572 244.50 624.50Q338 677 452 677Q594 677 677.50 598.50Q761 520 761 387M624 386Q624 467 574 519Q524 571 444 571Q336 571 259 485Q182 399 182 280Q182 198 231 145.50Q280 93 358 93Q467 93 545.50 179Q624 265 624 386Z"  horiz-adv-x="763" vert-adv-y="1000"  />

      
      <glyph glyph-name="uni52" unicode="&#x52;" d="M591 500Q591 405 534 342Q512 319 488 306.50Q464 294 418 283L544 0L401 0L291 266L226 266L185 0L56 0L161 665L383 665Q490 665 540.50 624.50Q591 584 591 500M454 485Q454 518 433 541Q419 555 404.50 559.50Q390 564 354 564L272 564L243 374L325 374Q386 374 420 403.50Q454 433 454 485Z"  horiz-adv-x="584" vert-adv-y="1000"  />

      
      <glyph glyph-name="uni53" unicode="&#x53;" d="M548 641L509 523Q459 545 425 554Q379 565 346 565Q301 565 268.50 541Q236 517 236 483Q236 449 283 419L382 355Q441 317 467 280.50Q493 244 493 198Q493 102 424 44.50Q355-13 241-13Q175-13 102 6Q59 17 12 34L59 151Q115 124 152 113Q206 98 242 98Q285 98 319.50 126Q354 154 354 189Q354 203 348 214Q339 233 311 251Q288 267 219 310Q148 354 118 391.50Q88 429 88 472Q88 559 159.50 617.50Q231 676 339 676Q383 676 429 670Q486 662 548 641Z"  horiz-adv-x="534" vert-adv-y="1000"  />

      
      <glyph glyph-name="uni54" unicode="&#x54;" d="M605 665L588 557L388 557L301 0L174 0L263 557L63 557L79 665L605 665Z"  horiz-adv-x="539" vert-adv-y="1000"  />

      
      <glyph glyph-name="uni55" unicode="&#x55;" d="M704 665L639 260Q624 165 597 117Q570 69 513 34Q436-13 320-13Q203-13 137.50 36Q72 85 72 172Q72 219 79 260L144 665L273 665L207 253Q203 222 203 211Q203 157 234 131.50Q265 106 331 106Q406 106 452 144Q498 182 509 254L575 665L704 665Z"  horiz-adv-x="700" vert-adv-y="1000"  />

      
      <glyph glyph-name="uni56" unicode="&#x56;" d="M658 665L314 0L209 0L74 665L212 665L293 215Q294 213 294 206Q295 200 295 195L295 183Q295 201 300 208L305 216L520 665L658 665Z"  horiz-adv-x="583" vert-adv-y="1000"  />

      
      <glyph glyph-name="uni57" unicode="&#x57;" d="M942 665L601 0L502 0L448 270L309 0L217 0L73 665L205 665L296 167L414 391L352 665L464 665L493 534L558 665L670 665L524 395L582 173L817 665L942 665Z"  horiz-adv-x="864" vert-adv-y="1000"  />

      
      <glyph glyph-name="uni58" unicode="&#x58;" d="M640 665L385 344L536 0L395 0L293 234L111 0L-35 0L236 339L88 665L231 665L321 444L488 665L640 665Z"  horiz-adv-x="572" vert-adv-y="1000"  />

      
      <glyph glyph-name="uni59" unicode="&#x59;" d="M627 665L343 282L299 0L170 0L215 290L75 665L211 665L303 407L482 665L627 665Z"  horiz-adv-x="550" vert-adv-y="1000"  />

      
      <glyph glyph-name="uni5a" unicode="&#x5a;" d="M640 665L627 579L196 108L551 108L534 0L1 0L14 86L451 557L95 557L112 665L640 665Z"  horiz-adv-x="595" vert-adv-y="1000"  />

      
      <glyph glyph-name="uni5b" unicode="&#x5b;" d="M340 665L326 576L243 576L128-158L209-158L196-247L-7-247L138 665L340 665Z"  horiz-adv-x="250" vert-adv-y="1000"  />

      
      <glyph glyph-name="uni5c" unicode="&#x5c;" d="M357-247L237-247L122 665L242 665L357-247Z"  horiz-adv-x="409" vert-adv-y="1000"  />

      
      <glyph glyph-name="uni5d" unicode="&#x5d;" d="M265 665L120-247L-82-247L-68-158L14-158L130 576L49 576L63 665L265 665Z"  horiz-adv-x="250" vert-adv-y="1000"  />

      
      <glyph glyph-name="uni5e" unicode="&#x5e;" d="M497 0L415 0L257 354L98 0L22 0L232 475L288 475L497 0Z"  horiz-adv-x="522" vert-adv-y="1000"  />

      
      <glyph glyph-name="uni5f" unicode="&#x5f;" d="M474 0L461-83L-43-83L-30 0L474 0Z"  horiz-adv-x="500" vert-adv-y="1000"  />

      
      <glyph glyph-name="uni60" unicode="&#x60;" d="M399 521L319 521L231 686L331 686L399 521Z"  horiz-adv-x="383" vert-adv-y="1000"  />

      
      <glyph glyph-name="uni61" unicode="&#x61;" d="M491 462L419 0L312 0L333 133Q303 91 284 70.50Q265 50 237 29Q181-13 129-13Q89-13 63 28.50Q37 70 37 135Q37 233 76 316.50Q115 400 182 444Q212 464 244.50 472Q277 480 327 480Q378 480 491 462M360 391Q336 396 320 396Q258 396 211.50 327.50Q165 259 165 168Q165 101 196 101Q209 101 231.50 118.50Q254 136 276 165Q338 245 350 325L360 391Z"  horiz-adv-x="517" vert-adv-y="1000"  />

      
      <glyph glyph-name="uni62" unicode="&#x62;" d="M487 329Q487 254 463 188Q437 114 382 56Q344 16 308 1.50Q272-13 212-13Q181-13 113-7Q62-2 33 0L147 728L269 741L228 475L220 438Q209 387 199 344Q222 383 239 403Q256 423 285 445Q335 482 388 482Q487 482 487 329M362 325Q362 351 355.50 361.50Q349 372 334 372Q298 372 242 301Q210 260 197 224Q193 212 184 177Q173 133 173 130L165 79Q200 69 213 69Q272 69 317 146Q362 223 362 325Z"  horiz-adv-x="514" vert-adv-y="1000"  />

      
      <glyph glyph-name="uni63" unicode="&#x63;" d="M433 450L384 357Q324 391 291 391Q235 391 196.50 329Q158 267 158 175Q158 138 170 117Q182 96 203 96Q238 96 349 175L395 104L364 82Q296 33 264 19Q204-8 146-8Q91-8 64 31Q37 70 37 150Q37 292 112 387Q187 482 298 482Q332 482 364 475Q387 470 433 450Z"  horiz-adv-x="418" vert-adv-y="1000"  />

      
      <glyph glyph-name="uni64" unicode="&#x64;" d="M551 741L434 0L320 0L341 139Q326 112 317 100Q295 68 260 38Q229 13 193.50-2Q158-17 132-17Q87-17 61.50 20.50Q36 58 36 124Q36 220 71 303Q106 386 166 435Q226 484 295 484Q331 484 385 462L429 728L551 741M370 371Q342 396 309 396Q284 396 256 374.50Q228 353 207 318Q188 284 174 234Q160 184 160 148Q160 100 187 100Q216 100 267 149Q303 184 329 229.50Q355 275 361 312L370 371Z"  horiz-adv-x="528" vert-adv-y="1000"  />

      
      <glyph glyph-name="uni65" unicode="&#x65;" d="M433 385Q433 346 413.50 317.50Q394 289 350 266L146 158Q152 127 159 116Q166 105 179 98.50Q192 92 205 92Q229 92 262 105Q282 113 301 125.50Q320 138 370 175L416 104Q397 88 350 53Q317 30 297 20Q236-13 171-13Q37-13 37 153Q37 299 110 390.50Q183 482 300 482Q433 482 433 385M317 358Q317 401 277 401Q242 401 210 363Q192 342 180.50 316.50Q169 291 153 241L311 329Q317 345 317 358Z"  horiz-adv-x="444" vert-adv-y="1000"  />

      
      <glyph glyph-name="uni66" unicode="&#x66;" d="M506 707L472 614Q400 645 352 645Q311 645 287.50 616Q264 587 254 520L246 468L339 468L325 378L230 378L168-25Q154-111 116-167Q91-203 47-224.50Q3-246-45-246Q-72-246-97-241Q-138-232-177-208L-131-114Q-75-143-40.50-143Q-6-143 20.50-109.50Q47-76 55-19L116 378L21 378L34 462L132 468L146 557Q159 643 214.50 691.50Q270 740 354 740Q380 740 395 738Q437 733 506 707Z"  horiz-adv-x="281" vert-adv-y="1000"  />

      
      <glyph glyph-name="uni67" unicode="&#x67;" d="M509 475L489 387L419 387Q433 357 433 326Q433 241 374.50 181.50Q316 122 233 122Q211 122 181 127Q149 91 149 75Q149 68 155 63Q160 59 167.50 58Q175 57 203 57L322 57Q381 57 414 27.50Q447-2 447-54Q447-130 368-187Q289-244 182-244Q106-244 52-211.50Q-2-179-2-134Q-2-71 96-12Q32-6 32 36Q32 56 51 81.50Q70 107 116 152Q89 175 77 192Q54 225 54 273Q54 363 114.50 423.50Q175 484 265 484Q303 484 350 469L438 469L509 475M326-68Q326-48 310.50-39.50Q295-31 258-31L181-31Q157-54 141.50-77.50Q126-101 126-115Q126-131 148-142Q170-153 204-153Q255-153 294-122Q308-111 317-96Q326-81 326-68M308 326Q308 361 295 383Q282 405 260 405Q231 405 206 368Q177 327 177 281Q177 248 191 226.50Q205 205 226 205Q257 205 283 244Q308 281 308 326Z"  horiz-adv-x="486" vert-adv-y="1000"  />

      
      <glyph glyph-name="uni68" unicode="&#x68;" d="M494 384Q494 366 493 357L437 0L317 0L363 299Q367 326 367 338Q367 370 346 370Q310 370 259 314Q220 271 205 241Q197 226 189 198Q179 167 171 117L152 0L33 0L147 728L269 741L225 468Q222 451 217 427Q209 381 199 344Q247 415 296 448Q345 481 402 481Q451 481 472.50 458Q494 435 494 384Z"  horiz-adv-x="531" vert-adv-y="1000"  />

      
      <glyph glyph-name="uni69" unicode="&#x69;" d="M234 475L161 0L41 0L113 462L234 475M257 636Q257 630 256 626Q250 598 228.50 579.50Q207 561 180 561Q159 561 144 582Q129 603 129 632Q129 637 131 645Q137 673 158 691.50Q179 710 206 710Q227 710 242 688.50Q257 667 257 636Z"  horiz-adv-x="257" vert-adv-y="1000"  />

      
      <glyph glyph-name="uni6a" unicode="&#x6a;" d="M234 475L162 6Q147-96 102-156Q75-192 28.50-215.50Q-18-239-65-239Q-89-239-115-231.50Q-141-224-188-202L-147-102Q-92-134-56-134Q-16-134 8.50-91.50Q33-49 47 44L112 462L234 475M259 636Q259 635 257 626Q251 598 230 579.50Q209 561 181 561Q160 561 145.50 582Q131 603 131 632Q131 640 132 645Q138 673 159.50 691.50Q181 710 207 710Q228 710 243.50 688.50Q259 667 259 636Z"  horiz-adv-x="259" vert-adv-y="1000"  />

      
      <glyph glyph-name="uni6b" unicode="&#x6b;" d="M497 468Q475 442 456 421Q449 412 402 366L360 324Q330 295 287 260Q309 211 344 150Q384 81 437 0L298 0Q261 63 244 97Q226 134 197 208L184 201L152 0L33 0L147 728L269 741L201 309L231 338L274 378L315 421L358 468L497 468Z"  horiz-adv-x="466" vert-adv-y="1000"  />

      
      <glyph glyph-name="uni6c" unicode="&#x6c;" d="M270 741L153 0L33 0L148 728L270 741Z"  horiz-adv-x="247" vert-adv-y="1000"  />

      
      <glyph glyph-name="uni6d" unicode="&#x6d;" d="M787 384Q787 374 785 357L729 0L610 0L655 299Q659 325 659 338Q659 370 638 370Q602 370 551 314Q511 270 492 228.50Q473 187 463 117L444 0L325 0L371 299Q374 319 374 338Q374 370 354 370Q317 370 266 314Q229 274 213 241Q206 229 196 198Q186 167 178 117L159 0L40 0L111 462L233 475L207 344Q298 481 409 481Q502 481 502 394Q502 389 500 358Q548 422 594.50 451.50Q641 481 694 481Q743 481 765 458Q787 435 787 384Z"  horiz-adv-x="822" vert-adv-y="1000"  />

      
      <glyph glyph-name="uni6e" unicode="&#x6e;" d="M503 384Q503 374 501 358L445 0L326 0L372 299Q375 318 375 338Q375 370 355 370Q318 370 267 314Q230 274 214 241Q208 229 197 198Q186 167 179 117L160 0L41 0L112 462L234 475L208 344Q299 481 410 481Q459 481 481 458Q503 435 503 384Z"  horiz-adv-x="540" vert-adv-y="1000"  />

      
      <glyph glyph-name="uni6f" unicode="&#x6f;" d="M471 287Q471 227 451 171Q434 122 397 76Q358 28 314 7.50Q270-13 207-13Q125-13 81 36Q37 85 37 176Q37 311 111 396Q185 481 301 481Q384 481 427.50 431.50Q471 382 471 287M346 284Q346 332 330.50 360.50Q315 389 289 389Q266 389 241 368Q216 347 197 312Q160 246 160 176Q160 132 176.50 103.50Q193 75 219 75Q240 75 262 93Q300 125 323 177Q346 229 346 284Z"  horiz-adv-x="499" vert-adv-y="1000"  />

      
      <glyph glyph-name="uni70" unicode="&#x70;" d="M503 344Q503 249 467.50 166Q432 83 372.50 34Q313-15 245-15Q197-15 159 6L121-235L1-235L109 462L232 475L207 344Q241 404 299 444.50Q357 485 407 485Q452 485 477.50 448Q503 411 503 344M378 320Q378 369 352 369Q338 369 315 354.50Q292 340 271 319Q243 291 217 251Q190 209 182 156L173 98Q193 82 203.50 77Q214 72 227 72Q253 72 281.50 93.50Q310 115 330 150Q350 183 364 233Q378 283 378 320Z"  horiz-adv-x="526" vert-adv-y="1000"  />

      
      <glyph glyph-name="uni71" unicode="&#x71;" d="M497 468L385-241L265-241L302-6L310 30L318 68L326 104Q240-14 133-14Q86-14 61.50 25Q37 64 37 139Q37 217 60 280Q84 351 140 412Q179 452 215 466.50Q251 481 310 481Q355 481 409 475Q471 469 497 468M363 390Q340 399 318 399Q258 399 220 350Q194 319 177.50 260Q161 201 161 142Q161 96 196 96Q232 96 281 148Q311 179 328 228Q346 276 353 319L363 390Z"  horiz-adv-x="518" vert-adv-y="1000"  />

      
      <glyph glyph-name="uni72" unicode="&#x72;" d="M384 462L338 325Q328 331 319 331Q293 331 263 300Q226 263 205 211Q186 167 174 85L160 0L41 0L112 462L218 475L199 335Q217 367 219 372Q245 414 272 444Q302 478 342 478Q360 478 384 462Z"  horiz-adv-x="345" vert-adv-y="1000"  />

      
      <glyph glyph-name="uni73" unicode="&#x73;" d="M364 455L330 358Q295 375 275 381.50Q255 388 230 388Q201 388 185 378.50Q169 369 169 352Q169 341 175 332Q182 321 193 310Q204 299 244 267Q297 223 316 194Q335 165 335 128Q335 64 290.50 25.50Q246-13 173-13Q137-13 97-7Q49 1 5 13L38 111Q108 86 148 86Q175 86 191 97Q207 108 207 126Q207 150 173 180Q160 191 146 203.50Q132 216 125.50 222Q119 228 116 230Q96 249 77 271Q51 305 51 345Q51 410 97 446Q143 482 227 482Q296 482 364 455Z"  horiz-adv-x="362" vert-adv-y="1000"  />

      
      <glyph glyph-name="uni74" unicode="&#x74;" d="M342 468L329 378L227 378L187 117Q219 128 245 142Q263 152 290 169L330 98Q302 77 295 72Q252 42 205 21Q151-5 78-13Q66 10 66 46Q66 76 74 124L114 378L37 378L50 462L128 468L148 598L264 611L242 468L342 468Z"  horiz-adv-x="350" vert-adv-y="1000"  />

      
      <glyph glyph-name="uni75" unicode="&#x75;" d="M516 475L442 0L329 0L351 139Q330 102 326 95Q304 64 271 35Q214-13 145-13Q98-13 75.50 10Q53 33 53 81Q53 101 55 111L109 462L231 475L184 169Q179 142 179 131Q179 99 201 99Q237 99 287 154Q328 198 347.50 240.50Q367 283 377 351L393 462L516 475Z"  horiz-adv-x="537" vert-adv-y="1000"  />

      
      <glyph glyph-name="uni76" unicode="&#x76;" d="M445 398Q445 334 414 276Q381 216 275 101Q218 39 159-13L67-13L67 462L180 475L180 124Q252 219 260 230Q297 282 310 314.50Q323 347 323 386Q323 422 311 455L441 475Q445 432 445 398Z"  horiz-adv-x="446" vert-adv-y="1000"  />

      
      <glyph glyph-name="uni77" unicode="&#x77;" d="M689 399Q690 333 657 276Q626 217 519 101Q460 38 404-13L313-13L313 180Q292 149 259 107Q233 70 212 47Q191 24 151-13L66-13L66 462L178 475L178 124Q205 154 217 169Q255 217 296 280L313 306L313 462L427 475L427 124Q476 185 506 231Q542 283 555 316.50Q568 350 568 387Q568 419 558 455L684 475Q689 433 689 399Z"  horiz-adv-x="689" vert-adv-y="1000"  />

      
      <glyph glyph-name="uni78" unicode="&#x78;" d="M460 468L267 228L373 0L244 0L191 129L91 0L-40 0L149 237L46 462L168 475L224 331L325 468L460 468Z"  horiz-adv-x="417" vert-adv-y="1000"  />

      
      <glyph glyph-name="uni79" unicode="&#x79;" d="M437 401Q437 331 414 265Q398 221 376.50 187Q355 153 305 93Q258 38 248 0L192-235L72-235L126-13Q134 19 134 46Q134 57 131 65L29 462L150 475L221 150Q261 203 284 255Q316 326 316 393Q316 424 306 455L429 475Q437 431 437 401Z"  horiz-adv-x="439" vert-adv-y="1000"  />

      
      <glyph glyph-name="uni7a" unicode="&#x7a;" d="M437 468L426 404L183 98L404 98L389 0L10 0L20 65L263 371L60 371L75 468L437 468Z"  horiz-adv-x="440" vert-adv-y="1000"  />

      
      <glyph glyph-name="uni7b" unicode="&#x7b;" d="M489 749L478 671L441 671Q364 671 348 570L318 381Q307 320 283 288Q268 269 254 262.50Q240 256 204 252Q235 247 243 244Q261 236 270.50 216Q280 196 280 169Q280 147 277 123L248-63Q244-92 244-101Q244-129 262-146.50Q280-164 308-164L346-164L330-258L247-258Q189-258 161.50-233Q134-208 134-156Q134-139 137-123L171 89Q174 108 174 127Q174 164 157.50 186Q141 208 113 208L76 208L89 291L126 291Q163 291 187.50 320.50Q212 350 221 405L254 615Q275 749 406 749L489 749Z"  horiz-adv-x="409" vert-adv-y="1000"  />

      
      <glyph glyph-name="uni7c" unicode="&#x7c;" d="M264 733L110-242L-1-242L153 733L264 733Z"  horiz-adv-x="250" vert-adv-y="1000"  />

      
      <glyph glyph-name="uni7d" unicode="&#x7d;" d="M355 283L342 200L305 200Q228 200 210 87L177-123Q156-258 25-258L-58-258L-47-179L-10-179Q67-179 83-78L113 112Q123 171 149 204Q163 223 177 229Q191 235 227 241Q197 244 188 249Q170 256 160 276Q150 296 150 323Q150 338 154 369L183 556Q187 584 187 592Q187 621 169 639Q151 657 123 657L85 657L101 749L184 749Q242 749 269.50 725Q297 701 297 649Q297 632 294 615L260 404Q256 375 256 366Q256 328 272.50 305.50Q289 283 317 283L355 283Z"  horiz-adv-x="409" vert-adv-y="1000"  />

      
      <glyph glyph-name="uni7e" unicode="&#x7e;" d="M539 206Q499 177 464 163Q417 145 372 145Q341 145 314.50 152.50Q288 160 240 183Q201 202 169 202Q105 202 43 154L2 224Q42 256 80 272Q124 290 161 290Q198 290 242 270L293 248Q335 230 364 230Q396 230 428 241Q454 250 494 278L539 206Z"  horiz-adv-x="544" vert-adv-y="1000"  />

      
      <glyph glyph-name="unia2" unicode="&#xa2;" d="M424 449L372 354Q350 371 338 376.50Q326 382 303 388L248 108Q295 135 341 172L387 102Q339 64 308 45Q269 21 229 7L210-89L156-89L172-5Q145-8 132-8Q79-8 53.50 31Q28 70 28 151Q28 283 100 380Q133 425 176 452Q209 473 264 480L275 539L331 539L320 479Q353 475 372 469.50Q391 464 424 449M246 387Q201 359 175 305Q149 251 149 182Q149 138 158.50 119Q168 100 192 97L246 387Z"  horiz-adv-x="392" vert-adv-y="1000"  />

      
      <glyph glyph-name="unia3" unicode="&#xa3;" d="M686 633L595 576Q572 618 558.50 629.50Q545 641 518 641Q492 641 475.50 627Q459 613 444 577Q429 541 406 462L323 183L489 183L459 95L294 95L266-19Q255-62 226-114Q249-112 251-112Q253-112 277-114Q303-117 313-120L354-130L401-142Q412-145 429-145Q465-145 465-106Q465-95 462-82L456-57L542-38Q558-80 558-112Q558-179 516.50-214Q475-249 395-249Q359-249 317-240L248-223Q214-215 175-215Q133-215 101-222L29-240L-8-247L-8-152Q41-137 65-125Q86-113 102-97Q119-78 128.50-57.50Q138-37 150 6L174 95L67 95L94 171L198 183L294 526Q315 597 333.50 633Q352 669 379 692Q403 713 441 725Q479 737 519 737Q563 737 602 720Q626 710 644 691Q662 672 686 633Z"  horiz-adv-x="576" vert-adv-y="1000"  />

      
      <glyph glyph-name="unia4" unicode="&#xa4;" d="M53 353Q53 419 86 469L-1 556L71 627L157 541Q209 574 274 574Q340 574 390 541L477 627L550 555L462 470Q496 419 496 353Q496 287 462 236L549 149L477 79L391 164Q341 131 274 131Q208 131 156 164L71 79L-1 150L86 236Q53 283 53 353M178 448.50Q178 448.50 158 428.25Q138 408 138 352.50Q138 297 178 257Q218 217 274 217Q330 217 370.50 257Q411 297 411 352.50Q411 408 370.50 448.50Q330 489 274 489Q218 489 178 448.50Z"  horiz-adv-x="550" vert-adv-y="1000"  />

      
      <glyph glyph-name="unia5" unicode="&#xa5;" d="M628 665L385 338L501 339L491 275L344 275L334 205L480 205L470 138L323 138L300 0L173 0L196 138L49 138L60 205L206 205L217 275L71 275L81 339L199 338L77 665L216 665L307 405L489 665L628 665Z"  horiz-adv-x="550" vert-adv-y="1000"  />

      
      <glyph glyph-name="unia8" unicode="&#xa8;" d="M269 572Q269 548 250.50 530.50Q232 513 205 513Q184 513 169 530Q154 547 154 570Q154 594 173 611.50Q192 629 218 629Q239 629 254 612Q269 595 269 572M430 572Q431 548 412 531Q393 514 366 514Q345 514 330.50 530.50Q316 547 316 570Q316 595 334.50 612Q353 629 379 629Q400 629 415 612Q430 595 430 572Z"  horiz-adv-x="509" vert-adv-y="1000"  />

      
      <glyph glyph-name="unia9" unicode="&#xa9;" d="M857 453Q857 453 884.50 405.50Q912 358 912 245.50Q912 133 857 38Q802-57 706.50-112Q611-167 498-167Q386-167 291-112Q196-57 141 38Q86 133 86 245.50Q86 358 141 453Q196 548 291 603.50Q386 659 498 659Q611 659 706.50 603.50Q802 548 857 453M724.50 19.50Q724.50 19.50 771.25 66.25Q818 113 818 245.50Q818 378 724.50 471.50Q631 565 498 565Q412 565 339 522.50Q266 480 223 406Q180 332 180 245.50Q180 159 223 85.50Q266 12 339-31Q412-74 498-74Q631-74 724.50 19.50M700 433L639 357Q610 375 589 381.50Q568 388 541 388Q471 388 425.50 336.50Q380 285 380 207Q380 98 483 98Q511 98 538 105Q549 108 601 134L641 49Q623 40 607 32Q545 4 473 4Q375 4 316 58Q257 112 257 201Q257 322 339 405Q421 488 540 488Q585 488 619 477Q653 467 700 433Z"  horiz-adv-x="1009" vert-adv-y="1000"  />

      
      <glyph glyph-name="uniab" unicode="&#xab;" d="M306 424L287 304L173 228L263 152L244 31L28 228L306 424M547 424L528 304L414 228L503 152L484 31L268 228L547 424Z"  horiz-adv-x="560" vert-adv-y="1000"  />

      
      <glyph glyph-name="uniae" unicode="&#xae;" d="M900 245Q900 132 845 37Q790-58 694.50-113.50Q599-169 487-169Q375-169 279.50-113.50Q184-58 129 37Q74 132 74 245Q74 357 129 452Q184 547 279.50 602.50Q375 658 487 658Q599 658 694.50 602.50Q790 547 845 452Q900 357 900 245M763.50 84.50Q763.50 84.50 784.75 121.25Q806 158 806 244.50Q806 331 763.50 405Q721 479 647.50 521.50Q574 564 487 564Q400 564 326.50 521.50Q253 479 210.50 405Q168 331 168 244.50Q168 158 210.50 84.50Q253 11 326.50-32Q400-75 487-75Q574-75 647.50-32Q721 11 763.50 84.50M703 363Q702 293 665 247.50Q628 202 564 193L645 6L523 6L448 189L427 189L398 6L289 6L364 481L537 481Q703 481 703 363M585 342Q585 370 567.50 383Q550 396 511 396L460 396L439 260L489 260Q528 260 556.50 284Q585 308 585 342Z"  horiz-adv-x="979" vert-adv-y="1000"  />

      
      <glyph glyph-name="unib0" unicode="&#xb0;" d="M374 557Q374 504 333 466Q292 428 233 428Q190 428 159 463Q128 498 128 547Q128 600 169 637.50Q210 675 267 675Q312 675 343 640.50Q374 606 374 557M314 553Q314 579 297.50 597Q281 615 258 615Q229 615 208.50 596Q188 577 188 550.50Q188 524 204 505.50Q220 487 244 487Q273 487 293.50 506.50Q314 526 314 553Z"  horiz-adv-x="333" vert-adv-y="1000"  />

      
      <glyph glyph-name="unib4" unicode="&#xb4;" d="M313 686L173 521L71 521L193 686L313 686Z"  horiz-adv-x="383" vert-adv-y="1000"  />

      
      <glyph glyph-name="unib5" unicode="&#xb5;" d="M516 475L442 0L328 0L351 139Q330 102 325 95Q304 64 271 35Q217-10 153-13L124-208L-6-234L70 209L109 462L231 475L183 169Q179 142 179 131Q179 99 201 99Q236 99 287 154Q328 198 347.50 240.50Q367 283 377 351L393 462L516 475Z"  horiz-adv-x="537" vert-adv-y="1000"  />

      
      <glyph glyph-name="unibb" unicode="&#xbb;" d="M302 228L25 31L44 152L156 228L68 304L87 424L302 228M543 228L265 31L284 152L397 228L309 304L327 424L543 228Z"  horiz-adv-x="565" vert-adv-y="1000"  />

      
      <glyph glyph-name="unic0" unicode="&#xc0;" d="M564 0L431 0L405 164L181 164L102 0L-31 0L313 665L429 665L564 0M415 695L321 695L225 814L338 814L415 695M387 272L347 513L233 272L387 272Z"  horiz-adv-x="595" vert-adv-y="1000"  />

      
      <glyph glyph-name="unic1" unicode="&#xc1;" d="M564 0L431 0L405 164L181 164L102 0L-31 0L313 665L429 665L564 0M387 272L347 513L233 272L387 272M538 814L405 695L311 695L425 814L538 814Z"  horiz-adv-x="595" vert-adv-y="1000"  />

      
      <glyph glyph-name="unic2" unicode="&#xc2;" d="M564 0L431 0L405 164L181 164L102 0L-31 0L313 665L429 665L564 0M520 696L433 696L377 761L302 696L214 696L346 814L426 814L520 696M387 272L347 513L233 272L387 272Z"  horiz-adv-x="595" vert-adv-y="1000"  />

      
      <glyph glyph-name="unic3" unicode="&#xc3;" d="M564 0L431 0L405 164L181 164L102 0L-31 0L313 665L429 665L564 0M560 740Q524 711 494 700Q453 684 421 684Q384 684 337 711Q316 724 307 727Q298 730 284 730Q257 730 217 708Q213 705 202 699L177 756Q222 783 243 792Q280 807 309 807Q311 807 315 806.50Q319 806 320 806Q340 804 357 795Q360 793 373 785.50Q386 778 395 772Q420 756 443 756Q464 756 480.50 763Q497 770 535 794L560 740M387 272L347 513L233 272L387 272Z"  horiz-adv-x="595" vert-adv-y="1000"  />

      
      <glyph glyph-name="unic4" unicode="&#xc4;" d="M564 0L431 0L405 164L181 164L102 0L-31 0L313 665L429 665L564 0M387 272L347 513L233 272L387 272M350 750Q350 727 332 710.50Q314 694 289 694Q269 694 255 710Q241 726 241 748Q241 772 258.50 788.50Q276 805 301 805Q321 805 335.50 789Q350 773 350 750M515 748Q515 725 497 708.50Q479 692 454 692Q434 692 420 707.50Q406 723 406 746Q406 770 423 786Q440 802 466 802Q486 802 500.50 786Q515 770 515 748Z"  horiz-adv-x="595" vert-adv-y="1000"  />

      
      <glyph glyph-name="unic5" unicode="&#xc5;" d="M564 0L431 0L405 164L181 164L102 0L-31 0L313 665L429 665L564 0M387 272L347 513L233 272L387 272M475 776Q475 736 443.50 707Q412 678 366 678Q331 678 306 705.50Q281 733 281 773Q281 814 312.50 843Q344 872 388 872Q424 872 449.50 844Q475 816 475 776M406 745.50Q406 745.50 413 751.75Q420 758 420 775.50Q420 793 409 805Q398 817 382 817Q363 817 349.50 804.50Q336 792 336 774.50Q336 757 347 745Q358 733 373 733Q392 733 406 745.50Z"  horiz-adv-x="595" vert-adv-y="1000"  />

      
      <glyph glyph-name="unic6" unicode="&#xc6;" d="M825 665L808 557L538 557L513 393L731 393L714 285L493 285L468 108L746 108L732 0L328 0L352 146L169 146L77 0L-53 0L369 665L825 665M424 570L380 481L237 253L370 253L399 443L424 570Z"  horiz-adv-x="794" vert-adv-y="1000"  />

      
      <glyph glyph-name="unic7" unicode="&#xc7;" d="M650 610L588 514Q533 559 443 559Q332 559 257 481Q182 403 182 288Q182 204 235.50 155Q289 106 380 106Q447 106 538 139L544 28Q492 6 449-3Q413-10 351-13L309-70Q343-72 361.50-89Q380-106 380-136Q380-180 344.50-213.50Q309-247 262-247Q220-247 157-221L187-166Q226-185 258-185Q277-185 289.50-172Q302-159 302-139Q302-121 293-115Q284-109 256-109L211-109L287-9Q220 2 185 18Q150 34 115 72Q39 151 39 282Q39 371 81 457Q119 532 184 586Q239 634 301.50 655.50Q364 677 444 677Q572 677 650 610Z"  horiz-adv-x="605" vert-adv-y="1000"  />

      
      <glyph glyph-name="unic8" unicode="&#xc8;" d="M568 665L551 557L272 557L245 393L473 393L457 285L228 285L200 108L488 108L475 0L57 0L162 665L568 665M435 695L341 695L246 814L358 814L435 695Z"  horiz-adv-x="539" vert-adv-y="1000"  />

      
      <glyph glyph-name="unic9" unicode="&#xc9;" d="M568 665L551 557L272 557L245 393L473 393L457 285L228 285L200 108L488 108L475 0L57 0L162 665L568 665M541 814L410 695L316 695L430 814L541 814Z"  horiz-adv-x="539" vert-adv-y="1000"  />

      
      <glyph glyph-name="unica" unicode="&#xca;" d="M568 665L551 557L272 557L245 393L473 393L457 285L228 285L200 108L488 108L475 0L57 0L162 665L568 665M540 696L454 696L399 761L323 696L235 696L367 814L447 814L540 696Z"  horiz-adv-x="539" vert-adv-y="1000"  />

      
      <glyph glyph-name="unicb" unicode="&#xcb;" d="M568 665L551 557L272 557L245 393L473 393L457 285L228 285L200 108L488 108L475 0L57 0L162 665L568 665M341 750Q341 727 323 710.50Q305 694 280 694Q260 694 245.50 710Q231 726 231 748Q231 772 249 788.50Q267 805 292 805Q312 805 326.50 789Q341 773 341 750M517 748Q517 725 499.50 708.50Q482 692 456 692Q436 692 422 707.50Q408 723 408 746Q408 769 425.50 785.50Q443 802 468 802Q488 802 502.50 786Q517 770 517 748Z"  horiz-adv-x="539" vert-adv-y="1000"  />

      
      <glyph glyph-name="unicc" unicode="&#xcc;" d="M287 665L181 0L55 0L160 665L287 665M300 695L206 695L111 814L223 814L300 695Z"  horiz-adv-x="300" vert-adv-y="1000"  />

      
      <glyph glyph-name="unicd" unicode="&#xcd;" d="M286 665L181 0L55 0L159 665L286 665M378 814L245 695L151 695L265 814L378 814Z"  horiz-adv-x="300" vert-adv-y="1000"  />

      
      <glyph glyph-name="unice" unicode="&#xce;" d="M286 665L180 0L55 0L159 665L286 665M383 696L296 696L241 761L165 696L78 696L210 814L289 814L383 696Z"  horiz-adv-x="300" vert-adv-y="1000"  />

      
      <glyph glyph-name="unicf" unicode="&#xcf;" d="M286 665L180 0L55 0L159 665L286 665M207 752Q207 729 189 712.50Q171 696 146 696Q126 696 112 712Q98 728 98 750Q98 774 115.50 790Q133 806 158 806Q179 806 193 790Q207 774 207 752M358 788Q358 788 365 780Q372 772 372 749.50Q372 727 354 710.50Q336 694 311 694Q291 694 276.50 710Q262 726 262 748.50Q262 771 280 787.50Q298 804 323 804Q344 804 358 788Z"  horiz-adv-x="300" vert-adv-y="1000"  />

      
      <glyph glyph-name="unid0" unicode="&#xd0;" d="M741 334Q731 268 697 206.50Q663 145 611 98Q504 0 327 0L82 0L130 303L20 303L33 390L143 390L187 665L434 665Q528 665 587.50 642Q647 619 688 567Q724 521 737.50 460.50Q751 400 741 334M603 333Q612 390 599.50 438.50Q587 487 556 514Q509 553 403 553L302 553L276 390L424 390L411 303L263 303L233 112L333 112Q447 112 517 169.50Q587 227 603 333Z"  horiz-adv-x="711" vert-adv-y="1000"  />

      
      <glyph glyph-name="unid1" unicode="&#xd1;" d="M738 665L634 0L498 0L303 386Q290 411 282 436Q268 474 259 532L246 412L184 0L62 0L166 665L311 665L512 247Q520 229 529 203Q538 175 544 133L556 279L616 665L738 665M644 741Q607 712 578 701Q537 685 505 685Q468 685 421 712Q400 725 391 728Q382 731 368 731Q341 731 301 709Q298 707 286 700L261 757Q306 784 327 793Q364 808 393 808Q395 808 399 807.50Q403 807 404 807Q424 805 441 796Q444 794 456.50 786.50Q469 779 478 773Q504 757 527 757Q548 757 564.50 764Q581 771 618 795L644 741Z"  horiz-adv-x="759" vert-adv-y="1000"  />

      
      <glyph glyph-name="unid2" unicode="&#xd2;" d="M760 387Q760 277 706 185Q652 93 558 40Q464-13 352-13Q212-13 128 66.50Q44 146 44 278Q44 308 48 332Q72 487 183 582Q294 677 452 677Q594 677 677 598.50Q760 520 760 387M623 386Q623 467 573 519Q523 571 444 571Q336 571 258.50 485Q181 399 181 279Q181 197 230.50 145Q280 93 357 93Q467 93 545 179Q623 265 623 386M519 695L426 695L331 814L443 814L519 695Z"  horiz-adv-x="763" vert-adv-y="1000"  />

      
      <glyph glyph-name="unid3" unicode="&#xd3;" d="M760 387Q760 277 706 185Q652 93 558 40Q464-13 352-13Q212-13 128 66.50Q44 146 44 278Q44 308 48 332Q72 487 183 582Q294 677 452 677Q594 677 677 598.50Q760 520 760 387M623 386Q623 467 573 519Q523 571 444 571Q336 571 258.50 485Q181 399 181 279Q181 197 230.50 145Q280 93 357 93Q467 93 545 179Q623 265 623 386M616 814L483 695L390 695L503 814L616 814Z"  horiz-adv-x="763" vert-adv-y="1000"  />

      
      <glyph glyph-name="unid4" unicode="&#xd4;" d="M760 387Q760 277 706 185Q652 93 558 40Q464-13 352-13Q212-13 128 66.50Q44 146 44 278Q44 308 48 332Q72 487 183 582Q294 677 452 677Q594 677 677 598.50Q760 520 760 387M623 386Q623 467 573 519Q523 571 444 571Q336 571 258.50 485Q181 399 181 279Q181 197 230.50 145Q280 93 357 93Q467 93 545 179Q623 265 623 386M611 696L523 696L468 761L393 696L305 696L437 814L516 814L611 696Z"  horiz-adv-x="763" vert-adv-y="1000"  />

      
      <glyph glyph-name="unid5" unicode="&#xd5;" d="M760 387Q760 277 706 185Q652 93 558 40Q464-13 352-13Q212-13 128 66.50Q44 146 44 278Q44 308 48 332Q72 487 183 582Q294 677 452 677Q594 677 677 598.50Q760 520 760 387M623 386Q623 467 573 519Q523 571 444 571Q336 571 258.50 485Q181 399 181 279Q181 197 230.50 145Q280 93 357 93Q467 93 545 179Q623 265 623 386M657 758Q621 729 592 718Q551 702 518 702Q482 702 435 729Q414 742 404.50 745Q395 748 381 748Q354 748 315 726Q311 723 300 717L275 774Q320 801 341 810Q378 825 407 825Q409 825 412.50 824.50Q416 824 418 824Q437 822 455 813Q458 811 470.50 803.50Q483 796 492 791Q518 774 541 774Q562 774 578.50 781Q595 788 632 812L657 758Z"  horiz-adv-x="763" vert-adv-y="1000"  />

      
      <glyph glyph-name="unid6" unicode="&#xd6;" d="M760 387Q760 277 706 185Q652 93 558 40Q464-13 352-13Q212-13 128 66.50Q44 146 44 278Q44 308 48 332Q72 487 183 582Q294 677 452 677Q594 677 677 598.50Q760 520 760 387M623 386Q623 467 573 519Q523 571 444 571Q336 571 258.50 485Q181 399 181 279Q181 197 230.50 145Q280 93 357 93Q467 93 545 179Q623 265 623 386M407 749Q407 726 389 709.50Q371 693 345 693Q325 693 311 709Q297 725 297 747Q297 770 314.50 786.50Q332 803 357 803Q378 803 392.50 787Q407 771 407 749M641 749Q641 726 623.50 709.50Q606 693 581 693Q560 693 545.50 709Q531 725 531 747Q531 771 549 787.50Q567 804 592 804Q612 804 626.50 788Q641 772 641 749Z"  horiz-adv-x="763" vert-adv-y="1000"  />

      
      <glyph glyph-name="unid7" unicode="&#xd7;" d="M521 40L462-18L275 169L88-18L29 40L216 228L29 415L88 473L275 286L462 473L521 415L333 228L521 40Z"  horiz-adv-x="550" vert-adv-y="1000"  />

      
      <glyph glyph-name="unid8" unicode="&#xd8;" d="M800 615L718 547Q760 478 760 388Q760 278 706 185.50Q652 93 558.50 40Q465-13 354-13Q230-13 135 60L52-12L1 44L87 115Q44 195 44 275Q44 387 97.50 479Q151 571 244.50 624Q338 677 451 677Q591 677 670 605L747 671L800 615M568 520Q516 567 446 567Q337 567 259 482.50Q181 398 181 279Q181 236 194 206L568 520M623 386Q623 424 611 457L237 143Q290 98 360 98Q468 98 545.50 182.50Q623 267 623 386Z"  horiz-adv-x="763" vert-adv-y="1000"  />

      
      <glyph glyph-name="unid9" unicode="&#xd9;" d="M703 665L639 260Q623 165 596.50 117Q570 69 513 34Q435-13 319-13Q202-13 137 36Q72 85 72 172Q72 219 79 260L143 665L272 665L207 253Q203 222 203 211Q203 157 234 131.50Q265 106 330 106Q405 106 451 144Q497 182 509 254L574 665L703 665M489 695L395 695L299 814L412 814L489 695Z"  horiz-adv-x="700" vert-adv-y="1000"  />

      
      <glyph glyph-name="unida" unicode="&#xda;" d="M703 665L639 260Q623 165 596.50 117Q570 69 513 34Q435-13 319-13Q202-13 137 36Q72 85 72 172Q72 219 79 260L143 665L272 665L207 253Q203 222 203 211Q203 157 234 131.50Q265 106 330 106Q405 106 451 144Q497 182 509 254L574 665L703 665M589 814L456 695L363 695L476 814L589 814Z"  horiz-adv-x="700" vert-adv-y="1000"  />

      
      <glyph glyph-name="unidb" unicode="&#xdb;" d="M703 665L639 260Q623 165 596.50 117Q570 69 513 34Q435-13 319-13Q202-13 137 36Q72 85 72 172Q72 219 79 260L143 665L272 665L207 253Q203 222 203 211Q203 157 234 131.50Q265 106 330 106Q405 106 451 144Q497 182 509 254L574 665L703 665M583 697L497 697L441 762L366 697L278 697L409 815L490 815L583 697Z"  horiz-adv-x="700" vert-adv-y="1000"  />

      
      <glyph glyph-name="unidc" unicode="&#xdc;" d="M703 665L639 260Q623 165 596.50 117Q570 69 513 34Q435-13 319-13Q202-13 137 36Q72 85 72 172Q72 219 79 260L143 665L272 665L207 253Q203 222 203 211Q203 157 234 131.50Q265 106 330 106Q405 106 451 144Q497 182 509 254L574 665L703 665M376 750Q376 727 358 710.50Q340 694 314 694Q295 694 280.50 710Q266 726 266 748Q266 772 283.50 788.50Q301 805 326 805Q347 805 361.50 789Q376 773 376 750M592 748Q592 725 574 708.50Q556 692 531 692Q511 692 496.50 707.50Q482 723 482 746Q482 770 499.50 786Q517 802 543 802Q563 802 577.50 786Q592 770 592 748Z"  horiz-adv-x="700" vert-adv-y="1000"  />

      
      <glyph glyph-name="unidd" unicode="&#xdd;" d="M655 665L374 285L328 0L201 0L247 285L105 665L244 665L335 405L516 665L655 665M560 814L427 695L333 695L448 814L560 814Z"  horiz-adv-x="550" vert-adv-y="1000"  />

      
      <glyph glyph-name="unide" unicode="&#xde;" d="M604 359Q587 244 500 179Q424 122 295 122Q266 122 235 125L215 0L88 0L193 665L320 665L303 562L404 562Q469 562 507.50 549.50Q546 537 572 508Q620 452 604 359M472 348Q481 403 457 428.50Q433 454 375 454L286 454L252 233Q292 231 311 231Q385 231 423.50 259Q462 287 472 348Z"  horiz-adv-x="556" vert-adv-y="1000"  />

      
      <glyph glyph-name="unidf" unicode="&#xdf;" d="M544 600Q544 554 526 515.50Q508 477 464 430Q427 390 413 368Q406 353 406 341Q406 323 431 299L477 258Q543 197 543 138Q543 71 498 31.50Q453-8 378-8Q341-8 313.50 1Q286 10 234 38L267 127Q291 114 291 114Q292 113 296 112Q300 111 308 107.50Q316 104 325 101Q360 87 374 87Q410 87 410 124Q410 135 405 147Q397 163 380 180Q357 205 332 232Q311 253 302 267Q285 294 285 332Q285 365 301 395.50Q317 426 358 471Q396 515 409 532.50Q422 550 429 566Q436 580 436 602Q436 637 417 659.50Q398 682 367 682Q321 682 294 647Q267 612 256 538L174-25Q158-127 102-181.50Q46-236-43-236Q-92-236-167-215L-126-114Q-117-117-104.50-121.50Q-92-126-89-127Q-56-139-39-139Q-18-139 2.50-127.50Q23-116 33-98Q58-55 70 38L117 380L22 380L36 462L131 468L146 564Q161 659 221 715.50Q281 772 366 772Q443 772 493.50 723Q544 674 544 600Z"  horiz-adv-x="559" vert-adv-y="1000"  />

      
      <glyph glyph-name="unie0" unicode="&#xe0;" d="M490 462L419 0L311 0L332 133Q302 91 283.50 70.50Q265 50 237 29Q180-13 129-13Q88-13 62 28.50Q36 70 36 135Q36 233 75.50 316.50Q115 400 181 444Q212 464 244.50 472Q277 480 326 480Q378 480 490 462M359 391Q335 396 319 396Q257 396 210.50 327.50Q164 259 164 168Q164 101 195 101Q209 101 231 118.50Q253 136 276 165Q337 245 349 325L359 391M383 521L302 521L213 686L313 686L383 521Z"  horiz-adv-x="517" vert-adv-y="1000"  />

      
      <glyph glyph-name="unie1" unicode="&#xe1;" d="M490 462L419 0L311 0L332 133Q302 91 283.50 70.50Q265 50 237 29Q180-13 129-13Q88-13 62 28.50Q36 70 36 135Q36 233 75.50 316.50Q115 400 181 444Q212 464 244.50 472Q277 480 326 480Q378 480 490 462M359 391Q335 396 319 396Q257 396 210.50 327.50Q164 259 164 168Q164 101 195 101Q209 101 231 118.50Q253 136 276 165Q337 245 349 325L359 391M496 686L355 521L255 521L376 686L496 686Z"  horiz-adv-x="517" vert-adv-y="1000"  />

      
      <glyph glyph-name="unie2" unicode="&#xe2;" d="M490 462L419 0L311 0L332 133Q302 91 283.50 70.50Q265 50 237 29Q180-13 129-13Q88-13 62 28.50Q36 70 36 135Q36 233 75.50 316.50Q115 400 181 444Q212 464 244.50 472Q277 480 326 480Q378 480 490 462M359 391Q335 396 319 396Q257 396 210.50 327.50Q164 259 164 168Q164 101 195 101Q209 101 231 118.50Q253 136 276 165Q337 245 349 325L359 391M491 520L404 520L353 611L273 520L186 520L324 685L405 685L491 520Z"  horiz-adv-x="517" vert-adv-y="1000"  />

      
      <glyph glyph-name="unie3" unicode="&#xe3;" d="M490 462L419 0L311 0L332 133Q302 91 283.50 70.50Q265 50 237 29Q180-13 129-13Q88-13 62 28.50Q36 70 36 135Q36 233 75.50 316.50Q115 400 181 444Q212 464 244.50 472Q277 480 326 480Q378 480 490 462M530 571Q494 542 464 531Q423 515 391 515Q354 515 307 542Q286 554 277 557.50Q268 561 254 561Q227 561 187 539Q183 536 172 530L147 587Q192 613 213 622Q250 638 279 638Q281 638 285 637.50Q289 637 290 637Q310 635 327 625Q330 623 342.50 616Q355 609 364 603Q390 587 413 587Q434 587 450.50 594Q467 601 504 624L530 571M359 391Q335 396 319 396Q257 396 210.50 327.50Q164 259 164 168Q164 101 195 101Q209 101 231 118.50Q253 136 276 165Q337 245 349 325L359 391Z"  horiz-adv-x="517" vert-adv-y="1000"  />

      
      <glyph glyph-name="unie4" unicode="&#xe4;" d="M490 462L419 0L311 0L332 133Q302 91 283.50 70.50Q265 50 237 29Q180-13 129-13Q88-13 62 28.50Q36 70 36 135Q36 233 75.50 316.50Q115 400 181 444Q212 464 244.50 472Q277 480 326 480Q378 480 490 462M359 391Q335 396 319 396Q257 396 210.50 327.50Q164 259 164 168Q164 101 195 101Q209 101 231 118.50Q253 136 276 165Q337 245 349 325L359 391M331 572Q331 548 312 530.50Q293 513 267 513Q246 513 230.50 530Q215 547 215 570Q215 594 234 611.50Q253 629 279 629Q301 629 316 612.50Q331 596 331 572M492 572Q492 548 473 531Q454 514 428 514Q407 514 392 530.50Q377 547 377 570Q377 595 395.50 612Q414 629 441 629Q462 629 477 612Q492 595 492 572Z"  horiz-adv-x="517" vert-adv-y="1000"  />

      
      <glyph glyph-name="unie5" unicode="&#xe5;" d="M490 462L419 0L311 0L332 133Q302 91 283.50 70.50Q265 50 237 29Q180-13 129-13Q88-13 62 28.50Q36 70 36 135Q36 233 75.50 316.50Q115 400 181 444Q212 464 244.50 472Q277 480 326 480Q378 480 490 462M359 391Q335 396 319 396Q257 396 210.50 327.50Q164 259 164 168Q164 101 195 101Q209 101 231 118.50Q253 136 276 165Q337 245 349 325L359 391M454 604Q454 563 422.50 534.50Q391 506 345 506Q310 506 285 533.50Q260 561 260 601Q260 642 291.50 671Q323 700 366 700Q403 700 428.50 672Q454 644 454 604M385 573.50Q385 573.50 392 579.75Q399 586 399 603Q399 620 388 632.50Q377 645 361 645Q342 645 328.50 632.50Q315 620 315 602.50Q315 585 326 573Q337 561 352 561Q371 561 385 573.50Z"  horiz-adv-x="517" vert-adv-y="1000"  />

      
      <glyph glyph-name="unie6" unicode="&#xe6;" d="M711 385Q711 346 691.50 317.50Q672 289 628 266L425 158Q429 128 437 116Q444 105 457 98.50Q470 92 483 92Q507 92 540 105Q560 113 579 125.50Q598 138 648 175L694 104Q675 88 628 53Q534-13 446-13Q390-13 353 22Q335 40 327.50 59Q320 78 317 114Q276 55 225.50 21Q175-13 128-13Q88-13 62 28.50Q36 70 36 135Q36 282 114 381Q192 480 308 480Q343 480 409 471L439 467L426 394Q441 419 451 431.50Q461 444 478 455Q516 482 578 482Q711 482 711 385M359 391Q335 396 319 396Q257 396 210 327.50Q163 259 163 168Q163 101 195 101Q208 101 230 118.50Q252 136 275 165Q337 245 349 325L359 391M597 358Q598 401 557 401Q522 401 490 363Q472 342 460.50 316.50Q449 291 433 241L591 329Q597 345 597 358Z"  horiz-adv-x="721" vert-adv-y="1000"  />

      
      <glyph glyph-name="unie7" unicode="&#xe7;" d="M433 450L384 358Q323 391 291 391Q234 391 196 329Q158 267 158 175Q158 138 170 117Q182 96 202 96Q238 96 348 175L395 104L363 82Q315 48 291.50 34.50Q268 21 228 6L186-58Q220-60 238.50-77Q257-94 257-124Q257-168 221.50-201.50Q186-235 139-235Q99-235 34-207L63-154Q103-173 134-173Q153-173 166-160Q179-147 179-127Q179-109 170-103Q161-97 133-97L88-97L154-8L137-8Q89-8 62.50 33.50Q36 75 36 150Q36 292 111 387Q186 482 298 482Q332 482 363 475Q387 470 433 450Z"  horiz-adv-x="418" vert-adv-y="1000"  />

      
      <glyph glyph-name="unie8" unicode="&#xe8;" d="M433 385Q433 346 413 317.50Q393 289 349 266L146 158Q151 127 159 116Q166 105 179 98.50Q192 92 204 92Q229 92 262 105Q282 113 301 125.50Q320 138 369 175L416 104Q396 88 349 53Q316 30 297 20Q235-13 170-13Q36-13 36 153Q36 299 109.50 390.50Q183 482 300 482Q433 482 433 385M317 358Q317 401 277 401Q242 401 209 363Q191 342 179.50 316.50Q168 291 153 241L311 329Q317 345 317 358M359 521L278 521L190 686L290 686L359 521Z"  horiz-adv-x="444" vert-adv-y="1000"  />

      
      <glyph glyph-name="unie9" unicode="&#xe9;" d="M433 385Q433 346 413 317.50Q393 289 349 266L146 158Q151 127 159 116Q166 105 179 98.50Q192 92 204 92Q229 92 262 105Q282 113 301 125.50Q320 138 369 175L416 104Q396 88 349 53Q316 30 297 20Q235-13 170-13Q36-13 36 153Q36 299 109.50 390.50Q183 482 300 482Q433 482 433 385M317 358Q317 401 277 401Q242 401 209 363Q191 342 179.50 316.50Q168 291 153 241L311 329Q317 345 317 358M471 686L331 521L230 521L351 686L471 686Z"  horiz-adv-x="444" vert-adv-y="1000"  />

      
      <glyph glyph-name="uniea" unicode="&#xea;" d="M433 385Q433 346 413 317.50Q393 289 349 266L146 158Q151 127 159 116Q166 105 179 98.50Q192 92 204 92Q229 92 262 105Q282 113 301 125.50Q320 138 369 175L416 104Q396 88 349 53Q316 30 297 20Q235-13 170-13Q36-13 36 153Q36 299 109.50 390.50Q183 482 300 482Q433 482 433 385M458 520L370 520L320 611L241 520L153 520L292 685L371 685L458 520M317 358Q317 401 277 401Q241 401 209 363Q191 342 179.50 316.50Q168 291 153 241L311 329Q317 345 317 358Z"  horiz-adv-x="444" vert-adv-y="1000"  />

      
      <glyph glyph-name="unieb" unicode="&#xeb;" d="M433 385Q433 346 413 317.50Q393 289 349 266L146 158Q151 127 159 116Q166 105 179 98.50Q192 92 204 92Q229 92 262 105Q282 113 301 125.50Q320 138 369 175L416 104Q396 88 349 53Q316 30 297 20Q235-13 170-13Q36-13 36 153Q36 299 109.50 390.50Q183 482 300 482Q433 482 433 385M317 358Q317 401 277 401Q242 401 209 363Q191 342 179.50 316.50Q168 291 153 241L311 329Q317 345 317 358M298 572Q298 548 279.50 530.50Q261 513 234 513Q213 513 198 529.50Q183 546 183 570Q183 594 201.50 611.50Q220 629 247 629Q268 629 283 612Q298 595 298 572M460 572Q460 548 441 531Q422 514 396 514Q374 514 359 530.50Q344 547 344 570Q344 595 362.50 612Q381 629 408 629Q429 629 444.50 612.50Q460 596 460 572Z"  horiz-adv-x="444" vert-adv-y="1000"  />

      
      <glyph glyph-name="uniec" unicode="&#xec;" d="M234 475L161 0L41 0L113 462L234 475M246 521L165 521L77 686L177 686L246 521Z"  horiz-adv-x="257" vert-adv-y="1000"  />

      
      <glyph glyph-name="unied" unicode="&#xed;" d="M234 475L160 0L41 0L112 462L234 475M355 686L215 521L114 521L235 686L355 686Z"  horiz-adv-x="257" vert-adv-y="1000"  />

      
      <glyph glyph-name="uniee" unicode="&#xee;" d="M340 520L253 520L202 611L122 520L35 520L174 685L253 685L340 520M234 475L161 0L41 0L112 462L234 475Z"  horiz-adv-x="257" vert-adv-y="1000"  />

      
      <glyph glyph-name="unief" unicode="&#xef;" d="M234 475L160 0L41 0L112 462L234 475M169 572Q169 548 149.50 530.50Q130 513 104 513Q83 513 68 530Q53 547 53 570Q53 594 71.50 611.50Q90 629 116 629Q138 629 153.50 612.50Q169 596 169 572M330 572Q330 548 311 531Q292 514 265 514Q244 514 229 530.50Q214 547 214 570Q214 595 233 612Q252 629 278 629Q299 629 314.50 612Q330 595 330 572Z"  horiz-adv-x="257" vert-adv-y="1000"  />

      
      <glyph glyph-name="unif0" unicode="&#xf0;" d="M571 603L496 564Q549 456 523 283Q501 143 426 60.50Q351-22 242-22Q138-22 86 46.50Q34 115 51 225Q66 317 121.50 373.50Q177 430 256 430Q300 430 352 414Q362 411 369.50 407.50Q377 404 381 401Q385 398 394 391.50Q403 385 411 380Q411 440 408 464Q405 488 392 510L296 459L264 534L337 572Q303 593 229 593Q198 593 161 589L176 690Q234 694 255 694Q326 694 371 680Q416 666 449 631L539 678L571 603M407 279Q399 284 386 292.50Q373 301 368 304Q363 307 354 310.50Q345 314 334 317Q304 326 278 326Q235 326 208 297Q181 268 173 219Q164 158 184.50 120Q205 82 252 82Q308 82 352 132Q395 181 407 279Z"  horiz-adv-x="544" vert-adv-y="1000"  />

      
      <glyph glyph-name="unif1" unicode="&#xf1;" d="M502 384Q502 374 500 358L445 0L325 0L371 299Q374 319 374 338Q374 370 354 370Q318 370 267 314Q230 274 213 241Q207 229 196 198Q186 167 178 117L160 0L40 0L112 462L233 475L207 344Q299 481 410 481Q458 481 480 458Q502 435 502 384M516 574Q480 545 451 534Q410 518 377 518Q341 518 294 545Q273 557 263.50 560.50Q254 564 241 564Q214 564 174 542Q169 539 159 533L134 590Q179 616 200 625Q237 640 266 640Q268 640 271.50 639.50Q275 639 277 639Q297 638 314 628Q317 627 322 624Q327 621 335.50 616Q344 611 351 606Q377 590 400 590Q421 590 437.50 597Q454 604 491 627L516 574Z"  horiz-adv-x="540" vert-adv-y="1000"  />

      
      <glyph glyph-name="unif2" unicode="&#xf2;" d="M470 287Q470 227 451 171Q434 122 397 76Q357 28 313 7.50Q269-13 206-13Q124-13 80 36Q36 85 36 176Q36 311 110.50 396Q185 481 301 481Q384 481 427 431.50Q470 382 470 287M345 284Q345 332 330 360.50Q315 389 289 389Q265 389 240 368Q215 347 196 312Q160 246 160 176Q160 132 176.50 103.50Q193 75 218 75Q240 75 262 93Q300 125 322.50 177Q345 229 345 284M363 521L283 521L195 686L295 686L363 521Z"  horiz-adv-x="499" vert-adv-y="1000"  />

      
      <glyph glyph-name="unif3" unicode="&#xf3;" d="M470 287Q470 227 451 171Q434 122 397 76Q357 28 313 7.50Q269-13 206-13Q124-13 80 36Q36 85 36 176Q36 311 110.50 396Q185 481 301 481Q384 481 427 431.50Q470 382 470 287M345 284Q345 332 330 360.50Q315 389 289 389Q266 389 240.50 368Q215 347 196 312Q160 246 160 176Q160 132 176.50 103.50Q193 75 218 75Q240 75 262 93Q300 125 322.50 177Q345 229 345 284M476 686L336 521L236 521L356 686L476 686Z"  horiz-adv-x="499" vert-adv-y="1000"  />

      
      <glyph glyph-name="unif4" unicode="&#xf4;" d="M470 287Q470 227 451 171Q434 122 397 76Q357 28 313 7.50Q269-13 206-13Q124-13 80 36Q36 85 36 176Q36 311 110.50 396Q185 481 301 481Q384 481 427 431.50Q470 382 470 287M459 520L371 520L320 611L241 520L153 520L292 685L372 685L459 520M345 284Q345 332 330 360.50Q315 389 289 389Q265 389 240 368Q215 347 196 312Q160 246 160 176Q160 132 176.50 103.50Q193 75 218 75Q240 75 262 93Q300 125 322.50 177Q345 229 345 284Z"  horiz-adv-x="499" vert-adv-y="1000"  />

      
      <glyph glyph-name="unif5" unicode="&#xf5;" d="M470 287Q470 227 451 171Q434 122 397 76Q357 28 313 7.50Q269-13 206-13Q124-13 80 36Q36 85 36 176Q36 311 110.50 396Q185 481 301 481Q384 481 427 431.50Q470 382 470 287M492 570Q456 541 427 530Q386 514 353 514Q317 514 270 541Q249 553 239.50 556.50Q230 560 216 560Q189 560 150 538Q145 535 135 529L110 586Q154 612 176 621Q213 636 241 636Q244 636 247.50 635.50Q251 635 253 635Q272 634 290 624Q293 622 305.50 615Q318 608 327 602Q353 586 375 586Q396 586 413 593Q430 600 467 623L492 570M345 284Q345 332 330 360.50Q315 389 289 389Q265 389 240 368Q215 347 196 312Q160 246 160 176Q160 132 176.50 103.50Q193 75 218 75Q240 75 262 93Q300 125 322.50 177Q345 229 345 284Z"  horiz-adv-x="499" vert-adv-y="1000"  />

      
      <glyph glyph-name="unif6" unicode="&#xf6;" d="M470 287Q470 227 451 171Q434 122 397 76Q357 28 313 7.50Q269-13 206-13Q124-13 80 36Q36 85 36 176Q36 311 110.50 396Q185 481 301 481Q384 481 427 431.50Q470 382 470 287M345 284Q345 332 330 360.50Q315 389 289 389Q266 389 240.50 368Q215 347 196 312Q160 246 160 176Q160 132 176.50 103.50Q193 75 218 75Q240 75 262 93Q300 125 322.50 177Q345 229 345 284M289 572Q289 548 270 530.50Q251 513 224 513Q203 513 188 530Q173 547 173 570Q173 594 192 611.50Q211 629 237 629Q258 629 273.50 612.50Q289 596 289 572M455 572Q455 548 436 531Q417 514 391 514Q369 514 354 530.50Q339 547 339 570Q339 595 357.50 612Q376 629 403 629Q424 629 439.50 612.50Q455 596 455 572Z"  horiz-adv-x="499" vert-adv-y="1000"  />

      
      <glyph glyph-name="unif7" unicode="&#xf7;" d="M527 197L23 197L23 280L527 280L527 197M323.50 96Q323.50 96 333.25 86Q343 76 343 48Q343 20 323.50 0.50Q304-19 276-19Q248-19 228 0.50Q208 20 208 48Q208 76 228 96Q248 116 276 116Q304 116 323.50 96M324.50 478Q324.50 478 334.25 468Q344 458 344 430Q344 402 324.50 382.50Q305 363 277 363Q249 363 229 382.50Q209 402 209 430Q209 458 229 478Q249 498 277 498Q305 498 324.50 478Z"  horiz-adv-x="550" vert-adv-y="1000"  />

      
      <glyph glyph-name="unif8" unicode="&#xf8;" d="M470 288Q470 161 396 73.50Q322-14 214-14Q202-14 175-11L144-82L96-66L126 3Q83 20 59.50 65Q36 110 36 175Q36 310 110 395.50Q184 481 300 481Q318 481 333 478L363 549L414 533L384 464Q423 451 446.50 402.50Q470 354 470 288M297 395Q294 395 291 395.50Q288 396 288 396Q268 396 240.50 371.50Q213 347 193 313Q157 251 157 167Q157 141 159 132Q161 123 171 107L297 395M354 291Q354 305 353 313Q351 343 341 371L210 69L214 69Q235 69 261.50 91Q288 113 311 149Q354 216 354 291Z"  horiz-adv-x="499" vert-adv-y="1000"  />

      
      <glyph glyph-name="unif9" unicode="&#xf9;" d="M515 475L442 0L328 0L350 139Q330 102 325 95Q304 64 271 35Q213-13 145-13Q97-13 74.50 10Q52 33 52 81Q52 101 54 111L109 462L230 475L183 169Q179 142 179 131Q179 99 200 99Q236 99 287 154Q328 198 347.50 240.50Q367 283 376 351L393 462L515 475M378 521L298 521L210 686L310 686L378 521Z"  horiz-adv-x="537" vert-adv-y="1000"  />

      
      <glyph glyph-name="unifa" unicode="&#xfa;" d="M515 475L442 0L328 0L350 139Q330 102 325 95Q304 64 271 35Q213-13 145-13Q97-13 74.50 10Q52 33 52 81Q52 101 54 111L109 462L230 475L183 169Q179 142 179 131Q179 99 200 99Q236 99 287 154Q328 198 347.50 240.50Q367 283 376 351L392 462L515 475M502 686L362 521L262 521L382 686L502 686Z"  horiz-adv-x="537" vert-adv-y="1000"  />

      
      <glyph glyph-name="unifb" unicode="&#xfb;" d="M515 475L442 0L328 0L350 139Q330 102 325 95Q304 64 271 35Q213-13 145-13Q97-13 74.50 10Q52 33 52 81Q52 101 54 111L109 462L230 475L183 169Q179 142 179 131Q179 99 200 99Q236 99 287 154Q328 198 347.50 240.50Q367 283 376 351L392 462L515 475M470 520L382 520L332 611L252 520L165 520L304 685L383 685L470 520Z"  horiz-adv-x="537" vert-adv-y="1000"  />

      
      <glyph glyph-name="unifc" unicode="&#xfc;" d="M515 475L442 0L328 0L350 139Q330 102 325 95Q304 64 271 35Q213-13 145-13Q97-13 74.50 10Q52 33 52 81Q52 101 54 111L109 462L230 475L183 169Q179 142 179 131Q179 99 200 99Q236 99 287 154Q328 198 347.50 240.50Q367 283 376 351L393 462L515 475M296 572Q296 548 277 530.50Q258 513 231 513Q210 513 195 530Q180 547 180 570Q180 594 198.50 611.50Q217 629 244 629Q265 629 280.50 612.50Q296 596 296 572M477 572Q477 548 458.50 531Q440 514 413 514Q392 514 377 530.50Q362 547 362 570Q362 595 380.50 612Q399 629 426 629Q447 629 462 612Q477 595 477 572Z"  horiz-adv-x="537" vert-adv-y="1000"  />

      
      <glyph glyph-name="unifd" unicode="&#xfd;" d="M437 401Q437 331 414 265Q398 221 376.50 187Q355 153 304 93Q257 38 248 0L191-235L71-235L126-13Q134 19 134 46Q134 57 131 65L28 462L150 475L220 150Q261 203 284 255Q315 326 315 393Q315 424 305 455L429 475Q437 431 437 401M422 686L282 521L181 521L302 686L422 686Z"  horiz-adv-x="439" vert-adv-y="1000"  />

      
      <glyph glyph-name="unife" unicode="&#xfe;" d="M503 344Q503 249 467.50 166Q432 83 372.50 34Q313-15 245-15Q197-15 159 6L121-235L1-235L149 728L271 741L210 348Q244 407 301 446Q358 485 407 485Q452 485 477.50 448Q503 411 503 344M378 320Q378 369 352 369Q338 369 315 354.50Q292 340 271 319Q243 291 217 251Q190 209 182 156L173 98Q193 82 203.50 77.50Q214 73 227 73Q253 73 281.50 94Q310 115 330 150Q350 183 364 233Q378 283 378 320Z"  horiz-adv-x="526" vert-adv-y="1000"  />

      
      <glyph glyph-name="uniff" unicode="&#xff;" d="M437 401Q437 331 414 265Q398 221 376.50 187Q355 153 304 93Q257 38 248 0L191-235L71-235L126-13Q134 19 134 46Q134 56 131 65L28 462L150 475L220 150Q261 203 284 255Q315 326 315 393Q315 424 305 455L429 475Q437 431 437 401M207 613.50Q207 613.50 214.50 605.25Q222 597 222 573Q222 549 203.50 532Q185 515 158 515Q137 515 122 531.50Q107 548 107 571Q107 596 125.50 613Q144 630 170 630Q192 630 207 613.50M381.50 613.50Q381.50 613.50 389.25 605.25Q397 597 397 573Q397 549 378 532Q359 515 332 515Q311 515 296 531.50Q281 548 281 572Q281 596 299.50 613Q318 630 344 630Q366 630 381.50 613.50Z"  horiz-adv-x="439" vert-adv-y="1000"  />

      
      <glyph glyph-name="uni0153" unicode="&#x0153;" d="M739 383Q739 344 719 315.50Q699 287 655 264L453 156Q457 126 465 114Q472 103 485 96.50Q498 90 510 90Q532 90 568 104Q589 111 608 123.50Q627 136 677 174L722 103Q694 79 656 51Q561-15 474-15Q388-15 374 64Q364 53 348 37Q295-13 206-13Q123-13 79 35.50Q35 84 35 176Q35 310 109.50 395.50Q184 481 300 481Q341 481 376 469Q399 461 411 448Q423 435 434 406Q450 425 461 434Q486 455 525.50 467.50Q565 480 608 480Q739 480 739 383M344 284Q344 332 329 360.50Q314 389 288 389Q265 389 239.50 368Q214 347 195 312Q159 246 159 176Q159 132 175.50 103.50Q192 75 217 75Q239 75 261 93Q299 125 321.50 177Q344 229 344 284M623 356Q623 399 583 399Q549 399 516 361Q498 339 486 313.50Q474 288 459 239L617 327Q623 343 623 356Z"  horiz-adv-x="750" vert-adv-y="1000"  />

      
      <glyph glyph-name="uni0178" unicode="&#x0178;" d="M626 665L342 282L298 0L169 0L215 290L75 665L211 665L302 407L481 665L626 665M291 750Q291 727 273 710.50Q255 694 230 694Q210 694 195.50 710Q181 726 181 748Q181 772 199 788.50Q217 805 242 805Q262 805 276.50 789Q291 773 291 750M508 749Q508 726 489.50 709.50Q471 693 446 693Q426 693 412 709Q398 725 398 747Q398 771 415.50 787.50Q433 804 458 804Q479 804 493.50 788Q508 772 508 749Z"  horiz-adv-x="550" vert-adv-y="1000"  />

      
      <glyph glyph-name="uni2014" unicode="&#x2014;" d="M1015 276L1002 192L-5 192L8 276L1015 276Z"  horiz-adv-x="1000" vert-adv-y="1000"  />

      
      <glyph glyph-name="uni2018" unicode="&#x2018;" d="M274 665Q253 631 231 589Q212 549 203 514L237 380Q206 365 189 361Q172 357 148 357Q113 357 97 371.50Q81 386 81 419Q81 464 114.50 531.50Q148 599 203 665L274 665Z"  horiz-adv-x="251" vert-adv-y="1000"  />

      
      <glyph glyph-name="uni2019" unicode="&#x2019;" d="M271 623Q271 578 238 510.50Q205 443 150 378L77 378Q98 409 120 453Q140 494 149 528L114 663Q146 677 163 681.50Q180 686 204 686Q239 686 255 671Q271 656 271 623Z"  horiz-adv-x="251" vert-adv-y="1000"  />

      
      <glyph glyph-name="uni201A" unicode="&#x201A;" d="M184 79Q184 34 150.50-33.50Q117-101 63-166L-10-166Q14-130 33-92Q52-54 62-16L27 119Q58 133 75 137Q92 141 117 141Q152 141 168 126Q184 111 184 79Z"  horiz-adv-x="251" vert-adv-y="1000"  />

      
      <glyph glyph-name="uni201C" unicode="&#x201C;" d="M274 665Q252 631 231 589Q211 549 202 514L237 380Q206 365 188.50 361Q171 357 147 357Q112 357 96.50 371.50Q81 386 81 419Q81 464 114 531.50Q147 599 202 665L274 665M460 665Q437 629 418 589Q400 554 390 514L423 380Q392 365 375 361Q358 357 334 357Q299 357 283 371.50Q267 386 267 419Q267 464 300.50 531.50Q334 599 389 665L460 665Z"  horiz-adv-x="437" vert-adv-y="1000"  />

      
      <glyph glyph-name="uni201D" unicode="&#x201D;" d="M271 623Q271 578 237.50 510.50Q204 443 149 378L77 378Q98 409 120 453Q140 494 148 528L114 663Q146 677 163 681.50Q180 686 204 686Q239 686 255 671Q271 656 271 623M457 623Q457 578 424 510.50Q391 443 335 378L264 378Q288 416 307 453Q325 490 334 528L301 663Q332 677 349 681.50Q366 686 390 686Q425 686 441 671Q457 656 457 623Z"  horiz-adv-x="437" vert-adv-y="1000"  />

      
      <glyph glyph-name="uni201E" unicode="&#x201E;" d="M184 79Q184 34 150.50-33.50Q117-101 62-166L-10-166Q14-130 33-92Q52-54 61-16L27 119Q58 133 75 137Q92 141 117 141Q152 141 168 126Q184 111 184 79M370 79Q370 34 336.50-33.50Q303-101 248-166L177-166Q201-129 219-92Q240-50 247-16L213 119Q244 133 261 137Q278 141 303 141Q338 141 354 126Q370 111 370 79Z"  horiz-adv-x="437" vert-adv-y="1000"  />

      
      <glyph glyph-name="uni2022" unicode="&#x2022;" d="M339 237Q339 169 286.50 121Q234 73 160 73Q101 73 59.50 119.50Q18 166 18 232Q18 299 69.50 347Q121 395 194 395Q254 395 296.50 348.50Q339 302 339 237Z"  horiz-adv-x="352" vert-adv-y="1000"  />

      
      <glyph glyph-name="uni2026" unicode="&#x2026;" d="M169 71Q169 37 142.50 12.50Q116-12 79-12Q50-12 29.50 11.50Q9 35 9 67Q9 102 34.50 126Q60 150 96 150Q126 150 147.50 126.50Q169 103 169 71M429 72Q429 38 402.50 13.50Q376-11 339-11Q310-11 289 12.50Q268 36 268 69Q268 103 294 126.50Q320 150 357 150Q387 150 408 127Q429 104 429 72M682 72Q682 38 656 13.50Q630-11 594-11Q564-11 543 12.50Q522 36 522 69Q522 103 548 126.50Q574 150 611 150Q640 150 661 127Q682 104 682 72Z"  horiz-adv-x="750" vert-adv-y="1000"  />

      
      <glyph glyph-name="uni2039" unicode="&#x2039;" d="M307 424L287 304L174 228L263 152L244 31L29 228L307 424Z"  horiz-adv-x="321" vert-adv-y="1000"  />

      
      <glyph glyph-name="uni203A" unicode="&#x203A;" d="M301 228L23 31L42 152L155 228L66 304L85 424L301 228Z"  horiz-adv-x="321" vert-adv-y="1000"  />

      
      <glyph glyph-name="uni20AC" unicode="&#x20AC;" d="M567 472L494 374Q471 396 452 404.50Q433 413 406 413Q328 413 279 340L453 340L443 280L251 280Q245 258 242 234L436 234L426 173L247 173Q256 137 281 117Q306 97 342 97Q372 97 400 106.50Q428 116 470 141L497 35Q465 19 455 15Q388-14 314-14Q224-14 171 36Q118 86 113 173L34 173L42 222L115 232Q119 264 123 280L51 280L59 328L143 340Q179 425 249.50 474Q320 523 409 523Q452 523 484 515Q508 508 523.50 500Q539 492 567 472Z"  horiz-adv-x="530" vert-adv-y="1000"  />

      
      <glyph glyph-name="uni2122" unicode="&#x2122;" d="M426 665L414 589L325 589L286 341L184 341L224 589L135 589L147 665L426 665M926 665L875 341L774 341L808 557L802 557L788 513L685 341L596 341L555 520L555 564L549 564L514 341L425 341L476 665L622 665L655 468L657 443L663 443L674 468L775 665L926 665Z"  horiz-adv-x="863" vert-adv-y="1000"  />

      

  </font>
</defs>
</svg>
