<?xml version="1.0" standalone="no"?>
  <!DOCTYPE svg PUBLIC "-//W3C//DTD SVG 1.1//EN" "http://www.w3.org/Graphics/SVG/1.1/DTD/svg11.dtd" >
  <svg>
  <metadata>
  Created by font-carrier
  </metadata>
  <defs>
  <font id="ZatannaMisdirection" horiz-adv-x="2168" vert-adv-y="2168" >
    <font-face
      
      font-family="ZatannaMisdirection"
      
      font-weight="400"
      
      font-stretch="normal"
      
      units-per-em="2048"
      
      ascent="1716"
      
      descent="-418"
      
    />
      <missing-glyph />

      

      
      <glyph glyph-name="uni21" unicode="&#x21;" d="M765 1431Q809 1417 809 1378Q759 1069 633 804Q578 565 438 565Q388 565 376 663Q376 699 535 1113Q535 1265 730 1422Q750 1422 765 1431M217 212Q281 212 315 115Q315 0 182 0Q76 24 76 97L76 115Q76 207 217 212Z"  horiz-adv-x="854" vert-adv-y="2048"  />

      
      <glyph glyph-name="uni22" unicode="&#x22;" d="M205 1560Q257 1560 257 1371L257 1345Q257 1155 128 1155L119 1155Q76 1175 76 1284L76 1336Q76 1560 205 1560M542 1534Q619 1534 619 1396Q630 1396 645 1276Q633 1181 567 1181L542 1181Q447 1252 447 1396Q460 1534 542 1534Z"  horiz-adv-x="725" vert-adv-y="2048"  />

      
      <glyph glyph-name="uni25" unicode="&#x25;" d="M439 1431Q801 1318 801 1104Q801 839 395 742L377 742Q208 742 121 981L121 1007Q121 1215 386 1422L439 1431M280 1051L280 1016Q290 919 413 919Q642 944 642 1087L642 1113Q642 1210 492 1237L466 1237Q280 1187 280 1051M1075 1219L1110 1219Q1123 1219 1146 1175Q1146 1041 616 433L377 44Q323 0 271 0L262 0Q218 23 218 71Q256 204 792 866Q921 1081 1075 1219M1093 751Q1313 751 1420 353Q1420 213 1110 80Q1064 62 996 53Q826 53 748 336Q848 751 1093 751M898 371L898 336Q898 212 1031 212Q1222 212 1252 371Q1252 506 1146 583L1093 583Q943 583 898 371Z"  horiz-adv-x="1493" vert-adv-y="2048"  />

      
      <glyph glyph-name="uni26" unicode="&#x26;" d="M404 1446Q482 1418 873 1376Q927 1376 1042 1396Q1172 1370 1172 1316Q1172 1227 933 1227L913 1227Q873 1227 743 1257L673 1257Q624 1237 624 1187Q624 977 873 977Q1013 947 1013 878Q1013 842 883 758L873 738Q975 419 1122 419Q1270 509 1362 708Q1384 848 1471 848Q1528 848 1541 738Q1516 565 1362 379Q1302 344 1302 289L1302 239Q1302 192 1541 160L1571 120Q1571 0 1332 0Q1308 0 1023 100Q833 0 624 0Q438 0 235 170Q128 323 125 409Q125 818 374 917Q464 949 464 1017L464 1027Q464 1055 354 1217L314 1346Q328 1446 404 1446M305 509L305 459Q305 240 594 180L703 180Q863 199 863 279L863 319Q863 388 574 758Q556 768 534 768L514 768Q342 768 305 509Z"  horiz-adv-x="1704" vert-adv-y="2048"  />

      
      <glyph glyph-name="uni27" unicode="&#x27;" d="M149 1108L119 1108L57 1467Q53 1490 53 1500Q53 1537 73.50 1557Q94 1577 133 1577Q172 1577 193.50 1557.50Q215 1538 215 1501Q215 1493 211 1467L149 1108Z"  horiz-adv-x="274" vert-adv-y="2048"  />

      
      <glyph glyph-name="uni28" unicode="&#x28;" d="M485 1434Q591 1422 591 1354Q591 1319 404 1131Q306 946 306 739Q306 410 511 160Q597 160 636 62Q636 0 547 0Q262 0 164 588Q164 713 155 713Q155 1181 413 1416Q446 1434 485 1434Z"  horiz-adv-x="681" vert-adv-y="2048"  />

      
      <glyph glyph-name="uni29" unicode="&#x29;" d="M380 1431Q523 1431 663 952Q670 890 670 857Q670 497 358 145Q204 0 96 0Q2 14 2 73L2 80Q554 283 554 770L554 828Q554 1114 314 1366L314 1395Q314 1416 380 1431Z"  horiz-adv-x="832" vert-adv-y="2048"  />

      
      <glyph glyph-name="uni2a" unicode="&#x2a;" d="M333 1609Q373 1609 373 1449L389 1449Q453 1505 517 1505Q538 1505 557 1465Q557 1438 461 1361L461 1337Q597 1200 597 1161Q567 1097 517 1097Q484 1097 429 1137L413 1137L413 1073Q429 956 429 945Q429 930 357 881Q285 895 285 1017L285 1121L141 1049L117 1049Q74 1049 61 1089Q61 1115 181 1257L181 1297Q181 1322 45 1369L45 1377Q45 1449 133 1449Q165 1441 221 1441Q249 1609 333 1609Z"  horiz-adv-x="667" vert-adv-y="2048"  />

      
      <glyph glyph-name="uni2b" unicode="&#x2b;" d="M539 1071Q585 1061 585 1024Q585 999 530 857L530 848Q530 802 576 783L641 783Q819 830 863 830L873 830Q885 830 919 783L919 746Q810 598 455 598Q411 573 372 384Q343 338 261 338Q214 351 214 403L242 533L242 598Q242 618 47 755L38 774L38 802Q73 857 121 857Q255 811 279 811L307 811Q329 812 465 1034Q494 1056 539 1071Z"  horiz-adv-x="994" vert-adv-y="2048"  />

      
      <glyph glyph-name="uni2c" unicode="&#x2c;" d="M222 245Q322 245 329 79Q219-252 144-252Q66-215 66-155Q105 28 105 89L105 157Q105 245 222 245Z"  horiz-adv-x="414" vert-adv-y="2048"  />

      
      <glyph glyph-name="uni2d" unicode="&#x2d;" d="M399 548Q469 534 505 493Q505 398 331 398Q144 398 79 466L79 500Q79 543 399 548Z"  horiz-adv-x="595" vert-adv-y="2048"  />

      
      <glyph glyph-name="uniad" unicode="&#xad;" d="M399 548Q469 534 505 493Q505 398 331 398Q144 398 79 466L79 500Q79 543 399 548Z"  horiz-adv-x="595" vert-adv-y="2048"  />

      
      <glyph glyph-name="uni2e" unicode="&#x2e;" d="M220 252Q291 252 344 180Q344 93 220 5L174 5Q84 60 84 149Q84 238 220 252Z"  horiz-adv-x="428" vert-adv-y="2048"  />

      
      <glyph glyph-name="uni30" unicode="&#x30;" d="M856 1434Q1290 1434 1471 804L1471 757Q1471 288 967 16L809 0L793 0Q268 0 100 536L84 678Q84 1176 667 1403Q807 1434 856 1434M415 709L415 646Q415 394 825 299L856 299Q1140 389 1140 662L1140 835Q1140 1078 888 1119L872 1119Q415 1119 415 709Z"  horiz-adv-x="1515" vert-adv-y="2048"  />

      
      <glyph glyph-name="uni31" unicode="&#x31;" d="M830 1431Q933 1431 962 1018Q962 0 859 0L830 0Q697 0 697 177L697 693Q697 1018 505 1018Q446 1080 446 1136Q446 1252 741 1431L830 1431Z"  horiz-adv-x="1515" vert-adv-y="2048"  />

      
      <glyph glyph-name="uni32" unicode="&#x32;" d="M801 1431Q1051 1431 1235 1020L1259 938Q1259 623 742 375Q649 273 649 223Q685 223 871 235Q1165 235 1165 82Q1165 20 1036 12Q984 12 613 59L402 0Q285 31 285 141Q305 230 731 575Q1001 750 1001 974Q915 1208 731 1208Q677 1208 426 1009Q388 985 367 985Q308 1004 308 1067Q495 1431 801 1431Z"  horiz-adv-x="1515" vert-adv-y="2048"  />

      
      <glyph glyph-name="uni33" unicode="&#x33;" d="M855 1431Q1147 1401 1147 1381Q1147 1284 895 978L885 927L885 887Q885 826 1076 665Q1145 581 1167 453Q1167 129 603 0L542 0Q279 0 240 222Q240 232 280 252Q311 252 633 151L714 151Q875 151 966 464L966 474Q966 663 683 695Q571 695 532 766L532 786Q845 1118 845 1209L845 1229Q845 1244 814 1260Q622 1250 552 1250Q552 1235 502 1219Q421 1219 401 1360Q401 1396 643 1411Q699 1401 724 1401Q773 1431 855 1431Z"  horiz-adv-x="1515" vert-adv-y="2048"  />

      
      <glyph glyph-name="uni34" unicode="&#x34;" d="M873 1434Q938 1401 938 1359Q833 970 638 553Q622 553 620 487L620 412Q635 375 685 375Q882 375 882 431Q949 919 1023 919Q1062 919 1098 853L1098 844Q1069 721 1069 619L1069 394Q1190 394 1219 300Q1201 206 1079 206L1079 112Q1069 0 985 0Q873 0 873 122L882 206Q822 206 760 216Q607 206 460 206Q329 218 329 272Q657 923 657 947Q765 1425 854 1425L873 1434Z"  horiz-adv-x="1515" vert-adv-y="2048"  />

      
      <glyph glyph-name="uni35" unicode="&#x35;" d="M727 1434L737 1434Q826 1434 936 1424L996 1434Q1066 1434 1116 1364Q1116 1245 687 1245Q578 1199 578 1165L578 1115Q578 996 837 996Q942 996 1056 837Q1165 648 1165 548Q1165 359 946 110Q814 50 608 0Q389 0 319 219Q340 279 399 279Q555 209 598 209L628 209Q885 209 956 478L956 558Q956 757 707 797Q389 797 389 876Q369 966 369 1006L369 1036Q369 1414 608 1414Q608 1432 727 1434Z"  horiz-adv-x="1515" vert-adv-y="2048"  />

      
      <glyph glyph-name="uni36" unicode="&#x36;" d="M949 1435Q1026 1435 1069 1345Q1069 1254 778 1174Q467 904 467 652L467 632Q467 395 678 241Q743 211 838 211L878 211Q1080 211 1119 402L1119 452Q1104 612 979 612L969 612Q888 612 718 452L667 442Q606 442 587 532Q761 833 1009 833Q1269 833 1340 412Q1255 0 778 0Q519 0 326 331Q276 484 276 652Q276 922 597 1285Q675 1325 949 1435Z"  horiz-adv-x="1515" vert-adv-y="2048"  />

      
      <glyph glyph-name="uni37" unicode="&#x37;" d="M1004 1434Q1121 1405 1121 1355Q1043 1215 905 727Q778 391 778 98Q749 28 689 0Q611 0 611 147Q611 410 768 894Q817 1087 817 1130L817 1179Q801 1218 748 1218L738 1218Q700 1218 493 1198Q375 1225 375 1306L375 1326Q375 1406 1004 1434Z"  horiz-adv-x="1515" vert-adv-y="2048"  />

      
      <glyph glyph-name="uni38" unicode="&#x38;" d="M818 1431L828 1431Q1101 1431 1149 1207Q1188 1133 1198 1090Q1130 923 1130 896L1130 866Q1130 823 1237 691Q1295 550 1295 448Q1295 81 789 0Q401 46 361 214Q315 253 283 458Q283 599 507 837L517 905L517 915Q458 1077 458 1129Q458 1392 818 1431M682 1188L682 1100Q682 1008 818 993L838 993Q984 993 984 1129Q984 1231 838 1256L799 1256Q716 1256 682 1188M487 477L487 380Q487 228 760 204L789 204Q983 204 1052 321L1052 545Q1052 740 828 740L779 740Q487 647 487 477Z"  horiz-adv-x="1515" vert-adv-y="2048"  />

      
      <glyph glyph-name="uni39" unicode="&#x39;" d="M797 1438L844 1438Q1044 1438 1187 1057Q1214 1010 1235 829Q1181 432 1044 219Q886 0 778 0L768 0Q425 98 425 238Q425 263 473 286Q622 200 797 200Q879 200 959 419Q1044 637 1044 848Q941 1248 816 1248L768 1248Q502 1172 502 1010L502 1000Q502 857 702 857L883 905Q940 885 940 829Q940 667 663 667L654 667Q353 667 311 1029Q311 1262 673 1419Q716 1438 797 1438Z"  horiz-adv-x="1515" vert-adv-y="2048"  />

      
      <glyph glyph-name="uni3a" unicode="&#x3a;" d="M269 954Q392 893 392 812Q392 725 269 708Q156 708 156 822Q156 902 269 954M269 255Q392 236 392 170Q350 0 250 0Q156 49 156 151Q156 226 269 255Z"  horiz-adv-x="501" vert-adv-y="2048"  />

      
      <glyph glyph-name="uni3b" unicode="&#x3b;" d="M246 968Q379 902 379 814Q379 720 246 702Q123 702 123 825Q164 968 246 968M359 333Q502 281 502 117L502 107Q502-152 318-272L266-272Q266-264 256-211Q277-118 277-77L277-36Q277-6 184 128Q267 333 359 333Z"  horiz-adv-x="602" vert-adv-y="2048"  />

      
      <glyph glyph-name="uni037E" unicode="&#x037E;" d="M246 968Q379 902 379 814Q379 720 246 702Q123 702 123 825Q164 968 246 968M359 333Q502 281 502 117L502 107Q502-152 318-272L266-272Q266-264 256-211Q277-118 277-77L277-36Q277-6 184 128Q267 333 359 333Z"  horiz-adv-x="602" vert-adv-y="2048"  />

      
      <glyph glyph-name="uni3f" unicode="&#x3f;" d="M478 1434Q735 1349 735 1147Q752 1147 775 1019Q775 869 438 682L429 663L429 534L508 445L508 425Q508 398 419 376Q287 376 241 623Q241 795 498 890Q616 1008 616 1068L616 1088Q616 1189 458 1236L389 1236Q292 1173 211 1167Q192 1167 152 1216Q229 1394 349 1394Q357 1419 478 1434M270 227Q349 190 349 129Q349 28 221 0Q159 0 122 89Q122 194 270 227Z"  horiz-adv-x="854" vert-adv-y="2048"  />

      
      <glyph glyph-name="uni40" unicode="&#x40;" d="M1239 1434Q1598 1434 1911 1112Q2021 934 2021 791Q2021 544 1708 175Q1473 0 1221 0Q1011 0 964 175Q964 263 1102 377L1102 386Q1102 456 835 496Q776 536 761 616Q761 841 1157 1011Q1267 1030 1276 1030Q1497 986 1497 827Q1482 781 1442 781Q1239 855 1212 855L1166 855Q1075 855 1010 754L1010 708Q1019 588 1129 588L1157 588Q1212 588 1341 625Q1405 625 1405 542Q1405 436 1221 257L1221 239L1267 230L1359 230Q1573 230 1791 643Q1809 708 1819 772Q1819 1110 1396 1241Q1304 1259 1212 1259Q444 1259 256 285L228 285Q137 285 118 423Q140 709 486 1112Q841 1434 1239 1434Z"  horiz-adv-x="2168" vert-adv-y="2048"  />

      
      <glyph glyph-name="uni41" unicode="&#x41;" d="M695 1434Q831 1434 945 1113Q1018 1113 1186 481Q1219 481 1266 100Q1266 47 1196 0L1166 0Q1095 0 1036 201Q990 291 735 291L695 291Q630 291 554 271Q474 300 474 361Q474 455 805 471Q873 471 925 542L925 572Q770 1103 675 1103L665 1103Q565 1103 524 842Q500 809 304 341L304 241Q304 60 153 60Q83 90 83 150L83 170Q83 236 203 602Q203 625 324 903Q324 939 444 1163Q570 1434 695 1434Z"  horiz-adv-x="1353" vert-adv-y="2048"  />

      
      <glyph glyph-name="uni42" unicode="&#x42;" d="M681 1434Q1088 1400 1088 1184Q1070 1075 1023 953Q1190 781 1190 749Q1236 587 1236 481Q1208 98 922 56Q795 56 653 9L515 9Q423 9 293 0Q218 0 163 130Q200 279 200 509L200 518Q200 1128 163 1286Q163 1425 404 1425L515 1425Q594 1425 681 1434M367 1147Q403 999 478 999L496 999Q848 1052 848 1175L848 1184Q744 1267 616 1267L533 1267Q367 1267 367 1147M394 731L394 722Q394 696 376 472Q376 425 385 333Q376 297 376 259Q411 185 468 185Q901 185 1023 352Q1042 437 1042 500Q1042 774 783 814L626 814Q394 786 394 731Z"  horiz-adv-x="1363" vert-adv-y="2048"  />

      
      <glyph glyph-name="uni43" unicode="&#x43;" d="M744 1436Q1152 1436 1235 1303Q1235 1293 1245 1275Q1205 1199 1160 1199Q1009 1266 810 1266L706 1266Q492 1266 329 973Q291 817 291 718L291 708Q369 321 451 321Q605 179 886 179Q914 179 1179 302L1197 302Q1273 279 1273 208Q1273 0 763 0Q277 0 121 453Q83 604 83 708Q137 1061 291 1247Q539 1436 744 1436Z"  horiz-adv-x="1369" vert-adv-y="2048"  />

      
      <glyph glyph-name="uni44" unicode="&#x44;" d="M601 1434Q1159 1336 1159 1255Q1248 1201 1248 657Q1248 0 382 0Q183 45 183 149Q193 222 203 239Q193 307 193 349L193 359Q223 633 223 667Q223 709 203 767Q213 821 213 856L213 876Q213 899 203 916Q233 1024 233 1046Q183 1139 123 1344Q123 1434 591 1434L601 1434M432 1115Q442 1001 452 986Q452 926 422 249Q442 195 482 179L551 179Q960 268 960 368Q1049 516 1049 558Q1025 1115 940 1115Q840 1235 571 1235Q432 1200 432 1115Z"  horiz-adv-x="1403" vert-adv-y="2048"  />

      
      <glyph glyph-name="uni45" unicode="&#x45;" d="M473 1434L899 1434Q1016 1434 1045 1327Q1007 1231 928 1231Q612 1269 492 1269Q366 1243 366 1143Q366 862 463 862L551 862Q829 862 880 785Q850 678 696 678L502 678Q396 678 396 562Q376 476 376 329L376 281Q411 194 580 194L638 194Q762 194 909 203Q1083 181 1083 87Q1083 16 958 0L647 0Q173 0 173 184Q192 299 192 329Q173 392 173 417Q192 555 192 610L192 620Q192 669 173 669L182 765Q163 941 163 959Q194 1386 270 1386Q270 1424 473 1434Z"  horiz-adv-x="1150" vert-adv-y="2048"  />

      
      <glyph glyph-name="uni46" unicode="&#x46;" d="M263 1435Q294 1435 334 1425Q520 1435 665 1435L805 1435Q861 1435 956 1415Q1107 1425 1167 1425Q1245 1425 1307 1324Q1269 1214 1106 1214Q923 1234 554 1244Q466 1244 454 1023L454 953Q508 863 645 863L916 893Q977 893 1006 823Q1006 715 845 672Q696 682 595 682L554 682Q424 682 424 341L424 201Q424 0 284 0L274 0Q252 0 223 80Q233 246 233 331L233 612Q233 654 223 722Q243 777 243 1003L243 1054Q243 1135 133 1304Q133 1324 123 1324Q123 1407 263 1435Z"  horiz-adv-x="1235" vert-adv-y="2048"  />

      
      <glyph glyph-name="uni47" unicode="&#x47;" d="M896 1434Q1173 1386 1173 1243Q1160 1195 1106 1195L1068 1195Q784 1252 743 1252Q417 1252 293 889Q284 873 284 841L284 593Q284 341 666 182Q732 172 771 172L810 172Q1039 222 1039 382L1039 411Q1020 449 982 468L915 468Q875 468 704 440Q628 473 628 545Q628 667 1096 736L1115 736Q1268 736 1268 488Q1268 165 991 19Q905 0 867 0Q351 76 351 143Q140 303 140 459Q83 590 83 707Q83 949 322 1310Q322 1367 896 1434Z"  horiz-adv-x="1391" vert-adv-y="2048"  />

      
      <glyph glyph-name="uni48" unicode="&#x48;" d="M275 1434Q438 1388 438 1302Q407 1062 407 1007Q407 946 417 824Q407 757 407 692L417 671Q387 504 387 427L417 112Q390 0 326 0Q163 0 163 315Q163 350 173 529Q163 683 163 742L204 956Q194 1026 194 1068L194 1271Q204 1434 275 1434M1251 1424L1261 1424Q1404 1395 1404 1210Q1404 1124 1383 1078L1434 386L1434 346Q1413 20 1282 20Q1239 20 1200 92Q1211 193 1211 244Q1196 834 1119 834Q1113 834 987 824L834 875L641 844Q488 879 488 956Q508 1027 651 1027L753 1027Q801 1027 855 1017Q1200 1017 1200 1109Q1211 1172 1211 1251L1211 1261Q1170 1310 1170 1342Q1185 1424 1251 1424Z"  horiz-adv-x="1601" vert-adv-y="2048"  />

      
      <glyph glyph-name="uni49" unicode="&#x49;" d="M462 1434L481 1434Q616 1434 646 1347Q646 1294 520 1240Q501 1207 491 1143Q520 788 530 436Q510 369 510 320L510 300Q510 276 714 145Q714 129 733 87Q733 32 627 19L549 19Q359 19 191 0Q84 16 84 97Q84 162 278 203Q326 282 326 329Q307 517 307 533Q326 824 336 901Q336 1186 123 1279Q123 1296 103 1337Q103 1416 462 1434Z"  horiz-adv-x="770" vert-adv-y="2048"  />

      
      <glyph glyph-name="uni4a" unicode="&#x4a;" d="M1122 1433Q1260 1433 1260 1114Q1281 959 1292 701Q1261 179 963 42Q855 0 772 0L751 0Q262 0 124 212L93 318Q103 443 103 499Q103 573 82 573Q82 652 209 701Q287 701 337 382Q491 231 645 223L814 223Q985 223 1048 573L1048 679Q995 1138 995 1210L995 1284Q1009 1433 1122 1433Z"  horiz-adv-x="1447" vert-adv-y="2048"  />

      
      <glyph glyph-name="uni4b" unicode="&#x4b;" d="M244 1434Q339 1434 365 1272L365 1262Q365 838 456 838L466 838Q760 1035 930 1313Q1022 1404 1082 1424Q1145 1404 1153 1373L1153 1363Q1153 1280 850 879L809 798Q915 547 1092 293Q1143 136 1143 81Q1143 7 1031 0Q964 3 819 273Q793 281 739 434Q643 545 577 545L557 545Q415 525 415 454Q436 293 436 212Q364 30 274 30L254 30Q183 83 183 121Q193 332 193 465L193 667Q193 729 163 1040L163 1283Q163 1434 244 1434Z"  horiz-adv-x="1248" vert-adv-y="2048"  />

      
      <glyph glyph-name="uni4c" unicode="&#x4c;" d="M309 1437Q398 1437 423 1302Q413 1228 413 1177Q444 1075 444 1041Q444 1005 423 864Q444 806 455 448Q434 364 434 271Q472 229 600 229Q818 229 996 250Q1055 250 1121 167Q1121 65 975 31Q783 42 694 42Q353 17 267 0Q163 41 163 125Q163 146 225 292Q225 387 215 885Q215 920 225 1187Q205 1286 205 1312Q222 1437 309 1437Z"  horiz-adv-x="1163" vert-adv-y="2048"  />

      
      <glyph glyph-name="uni4d" unicode="&#x4d;" d="M1391 1432Q1527 1432 1527 1199Q1537 1199 1547 867Q1537 753 1537 702Q1557 629 1557 604L1547 546Q1566 305 1576 273Q1552 97 1459 97Q1352 97 1352 663Q1346 838 1303 838Q1134 654 1079 390Q1079 325 904 39L874 19L845 19Q751 63 553 575Q507 628 407 799L377 799L358 770L358 312Q358 291 407 195Q334 0 260 0Q173 0 173 214L182 283Q182 351 173 565Q182 759 182 828Q182 852 163 965Q192 1060 192 1091Q173 1252 173 1306Q173 1371 251 1413Q380 1408 660 750Q773 458 865 458Q1043 671 1099 906Q1213 1132 1284 1364Q1339 1432 1391 1432Z"  horiz-adv-x="1743" vert-adv-y="2048"  />

      
      <glyph glyph-name="uni4e" unicode="&#x4e;" d="M1246 1437L1256 1437Q1347 1437 1347 1316Q1317 1024 1307 749Q1317 638 1337 587Q1307 518 1307 476L1307 374Q1307 266 1357 81Q1330 0 1256 0L1236 0Q1172 0 1033 202Q774 438 649 638Q487 739 477 739Q406 725 406 698L406 658Q406 505 426 415Q426 30 325 30Q248 30 214 182Q224 336 224 466L224 496Q224 506 214 506Q234 546 234 617L234 779Q234 834 264 931L264 941Q163 1260 163 1295Q163 1341 244 1386Q340 1380 598 971L861 678Q1010 466 1094 466Q1145 489 1145 557Q1145 700 1134 1063Q1155 1138 1155 1154Q1134 1245 1134 1285Q1150 1437 1246 1437Z"  horiz-adv-x="1524" vert-adv-y="2048"  />

      
      <glyph glyph-name="uni4f" unicode="&#x4f;" d="M704 1434Q1211 1333 1211 1214Q1402 1020 1402 755Q1412 755 1412 727Q1412 462 1230 191Q1040 0 743 0L647 0Q296 91 179 258Q83 387 83 602Q83 1014 217 1109Q501 1416 704 1434M274 822Q274 378 465 287Q694 172 800 172Q952 172 1144 382Q1240 599 1240 641L1240 727Q1240 905 1058 1138Q938 1233 733 1233Q436 1233 303 946Q274 853 274 822Z"  horiz-adv-x="1553" vert-adv-y="2048"  />

      
      <glyph glyph-name="uni50" unicode="&#x50;" d="M497 1431Q1213 1431 1364 1222Q1385 1183 1427 940Q1427 675 1135 491Q1016 460 800 460L727 460L664 449Q539 481 539 543Q539 637 811 637Q1187 677 1187 898L1187 1003Q1187 1179 832 1233L570 1254Q435 1254 435 1066Q403 785 403 585L403 533Q403 411 445 366Q429 0 341 0L330 0Q184 27 184 104Q205 649 205 773Q205 862 163 1212Q163 1398 424 1421Q456 1421 497 1431Z"  horiz-adv-x="1524" vert-adv-y="2048"  />

      
      <glyph glyph-name="uni51" unicode="&#x51;" d="M673 1431Q1246 1431 1424 903Q1485 808 1485 700Q1388 281 1170 60Q995 9 917-1L917-194Q917-209 957-234L988-234Q1022-234 1211-204Q1363-258 1363-285L1363-315Q1322-417 1089-417L988-417Q693-353 693-183L693-112L703 9Q492 46 328 202Q114 408 114 741Q102 741 84 842Q188 1248 267 1248Q333 1361 653 1431L673 1431M358 862L358 832Q358 497 673 253L734 243L815 243Q1079 243 1079 304Q1262 577 1262 730L1262 771Q1262 871 1028 1208Q1005 1208 988 1218Q972 1218 846 1208Q830 1208 683 1218Q358 1145 358 862Z"  horiz-adv-x="1597" vert-adv-y="2048"  />

      
      <glyph glyph-name="uni52" unicode="&#x52;" d="M980 1434Q1341 1434 1341 1083Q1341 1015 1246 769Q973 513 856 513L837 484L837 465Q837 308 1208 199L1341 209Q1387 209 1407 142Q1407 33 1217 0Q1068 0 742 190Q560 445 505 475L448 475Q391 446 391 389L391 294Q378 0 277 0Q205 0 172 142Q220 330 220 408Q191 501 191 522Q191 537 201 674Q172 925 172 969Q172 1018 182 1130Q163 1196 163 1244L163 1301Q163 1397 353 1424Q864 1434 980 1434M372 1130L372 1102Q372 665 438 665L457 665Q1018 693 1094 874Q1103 968 1103 1016L1103 1121Q1103 1253 847 1253Q596 1272 543 1272L533 1272Q372 1272 372 1130Z"  horiz-adv-x="1492" vert-adv-y="2048"  />

      
      <glyph glyph-name="uni53" unicode="&#x53;" d="M710 1437L819 1437Q967 1437 1127 1278L1127 1239Q1091 1179 1008 1179Q973 1179 730 1269L631 1269Q388 1269 314 1060L314 991Q314 891 532 872L661 892Q917 892 1097 753Q1196 634 1196 496Q1196 121 691 10Q639 0 572 0Q155 43 155 238Q155 256 205 297Q581 218 681 218L691 218Q968 294 968 416Q938 684 740 684L572 684Q536 684 482 674Q126 733 126 862Q108 862 86 981Q86 1278 463 1417Q611 1437 710 1437Z"  horiz-adv-x="1319" vert-adv-y="2048"  />

      
      <glyph glyph-name="uni54" unicode="&#x54;" d="M1242 1431Q1421 1399 1421 1332Q1421 1232 994 1232Q805 1216 805 1073Q805 1016 815 914Q808 855 795 855Q805 382 835 159Q817 0 696 0Q619 0 577 119Q597 164 597 248Q577 632 577 666Q577 718 587 835Q577 874 577 904Q597 1062 597 1103Q577 1170 527 1193L457 1193Q363 1193 199 1173Q97 1173 40 1272Q81 1391 169 1391L308 1381Q358 1381 457 1391Q625 1381 795 1381L1242 1431Z"  horiz-adv-x="1282" vert-adv-y="2048"  />

      
      <glyph glyph-name="uni55" unicode="&#x55;" d="M254 1431Q363 1431 400 1255L389 1203L400 1110Q400 1060 389 1006Q389 270 555 270Q657 207 794 207Q1094 207 1094 653Q1136 844 1136 1016Q1136 1072 1105 1286Q1122 1410 1208 1410Q1333 1410 1333 1213L1322 1068L1343 964L1260 239Q1167 10 918 10L762 10Q739 10 721 0Q252 52 234 239Q223 535 171 840Q182 1146 182 1234Q182 1261 161 1338Q161 1386 254 1431Z"  horiz-adv-x="1498" vert-adv-y="2048"  />

      
      <glyph glyph-name="uni56" unicode="&#x56;" d="M1312 1431Q1361 1412 1398 1356L1398 1323Q1308 1134 1258 904Q1138 715 1097 430Q905 0 753 0Q620 0 430 301Q118 903 118 1237Q140 1420 183 1420L215 1420Q326 1420 365 1259Q355 1147 355 1130Q538 398 699 398L753 398Q871 443 968 742Q968 814 1119 1184Q1158 1431 1312 1431Z"  horiz-adv-x="1420" vert-adv-y="2048"  />

      
      <glyph glyph-name="uni57" unicode="&#x57;" d="M1915 1432Q2007 1400 2007 1330L1854 736Q1734 465 1629 61Q1585 20 1547 20L1537 20Q1400 20 1189 348Q1097 511 1035 511Q933 511 862 286L872 194Q872 0 718 0Q619 0 544 266Q319 771 319 818Q74 1188 74 1299Q109 1391 176 1391Q290 1391 432 1053Q518 920 698 511L718 501L739 501Q913 726 913 859Q913 882 749 1258L749 1299Q792 1340 841 1360Q1016 1360 1199 767Q1377 419 1434 419L1496 419Q1539 419 1588 634Q1666 803 1802 1340Q1877 1432 1915 1432Z"  horiz-adv-x="2029" vert-adv-y="2048"  />

      
      <glyph glyph-name="uni58" unicode="&#x58;" d="M1033 1431Q1125 1431 1151 1281Q1151 1248 959 1089Q852 772 852 748Q869 648 1183 310Q1183 267 1268 182L1268 150Q1251 107 1194 107Q1060 107 852 416Q773 481 734 481Q621 481 499 214Q478 214 435 43Q387 0 339 0Q258 0 200 85L200 107Q200 295 467 619Q478 638 478 662L478 716Q478 798 126 1196Q83 1271 83 1303L83 1314Q83 1376 168 1420Q249 1381 425 1196Q446 1122 638 961Q659 961 937 1388Q1001 1431 1033 1431Z"  horiz-adv-x="1305" vert-adv-y="2048"  />

      
      <glyph glyph-name="uni59" unicode="&#x59;" d="M187 1434Q237 1434 332 1228Q564 928 631 928L683 928Q894 1073 992 1382Q1057 1434 1095 1434Q1152 1434 1188 1341Q1064 1031 879 794Q743 645 734 526L734 475Q755 242 755 227L755 206Q755 49 641 0Q533 0 497 330Q466 713 404 784Q387 857 115 1166Q89 1218 74 1310Q100 1434 187 1434Z"  horiz-adv-x="1161" vert-adv-y="2048"  />

      
      <glyph glyph-name="uni5a" unicode="&#x5a;" d="M875 1434Q974 1395 974 1324Q925 1200 516 617Q407 383 407 339L407 259Q446 179 536 179L626 179Q718 179 885 189Q984 172 984 100Q984 0 656 0L516 0Q118 36 118 100Q118 120 108 120Q163 316 247 448Q247 498 626 1076L626 1095Q626 1235 486 1235L307 1235Q208 1235 108 1255L108 1285Q164 1404 407 1404Q734 1424 855 1424L875 1434Z"  horiz-adv-x="1046" vert-adv-y="2048"  />

      
      <glyph glyph-name="uni5f" unicode="&#x5f;" d="M129-48Q338-48 786-61L947-48Q998-61 1027-101Q1027-177 880-188L109-188L69-195Q15-169 15-128Q40-48 129-48Z"  horiz-adv-x="1024" vert-adv-y="2048"  />

      
      <glyph glyph-name="uni61" unicode="&#x61;" d="M513 1028Q684 1028 872 409Q894 401 942 130Q955 130 972 70Q972 7 882 0Q833 1 743 150Q722 180 503 210Q463 266 463 279Q463 339 603 379Q633 405 633 439L633 489Q593 669 503 669L493 669Q408 669 284 120Q228 0 134 0Q104 0 74 60Q234 666 373 868Q394 1028 513 1028Z"  horiz-adv-x="999" vert-adv-y="2048"  />

      
      <glyph glyph-name="uni62" unicode="&#x62;" d="M430 1024L623 1024Q825 1024 897 811L897 801Q887 715 887 659L887 639L988 304Q988 53 593 10Q390 0 288 0Q167 0 167 233Q177 273 177 304Q177 636 116 892Q116 1024 430 1024M349 791L349 700Q380 639 440 639L491 639Q644 639 694 730L694 791Q659 862 572 862L491 862Q399 862 349 791M369 314L369 304Q383 162 491 162Q728 162 775 314L775 335Q729 466 582 466L522 466Q369 448 369 314Z"  horiz-adv-x="1075" vert-adv-y="2048"  />

      
      <glyph glyph-name="uni63" unicode="&#x63;" d="M746 1023L800 1023Q931 1023 931 936Q931 867 822 860L691 860Q321 823 321 588L321 457Q321 209 670 174L691 174Q831 174 974 250Q1042 250 1083 152Q1027 20 724 0L670 0Q234 0 126 326Q93 402 82 522Q158 881 267 881Q378 1023 746 1023Z"  horiz-adv-x="1150" vert-adv-y="2048"  />

      
      <glyph glyph-name="uni64" unicode="&#x64;" d="M557 1025Q765 1025 911 881Q997 660 997 594L997 469Q997 408 949 278Q949 56 442 19Q269 19 269 0Q172 0 116 307Q135 505 135 680Q135 710 126 862Q126 991 557 1025M308 709Q317 509 317 383L317 278Q317 192 423 192L528 192Q796 242 796 460L796 546Q796 807 576 853L480 853Q357 853 308 709Z"  horiz-adv-x="1091" vert-adv-y="2048"  />

      
      <glyph glyph-name="uni65" unicode="&#x65;" d="M548 1025Q980 1025 980 944L980 924Q980 854 437 854Q327 814 327 713L327 683Q327 620 538 593L799 623Q874 603 900 553L900 522Q900 439 437 422Q367 378 367 301Q367 179 528 161Q711 171 759 171Q950 149 950 90Q903 0 829 0Q806 0 679 20Q584 10 498 10L417 10Q166 10 166 171L156 171L166 221L166 342Q146 729 116 834Q116 1025 548 1025Z"  horiz-adv-x="1049" vert-adv-y="2048"  />

      
      <glyph glyph-name="uni66" unicode="&#x66;" d="M254 1020Q414 1009 488 1009L743 1009Q1072 1009 1072 893Q1018 797 934 797Q621 818 594 818L509 818Q360 801 360 701L360 691Q360 574 509 574Q608 574 711 595Q870 571 870 510Q870 398 584 383L456 393Q339 352 339 266Q339 237 403 117Q403 30 244 0L212 0Q116 49 116 138Q137 288 137 340Q116 408 116 425Q169 608 169 701L137 893Q137 979 254 1020Z"  horiz-adv-x="1128" vert-adv-y="2048"  />

      
      <glyph glyph-name="uni67" unicode="&#x67;" d="M616 1028L675 1028Q847 1028 883 959L883 949Q870 860 794 860Q665 870 586 870Q432 870 280 593L280 455Q280 252 527 168Q565 148 636 148L655 148Q843 177 843 326L843 346Q843 361 804 386L705 386Q695 386 695 376Q576 395 576 474Q576 557 833 593Q1051 568 1051 445Q1051 0 705 0L527 0Q158 0 82 544Q82 618 211 860Q391 1028 616 1028Z"  horiz-adv-x="1138" vert-adv-y="2048"  />

      
      <glyph glyph-name="uni68" unicode="&#x68;" d="M1130 1025Q1217 1025 1217 916Q1217 851 1196 665Q1196 649 1217 567Q1206 396 1206 316Q1206 293 1217 196Q1170 65 1097 65Q1014 65 912 338Q800 414 650 414L607 414Q367 414 367 240Q361 0 269 0Q200 0 171 131Q192 303 192 327Q181 504 116 818Q142 1003 171 1003L203 1003Q356 1003 356 698Q356 611 443 600L727 600Q999 600 999 741Q999 815 977 916Q977 1025 1130 1025Z"  horiz-adv-x="1344" vert-adv-y="2048"  />

      
      <glyph glyph-name="uni69" unicode="&#x69;" d="M221 1028Q305 1028 326 881Q326 823 315 734Q347 431 347 94Q347 24 242 0L221 0Q116 92 116 220Q116 271 137 535Q137 591 116 934Q175 1028 221 1028Z"  horiz-adv-x="474" vert-adv-y="2048"  />

      
      <glyph glyph-name="uni6a" unicode="&#x6a;" d="M770 1023Q875 995 875 833Q875 790 865 717L886 580Q836 200 759 200Q561 0 422 0Q42 48 42 264L42 274Q42 338 116 369Q162 369 242 232Q331 179 411 179Q696 274 696 517L696 528Q696 612 675 855Q707 1023 770 1023Z"  horiz-adv-x="1013" vert-adv-y="2048"  />

      
      <glyph glyph-name="uni6b" unicode="&#x6b;" d="M194 1022L243 1022Q301 993 301 866Q281 661 281 623L311 603L340 603Q483 669 573 769Q703 1022 827 1022Q885 1002 885 944Q885 868 661 603L651 555Q651 530 807 292Q807 284 885 107L885 58Q848 0 797 0Q688 70 515 341Q441 389 427 389Q320 352 320 282L320 243Q320 203 330 136Q330 68 223 49Q126 49 126 419Q116 503 116 565L116 749Q116 1022 194 1022Z"  horiz-adv-x="970" vert-adv-y="2048"  />

      
      <glyph glyph-name="uni6c" unicode="&#x6c;" d="M208 1022Q320 1022 320 797L331 726Q310 674 310 654Q331 492 331 450Q320 363 320 317Q403 225 576 225L699 225L760 235Q923 202 923 123Q923 41 627 41Q335 0 269 0Q162 0 136 204Q157 337 157 450L116 889Q116 966 208 1022Z"  horiz-adv-x="930" vert-adv-y="2048"  />

      
      <glyph glyph-name="uni6d" unicode="&#x6d;" d="M1169 1022Q1329 1022 1357 594L1409 94Q1383 0 1357 0L1326 0Q1276 0 1190 271Q1201 378 1201 438L1201 469Q1201 551 1138 584L1117 584Q1023 584 929 334Q871 52 742 52Q671 52 544 428Q398 584 345 584Q330 584 314 553L314 490Q283 251 241 63Q204 22 189 21Q116 45 116 156Q137 275 137 323L137 375Q137 418 126 459Q137 499 137 542Q137 707 116 761Q116 980 231 980Q414 980 721 469L742 459L804 459Q850 468 961 720Q974 720 1117 1001Q1169 1001 1169 1022Z"  horiz-adv-x="1496" vert-adv-y="2048"  />

      
      <glyph glyph-name="uni6e" unicode="&#x6e;" d="M950 1022L997 1022Q1048 996 1072 919Q1072 898 1063 881Q1072 557 1072 375L1072 150Q1059 0 1007 0L979 0Q886 0 519 469Q418 534 388 534Q313 519 313 413L313 272Q332 181 332 169L332 159Q332 122 219 75Q116 75 116 234L116 244L144 403Q135 492 135 572L135 619Q135 640 125 656Q133 672 144 769Q125 812 125 863Q125 935 247 984Q353 984 594 638Q628 638 791 441L810 431L838 431Q913 441 913 516L913 609Q913 649 885 919Q885 976 950 1022Z"  horiz-adv-x="1199" vert-adv-y="2048"  />

      
      <glyph glyph-name="uni6f" unicode="&#x6f;" d="M585 1025Q917 944 1059 793Q1126 607 1126 503Q1056 106 962 106Q821 0 585 0Q215 0 92 377L82 464Q82 878 536 1015Q569 1015 585 1025M275 483Q336 174 585 174L682 174Q933 233 933 464Q933 793 711 793Q584 812 556 812Q359 812 275 551L275 483Z"  horiz-adv-x="1249" vert-adv-y="2048"  />

      
      <glyph glyph-name="uni70" unicode="&#x70;" d="M699 1028Q907 1028 976 880Q998 852 1016 761Q1016 474 828 376Q733 306 620 306L581 306Q432 306 432 395Q432 458 689 494Q838 574 838 682Q838 860 452 860Q304 860 304 633L304 356Q343 300 343 208L343 198Q343 62 254 0L235 0Q183 0 126 257Q116 748 116 890Q116 1018 373 1018Q435 1018 699 1028Z"  horiz-adv-x="1121" vert-adv-y="2048"  />

      
      <glyph glyph-name="uni71" unicode="&#x71;" d="M605 1028L636 1028Q980 1028 1069 706L1079 585L1079 575Q1079 269 777 162L777 142Q970-39 1119-39L1139-39Q1173-39 1290 1Q1330-14 1330-29L1330-69Q1252-180 1119-180Q824-180 726-39Q675 21 595 21Q514 21 354-9Q293 1 293 21L293 31Q293 41 404 142Q177 251 142 384Q82 488 82 525L82 545Q82 874 374 998Q467 1028 605 1028M293 605L293 575Q293 353 545 283L585 283Q877 349 877 515L877 565Q855 847 706 847Q626 867 535 867L515 867Q409 867 364 756Q293 688 293 605Z"  horiz-adv-x="1283" vert-adv-y="2048"  />

      
      <glyph glyph-name="uni72" unicode="&#x72;" d="M542 1026Q860 1026 1006 832Q1026 794 1026 726Q1026 594 822 416L822 406Q822 279 1055 126Q1062 87 1074 87Q1047 21 1006 0L968 0Q849 0 668 232Q590 300 522 300Q372 300 339 232L339 223Q341 126 358 126Q358 53 242 10Q145 41 145 194Q164 330 164 377Q164 453 135 581L145 629L145 687Q145 717 116 871Q116 942 184 987L222 987Q305 987 542 1026M319 687L319 590Q319 474 416 474L484 474Q822 573 822 726Q822 823 513 852Q352 852 319 687Z"  horiz-adv-x="1168" vert-adv-y="2048"  />

      
      <glyph glyph-name="uni73" unicode="&#x73;" d="M403 1029Q715 1029 776 898Q753 838 675 838Q607 868 564 868L534 868Q372 868 272 747L272 696Q272 653 595 565Q847 451 847 333Q784 0 363 0Q151 22 151 141Q163 222 231 222Q322 202 363 202L423 202Q615 214 615 283L615 303Q615 452 171 495Q80 578 80 706Q80 857 322 1019Q361 1029 403 1029Z"  horiz-adv-x="909" vert-adv-y="2048"  />

      
      <glyph glyph-name="uni74" unicode="&#x74;" d="M137 1022L241 1011L252 1011Q463 1011 773 1022Q863 1022 898 928Q898 855 606 792Q544 705 544 605L544 167Q529 0 471 0L460 0Q335 0 335 344Q335 422 345 709Q296 765 54 844Q-5 893-9 917Q-9 984 137 1022Z"  horiz-adv-x="920" vert-adv-y="2048"  />

      
      <glyph glyph-name="uni75" unicode="&#x75;" d="M242 1028Q319 1028 368 881Q336 725 336 378Q395 189 515 189L578 189Q745 189 777 409L777 430Q777 533 756 787Q756 996 882 1018Q928 1018 955 913Q945 858 945 850Q955 619 955 504L966 462Q966 0 536 0Q229 0 126 304Q126 328 116 346Q126 418 126 462L126 514Q126 552 116 608Q147 717 147 913Q147 989 242 1028Z"  horiz-adv-x="1093" vert-adv-y="2048"  />

      
      <glyph glyph-name="uni76" unicode="&#x76;" d="M129 1023Q249 1023 347 751Q469 490 499 490Q518 479 543 479Q640 479 739 762Q762 768 837 947Q883 991 924 991Q969 976 989 936L989 914Q895 587 717 316Q663 0 543 0L521 0Q401 0 194 642Q58 801 42 925Q42 975 129 1023Z"  horiz-adv-x="1045" vert-adv-y="2048"  />

      
      <glyph glyph-name="uni77" unicode="&#x77;" d="M141 1024Q258 1024 361 594Q408 550 449 550Q518 550 603 892Q651 954 725 991Q793 969 802 936L802 738Q880 440 1011 440L1022 440Q1065 440 1121 694Q1182 889 1220 958Q1260 991 1297 991L1319 991Q1336 991 1363 947L1363 936Q1311 626 1220 330Q1197 22 1088 22Q957 22 769 341Q728 374 691 374L680 374Q589 374 570 132Q570 36 471 0Q326 0 273 352Q207 550 42 892L42 914Q42 989 141 1024Z"  horiz-adv-x="1432" vert-adv-y="2048"  />

      
      <glyph glyph-name="uni78" unicode="&#x78;" d="M800 1022L821 1022Q835 1022 851 992Q851 930 628 587L618 516L618 486Q790 324 892 202Q1010 139 1033 81Q1033 10 922 10Q786 30 588 263Q535 304 477 304Q436 287 254 30Q203 7 203 0Q143 0 143 71Q143 123 294 385Q315 487 315 506Q217 684 102 840Q102 859 82 911Q102 992 153 992Q171 992 416 729L487 729Q499 729 689 961Q755 1022 800 1022Z"  horiz-adv-x="1030" vert-adv-y="2048"  />

      
      <glyph glyph-name="uni79" unicode="&#x79;" d="M951 1025Q996 1025 1022 964Q895 764 828 605Q718 510 684 441Q684 379 674 256Q684 149 684 82Q602 0 561 0Q492 0 428 349Q48 831 28 912Q68 1015 141 1015Q217 1015 315 800Q414 625 551 625Q626 625 838 964Q898 1025 951 1025Z"  horiz-adv-x="1044" vert-adv-y="2048"  />

      
      <glyph glyph-name="uni7a" unicode="&#x7a;" d="M142 1028Q213 1028 499 1008Q643 1028 702 1028Q755 1028 784 977L784 967Q604 568 550 397L539 326Q539 228 804 183Q863 183 957 81Q957 0 651 0L601 0Q244 0 244 92Q256 257 448 601Q478 719 478 753Q478 858 132 896Q0 913 0 947Q20 1028 142 1028Z"  horiz-adv-x="954" vert-adv-y="2048"  />

      
      <glyph glyph-name="uni2018" unicode="&#x2018;" d="M149 1108L119 1108L57 1467Q53 1490 53 1500Q53 1537 73.50 1557Q94 1577 133 1577Q172 1577 193.50 1557.50Q215 1538 215 1501Q215 1493 211 1467L149 1108Z"  horiz-adv-x="274" vert-adv-y="2048"  />

      
      <glyph glyph-name="uni2019" unicode="&#x2019;" d="M149 1108L119 1108L57 1467Q53 1490 53 1500Q53 1537 73.50 1557Q94 1577 133 1577Q172 1577 193.50 1557.50Q215 1538 215 1501Q215 1493 211 1467L149 1108Z"  horiz-adv-x="274" vert-adv-y="2048"  />

      
      <glyph glyph-name="uni201C" unicode="&#x201C;" d="M182 1560Q234 1560 234 1371L234 1345Q234 1155 105 1155L96 1155Q53 1175 53 1284L53 1336Q53 1560 182 1560M519 1534Q596 1534 596 1396Q607 1396 622 1276Q610 1181 544 1181L519 1181Q424 1252 424 1396Q437 1534 519 1534Z"  horiz-adv-x="702" vert-adv-y="2048"  />

      
      <glyph glyph-name="uni201D" unicode="&#x201D;" d="M182 1560Q234 1560 234 1371L234 1345Q234 1155 105 1155L96 1155Q53 1175 53 1284L53 1336Q53 1560 182 1560M519 1534Q596 1534 596 1396Q607 1396 622 1276Q610 1181 544 1181L519 1181Q424 1252 424 1396Q437 1534 519 1534Z"  horiz-adv-x="702" vert-adv-y="2048"  />

      
      <glyph glyph-name="uni2026" unicode="&#x2026;" d="M220 252Q291 252 344 180Q344 93 220 5L174 5Q84 60 84 149Q84 238 220 252M572 250Q643 250 696 178Q696 91 572 3L526 3Q436 58 436 147Q436 236 572 250M-123 252Q-52 252 1 180Q1 93-123 5L-169 5Q-259 60-259 149Q-259 238-123 252Z"  horiz-adv-x="427" vert-adv-y="2048"  />

      

  </font>
</defs>
</svg>
