<?xml version="1.0" standalone="no"?>
  <!DOCTYPE svg PUBLIC "-//W3C//DTD SVG 1.1//EN" "http://www.w3.org/Graphics/SVG/1.1/DTD/svg11.dtd" >
  <svg>
  <metadata>
  Created by font-carrier
  </metadata>
  <defs>
  <font id="ZatannaMisdirection-Italic" horiz-adv-x="2168" vert-adv-y="2168" >
    <font-face
      
      font-family="ZatannaMisdirection-Italic"
      
      font-weight="400"
      
      font-stretch="normal"
      
      units-per-em="2048"
      
      ascent="1716"
      
      descent="-418"
      
    />
      <missing-glyph />

      

      
      <glyph glyph-name="uni21" unicode="&#x21;" d="M1069 1431Q1110 1417 1102 1378Q986 1069 804 804Q698 565 558 565Q508 565 517 663Q525 699 772 1113Q804 1265 1032 1422Q1052 1422 1069 1431M262 212Q326 212 339 115Q315 0 182 0Q81 24 97 97L100 115Q120 207 262 212Z"  horiz-adv-x="854" vert-adv-y="2048"  />

      
      <glyph glyph-name="uni22" unicode="&#x22;" d="M537 1560Q589 1560 548 1371L543 1345Q503 1155 374 1155L365 1155Q326 1175 349 1284L360 1336Q408 1560 537 1560M868 1534Q945 1534 916 1396Q927 1396 916 1276Q884 1181 818 1181L793 1181Q713 1252 744 1396Q786 1534 868 1534Z"  horiz-adv-x="725" vert-adv-y="2048"  />

      
      <glyph glyph-name="uni25" unicode="&#x25;" d="M743 1431Q1081 1318 1036 1104Q979 839 553 742L535 742Q366 742 330 981L335 1007Q379 1215 688 1422L743 1431M503 1051L496 1016Q485 919 608 919Q843 944 873 1087L879 1113Q899 1210 755 1237L729 1237Q532 1187 503 1051M1334 1219L1369 1219Q1382 1219 1396 1175Q1367 1041 708 433L386 44Q323 0 271 0L262 0Q223 23 233 71Q299 204 976 866Q1151 1081 1334 1219M1253 751Q1473 751 1495 353Q1465 213 1127 80Q1077 62 1007 53Q837 53 819 336Q1008 751 1253 751M977 371L969 336Q943 212 1076 212Q1267 212 1331 371Q1360 506 1270 583L1217 583Q1067 583 977 371Z"  horiz-adv-x="1493" vert-adv-y="2048"  />

      
      <glyph glyph-name="uni26" unicode="&#x26;" d="M711 1446Q783 1418 1165 1376Q1219 1376 1339 1396Q1463 1370 1452 1316Q1433 1227 1194 1227L1174 1227Q1134 1227 1010 1257L940 1257Q887 1237 876 1187Q832 977 1081 977Q1214 947 1200 878Q1192 842 1044 758L1030 738Q1064 419 1211 419Q1378 509 1512 708Q1564 848 1651 848Q1708 848 1698 738Q1636 565 1443 379Q1375 344 1363 289L1353 239Q1343 192 1575 160L1597 120Q1571 0 1332 0Q1308 0 1044 100Q833 0 624 0Q438 0 271 170Q197 323 212 409Q299 818 569 917Q666 949 680 1017L682 1027Q688 1055 613 1217L600 1346Q635 1446 711 1446M413 509L403 459Q356 240 632 180L741 180Q905 199 922 279L931 319Q945 388 735 758Q719 768 697 768L677 768Q505 768 413 509Z"  horiz-adv-x="1704" vert-adv-y="2048"  />

      
      <glyph glyph-name="uni27" unicode="&#x27;" d="M385 1108L355 1108L369 1467Q370 1490 372 1500Q380 1537 404.50 1557Q429 1577 468 1577Q507 1577 524.50 1557.50Q542 1538 534 1501Q532 1493 523 1467L385 1108Z"  horiz-adv-x="274" vert-adv-y="2048"  />

      
      <glyph glyph-name="uni28" unicode="&#x28;" d="M790 1434Q893 1422 879 1354Q871 1319 644 1131Q507 946 463 739Q393 410 545 160Q631 160 649 62Q636 0 547 0Q262 0 289 588Q316 713 307 713Q406 1181 714 1416Q751 1434 790 1434Z"  horiz-adv-x="681" vert-adv-y="2048"  />

      
      <glyph glyph-name="uni29" unicode="&#x29;" d="M684 1431Q827 1431 865 952Q859 890 852 857Q776 497 389 145Q204 0 96 0Q5 14 18 73L19 80Q614 283 718 770L730 828Q791 1114 604 1366L611 1395Q615 1416 684 1431Z"  horiz-adv-x="832" vert-adv-y="2048"  />

      
      <glyph glyph-name="uni2a" unicode="&#x2a;" d="M675 1609Q715 1609 681 1449L697 1449Q773 1505 837 1505Q858 1505 868 1465Q863 1438 750 1361L745 1337Q852 1200 844 1161Q800 1097 750 1097Q717 1097 671 1137L655 1137L641 1073Q632 956 630 945Q627 930 544 881Q475 895 501 1017L523 1121L364 1049L340 1049Q297 1049 292 1089Q298 1115 448 1257L457 1297Q462 1322 336 1369L338 1377Q353 1449 441 1449Q471 1441 527 1441Q591 1609 675 1609Z"  horiz-adv-x="667" vert-adv-y="2048"  />

      
      <glyph glyph-name="uni2b" unicode="&#x2b;" d="M767 1071Q811 1061 803 1024Q797 999 712 857L710 848Q700 802 742 783L807 783Q995 830 1039 830L1049 830Q1061 830 1085 783L1078 746Q937 598 582 598Q533 573 454 384Q415 338 333 338Q289 351 300 403L355 533L369 598Q373 618 207 755L203 774L208 802Q255 857 303 857Q427 811 451 811L479 811Q502 812 685 1034Q718 1056 767 1071Z"  horiz-adv-x="994" vert-adv-y="2048"  />

      
      <glyph glyph-name="uni2c" unicode="&#x2c;" d="M274 245Q374 245 346 79Q165-252 90-252Q20-215 33-155Q111 28 124 89L138 157Q157 245 274 245Z"  horiz-adv-x="414" vert-adv-y="2048"  />

      
      <glyph glyph-name="uni2d" unicode="&#x2d;" d="M515 548Q583 534 610 493Q590 398 416 398Q229 398 178 466L185 500Q194 543 515 548Z"  horiz-adv-x="595" vert-adv-y="2048"  />

      
      <glyph glyph-name="uniad" unicode="&#xad;" d="M515 548Q583 534 610 493Q590 398 416 398Q229 398 178 466L185 500Q194 543 515 548Z"  horiz-adv-x="595" vert-adv-y="2048"  />

      
      <glyph glyph-name="uni2e" unicode="&#x2e;" d="M274 252Q345 252 382 180Q364 93 221 5L175 5Q97 60 116 149Q135 238 274 252Z"  horiz-adv-x="428" vert-adv-y="2048"  />

      
      <glyph glyph-name="uni30" unicode="&#x30;" d="M1161 1434Q1595 1434 1642 804L1632 757Q1532 288 970 16L809 0L793 0Q268 0 214 536L228 678Q334 1176 965 1403Q1112 1434 1161 1434M566 709L552 646Q499 394 889 299L920 299Q1223 389 1281 662L1317 835Q1369 1078 1126 1119L1110 1119Q653 1119 566 709Z"  horiz-adv-x="1515" vert-adv-y="2048"  />

      
      <glyph glyph-name="uni31" unicode="&#x31;" d="M1134 1431Q1237 1431 1178 1018Q962 0 859 0L830 0Q697 0 735 177L844 693Q913 1018 721 1018Q676 1080 687 1136Q712 1252 1045 1431L1134 1431Z"  horiz-adv-x="1515" vert-adv-y="2048"  />

      
      <glyph glyph-name="uni32" unicode="&#x32;" d="M1105 1431Q1355 1431 1452 1020L1458 938Q1391 623 822 375Q707 273 696 223Q732 223 921 235Q1215 235 1182 82Q1169 20 1039 12Q987 12 626 59L402 0Q292 31 315 141Q354 230 853 575Q1160 750 1208 974Q1172 1208 988 1208Q934 1208 640 1009Q597 985 576 985Q521 1004 535 1067Q799 1431 1105 1431Z"  horiz-adv-x="1515" vert-adv-y="2048"  />

      
      <glyph glyph-name="uni33" unicode="&#x33;" d="M1159 1431Q1445 1401 1441 1381Q1420 1284 1103 978L1082 927L1074 887Q1061 826 1217 665Q1268 581 1263 453Q1194 129 603 0L542 0Q279 0 287 222Q289 232 334 252Q365 252 665 151L746 151Q907 151 1065 464L1067 474Q1107 663 831 695Q719 695 695 766L699 786Q1083 1118 1102 1209L1106 1229Q1109 1244 1082 1260Q888 1250 818 1250Q815 1235 761 1219Q680 1219 690 1360Q698 1396 943 1411Q997 1401 1022 1401Q1077 1431 1159 1431Z"  horiz-adv-x="1515" vert-adv-y="2048"  />

      
      <glyph glyph-name="uni34" unicode="&#x34;" d="M1178 1434Q1236 1401 1227 1359Q1039 970 756 553Q740 553 724 487L708 412Q715 375 765 375Q962 375 974 431Q1144 919 1218 919Q1257 919 1279 853L1277 844Q1222 721 1201 619L1153 394Q1274 394 1283 300Q1245 206 1123 206L1103 112Q1069 0 985 0Q873 0 899 122L926 206Q866 206 806 216Q651 206 504 206Q375 218 387 272Q853 923 858 947Q1068 1425 1157 1425L1178 1434Z"  horiz-adv-x="1515" vert-adv-y="2048"  />

      
      <glyph glyph-name="uni35" unicode="&#x35;" d="M1032 1434L1042 1434Q1131 1434 1239 1424L1301 1434Q1371 1434 1406 1364Q1381 1245 952 1245Q833 1199 826 1165L815 1115Q790 996 1049 996Q1154 996 1234 837Q1303 648 1281 548Q1241 359 969 110Q825 50 608 0Q389 0 366 219Q399 279 458 279Q599 209 642 209L672 209Q929 209 1058 478L1075 558Q1117 757 876 797Q558 797 575 876Q574 966 583 1006L589 1036Q670 1414 909 1414Q912 1432 1032 1434Z"  horiz-adv-x="1515" vert-adv-y="2048"  />

      
      <glyph glyph-name="uni36" unicode="&#x36;" d="M1254 1435Q1331 1435 1355 1345Q1336 1254 1028 1174Q659 904 606 652L601 632Q551 395 729 241Q788 211 883 211L923 211Q1125 211 1204 402L1215 452Q1234 612 1109 612L1099 612Q1018 612 814 452L761 442Q700 442 700 532Q938 833 1186 833Q1446 833 1428 412Q1255 0 778 0Q519 0 396 331Q379 484 415 652Q472 922 870 1285Q957 1325 1254 1435Z"  horiz-adv-x="1515" vert-adv-y="2048"  />

      
      <glyph glyph-name="uni37" unicode="&#x37;" d="M1309 1434Q1420 1405 1409 1355Q1301 1215 1060 727Q861 391 799 98Q755 28 689 0Q611 0 642 147Q698 410 958 894Q1048 1087 1057 1130L1068 1179Q1060 1218 1007 1218L997 1218Q959 1218 748 1198Q635 1225 653 1306L657 1326Q674 1406 1309 1434Z"  horiz-adv-x="1515" vert-adv-y="2048"  />

      
      <glyph glyph-name="uni38" unicode="&#x38;" d="M1122 1431L1132 1431Q1405 1431 1406 1207Q1429 1133 1430 1090Q1326 923 1320 896L1314 866Q1305 823 1384 691Q1412 550 1390 448Q1312 81 789 0Q411 46 406 214Q369 253 380 458Q410 599 685 837L709 905L711 915Q687 1077 698 1129Q754 1392 1122 1431M935 1188L916 1100Q896 1008 1029 993L1049 993Q1195 993 1224 1129Q1246 1231 1105 1256L1066 1256Q983 1256 935 1188M588 477L568 380Q535 228 803 204L832 204Q1026 204 1120 321L1168 545Q1209 740 985 740L936 740Q625 647 588 477Z"  horiz-adv-x="1515" vert-adv-y="2048"  />

      
      <glyph glyph-name="uni39" unicode="&#x39;" d="M1103 1438L1150 1438Q1350 1438 1412 1057Q1429 1010 1411 829Q1273 432 1091 219Q886 0 778 0L768 0Q446 98 476 238Q481 263 534 286Q665 200 840 200Q922 200 1048 419Q1179 637 1224 848Q1206 1248 1081 1248L1033 1248Q751 1172 717 1010L715 1000Q684 857 884 857L1075 905Q1128 885 1116 829Q1082 667 805 667L796 667Q495 667 530 1029Q579 1262 975 1419Q1022 1438 1103 1438Z"  horiz-adv-x="1515" vert-adv-y="2048"  />

      
      <glyph glyph-name="uni3a" unicode="&#x3a;" d="M472 954Q582 893 565 812Q546 725 419 708Q306 708 331 822Q348 902 472 954M323 255Q442 236 428 170Q350 0 250 0Q166 49 188 151Q204 226 323 255Z"  horiz-adv-x="501" vert-adv-y="2048"  />

      
      <glyph glyph-name="uni3b" unicode="&#x3b;" d="M452 968Q571 902 552 814Q532 720 395 702Q272 702 298 825Q370 968 452 968M430 333Q562 281 527 117L525 107Q470-152 260-272L208-272Q210-264 211-211Q252-118 261-77L269-36Q276-6 211 128Q338 333 430 333Z"  horiz-adv-x="602" vert-adv-y="2048"  />

      
      <glyph glyph-name="uni037E" unicode="&#x037E;" d="M452 968Q571 902 552 814Q532 720 395 702Q272 702 298 825Q370 968 452 968M430 333Q562 281 527 117L525 107Q470-152 260-272L208-272Q210-264 211-211Q252-118 261-77L269-36Q276-6 211 128Q338 333 430 333Z"  horiz-adv-x="602" vert-adv-y="2048"  />

      
      <glyph glyph-name="uni3f" unicode="&#x3f;" d="M783 1434Q1022 1349 979 1147Q996 1147 992 1019Q960 869 583 682L570 663L543 534L603 445L598 425Q593 398 499 376Q367 376 373 623Q410 795 687 890Q830 1008 843 1068L847 1088Q869 1189 721 1236L652 1236Q541 1173 459 1167Q440 1167 410 1216Q525 1394 645 1394Q659 1419 783 1434M318 227Q389 190 376 129Q355 28 221 0Q159 0 141 89Q163 194 318 227Z"  horiz-adv-x="854" vert-adv-y="2048"  />

      
      <glyph glyph-name="uni40" unicode="&#x40;" d="M1544 1434Q1903 1434 2147 1112Q2220 934 2189 791Q2137 544 1745 175Q1473 0 1221 0Q1011 0 1001 175Q1020 263 1182 377L1184 386Q1199 456 940 496Q890 536 892 616Q940 841 1372 1011Q1486 1030 1495 1030Q1707 986 1673 827Q1648 781 1608 781Q1421 855 1394 855L1348 855Q1257 855 1170 754L1160 708Q1144 588 1254 588L1282 588Q1337 588 1474 625Q1538 625 1520 542Q1498 436 1276 257L1272 239L1316 230L1408 230Q1622 230 1928 643Q1959 708 1983 772Q2055 1110 1660 1241Q1572 1259 1480 1259Q712 1259 317 285L289 285Q198 285 208 423Q291 709 722 1112Q1146 1434 1544 1434Z"  horiz-adv-x="2168" vert-adv-y="2048"  />

      
      <glyph glyph-name="uni41" unicode="&#x41;" d="M1000 1434Q1136 1434 1182 1113Q1255 1113 1288 481Q1321 481 1287 100Q1276 47 1196 0L1166 0Q1095 0 1079 201Q1052 291 797 291L757 291Q692 291 612 271Q538 300 551 361Q571 455 905 471Q973 471 1040 542L1047 572Q1004 1103 909 1103L899 1103Q799 1103 703 842Q672 809 376 341L355 241Q317 60 166 60Q102 90 115 150L119 170Q133 236 331 602Q336 625 516 903Q524 939 691 1163Q875 1434 1000 1434Z"  horiz-adv-x="1353" vert-adv-y="2048"  />

      
      <glyph glyph-name="uni42" unicode="&#x42;" d="M986 1434Q1386 1400 1340 1184Q1298 1075 1226 953Q1356 781 1349 749Q1361 587 1338 481Q1229 98 934 56Q807 56 655 9L517 9Q425 9 293 0Q218 0 191 130Q259 279 308 509L310 518Q440 1128 436 1286Q466 1425 707 1425L818 1425Q897 1425 986 1434M611 1147Q615 999 690 999L708 999Q1072 1052 1098 1175L1100 1184Q1013 1267 885 1267L802 1267Q636 1267 611 1147M549 731L547 722Q542 696 476 472Q466 425 456 333Q439 297 431 259Q450 185 507 185Q940 185 1098 352Q1135 437 1148 500Q1207 774 956 814L799 814Q561 786 549 731Z"  horiz-adv-x="1363" vert-adv-y="2048"  />

      
      <glyph glyph-name="uni43" unicode="&#x43;" d="M1049 1436Q1457 1436 1512 1303Q1510 1293 1516 1275Q1460 1199 1415 1199Q1278 1266 1079 1266L975 1266Q761 1266 536 973Q465 817 444 718L441 708Q437 321 519 321Q643 179 924 179Q952 179 1243 302L1261 302Q1332 279 1317 208Q1273 0 763 0Q277 0 217 453Q211 604 233 708Q363 1061 556 1247Q844 1436 1049 1436Z"  horiz-adv-x="1369" vert-adv-y="2048"  />

      
      <glyph glyph-name="uni44" unicode="&#x44;" d="M906 1434Q1443 1336 1426 1255Q1503 1201 1388 657Q1248 0 382 0Q193 45 215 149Q240 222 254 239Q258 307 267 349L269 359Q358 633 365 667Q374 709 366 767Q388 821 395 856L399 876Q404 899 398 916Q451 1024 455 1046Q425 1139 409 1344Q428 1434 896 1434L906 1434M669 1115Q655 1001 662 986Q649 926 475 249Q483 195 520 179L589 179Q1017 268 1038 368Q1159 516 1168 558Q1262 1115 1177 1115Q1103 1235 834 1235Q687 1200 669 1115Z"  horiz-adv-x="1403" vert-adv-y="2048"  />

      
      <glyph glyph-name="uni45" unicode="&#x45;" d="M778 1434L1204 1434Q1321 1434 1327 1327Q1269 1231 1190 1231Q882 1269 762 1269Q630 1243 609 1143Q549 862 646 862L734 862Q1012 862 1047 785Q994 678 840 678L646 678Q540 678 515 562Q477 476 446 329L436 281Q452 194 621 194L679 194Q803 194 952 203Q1121 181 1101 87Q1086 16 958 0L647 0Q173 0 212 184Q256 299 262 329Q256 392 262 417Q310 555 322 610L324 620Q334 669 315 669L345 765Q363 941 367 959Q489 1386 565 1386Q573 1424 778 1434Z"  horiz-adv-x="1150" vert-adv-y="2048"  />

      
      <glyph glyph-name="uni46" unicode="&#x46;" d="M568 1435Q599 1435 637 1425Q825 1435 970 1435L1110 1435Q1166 1435 1257 1415Q1410 1425 1470 1425Q1548 1425 1588 1324Q1527 1214 1364 1214Q1185 1234 818 1244Q730 1244 671 1023L657 953Q691 863 828 863L1106 893Q1167 893 1181 823Q1158 715 988 672Q841 682 740 682L699 682Q569 682 496 341L467 201Q424 0 284 0L274 0Q252 0 240 80Q285 246 303 331L363 612Q372 654 376 722Q408 777 456 1003L467 1054Q484 1135 410 1304Q414 1324 404 1324Q422 1407 568 1435Z"  horiz-adv-x="1235" vert-adv-y="2048"  />

      
      <glyph glyph-name="uni47" unicode="&#x47;" d="M1201 1434Q1468 1386 1437 1243Q1414 1195 1360 1195L1322 1195Q1050 1252 1009 1252Q683 1252 482 889Q470 873 463 841L410 593Q356 341 705 182Q769 172 808 172L847 172Q1086 222 1120 382L1126 411Q1115 449 1081 468L1014 468Q974 468 798 440Q729 473 744 545Q770 667 1252 736L1271 736Q1424 736 1372 488Q1303 165 995 19Q905 0 867 0Q367 76 381 143Q204 303 238 459Q208 590 233 707Q285 949 600 1310Q613 1367 1201 1434Z"  horiz-adv-x="1391" vert-adv-y="2048"  />

      
      <glyph glyph-name="uni48" unicode="&#x48;" d="M580 1434Q733 1388 715 1302Q633 1062 621 1007Q608 946 592 824Q568 757 554 692L560 671Q494 504 478 427L441 112Q390 0 326 0Q163 0 230 315Q237 350 285 529Q308 683 321 742L407 956Q412 1026 421 1068L464 1271Q509 1434 580 1434M1554 1424L1564 1424Q1701 1395 1661 1210Q1643 1124 1612 1078L1516 386L1508 346Q1417 20 1286 20Q1243 20 1220 92Q1252 193 1263 244Q1373 834 1296 834Q1290 834 1162 824L1020 875L820 844Q675 879 691 956Q726 1027 869 1027L971 1027Q1019 1027 1071 1017Q1416 1017 1436 1109Q1460 1172 1477 1251L1479 1261Q1448 1310 1455 1342Q1488 1424 1554 1424Z"  horiz-adv-x="1601" vert-adv-y="2048"  />

      
      <glyph glyph-name="uni49" unicode="&#x49;" d="M767 1434L786 1434Q921 1434 932 1347Q921 1294 784 1240Q758 1207 734 1143Q687 788 623 436Q588 369 578 320L574 300Q569 276 745 145Q741 129 751 87Q740 32 631 19L553 19Q363 19 191 0Q87 16 105 97Q118 162 321 203Q386 282 396 329Q417 517 420 533Q501 824 528 901Q588 1186 395 1279Q398 1296 387 1337Q404 1416 767 1434Z"  horiz-adv-x="770" vert-adv-y="2048"  />

      
      <glyph glyph-name="uni4a" unicode="&#x4a;" d="M1427 1433Q1565 1433 1497 1114Q1485 959 1441 701Q1299 179 972 42Q855 0 772 0L751 0Q262 0 169 212L161 318Q197 443 209 499Q225 573 204 573Q221 652 358 701Q436 701 418 382Q540 231 692 223L861 223Q1032 223 1170 573L1192 679Q1237 1138 1252 1210L1268 1284Q1314 1433 1427 1433Z"  horiz-adv-x="1447" vert-adv-y="2048"  />

      
      <glyph glyph-name="uni4b" unicode="&#x4b;" d="M549 1434Q644 1434 635 1272L633 1262Q543 838 634 838L644 838Q980 1035 1209 1313Q1320 1404 1385 1424Q1443 1404 1445 1373L1443 1363Q1425 1280 1037 879L979 798Q1031 547 1154 293Q1172 136 1160 81Q1144 7 1031 0Q965 3 877 273Q853 281 831 434Q759 545 693 545L673 545Q527 525 512 454Q498 293 481 212Q370 30 280 30L260 30Q201 83 209 121Q264 332 292 465L335 667Q348 729 384 1040L436 1283Q468 1434 549 1434Z"  horiz-adv-x="1248" vert-adv-y="2048"  />

      
      <glyph glyph-name="uni4c" unicode="&#x4c;" d="M614 1437Q703 1437 700 1302Q674 1228 663 1177Q672 1075 665 1041Q658 1005 607 864Q615 806 550 448Q511 364 492 271Q521 229 649 229Q867 229 1049 250Q1108 250 1156 167Q1135 65 982 31Q792 42 703 42Q357 17 267 0Q172 41 190 125Q194 146 287 292Q307 387 403 885Q411 920 477 1187Q478 1286 484 1312Q527 1437 614 1437Z"  horiz-adv-x="1163" vert-adv-y="2048"  />

      
      <glyph glyph-name="uni4d" unicode="&#x4d;" d="M1695 1432Q1831 1432 1782 1199Q1792 1199 1731 867Q1697 753 1686 702Q1691 629 1685 604L1663 546Q1631 305 1634 273Q1573 97 1480 97Q1373 97 1493 663Q1524 838 1481 838Q1273 654 1162 390Q1148 325 912 39L878 19L849 19Q764 63 675 575Q640 628 577 799L547 799L522 770L424 312Q420 291 448 195Q334 0 260 0Q173 0 218 214L242 283Q257 351 293 565Q343 759 358 828Q363 852 368 965Q417 1060 424 1091Q439 1252 451 1306Q464 1371 551 1413Q679 1408 819 750Q870 458 962 458Q1186 671 1292 906Q1454 1132 1574 1364Q1643 1432 1695 1432Z"  horiz-adv-x="1743" vert-adv-y="2048"  />

      
      <glyph glyph-name="uni4e" unicode="&#x4e;" d="M1551 1437L1561 1437Q1652 1437 1627 1316Q1535 1024 1466 749Q1453 638 1462 587Q1417 518 1408 476L1386 374Q1364 266 1374 81Q1330 0 1256 0L1236 0Q1172 0 1076 202Q867 438 785 638Q644 739 634 739Q560 725 554 698L546 658Q513 505 514 415Q432 30 331 30Q254 30 253 182Q295 336 323 466L329 496Q332 506 322 506Q350 546 365 617L400 779Q411 834 462 931L464 941Q431 1260 438 1295Q448 1341 539 1386Q633 1380 804 971L1005 678Q1109 466 1193 466Q1249 489 1263 557Q1294 700 1360 1063Q1397 1138 1400 1154Q1399 1245 1407 1285Q1455 1437 1551 1437Z"  horiz-adv-x="1524" vert-adv-y="2048"  />

      
      <glyph glyph-name="uni4f" unicode="&#x4f;" d="M1009 1434Q1494 1333 1469 1214Q1619 1020 1562 755Q1572 755 1567 727Q1510 462 1271 191Q1040 0 743 0L647 0Q315 91 234 258Q165 387 211 602Q299 1014 453 1109Q802 1416 1009 1434M449 822Q354 378 526 287Q731 172 837 172Q989 172 1225 382Q1367 599 1376 641L1395 727Q1432 905 1300 1138Q1200 1233 995 1233Q698 1233 504 946Q455 853 449 822Z"  horiz-adv-x="1553" vert-adv-y="2048"  />

      
      <glyph glyph-name="uni50" unicode="&#x50;" d="M801 1431Q1517 1431 1624 1222Q1636 1183 1627 940Q1570 675 1239 491Q1114 460 898 460L825 460L759 449Q641 481 654 543Q674 637 946 637Q1331 677 1378 898L1400 1003Q1438 1179 1094 1233L837 1254Q702 1254 662 1066Q570 785 527 585L516 533Q490 411 523 366Q429 0 341 0L330 0Q190 27 206 104Q343 649 369 773Q388 862 421 1212Q460 1398 726 1421Q758 1421 801 1431Z"  horiz-adv-x="1524" vert-adv-y="2048"  />

      
      <glyph glyph-name="uni51" unicode="&#x51;" d="M977 1431Q1550 1431 1616 903Q1657 808 1634 700Q1448 281 1183 60Q997 9 917-1L876-194Q873-209 907-234L938-234Q972-234 1168-204Q1308-258 1302-285L1296-315Q1233-417 1000-417L899-417Q618-353 654-183L669-112L705 9Q502 46 371 202Q201 408 272 741Q260 741 263 842Q453 1248 532 1248Q622 1361 957 1431L977 1431M541 862L535 832Q464 497 727 253L786 243L867 243Q1131 243 1144 304Q1385 577 1417 730L1426 771Q1447 871 1285 1208Q1262 1208 1247 1218Q1231 1218 1103 1208Q1087 1208 942 1218Q601 1145 541 862Z"  horiz-adv-x="1597" vert-adv-y="2048"  />

      
      <glyph glyph-name="uni52" unicode="&#x52;" d="M1285 1434Q1646 1434 1571 1083Q1557 1015 1409 769Q1082 513 965 513L940 484L936 465Q902 308 1250 199L1385 209Q1431 209 1437 142Q1414 33 1217 0Q1068 0 782 190Q655 445 606 475L549 475Q486 446 474 389L453 294Q378 0 277 0Q205 0 202 142Q290 330 307 408Q297 501 302 522Q305 537 344 674Q369 925 378 969Q388 1018 422 1130Q417 1196 427 1244L440 1301Q460 1397 656 1424Q1169 1434 1285 1434M612 1130L606 1102Q513 665 579 665L598 665Q1165 693 1280 874Q1309 968 1319 1016L1341 1121Q1369 1253 1113 1253Q866 1272 813 1272L803 1272Q642 1272 612 1130Z"  horiz-adv-x="1492" vert-adv-y="2048"  />

      
      <glyph glyph-name="uni53" unicode="&#x53;" d="M1015 1437L1124 1437Q1272 1437 1399 1278L1390 1239Q1342 1179 1259 1179Q1224 1179 1000 1269L901 1269Q658 1269 539 1060L525 991Q503 891 717 872L851 892Q1107 892 1257 753Q1331 634 1301 496Q1222 121 693 10Q639 0 572 0Q164 43 206 238Q209 256 268 297Q627 218 727 218L737 218Q1030 294 1056 416Q1083 684 885 684L717 684Q681 684 625 674Q282 733 309 862Q291 862 295 981Q358 1278 764 1417Q916 1437 1015 1437Z"  horiz-adv-x="1319" vert-adv-y="2048"  />

      
      <glyph glyph-name="uni54" unicode="&#x54;" d="M1546 1431Q1718 1399 1704 1332Q1683 1232 1256 1232Q1063 1216 1033 1073Q1021 1016 1009 914Q990 855 977 855Q886 382 869 159Q817 0 696 0Q619 0 602 119Q632 164 650 248Q711 632 719 666Q730 718 764 835Q763 874 769 904Q823 1062 831 1103Q826 1170 781 1193L711 1193Q617 1193 448 1173Q346 1173 310 1272Q377 1391 465 1391L602 1381Q652 1381 753 1391Q919 1381 1089 1381L1546 1431Z"  horiz-adv-x="1282" vert-adv-y="2048"  />

      
      <glyph glyph-name="uni55" unicode="&#x55;" d="M558 1431Q667 1431 667 1255L645 1203L636 1110Q625 1060 603 1006Q446 270 612 270Q701 207 838 207Q1138 207 1233 653Q1315 844 1352 1016Q1364 1072 1378 1286Q1422 1410 1508 1410Q1633 1410 1591 1213L1549 1068L1548 964L1311 239Q1169 10 920 10L764 10Q741 10 721 0Q263 52 285 239Q337 535 350 840Q426 1146 444 1234Q450 1261 445 1338Q456 1386 558 1431Z"  horiz-adv-x="1498" vert-adv-y="2048"  />

      
      <glyph glyph-name="uni56" unicode="&#x56;" d="M1616 1431Q1661 1412 1686 1356L1679 1323Q1549 1134 1450 904Q1290 715 1188 430Q905 0 753 0Q620 0 494 301Q310 903 381 1237Q442 1420 485 1420L517 1420Q628 1420 633 1259Q599 1147 595 1130Q623 398 784 398L838 398Q965 443 1126 742Q1141 814 1371 1184Q1462 1431 1616 1431Z"  horiz-adv-x="1420" vert-adv-y="2048"  />

      
      <glyph glyph-name="uni57" unicode="&#x57;" d="M2219 1432Q2305 1400 2290 1330L2010 736Q1833 465 1642 61Q1589 20 1551 20L1541 20Q1404 20 1263 348Q1206 511 1144 511Q1042 511 923 286L913 194Q872 0 718 0Q619 0 601 266Q483 771 493 818Q327 1188 350 1299Q405 1391 472 1391Q586 1391 656 1053Q714 920 807 511L824 501L845 501Q1067 726 1096 859Q1100 882 1016 1258L1025 1299Q1077 1340 1130 1360Q1305 1360 1362 767Q1466 419 1523 419L1585 419Q1628 419 1723 634Q1837 803 2087 1340Q2181 1432 2219 1432Z"  horiz-adv-x="2029" vert-adv-y="2048"  />

      
      <glyph glyph-name="uni58" unicode="&#x58;" d="M1337 1431Q1429 1431 1423 1281Q1416 1248 1190 1089Q1016 772 1011 748Q1007 648 1249 310Q1240 267 1307 182L1300 150Q1274 107 1217 107Q1083 107 940 416Q875 481 836 481Q723 481 544 214Q523 214 444 43Q387 0 339 0Q258 0 218 85L223 107Q263 295 599 619Q614 638 619 662L630 716Q648 798 380 1196Q353 1271 360 1303L362 1314Q375 1376 470 1420Q543 1381 679 1196Q684 1122 842 961Q863 961 1232 1388Q1305 1431 1337 1431Z"  horiz-adv-x="1305" vert-adv-y="2048"  />

      
      <glyph glyph-name="uni59" unicode="&#x59;" d="M492 1434Q542 1434 593 1228Q761 928 828 928L880 928Q1122 1073 1286 1382Q1362 1434 1400 1434Q1457 1434 1473 1341Q1283 1031 1048 794Q880 645 846 526L835 475Q806 242 803 227L799 206Q765 49 641 0Q533 0 567 330Q618 713 571 784Q569 857 363 1166Q348 1218 352 1310Q405 1434 492 1434Z"  horiz-adv-x="1161" vert-adv-y="2048"  />

      
      <glyph glyph-name="uni5a" unicode="&#x5a;" d="M1180 1434Q1271 1395 1255 1324Q1180 1200 647 617Q488 383 479 339L462 259Q484 179 574 179L664 179Q756 179 925 189Q1021 172 1005 100Q984 0 656 0L516 0Q126 36 139 100Q144 120 134 120Q230 316 342 448Q353 498 855 1076L859 1095Q889 1235 749 1235L570 1235Q471 1235 375 1255L381 1285Q462 1404 705 1404Q1037 1424 1158 1424L1180 1434Z"  horiz-adv-x="1046" vert-adv-y="2048"  />

      
      <glyph glyph-name="uni5f" unicode="&#x5f;" d="M119-48Q328-48 773-61L937-48Q985-61 1006-101Q989-177 840-188L69-188L28-195Q-21-169-12-128Q30-48 119-48Z"  horiz-adv-x="1024" vert-adv-y="2048"  />

      
      <glyph glyph-name="uni61" unicode="&#x61;" d="M732 1028Q903 1028 959 409Q979 401 970 130Q983 130 987 70Q973 7 882 0Q833 1 775 150Q760 180 548 210Q520 266 522 279Q535 339 684 379Q719 405 726 439L737 489Q735 669 645 669L635 669Q550 669 310 120Q228 0 134 0Q104 0 87 60Q376 666 557 868Q613 1028 732 1028Z"  horiz-adv-x="999" vert-adv-y="2048"  />

      
      <glyph glyph-name="uni62" unicode="&#x62;" d="M648 1024L841 1024Q1043 1024 1069 811L1067 801Q1039 715 1027 659L1023 639L1053 304Q999 53 595 10Q390 0 288 0Q167 0 217 233Q235 273 242 304Q312 636 306 892Q334 1024 648 1024M517 791L498 700Q516 639 576 639L627 639Q780 639 849 730L862 791Q842 862 755 862L674 862Q582 862 517 791M436 314L434 304Q417 162 525 162Q762 162 842 314L846 335Q828 466 681 466L621 466Q464 448 436 314Z"  horiz-adv-x="1075" vert-adv-y="2048"  />

      
      <glyph glyph-name="uni63" unicode="&#x63;" d="M963 1023L1017 1023Q1148 1023 1130 936Q1115 867 1005 860L874 860Q496 823 446 588L418 457Q365 209 707 174L728 174Q868 174 1027 250Q1095 250 1115 152Q1031 20 724 0L670 0Q234 0 195 326Q178 402 193 522Q345 881 454 881Q595 1023 963 1023Z"  horiz-adv-x="1150" vert-adv-y="2048"  />

      
      <glyph glyph-name="uni64" unicode="&#x64;" d="M775 1025Q983 1025 1098 881Q1137 660 1123 594L1097 469Q1084 408 1008 278Q961 56 446 19Q273 19 269 0Q172 0 181 307Q242 505 280 680Q286 710 309 862Q337 991 775 1025M459 709Q425 509 398 383L376 278Q358 192 464 192L569 192Q847 242 894 460L912 546Q968 807 757 853L661 853Q538 853 459 709Z"  horiz-adv-x="1091" vert-adv-y="2048"  />

      
      <glyph glyph-name="uni65" unicode="&#x65;" d="M766 1025Q1198 1025 1181 944L1176 924Q1162 854 619 854Q500 814 479 713L472 683Q459 620 664 593L931 623Q1002 603 1018 553L1011 522Q993 439 527 422Q447 378 431 301Q405 179 562 161Q747 171 795 171Q982 149 969 90Q903 0 829 0Q806 0 683 20Q586 10 500 10L419 10Q168 10 202 171L192 171L213 221L239 342Q301 729 293 834Q334 1025 766 1025Z"  horiz-adv-x="1049" vert-adv-y="2048"  />

      
      <glyph glyph-name="uni66" unicode="&#x66;" d="M471 1020Q628 1009 702 1009L957 1009Q1286 1009 1262 893Q1187 797 1103 797Q795 818 768 818L683 818Q530 801 509 701L507 691Q482 574 631 574Q730 574 837 595Q991 571 978 510Q955 398 665 383L540 393Q414 352 396 266Q389 237 428 117Q409 30 244 0L212 0Q126 49 145 138Q198 288 209 340Q203 408 206 425Q298 608 318 701L327 893Q345 979 471 1020Z"  horiz-adv-x="1128" vert-adv-y="2048"  />

      
      <glyph glyph-name="uni67" unicode="&#x67;" d="M835 1028L894 1028Q1066 1028 1087 959L1085 949Q1053 860 977 860Q850 870 771 870Q617 870 406 593L377 455Q334 252 563 168Q596 148 667 148L686 148Q881 177 912 326L917 346Q920 361 886 386L787 386Q777 386 775 376Q660 395 677 474Q694 557 959 593Q1172 568 1146 445Q1051 0 705 0L527 0Q158 0 198 544Q213 618 394 860Q610 1028 835 1028Z"  horiz-adv-x="1138" vert-adv-y="2048"  />

      
      <glyph glyph-name="uni68" unicode="&#x68;" d="M1348 1025Q1435 1025 1412 916Q1398 851 1337 665Q1334 649 1338 567Q1290 396 1273 316Q1268 293 1259 196Q1184 65 1111 65Q1028 65 984 338Q888 414 738 414L695 414Q455 414 418 240Q361 0 269 0Q200 0 199 131Q256 303 262 327Q288 504 290 818Q355 1003 384 1003L416 1003Q569 1003 504 698Q486 611 571 600L855 600Q1127 600 1157 741Q1172 815 1172 916Q1195 1025 1348 1025Z"  horiz-adv-x="1344" vert-adv-y="2048"  />

      
      <glyph glyph-name="uni69" unicode="&#x69;" d="M440 1028Q524 1028 513 881Q501 823 471 734Q439 431 367 94Q352 24 242 0L221 0Q136 92 163 220Q174 271 251 535Q263 591 315 934Q394 1028 440 1028Z"  horiz-adv-x="474" vert-adv-y="2048"  />

      
      <glyph glyph-name="uni6a" unicode="&#x6a;" d="M987 1023Q1086 995 1052 833Q1043 790 1017 717L1009 580Q879 200 802 200Q561 0 422 0Q52 48 98 264L100 274Q114 338 194 369Q240 369 291 232Q369 179 449 179Q754 274 806 517L808 528Q826 612 857 855Q924 1023 987 1023Z"  horiz-adv-x="1013" vert-adv-y="2048"  />

      
      <glyph glyph-name="uni6b" unicode="&#x6b;" d="M411 1022L460 1022Q512 993 485 866Q421 661 413 623L439 603L468 603Q625 669 736 769Q920 1022 1044 1022Q1098 1002 1086 944Q1069 868 789 603L769 555Q764 530 869 292Q867 284 908 107L897 58Q848 0 797 0Q703 70 587 341Q524 389 510 389Q395 352 380 282L372 243Q363 203 359 136Q344 68 233 49Q136 49 215 419Q223 503 236 565L275 749Q333 1022 411 1022Z"  horiz-adv-x="970" vert-adv-y="2048"  />

      
      <glyph glyph-name="uni6c" unicode="&#x6c;" d="M425 1022Q537 1022 489 797L485 726Q453 674 449 654Q436 492 427 450Q397 363 387 317Q451 225 624 225L747 225L810 235Q966 202 949 123Q932 41 636 41Q335 0 269 0Q162 0 179 204Q229 337 253 450L305 889Q321 966 425 1022Z"  horiz-adv-x="930" vert-adv-y="2048"  />

      
      <glyph glyph-name="uni6d" unicode="&#x6d;" d="M1386 1022Q1546 1022 1483 594L1429 94Q1383 0 1357 0L1326 0Q1276 0 1248 271Q1281 378 1294 438L1301 469Q1318 551 1262 584L1241 584Q1147 584 1000 334Q882 52 753 52Q682 52 635 428Q522 584 469 584Q454 584 432 553L418 490Q336 251 254 63Q209 22 193 21Q126 45 149 156Q195 275 206 323L217 375Q226 418 224 459Q243 499 252 542Q287 707 278 761Q324 980 439 980Q622 980 821 469L840 459L902 459Q949 468 1114 720Q1127 720 1330 1001Q1382 1001 1386 1022Z"  horiz-adv-x="1496" vert-adv-y="2048"  />

      
      <glyph glyph-name="uni6e" unicode="&#x6e;" d="M1167 1022L1214 1022Q1260 996 1267 919Q1263 898 1250 881Q1190 557 1152 375L1104 150Q1059 0 1007 0L979 0Q886 0 619 469Q532 534 502 534Q423 519 401 413L371 272Q370 181 368 169L366 159Q358 122 235 75Q132 75 166 234L168 244L230 403Q240 492 257 572L267 619Q271 640 264 656Q276 672 307 769Q298 812 308 863Q324 935 456 984Q562 984 730 638Q764 638 885 441L902 431L930 431Q1007 441 1023 516L1042 609Q1051 649 1080 919Q1092 976 1167 1022Z"  horiz-adv-x="1199" vert-adv-y="2048"  />

      
      <glyph glyph-name="uni6f" unicode="&#x6f;" d="M803 1025Q1118 944 1228 793Q1255 607 1233 503Q1079 106 985 106Q821 0 585 0Q215 0 172 377L181 464Q269 878 752 1015Q785 1015 803 1025M378 483Q373 174 622 174L719 174Q983 233 1032 464Q1102 793 880 793Q757 812 729 812Q532 812 392 551L378 483Z"  horiz-adv-x="1249" vert-adv-y="2048"  />

      
      <glyph glyph-name="uni70" unicode="&#x70;" d="M918 1028Q1126 1028 1163 880Q1179 852 1178 761Q1117 474 908 376Q798 306 685 306L646 306Q497 306 516 395Q529 458 794 494Q960 574 983 682Q1021 860 635 860Q487 860 439 633L380 356Q407 300 387 208L385 198Q356 62 254 0L235 0Q183 0 181 257Q275 748 305 890Q332 1018 589 1018Q651 1018 918 1028Z"  horiz-adv-x="1121" vert-adv-y="2048"  />

      
      <glyph glyph-name="uni71" unicode="&#x71;" d="M824 1028L855 1028Q1199 1028 1219 706L1203 585L1201 575Q1136 269 811 162L807 142Q962-39 1111-39L1131-39Q1165-39 1290 1Q1327-14 1324-29L1315-69Q1214-180 1081-180Q786-180 718-39Q679 21 599 21Q518 21 352-9Q293 1 297 21L300 31Q302 41 434 142Q230 251 224 384Q186 488 194 525L198 545Q268 874 586 998Q686 1028 824 1028M422 605L415 575Q368 353 605 283L645 283Q951 349 986 515L997 565Q1035 847 886 847Q810 867 719 867L699 867Q593 867 525 756Q439 688 422 605Z"  horiz-adv-x="1283" vert-adv-y="2048"  />

      
      <glyph glyph-name="uni72" unicode="&#x72;" d="M760 1026Q1078 1026 1183 832Q1195 794 1180 726Q1152 594 910 416L908 406Q881 279 1082 126Q1080 87 1092 87Q1051 21 1006 0L968 0Q849 0 717 232Q654 300 586 300Q436 300 388 232L386 223Q368 126 385 126Q369 53 244 10Q154 41 186 194Q234 330 244 377Q260 453 258 581L279 629L291 687Q297 717 301 871Q316 942 394 987L432 987Q515 987 760 1026M465 687L444 590Q420 474 517 474L585 474Q944 573 976 726Q997 823 694 852Q533 852 465 687Z"  horiz-adv-x="1168" vert-adv-y="2048"  />

      
      <glyph glyph-name="uni73" unicode="&#x73;" d="M622 1029Q934 1029 967 898Q931 838 853 838Q791 868 748 868L718 868Q556 868 431 747L420 696Q411 653 715 565Q943 451 918 333Q784 0 363 0Q156 22 181 141Q210 222 278 222Q365 202 406 202L466 202Q660 214 675 283L679 303Q711 452 276 495Q203 578 230 706Q262 857 539 1019Q580 1029 622 1029Z"  horiz-adv-x="909" vert-adv-y="2048"  />

      
      <glyph glyph-name="uni74" unicode="&#x74;" d="M354 1022L456 1011L467 1011Q678 1011 990 1022Q1080 1022 1095 928Q1080 855 774 792Q694 705 673 605L579 167Q529 0 471 0L460 0Q335 0 408 344Q425 422 496 709Q459 765 233 844Q185 893 186 917Q200 984 354 1022Z"  horiz-adv-x="920" vert-adv-y="2048"  />

      
      <glyph glyph-name="uni75" unicode="&#x75;" d="M461 1028Q538 1028 555 881Q490 725 416 378Q435 189 555 189L618 189Q785 189 864 409L868 430Q890 533 923 787Q968 996 1098 1018Q1144 1018 1149 913Q1127 858 1126 850Q1087 619 1062 504L1064 462Q966 0 536 0Q229 0 191 304Q196 328 190 346Q215 418 224 462L235 514Q243 552 245 608Q299 717 341 913Q357 989 461 1028Z"  horiz-adv-x="1093" vert-adv-y="2048"  />

      
      <glyph glyph-name="uni76" unicode="&#x76;" d="M346 1023Q466 1023 507 751Q573 490 603 490Q620 479 645 479Q742 479 901 762Q925 768 1038 947Q1094 991 1135 991Q1176 976 1188 936L1183 914Q1020 587 784 316Q663 0 543 0L521 0Q401 0 330 642Q228 801 239 925Q249 975 346 1023Z"  horiz-adv-x="1045" vert-adv-y="2048"  />

      
      <glyph glyph-name="uni77" unicode="&#x77;" d="M359 1024Q476 1024 487 594Q525 550 566 550Q635 550 793 892Q854 954 936 991Q999 969 1001 936L959 738Q974 440 1105 440L1116 440Q1159 440 1269 694Q1371 889 1424 958Q1471 991 1508 991L1530 991Q1547 991 1564 947L1562 936Q1444 626 1290 330Q1202 22 1093 22Q962 22 841 341Q807 374 770 374L759 374Q668 374 598 132Q578 36 471 0Q326 0 348 352Q324 550 232 892L236 914Q252 989 359 1024Z"  horiz-adv-x="1432" vert-adv-y="2048"  />

      
      <glyph glyph-name="uni78" unicode="&#x78;" d="M1017 1022L1038 1022Q1052 1022 1062 992Q1049 930 753 587L728 516L721 486Q859 324 935 202Q1040 139 1050 81Q1035 10 924 10Q792 30 644 263Q600 304 542 304Q497 287 260 30Q204 7 203 0Q143 0 158 71Q169 123 376 385Q419 487 423 506Q362 684 281 840Q285 859 276 911Q313 992 364 992Q382 992 571 729L642 729Q654 729 893 961Q972 1022 1017 1022Z"  horiz-adv-x="1030" vert-adv-y="2048"  />

      
      <glyph glyph-name="uni79" unicode="&#x79;" d="M1169 1025Q1214 1025 1227 964Q1057 764 957 605Q826 510 778 441Q765 379 728 256Q716 149 701 82Q602 0 561 0Q492 0 502 349Q225 831 222 912Q284 1015 357 1015Q433 1015 485 800Q547 625 684 625Q759 625 1043 964Q1116 1025 1169 1025Z"  horiz-adv-x="1044" vert-adv-y="2048"  />

      
      <glyph glyph-name="uni7a" unicode="&#x7a;" d="M361 1028Q432 1028 713 1008Q862 1028 921 1028Q974 1028 992 977L990 967Q725 568 634 397L608 326Q587 228 843 183Q902 183 974 81Q957 0 651 0L601 0Q244 0 264 92Q311 257 576 601Q631 719 638 753Q660 858 322 896Q194 913 201 947Q239 1028 361 1028Z"  horiz-adv-x="954" vert-adv-y="2048"  />

      
      <glyph glyph-name="uni2018" unicode="&#x2018;" d="M385 1108L355 1108L369 1467Q370 1490 372 1500Q380 1537 404.50 1557Q429 1577 468 1577Q507 1577 524.50 1557.50Q542 1538 534 1501Q532 1493 523 1467L385 1108Z"  horiz-adv-x="274" vert-adv-y="2048"  />

      
      <glyph glyph-name="uni2019" unicode="&#x2019;" d="M385 1108L355 1108L369 1467Q370 1490 372 1500Q380 1537 404.50 1557Q429 1577 468 1577Q507 1577 524.50 1557.50Q542 1538 534 1501Q532 1493 523 1467L385 1108Z"  horiz-adv-x="274" vert-adv-y="2048"  />

      
      <glyph glyph-name="uni201C" unicode="&#x201C;" d="M514 1560Q566 1560 525 1371L520 1345Q480 1155 351 1155L342 1155Q303 1175 326 1284L337 1336Q385 1560 514 1560M845 1534Q922 1534 893 1396Q904 1396 893 1276Q861 1181 795 1181L770 1181Q690 1252 721 1396Q763 1534 845 1534Z"  horiz-adv-x="702" vert-adv-y="2048"  />

      
      <glyph glyph-name="uni201D" unicode="&#x201D;" d="M514 1560Q566 1560 525 1371L520 1345Q480 1155 351 1155L342 1155Q303 1175 326 1284L337 1336Q385 1560 514 1560M845 1534Q922 1534 893 1396Q904 1396 893 1276Q861 1181 795 1181L770 1181Q690 1252 721 1396Q763 1534 845 1534Z"  horiz-adv-x="702" vert-adv-y="2048"  />

      
      <glyph glyph-name="uni2026" unicode="&#x2026;" d="M274 252Q345 252 382 180Q364 93 221 5L175 5Q97 60 116 149Q135 238 274 252M625 250Q696 250 734 178Q715 91 573 3L527 3Q448 58 467 147Q486 236 625 250M-69 252Q2 252 39 180Q21 93-122 5L-168 5Q-246 60-227 149Q-208 238-69 252Z"  horiz-adv-x="427" vert-adv-y="2048"  />

      

  </font>
</defs>
</svg>
