<?xml version="1.0" encoding="UTF-8" standalone="no"?><!DOCTYPE svg PUBLIC "-//W3C//DTD SVG 1.1//EN" "http://www.w3.org/Graphics/SVG/1.1/DTD/svg11.dtd"><svg width="100%" height="100%" viewBox="0 0 1500 1500" version="1.1" xmlns="http://www.w3.org/2000/svg" xmlns:xlink="http://www.w3.org/1999/xlink" xml:space="preserve" xmlns:serif="http://www.serif.com/" style="fill-rule:evenodd;clip-rule:evenodd;stroke-linecap:round;stroke-linejoin:round;stroke-miterlimit:1.5;"><g transform="matrix(1.01404,-1.11496,1.13094,1.02858,-1086.42,1011.75)"><ellipse cx="948.327" cy="773.491" rx="318.786" ry="314.29" style="fill:none;stroke:#000;stroke-width:6.86px;"/><g transform="matrix(1.19565,0,0,1.17875,-123.167,-82.0823)"><g transform="matrix(0.916671,-0.399642,0.399642,0.916671,-144.193,319.065)"><text x="772.951px" y="488.64px" style="font-family:'NodestoCapsCondensed', 'Nodesto Caps Condensed';font-style:italic;font-stretch:condensed;font-size:91.667px;">F</text></g><g transform="matrix(0.957747,-0.287611,0.287611,0.957747,-112.178,219.537)"><text x="804.545px" y="474.897px" style="font-family:'NodestoCapsCondensed', 'Nodesto Caps Condensed';font-style:italic;font-stretch:condensed;font-size:91.667px;">r</text></g><g transform="matrix(0.983825,-0.179132,0.179132,0.983825,-76.0109,124.008)"><text x="833.244px" y="466.234px" style="font-family:'NodestoCapsCondensed', 'Nodesto Caps Condensed';font-style:italic;font-stretch:condensed;font-size:91.667px;">o</text></g><g transform="matrix(0.998674,-0.0514878,0.0514878,0.998674,-24.2849,11.7474)"><text x="862.839px" y="460.559px" style="font-family:'NodestoCapsCondensed', 'Nodesto Caps Condensed';font-style:italic;font-stretch:condensed;font-size:91.667px;">m</text></g><g transform="matrix(0.987775,0.155889,-0.155889,0.987775,88.2883,-171.533)"><text x="925.251px" y="460.458px" style="font-family:'NodestoCapsCondensed', 'Nodesto Caps Condensed';font-style:italic;font-stretch:condensed;font-size:91.667px;">t</text></g><g transform="matrix(0.965214,0.26146,-0.26146,0.965214,163.144,-264.494)"><text x="950.31px" y="464.206px" style="font-family:'NodestoCapsCondensed', 'Nodesto Caps Condensed';font-style:italic;font-stretch:condensed;font-size:91.667px;">h</text></g><g transform="matrix(0.929056,0.369939,-0.369939,0.929056,257.079,-360.865)"><text x="982.499px" y="473.172px" style="font-family:'NodestoCapsCondensed', 'Nodesto Caps Condensed';font-style:italic;font-stretch:condensed;font-size:91.667px;">e</text></g><g transform="matrix(0.828524,0.559954,-0.559954,0.828524,471.153,-518.746)"><text x="1028.13px" y="493.234px" style="font-family:'NodestoCapsCondensed', 'Nodesto Caps Condensed';font-style:italic;font-stretch:condensed;font-size:91.667px;">A</text></g><g transform="matrix(0.745958,0.665993,-0.665993,0.745958,635.989,-600.927)"><text x="1061.99px" y="516.521px" style="font-family:'NodestoCapsCondensed', 'Nodesto Caps Condensed';font-style:italic;font-stretch:condensed;font-size:91.667px;">r</text></g><g transform="matrix(0.672061,0.740496,-0.740496,0.672061,777.552,-649.402)"><text x="1084.33px" y="536.5px" style="font-family:'NodestoCapsCondensed', 'Nodesto Caps Condensed';font-style:italic;font-stretch:condensed;font-size:91.667px;">c</text></g><g transform="matrix(0.598392,0.801204,-0.801204,0.598392,912.993,-679.31)"><text x="1100.86px" y="554.383px" style="font-family:'NodestoCapsCondensed', 'Nodesto Caps Condensed';font-style:italic;font-stretch:condensed;font-size:91.667px;">a</text></g><g transform="matrix(0.502575,0.864534,-0.864534,0.502575,1085.52,-696.338)"><text x="1118.92px" y="578.491px" style="font-family:'NodestoCapsCondensed', 'Nodesto Caps Condensed';font-style:italic;font-stretch:condensed;font-size:91.667px;">n</text></g><g transform="matrix(0.403123,0.915146,-0.915146,0.403123,1263.09,-690.089)"><text x="1135.02px" y="606.589px" style="font-family:'NodestoCapsCondensed', 'Nodesto Caps Condensed';font-style:italic;font-stretch:condensed;font-size:91.667px;">e</text></g><g transform="matrix(0.196072,0.980589,-0.980589,0.196072,1600.25,-612.789)"><text x="1153.52px" y="652.891px" style="font-family:'NodestoCapsCondensed', 'Nodesto Caps Condensed';font-style:italic;font-stretch:condensed;font-size:91.667px;">V</text></g><g transform="matrix(0.0688671,0.997626,-0.997626,0.0688671,1804.89,-516.167)"><text x="1161.1px" y="692.141px" style="font-family:'NodestoCapsCondensed', 'Nodesto Caps Condensed';font-style:italic;font-stretch:condensed;font-size:91.667px;">a</text></g><g transform="matrix(-0.0443656,0.999015,-0.999015,-0.0443656,1969.6,-406.362)"><text x="1163.21px" y="722.188px" style="font-family:'NodestoCapsCondensed', 'Nodesto Caps Condensed';font-style:italic;font-stretch:condensed;font-size:91.667px;">u</text></g><g transform="matrix(-0.148103,0.988972,-0.988972,-0.148103,2110.94,-280.237)"><text x="1161.81px" y="752.394px" style="font-family:'NodestoCapsCondensed', 'Nodesto Caps Condensed';font-style:italic;font-stretch:condensed;font-size:91.667px;">l</text></g><g transform="matrix(-0.244112,0.969747,-0.969747,-0.244112,2227.85,-146.139)"><text x="1157.89px" y="778.533px" style="font-family:'NodestoCapsCondensed', 'Nodesto Caps Condensed';font-style:italic;font-stretch:condensed;font-size:91.667px;">t</text></g><g transform="matrix(-0.423282,0.905998,-0.905998,-0.423282,2406.03,151.186)"><text x="1144.29px" y="824.712px" style="font-family:'NodestoCapsCondensed', 'Nodesto Caps Condensed';font-style:italic;font-stretch:condensed;font-size:91.667px;">o</text></g><g transform="matrix(-0.515883,0.856659,-0.856659,-0.515883,2473.53,339.29)"><text x="1131.48px" y="851.902px" style="font-family:'NodestoCapsCondensed', 'Nodesto Caps Condensed';font-style:italic;font-stretch:condensed;font-size:91.667px;">f</text></g></g></g><g transform="matrix(1.39501,0.570527,-0.578688,1.41496,-127.048,-885.118)"><ellipse cx="948.327" cy="773.491" rx="318.786" ry="314.29" style="fill:none;stroke:#000;stroke-width:6.86px;"/><g transform="matrix(1.19561,0,0,1.17875,-123.146,-82.0823)"><g transform="matrix(0.867924,0.496698,-0.496698,0.867924,522.837,-165.296)"><text x="744.596px" y="946.298px" style="font-family:'NodestoCapsCondensed', 'Nodesto Caps Condensed';font-style:italic;font-stretch:condensed;font-size:99.427px;">B</text></g><g transform="matrix(0.931594,0.363499,-0.363499,0.931594,372.219,-133.232)"><text x="783.652px" y="968.184px" style="font-family:'NodestoCapsCondensed', 'Nodesto Caps Condensed';font-style:italic;font-stretch:condensed;font-size:99.427px;">r</text></g><g transform="matrix(0.961462,0.274937,-0.274937,0.961462,275.53,-97.9203)"><text x="814.042px" y="979.716px" style="font-family:'NodestoCapsCondensed', 'Nodesto Caps Condensed';font-style:italic;font-stretch:condensed;font-size:99.427px;">i</text></g><g transform="matrix(0.984106,0.177582,-0.177582,0.984106,171.925,-41.9563)"><text x="832.44px" y="985.305px" style="font-family:'NodestoCapsCondensed', 'Nodesto Caps Condensed';font-style:italic;font-stretch:condensed;font-size:99.427px;">a</text></g><g transform="matrix(0.998549,0.0538584,-0.0538584,0.998549,49.6995,46.4093)"><text x="864.543px" y="991.148px" style="font-family:'NodestoCapsCondensed', 'Nodesto Caps Condensed';font-style:italic;font-stretch:condensed;font-size:99.427px;">n</text></g><g transform="matrix(0.980588,-0.196078,0.196078,0.980588,-158.616,290.405)"><text x="924.425px" y="992.132px" style="font-family:'NodestoCapsCondensed', 'Nodesto Caps Condensed';font-style:italic;font-stretch:condensed;font-size:99.427px;">K</text></g><g transform="matrix(0.950807,-0.309784,0.309784,0.950807,-227.956,436.392)"><text x="971.445px" y="981.785px" style="font-family:'NodestoCapsCondensed', 'Nodesto Caps Condensed';font-style:italic;font-stretch:condensed;font-size:99.427px;">.</text></g><g transform="matrix(0.863768,-0.50389,0.50389,0.863768,-304.514,719.525)"><text x="1008.89px" y="968.758px" style="font-family:'NodestoCapsCondensed', 'Nodesto Caps Condensed';font-style:italic;font-stretch:condensed;font-size:99.427px;">K</text></g><g transform="matrix(0.779694,-0.62616,0.62616,0.779694,-302.403,937.018)"><text x="1050.14px" y="944.093px" style="font-family:'NodestoCapsCondensed', 'Nodesto Caps Condensed';font-style:italic;font-stretch:condensed;font-size:99.427px;">a</text></g><g transform="matrix(0.685198,-0.728357,0.728357,0.685198,-267.375,1137.29)"><text x="1075.94px" y="923.791px" style="font-family:'NodestoCapsCondensed', 'Nodesto Caps Condensed';font-style:italic;font-stretch:condensed;font-size:99.427px;">m</text></g><g transform="matrix(0.578434,-0.815729,0.815729,0.578434,-187.138,1330.55)"><text x="1105.05px" y="892.165px" style="font-family:'NodestoCapsCondensed', 'Nodesto Caps Condensed';font-style:italic;font-stretch:condensed;font-size:99.427px;">p</text></g><g transform="matrix(0.489465,-0.872023,0.872023,0.489465,-104.863,1466.56)"><text x="1121.77px" y="868.669px" style="font-family:'NodestoCapsCondensed', 'Nodesto Caps Condensed';font-style:italic;font-stretch:condensed;font-size:99.427px;">l</text></g><g transform="matrix(0.411506,-0.911407,0.911407,0.411506,-17.0929,1569.16)"><text x="1135.56px" y="843.65px" style="font-family:'NodestoCapsCondensed', 'Nodesto Caps Condensed';font-style:italic;font-stretch:condensed;font-size:99.427px;">i</text></g><g transform="matrix(0.315661,-0.948872,0.948872,0.315661,85.8292,1679.67)"><text x="1143.84px" y="826.167px" style="font-family:'NodestoCapsCondensed', 'Nodesto Caps Condensed';font-style:italic;font-stretch:condensed;font-size:99.427px;">n</text></g><g transform="matrix(0.186072,-0.982536,0.982536,0.186072,251.237,1797)"><text x="1154.92px" y="792.693px" style="font-family:'NodestoCapsCondensed', 'Nodesto Caps Condensed';font-style:italic;font-stretch:condensed;font-size:99.427px;">g</text></g></g></g><g transform="matrix(-0.98,0,0,1,4497.51,0)"><g transform="matrix(500,0,0,500,4252.48,914.264)"></g><text x="4028.12px" y="914.264px" style="font-family:'NodestoCapsCondensed', 'Nodesto Caps Condensed';font-style:italic;font-stretch:condensed;font-size:500px;"><tspan x="4028.12px " y="914.264px ">B</tspan></text></g><g transform="matrix(1,0,0,0.99,1.13687e-13,-4.76843)"><g transform="matrix(445.833,0,0,445.833,1158.9,909.053)"></g><text x="943.823px" y="909.053px" style="font-family:'NodestoCapsCondensed', 'Nodesto Caps Condensed';font-style:italic;font-stretch:condensed;font-size:445.833px;">K</text></g><g transform="matrix(-1,0,0,0.99,5473.58,-4.76736)"><g transform="matrix(445.833,0,0,445.833,4728.64,909.159)"></g><text x="4513.56px" y="909.159px" style="font-family:'NodestoCapsCondensed', 'Nodesto Caps Condensed';font-style:italic;font-stretch:condensed;font-size:445.833px;">K</text></g><path d="M507.404,739.323l497.963,-0.347" style="fill:none;stroke:#000;stroke-width:58.33px;"/></svg>