<?xml version="1.0" encoding="UTF-8" standalone="no"?><!DOCTYPE svg PUBLIC "-//W3C//DTD SVG 1.1//EN" "http://www.w3.org/Graphics/SVG/1.1/DTD/svg11.dtd"><svg width="100%" height="100%" viewBox="0 0 1500 1500" version="1.1" xmlns="http://www.w3.org/2000/svg" xmlns:xlink="http://www.w3.org/1999/xlink" xml:space="preserve" xmlns:serif="http://www.serif.com/" style="fill-rule:evenodd;clip-rule:evenodd;stroke-linecap:round;stroke-linejoin:round;stroke-miterlimit:1.5;"><g><g transform="matrix(1.01404,-1.11496,1.13094,1.02858,-1086.42,1011.75)"><ellipse cx="948.327" cy="773.491" rx="318.786" ry="314.29" style="fill:none;stroke:#000;stroke-width:6.86px;"/><g transform="matrix(1.19565,0,0,1.17875,-123.167,-82.0823)"><g transform="matrix(84.0282,-36.6338,36.6338,84.0282,759.629,458.084)"><path d="M0.337,-0.7c0.004,0 0.014,0.044 0.03,0.13c-0.006,0.004 -0.012,0.006 -0.02,0.006c-0.01,-0.021 -0.023,-0.032 -0.041,-0.032l-0.119,0l0,0.176l0.109,-0c0.018,-0 0.03,-0.012 0.037,-0.034c0.003,-0.001 0.005,-0.002 0.008,-0.002c0.006,0.001 0.008,0.005 0.008,0.012l0,0.151c0,0.002 -0.002,0.004 -0.006,0.006l-0.002,-0c-0.009,-0 -0.013,-0.007 -0.013,-0.02c-0.009,-0.009 -0.018,-0.013 -0.028,-0.013l-0.111,-0l-0,0.271c-0,0.018 0.011,0.028 0.033,0.031l0,0.016l-0.01,0.002l-0.171,0c-0.002,0 -0.004,-0.002 -0.006,-0.006l-0,-0.008l0.019,-0.013c0.005,-0 0.01,-0.009 0.014,-0.026l-0.002,-0.024l-0,-0.542c-0,-0.006 0.001,-0.013 0.002,-0.022c-0,-0.018 -0.011,-0.031 -0.031,-0.037l-0.002,-0.004l-0,-0.002c-0,-0.008 0.004,-0.012 0.011,-0.012l0.26,0c0.019,-0.002 0.029,-0.004 0.031,-0.004Z" style="fill-rule:nonzero;"/></g><g transform="matrix(87.7935,-26.3643,26.3643,87.7935,794.958,442.972)"><path d="M0.15,-0.5c0.065,-0 0.109,0.023 0.133,0.071c0.011,0.023 0.016,0.049 0.016,0.078c-0,0.062 -0.018,0.103 -0.053,0.124c-0.001,0.003 -0.002,0.005 -0.002,0.006c0.025,0.136 0.044,0.203 0.059,0.203c0.009,0.005 0.013,0.008 0.013,0.01l0,0.002c0,0.002 -0.002,0.004 -0.005,0.006l-0.096,-0c-0.009,-0 -0.015,-0.011 -0.018,-0.033c-0.013,-0.062 -0.022,-0.118 -0.027,-0.169l-0.035,0l-0,0.163c-0,0.013 0.007,0.022 0.021,0.027c0.002,0.003 0.002,0.005 0.002,0.008l-0.006,0.004l-0.123,-0c-0.002,-0 -0.004,-0.002 -0.006,-0.006l0,-0.002c0.016,-0.01 0.024,-0.017 0.024,-0.021c0.001,-0.007 0.002,-0.013 0.002,-0.017l-0,-0.404c-0,-0.021 -0.007,-0.031 -0.022,-0.031l-0.004,-0.006c0,-0.009 0.043,-0.013 0.127,-0.013Zm-0.015,0.075l-0,0.155l0.025,0c0.029,0 0.045,-0.022 0.049,-0.067l-0,-0.028c-0,-0.036 -0.017,-0.058 -0.051,-0.064l-0.019,0c-0.003,0.001 -0.004,0.002 -0.004,0.004Z" style="fill-rule:nonzero;"/></g><g transform="matrix(90.184,-16.4205,16.4205,90.184,827.273,433.44)"><path d="M0.168,-0.5c0.063,0 0.103,0.05 0.122,0.149c0.003,0.04 0.005,0.07 0.005,0.091c0,0.173 -0.043,0.26 -0.13,0.26c-0.086,-0 -0.129,-0.087 -0.129,-0.262c-0,-0.159 0.044,-0.238 0.132,-0.238Zm-0.046,0.202c-0,0.001 0,0.002 0.002,0.002l-0.002,0.013l-0,0.053l0.002,0.011c-0.002,0.003 -0.002,0.004 -0.002,0.006c-0,0.073 0.01,0.12 0.031,0.141l0.01,0.002l0.007,0c0.026,0 0.039,-0.063 0.039,-0.19l0,-0.004c0,-0.112 -0.013,-0.168 -0.041,-0.168l-0.005,-0c-0.019,-0 -0.032,0.029 -0.039,0.089c-0,0.01 -0.001,0.024 -0.002,0.045Z" style="fill-rule:nonzero;"/></g><g transform="matrix(91.5451,-4.71971,4.71971,91.5451,861.122,427.27)"><path d="M0.029,-0.5l0.112,0l0.005,0.004l-0.001,0.004l-0,0.006c-0,0.015 0.02,0.079 0.062,0.192c0.002,0.012 0.005,0.019 0.008,0.019c0.043,-0.124 0.064,-0.193 0.064,-0.207l0,-0.012c0,-0.002 0.002,-0.004 0.006,-0.006l0.11,0c0.001,0 0.003,0.002 0.005,0.006l0,0.004c-0.015,0.01 -0.023,0.018 -0.023,0.027l-0,0.424c-0,0.014 0.008,0.023 0.023,0.027l0,0.006c0,0.002 -0.002,0.004 -0.005,0.006l-0.124,-0c-0.001,-0 -0.003,-0.002 -0.005,-0.006l-0,-0.004c0.013,-0.008 0.019,-0.013 0.019,-0.015c0.001,-0.005 0.002,-0.008 0.004,-0.008c-0.001,-0.015 -0.002,-0.026 -0.002,-0.033l0,-0.226c-0.003,-0 -0.024,0.061 -0.062,0.184l-0.01,0.002l-0.008,-0c-0.009,-0 -0.017,-0.015 -0.023,-0.043c-0.002,-0.002 -0.018,-0.05 -0.049,-0.145l-0.004,-0l-0,0.255c-0,0.012 0.008,0.022 0.023,0.029l0,0.006l-0.006,0.004l-0.119,-0c-0.002,-0 -0.004,-0.002 -0.006,-0.006l0,-0.004l0.022,-0.015l0.002,-0.01l-0,-0.43c-0,-0.011 -0.008,-0.018 -0.024,-0.023l0,-0.006c0,-0.002 0.002,-0.004 0.006,-0.006Z" style="fill-rule:nonzero;"/></g><g transform="matrix(90.546,14.2898,-14.2898,90.546,930.447,427.532)"><path d="M0.018,-0.5l0.023,0.002l0.201,-0l0.02,-0.002c0.004,0.024 0.009,0.054 0.017,0.09l-0.006,0.004l-0.005,-0c-0.01,-0.013 -0.018,-0.02 -0.026,-0.02l-0.058,0l-0,0.387c-0,0.013 0.007,0.022 0.021,0.027c0.001,0.003 0.002,0.005 0.002,0.008l-0.006,0.004l-0.123,0c-0.003,0 -0.005,-0.003 -0.006,-0.008c0,-0.003 0.006,-0.007 0.018,-0.012c0.005,-0.005 0.008,-0.015 0.008,-0.027l-0,-0.379l-0.057,0c-0.012,0 -0.021,0.007 -0.029,0.022c-0.007,-0.002 -0.01,-0.004 -0.01,-0.008c0.008,-0.048 0.013,-0.077 0.016,-0.088Z" style="fill-rule:nonzero;"/></g><g transform="matrix(88.478,23.9672,-23.9672,88.478,959.025,432.032)"><path d="M0.029,-0.5l0.125,0c0.002,0 0.004,0.002 0.006,0.006l0,0.002c-0.014,0.009 -0.021,0.015 -0.021,0.017c-0.003,0.005 -0.004,0.012 -0.004,0.022l-0,0.14c0,0.002 0.001,0.003 0.004,0.003l0.078,0l-0,-0.153c-0,-0.013 -0.008,-0.022 -0.024,-0.027l0,-0.004c0,-0.002 0.002,-0.004 0.006,-0.006l0.125,0c0.002,0 0.004,0.002 0.006,0.006l0,0.002l-0.021,0.015l-0.002,0.004l-0,0.446c0.001,0.006 0.008,0.011 0.021,0.017c0.001,0.003 0.002,0.005 0.002,0.006l-0.006,0.004l-0.125,-0c-0.002,-0 -0.004,-0.002 -0.006,-0.006l0,-0.002c0.015,-0.009 0.022,-0.015 0.022,-0.019c0.001,-0.002 0.002,-0.006 0.002,-0.01l-0,-0.202l-0.078,-0c-0.003,0 -0.004,0.001 -0.004,0.004l-0,0.188c0.001,0.024 0.009,0.035 0.023,0.035l0.002,0.008l-0.006,0.004l-0.125,-0c-0.002,-0 -0.004,-0.002 -0.006,-0.006l0,-0.002c0.016,-0.01 0.024,-0.019 0.024,-0.027l-0,-0.426c-0,-0.013 -0.008,-0.023 -0.024,-0.029l0,-0.004c0,-0.002 0.002,-0.004 0.006,-0.006Z" style="fill-rule:nonzero;"/></g><g transform="matrix(85.1635,33.9111,-33.9111,85.1635,994.831,442.203)"><path d="M0.242,-0.5c0.012,0.058 0.018,0.089 0.018,0.094c-0.004,0.002 -0.008,0.004 -0.012,0.004c-0.009,-0.015 -0.018,-0.022 -0.025,-0.022l-0.09,0l-0,0.115l0.072,0c0.013,0 0.023,-0.007 0.029,-0.023l0.006,-0c0.002,-0 0.004,0.002 0.006,0.006l0,0.107c0,0.004 -0.003,0.006 -0.008,0.006c-0.003,0 -0.007,-0.006 -0.011,-0.017c-0.006,-0.006 -0.012,-0.008 -0.02,-0.008l-0.07,-0c-0.003,0 -0.004,0.001 -0.004,0.004l-0,0.16l0.096,-0c0.013,-0.009 0.019,-0.016 0.019,-0.022l0.01,0c0.002,0 0.004,0.002 0.004,0.006c-0.008,0.051 -0.013,0.081 -0.016,0.09l-0.023,-0.002l-0.194,0c-0.003,0 -0.005,-0.003 -0.006,-0.008c0,-0.002 0.006,-0.007 0.018,-0.013c0.004,-0.005 0.006,-0.011 0.006,-0.018l-0,-0.418c-0,-0.012 -0.007,-0.02 -0.02,-0.025c-0.002,-0 -0.004,-0.002 -0.004,-0.004l0,-0.002c0,-0.002 0.002,-0.004 0.006,-0.006l0.19,-0c0.006,-0 0.014,-0.001 0.023,-0.004Z" style="fill-rule:nonzero;"/></g><g transform="matrix(75.948,51.3291,-51.3291,75.948,1046.8,465.616)"><path d="M0.125,-0.697l0.197,-0c0.008,-0 0.012,0.004 0.012,0.011c-0,0.004 -0.006,0.01 -0.018,0.018l-0.002,0.004l0,0.002c0,0.003 0.001,0.005 0.002,0.008c-0.001,0.002 -0.002,0.004 -0.002,0.006c0.054,0.352 0.086,0.558 0.096,0.615c0.008,0.01 0.016,0.015 0.026,0.015l0.001,0.01l0,0.002c0,0.002 -0.001,0.004 -0.005,0.006l-0.164,0c-0.002,0 -0.004,-0.002 -0.006,-0.006l-0,-0.008c-0,-0.002 0.007,-0.006 0.021,-0.011c0,-0.003 0.002,-0.006 0.004,-0.01c-0.002,-0.043 -0.005,-0.068 -0.008,-0.074l-0.006,-0c-0.004,0.003 -0.021,0.007 -0.05,0.011c-0.021,-0.002 -0.04,-0.006 -0.059,-0.011c-0.004,-0 -0.008,0.024 -0.012,0.074c0,0.009 0.008,0.014 0.024,0.017l0.002,0.01l-0,0.002c-0,0.002 -0.002,0.004 -0.006,0.006l-0.154,0c-0.002,0 -0.004,-0.002 -0.006,-0.006l-0,-0.008c0.015,-0.01 0.023,-0.017 0.023,-0.021c0.012,-0.06 0.044,-0.267 0.098,-0.619l-0,-0.01c-0,-0.003 -0.007,-0.009 -0.02,-0.018l0,-0.005c0,-0.007 0.004,-0.01 0.012,-0.01Zm0.094,0.123c-0.003,0.009 -0.017,0.129 -0.043,0.359c0.011,0.007 0.025,0.01 0.045,0.01l0.011,-0c0.016,-0 0.028,-0.004 0.036,-0.012l-0.043,-0.357l-0.006,-0Z" style="fill-rule:nonzero;"/></g><g transform="matrix(68.3795,61.0494,-61.0494,68.3795,1084.19,491.655)"><path d="M0.15,-0.5c0.065,-0 0.109,0.023 0.133,0.071c0.011,0.023 0.016,0.049 0.016,0.078c-0,0.062 -0.018,0.103 -0.053,0.124c-0.001,0.003 -0.002,0.005 -0.002,0.006c0.025,0.136 0.044,0.203 0.059,0.203c0.009,0.005 0.013,0.008 0.013,0.01l0,0.002c0,0.002 -0.002,0.004 -0.005,0.006l-0.096,-0c-0.009,-0 -0.015,-0.011 -0.018,-0.033c-0.013,-0.062 -0.022,-0.118 -0.027,-0.169l-0.035,0l-0,0.163c-0,0.013 0.007,0.022 0.021,0.027c0.002,0.003 0.002,0.005 0.002,0.008l-0.006,0.004l-0.123,-0c-0.002,-0 -0.004,-0.002 -0.006,-0.006l0,-0.002c0.016,-0.01 0.024,-0.017 0.024,-0.021c0.001,-0.007 0.002,-0.013 0.002,-0.017l-0,-0.404c-0,-0.021 -0.007,-0.031 -0.022,-0.031l-0.004,-0.006c0,-0.009 0.043,-0.013 0.127,-0.013Zm-0.015,0.075l-0,0.155l0.025,0c0.029,0 0.045,-0.022 0.049,-0.067l-0,-0.028c-0,-0.036 -0.017,-0.058 -0.051,-0.064l-0.019,0c-0.003,0.001 -0.004,0.002 -0.004,0.004Z" style="fill-rule:nonzero;"/></g><g transform="matrix(61.6056,67.8788,-67.8788,61.6056,1109.01,514.098)"><path d="M0.184,-0.502c0.028,0.003 0.044,0.004 0.049,0.004l0.016,-0c0.003,-0 0.009,0.029 0.017,0.086c-0.001,0.005 -0.006,0.008 -0.016,0.008c0,-0.015 -0.015,-0.024 -0.046,-0.028l-0.008,0c-0.035,0 -0.058,0.038 -0.069,0.114c-0.002,0.018 -0.003,0.038 -0.003,0.06l-0,0.008c-0,0.122 0.024,0.184 0.072,0.184l0.01,-0c0.022,-0 0.037,-0.009 0.044,-0.026c0,-0.005 0.002,-0.008 0.004,-0.008c0.008,0.002 0.012,0.004 0.012,0.006c-0.002,0.024 -0.008,0.054 -0.016,0.092c-0.028,0.001 -0.048,0.002 -0.062,0.002l-0.025,0c-0.052,0 -0.089,-0.043 -0.114,-0.129c-0.009,-0.035 -0.013,-0.072 -0.013,-0.111l-0,-0.022c0.004,-0.124 0.037,-0.201 0.101,-0.23c0.018,-0.007 0.034,-0.01 0.047,-0.01Z" style="fill-rule:nonzero;"/></g><g transform="matrix(54.8526,73.4437,-73.4437,54.8526,1127.56,534.437)"><path d="M0.096,-0.5l0.136,-0c0.007,-0 0.011,0.002 0.012,0.007c-0.009,0.009 -0.014,0.016 -0.014,0.02l0,0.004c0.038,0.268 0.062,0.418 0.071,0.449c0.011,0.004 0.017,0.009 0.017,0.016l-0.006,0.004l-0.115,-0c-0.003,-0 -0.005,-0.003 -0.006,-0.008c0,-0.002 0.006,-0.007 0.018,-0.013l-0,-0.002c-0.001,-0.03 -0.003,-0.048 -0.004,-0.055c-0.024,0.004 -0.039,0.006 -0.043,0.006l-0.043,-0.006c-0.004,0.022 -0.006,0.041 -0.006,0.057c0.012,0.006 0.018,0.012 0.018,0.017l-0.006,0.004l-0.107,-0c-0.004,-0 -0.006,-0.003 -0.006,-0.008c-0,-0.001 0.005,-0.006 0.015,-0.015c0.026,-0.143 0.05,-0.293 0.071,-0.45c-0,-0.004 -0.005,-0.011 -0.014,-0.02c0.001,-0.005 0.005,-0.007 0.012,-0.007Zm0.033,0.344c0.007,0.005 0.017,0.008 0.029,0.008l0.01,-0c0.018,-0.002 0.027,-0.004 0.027,-0.008c-0.018,-0.171 -0.029,-0.256 -0.033,-0.256c-0.004,-0 -0.01,0.051 -0.019,0.154c-0.001,0.002 -0.006,0.036 -0.014,0.102Z" style="fill-rule:nonzero;"/></g><g transform="matrix(46.0693,79.2489,-79.2489,46.0693,1147.73,561.739)"><path d="M0.029,-0.5l0.1,0c0.004,0 0.007,0.012 0.01,0.035c0.008,0.016 0.032,0.071 0.072,0.166l0.004,0l-0,-0.166c-0,-0.008 -0.008,-0.017 -0.024,-0.027l0,-0.002c0,-0.002 0.002,-0.004 0.006,-0.006l0.117,0c0.002,0 0.004,0.002 0.006,0.006l0,0.002c-0.015,0.01 -0.023,0.019 -0.023,0.027l-0,0.43c-0,0.01 0.006,0.018 0.017,0.025l0,0.004c0,0.002 -0.002,0.004 -0.005,0.006l-0.088,-0c-0.002,-0 -0.004,-0.002 -0.006,-0.006l-0,-0.121c-0.028,-0.066 -0.055,-0.128 -0.084,-0.186l-0.002,0l-0,0.278c-0,0.009 0.008,0.017 0.023,0.025l0,0.006l-0.006,0.004l-0.117,-0c-0.003,-0 -0.005,-0.003 -0.006,-0.008c0,-0.002 0.006,-0.007 0.018,-0.013c0.004,-0.005 0.006,-0.011 0.006,-0.018l-0,-0.422c-0,-0.013 -0.008,-0.022 -0.024,-0.029l0,-0.004c0,-0.002 0.002,-0.004 0.006,-0.006Z" style="fill-rule:nonzero;"/></g><g transform="matrix(36.953,83.8883,-83.8883,36.953,1165.53,593.152)"><path d="M0.242,-0.5c0.012,0.058 0.018,0.089 0.018,0.094c-0.004,0.002 -0.008,0.004 -0.012,0.004c-0.009,-0.015 -0.018,-0.022 -0.025,-0.022l-0.09,0l-0,0.115l0.072,0c0.013,0 0.023,-0.007 0.029,-0.023l0.006,-0c0.002,-0 0.004,0.002 0.006,0.006l0,0.107c0,0.004 -0.003,0.006 -0.008,0.006c-0.003,0 -0.007,-0.006 -0.011,-0.017c-0.006,-0.006 -0.012,-0.008 -0.02,-0.008l-0.07,-0c-0.003,0 -0.004,0.001 -0.004,0.004l-0,0.16l0.096,-0c0.013,-0.009 0.019,-0.016 0.019,-0.022l0.01,0c0.002,0 0.004,0.002 0.004,0.006c-0.008,0.051 -0.013,0.081 -0.016,0.09l-0.023,-0.002l-0.194,0c-0.003,0 -0.005,-0.003 -0.006,-0.008c0,-0.002 0.006,-0.007 0.018,-0.013c0.004,-0.005 0.006,-0.011 0.006,-0.018l-0,-0.418c-0,-0.012 -0.007,-0.02 -0.02,-0.025c-0.002,-0 -0.004,-0.002 -0.004,-0.004l0,-0.002c0,-0.002 0.002,-0.004 0.006,-0.006l0.19,-0c0.006,-0 0.014,-0.001 0.023,-0.004Z" style="fill-rule:nonzero;"/></g><g transform="matrix(17.9733,89.8874,-89.8874,17.9733,1186.21,646.356)"><path d="M0.016,-0.7l0.171,0c0.002,0 0.004,0.002 0.006,0.006l0,0.007c0,0.003 -0.007,0.007 -0.021,0.012l-0.004,0.011c-0,0.01 0.02,0.18 0.061,0.512l0.007,-0l0.063,-0.5l-0,-0.008c-0,-0.012 -0.009,-0.02 -0.028,-0.025l0,-0.009c0,-0.002 0.002,-0.004 0.006,-0.006l0.162,0c0.002,0 0.004,0.002 0.006,0.006l0,0.007c-0.001,0.004 -0.008,0.008 -0.021,0.012c-0.007,0.007 -0.014,0.036 -0.02,0.088l-0.093,0.583l-0.006,0.004l-0.147,0c-0.005,0 -0.013,-0.037 -0.023,-0.112c-0.056,-0.33 -0.088,-0.515 -0.096,-0.555c-0.004,-0.007 -0.014,-0.013 -0.029,-0.018l-0,-0.009c-0,-0.002 0.002,-0.004 0.006,-0.006Z" style="fill-rule:nonzero;"/></g><g transform="matrix(6.31282,91.449,-91.449,6.31282,1194.36,689.845)"><path d="M0.096,-0.5l0.136,-0c0.007,-0 0.011,0.002 0.012,0.007c-0.009,0.009 -0.014,0.016 -0.014,0.02l0,0.004c0.038,0.268 0.062,0.418 0.071,0.449c0.011,0.004 0.017,0.009 0.017,0.016l-0.006,0.004l-0.115,-0c-0.003,-0 -0.005,-0.003 -0.006,-0.008c0,-0.002 0.006,-0.007 0.018,-0.013l-0,-0.002c-0.001,-0.03 -0.003,-0.048 -0.004,-0.055c-0.024,0.004 -0.039,0.006 -0.043,0.006l-0.043,-0.006c-0.004,0.022 -0.006,0.041 -0.006,0.057c0.012,0.006 0.018,0.012 0.018,0.017l-0.006,0.004l-0.107,-0c-0.004,-0 -0.006,-0.003 -0.006,-0.008c-0,-0.001 0.005,-0.006 0.015,-0.015c0.026,-0.143 0.05,-0.293 0.071,-0.45c-0,-0.004 -0.005,-0.011 -0.014,-0.02c0.001,-0.005 0.005,-0.007 0.012,-0.007Zm0.033,0.344c0.007,0.005 0.017,0.008 0.029,0.008l0.01,-0c0.018,-0.002 0.027,-0.004 0.027,-0.008c-0.018,-0.171 -0.029,-0.256 -0.033,-0.256c-0.004,-0 -0.01,0.051 -0.019,0.154c-0.001,0.002 -0.006,0.036 -0.014,0.102Z" style="fill-rule:nonzero;"/></g><g transform="matrix(-4.06684,91.5764,-91.5764,-4.06684,1196.51,723.666)"><path d="M0.029,-0.5l0.114,0c0.007,0 0.011,0.004 0.011,0.01c-0.015,0.006 -0.023,0.015 -0.023,0.028l-0,0.355c0.003,0.024 0.015,0.035 0.035,0.035l0.012,0c0.024,-0.003 0.037,-0.015 0.037,-0.035l-0,-0.355c-0,-0.012 -0.007,-0.021 -0.022,-0.028l0,-0.008l0.01,-0.002l0.109,0c0.002,0 0.004,0.002 0.006,0.006l0,0.002c-0.014,0.009 -0.021,0.018 -0.021,0.026l-0,0.375c0.002,0.018 0.004,0.028 0.004,0.029c-0.045,0.041 -0.088,0.062 -0.131,0.062c-0.045,-0 -0.088,-0.022 -0.129,-0.066l0,-0.002c0.003,-0.008 0.004,-0.014 0.004,-0.017l-0,-0.381c-0,-0.007 -0.007,-0.016 -0.022,-0.026l0,-0.002c0,-0.002 0.002,-0.004 0.006,-0.006Z" style="fill-rule:nonzero;"/></g><g transform="matrix(-13.5761,90.6558,-90.6558,-13.5761,1194.78,757.331)"><path d="M0.029,-0.5l0.123,0c0.002,0 0.004,0.002 0.006,0.006l0,0.004c-0.014,0.009 -0.022,0.016 -0.025,0.023l-0,0.389c0,0.002 0.001,0.004 0.004,0.004l0.084,-0c0.014,-0 0.026,-0.009 0.037,-0.026l0.002,0c0.005,0.002 0.008,0.004 0.008,0.006c-0.003,0.023 -0.01,0.055 -0.02,0.094c-0.015,-0.001 -0.026,-0.002 -0.033,-0.002l-0.186,0c-0.002,0 -0.004,-0.002 -0.006,-0.006l0,-0.002c0.016,-0.01 0.024,-0.019 0.024,-0.027l-0,-0.424c-0,-0.014 -0.008,-0.023 -0.024,-0.027l0,-0.006c0,-0.002 0.002,-0.004 0.006,-0.006Z" style="fill-rule:nonzero;"/></g><g transform="matrix(-22.3769,88.8935,-88.8935,-22.3769,1190.21,786.67)"><path d="M0.018,-0.5l0.023,0.002l0.201,-0l0.02,-0.002c0.004,0.024 0.009,0.054 0.017,0.09l-0.006,0.004l-0.005,-0c-0.01,-0.013 -0.018,-0.02 -0.026,-0.02l-0.058,0l-0,0.387c-0,0.013 0.007,0.022 0.021,0.027c0.001,0.003 0.002,0.005 0.002,0.008l-0.006,0.004l-0.123,0c-0.003,0 -0.005,-0.003 -0.006,-0.008c0,-0.003 0.006,-0.007 0.018,-0.012c0.005,-0.005 0.008,-0.015 0.008,-0.027l-0,-0.379l-0.057,0c-0.012,0 -0.021,0.007 -0.029,0.022c-0.007,-0.002 -0.01,-0.004 -0.01,-0.008c0.008,-0.048 0.013,-0.077 0.016,-0.088Z" style="fill-rule:nonzero;"/></g><g transform="matrix(-38.8009,83.0498,-83.0498,-38.8009,1174.49,838.821)"><path d="M0.168,-0.5c0.063,0 0.103,0.05 0.122,0.149c0.003,0.04 0.005,0.07 0.005,0.091c0,0.173 -0.043,0.26 -0.13,0.26c-0.086,-0 -0.129,-0.087 -0.129,-0.262c-0,-0.159 0.044,-0.238 0.132,-0.238Zm-0.046,0.202c-0,0.001 0,0.002 0.002,0.002l-0.002,0.013l-0,0.053l0.002,0.011c-0.002,0.003 -0.002,0.004 -0.002,0.006c-0,0.073 0.01,0.12 0.031,0.141l0.01,0.002l0.007,0c0.026,0 0.039,-0.063 0.039,-0.19l0,-0.004c0,-0.112 -0.013,-0.168 -0.041,-0.168l-0.005,-0c-0.019,-0 -0.032,0.029 -0.039,0.089c-0,0.01 -0.001,0.024 -0.002,0.045Z" style="fill-rule:nonzero;"/></g><g transform="matrix(-47.2893,78.5271,-78.5271,-47.2893,1160.03,869.098)"><path d="M0.244,-0.502c0.012,0.056 0.018,0.087 0.018,0.094c-0.005,0.002 -0.009,0.004 -0.012,0.004c-0.008,-0.016 -0.019,-0.024 -0.033,-0.024l-0.084,0l-0,0.125l0.082,0c0.008,0 0.017,-0.008 0.027,-0.023l0.002,-0c0.002,-0 0.004,0.002 0.006,0.006l0,0.107c0,0.002 -0.002,0.004 -0.006,0.006l-0.002,-0c-0.001,-0 -0.005,-0.006 -0.012,-0.018c-0.004,-0.004 -0.01,-0.005 -0.017,-0.005l-0.078,-0l-0,0.201c0.002,0.007 0.01,0.012 0.023,0.017c0.002,0.003 0.002,0.005 0.002,0.008l-0.006,0.004l-0.125,0c-0.003,0 -0.005,-0.003 -0.006,-0.008c0,-0.002 0.006,-0.007 0.018,-0.013c0.004,-0.005 0.006,-0.011 0.006,-0.018l-0,-0.422c-0,-0.013 -0.008,-0.022 -0.024,-0.027l0,-0.004c0.002,-0.005 0.006,-0.008 0.012,-0.008l0.186,0l0.023,-0.002Z" style="fill-rule:nonzero;"/></g></g></g><g transform="matrix(1.39501,0.570527,-0.578688,1.41496,-127.048,-885.118)"><ellipse cx="948.327" cy="773.491" rx="318.786" ry="314.29" style="fill:none;stroke:#000;stroke-width:6.86px;"/><g transform="matrix(1.19561,0,0,1.17875,-123.146,-82.0823)"><g transform="matrix(86.2954,49.3854,-49.3854,86.2954,699.066,1025.86)"><path d="M0.089,-0.697l0.145,-0c0.028,-0 0.062,0.012 0.103,0.037c0.037,0.035 0.055,0.078 0.055,0.131c0,0.063 -0.024,0.111 -0.072,0.144l-0,0.002c0.064,0.034 0.096,0.094 0.096,0.18c-0,0.098 -0.046,0.162 -0.137,0.191c-0.029,0.008 -0.057,0.012 -0.084,0.012l-0.029,0c-0.086,0 -0.129,-0.003 -0.129,-0.008c-0.002,-0.002 -0.002,-0.005 -0.002,-0.008l-0,-0.004c-0,-0.002 0.007,-0.006 0.019,-0.009c0.008,-0.009 0.012,-0.016 0.012,-0.022l-0,-0.594c-0.003,-0.02 -0.012,-0.031 -0.029,-0.031l-0.002,-0.004l-0,-0.007c-0,-0.002 0.002,-0.004 0.006,-0.006l0.001,-0c0.002,-0 0.018,-0.002 0.047,-0.004Zm0.098,0.097l0,0.174l0.021,0c0.038,-0.008 0.057,-0.033 0.057,-0.074c0.001,-0.005 0.002,-0.011 0.002,-0.02c0,-0.046 -0.016,-0.072 -0.049,-0.08l-0.031,0Zm0,0.276l0,0.224l0.033,0c0.029,0 0.049,-0.015 0.061,-0.046c0.006,-0.016 0.01,-0.033 0.01,-0.051l-0,-0.039c-0,-0.041 -0.017,-0.069 -0.051,-0.086c-0.015,-0.003 -0.025,-0.004 -0.032,-0.004c-0.008,0.001 -0.015,0.002 -0.021,0.002Z" style="fill-rule:nonzero;"/></g><g transform="matrix(92.626,36.1418,-36.1418,92.626,750.331,1053.58)"><path d="M0.15,-0.5c0.065,-0 0.109,0.023 0.133,0.071c0.011,0.023 0.016,0.049 0.016,0.078c-0,0.062 -0.018,0.103 -0.053,0.124c-0.001,0.003 -0.002,0.005 -0.002,0.006c0.025,0.136 0.044,0.203 0.059,0.203c0.009,0.005 0.013,0.008 0.013,0.01l0,0.002c0,0.002 -0.002,0.004 -0.005,0.006l-0.096,-0c-0.009,-0 -0.015,-0.011 -0.018,-0.033c-0.013,-0.062 -0.022,-0.118 -0.027,-0.169l-0.035,0l-0,0.163c-0,0.013 0.007,0.022 0.021,0.027c0.002,0.003 0.002,0.005 0.002,0.008l-0.006,0.004l-0.123,-0c-0.002,-0 -0.004,-0.002 -0.006,-0.006l0,-0.002c0.016,-0.01 0.024,-0.017 0.024,-0.021c0.001,-0.007 0.002,-0.013 0.002,-0.017l-0,-0.404c-0,-0.021 -0.007,-0.031 -0.022,-0.031l-0.004,-0.006c0,-0.009 0.043,-0.013 0.127,-0.013Zm-0.015,0.075l-0,0.155l0.025,0c0.029,0 0.045,-0.022 0.049,-0.067l-0,-0.028c-0,-0.036 -0.017,-0.058 -0.051,-0.064l-0.019,0c-0.003,0.001 -0.004,0.002 -0.004,0.004Z" style="fill-rule:nonzero;"/></g><g transform="matrix(95.5957,27.3363,-27.3363,95.5957,788.839,1067.85)"><path d="M0.035,-0.5l0.119,-0c0.002,-0 0.004,0.001 0.006,0.005l0,0.004l-0.021,0.016l-0.002,0.01l-0,0.426c-0,0.012 0.008,0.022 0.023,0.029l0,0.006l-0.006,0.004l-0.125,-0c-0.003,-0 -0.005,-0.003 -0.006,-0.008c0,-0.003 0.006,-0.007 0.018,-0.012c0.005,-0.005 0.008,-0.014 0.008,-0.026l-0,-0.408c-0,-0.022 -0.008,-0.033 -0.024,-0.033c0,-0.001 -0,-0.003 -0.002,-0.006c0.002,-0.005 0.006,-0.007 0.012,-0.007Z" style="fill-rule:nonzero;"/></g><g transform="matrix(97.8471,17.6565,-17.6565,97.8471,816.161,1075.51)"><path d="M0.096,-0.5l0.136,-0c0.007,-0 0.011,0.002 0.012,0.007c-0.009,0.009 -0.014,0.016 -0.014,0.02l0,0.004c0.038,0.268 0.062,0.418 0.071,0.449c0.011,0.004 0.017,0.009 0.017,0.016l-0.006,0.004l-0.115,-0c-0.003,-0 -0.005,-0.003 -0.006,-0.008c0,-0.002 0.006,-0.007 0.018,-0.013l-0,-0.002c-0.001,-0.03 -0.003,-0.048 -0.004,-0.055c-0.024,0.004 -0.039,0.006 -0.043,0.006l-0.043,-0.006c-0.004,0.022 -0.006,0.041 -0.006,0.057c0.012,0.006 0.018,0.012 0.018,0.017l-0.006,0.004l-0.107,-0c-0.004,-0 -0.006,-0.003 -0.006,-0.008c-0,-0.001 0.005,-0.006 0.015,-0.015c0.026,-0.143 0.05,-0.293 0.071,-0.45c-0,-0.004 -0.005,-0.011 -0.014,-0.02c0.001,-0.005 0.005,-0.007 0.012,-0.007Zm0.033,0.344c0.007,0.005 0.017,0.008 0.029,0.008l0.01,-0c0.018,-0.002 0.027,-0.004 0.027,-0.008c-0.018,-0.171 -0.029,-0.256 -0.033,-0.256c-0.004,-0 -0.01,0.051 -0.019,0.154c-0.001,0.002 -0.006,0.036 -0.014,0.102Z" style="fill-rule:nonzero;"/></g><g transform="matrix(99.2831,5.355,-5.355,99.2831,859.606,1082.68)"><path d="M0.029,-0.5l0.1,0c0.004,0 0.007,0.012 0.01,0.035c0.008,0.016 0.032,0.071 0.072,0.166l0.004,0l-0,-0.166c-0,-0.008 -0.008,-0.017 -0.024,-0.027l0,-0.002c0,-0.002 0.002,-0.004 0.006,-0.006l0.117,0c0.002,0 0.004,0.002 0.006,0.006l0,0.002c-0.015,0.01 -0.023,0.019 -0.023,0.027l-0,0.43c-0,0.01 0.006,0.018 0.017,0.025l0,0.004c0,0.002 -0.002,0.004 -0.005,0.006l-0.088,-0c-0.002,-0 -0.004,-0.002 -0.006,-0.006l-0,-0.121c-0.028,-0.066 -0.055,-0.128 -0.084,-0.186l-0.002,0l-0,0.278c-0,0.009 0.008,0.017 0.023,0.025l0,0.006l-0.006,0.004l-0.117,-0c-0.003,-0 -0.005,-0.003 -0.006,-0.008c0,-0.002 0.006,-0.007 0.018,-0.013c0.004,-0.005 0.006,-0.011 0.006,-0.018l-0,-0.422c-0,-0.013 -0.008,-0.022 -0.024,-0.029l0,-0.004c0,-0.002 0.002,-0.004 0.006,-0.006Z" style="fill-rule:nonzero;"/></g><g transform="matrix(97.4973,-19.4955,19.4955,97.4973,942.399,1082.02)"><path d="M0.041,-0.7l0.169,0c0.008,0 0.012,0.004 0.012,0.012l0,0.002c-0.021,0.014 -0.031,0.024 -0.031,0.031c-0.001,0.007 -0.002,0.014 -0.002,0.02l-0,0.218l0.002,-0c0.003,-0.001 0.027,-0.055 0.07,-0.161c0.021,-0.045 0.031,-0.071 0.031,-0.079l0,-0.01c0,-0.005 -0.008,-0.01 -0.025,-0.015c-0.001,-0.002 -0.002,-0.005 -0.002,-0.008c0,-0.006 0.004,-0.01 0.012,-0.01l0.164,0c0.008,0 0.012,0.004 0.012,0.012c-0,0.006 -0.008,0.01 -0.024,0.014c-0.007,0.004 -0.039,0.068 -0.096,0.192c-0.011,0.021 -0.017,0.034 -0.017,0.039c-0,0.034 0.034,0.164 0.103,0.39c0.011,0.024 0.024,0.035 0.041,0.035l0.002,0.004l0,0.008c0,0.002 -0.002,0.004 -0.005,0.006l-0.149,0c-0.005,0 -0.019,-0.044 -0.041,-0.131c-0.019,-0.08 -0.034,-0.142 -0.043,-0.188l-0.004,-0.002c-0.021,0.034 -0.031,0.053 -0.031,0.056l-0,0.197c-0,0.033 0.01,0.05 0.031,0.05l0.002,0.004l0,0.008c0,0.002 -0.002,0.004 -0.006,0.006l-0.175,0c-0.002,0 -0.004,-0.002 -0.006,-0.006l-0,-0.008l0.023,-0.015c0.005,-0.006 0.008,-0.012 0.008,-0.018l-0,-0.602c-0,-0.017 -0.01,-0.028 -0.031,-0.033l-0,-0.012c-0,-0.002 0.002,-0.004 0.006,-0.006Z" style="fill-rule:nonzero;"/></g><g transform="matrix(94.5362,-30.801,30.801,94.5362,999.841,1068.94)"><path d="M0.076,-0.113c0.03,-0 0.049,0.019 0.057,0.058c-0,0.025 -0.017,0.043 -0.051,0.055l-0.006,-0c-0.023,-0 -0.04,-0.015 -0.053,-0.045c-0.001,-0.005 -0.002,-0.01 -0.002,-0.014c0.01,-0.036 0.028,-0.054 0.055,-0.054Z" style="fill-rule:nonzero;"/></g><g transform="matrix(85.8822,-50.1005,50.1005,85.8822,1055.08,1047.94)"><path d="M0.041,-0.7l0.169,0c0.008,0 0.012,0.004 0.012,0.012l0,0.002c-0.021,0.014 -0.031,0.024 -0.031,0.031c-0.001,0.007 -0.002,0.014 -0.002,0.02l-0,0.218l0.002,-0c0.003,-0.001 0.027,-0.055 0.07,-0.161c0.021,-0.045 0.031,-0.071 0.031,-0.079l0,-0.01c0,-0.005 -0.008,-0.01 -0.025,-0.015c-0.001,-0.002 -0.002,-0.005 -0.002,-0.008c0,-0.006 0.004,-0.01 0.012,-0.01l0.164,0c0.008,0 0.012,0.004 0.012,0.012c-0,0.006 -0.008,0.01 -0.024,0.014c-0.007,0.004 -0.039,0.068 -0.096,0.192c-0.011,0.021 -0.017,0.034 -0.017,0.039c-0,0.034 0.034,0.164 0.103,0.39c0.011,0.024 0.024,0.035 0.041,0.035l0.002,0.004l0,0.008c0,0.002 -0.002,0.004 -0.005,0.006l-0.149,0c-0.005,0 -0.019,-0.044 -0.041,-0.131c-0.019,-0.08 -0.034,-0.142 -0.043,-0.188l-0.004,-0.002c-0.021,0.034 -0.031,0.053 -0.031,0.056l-0,0.197c-0,0.033 0.01,0.05 0.031,0.05l0.002,0.004l0,0.008c0,0.002 -0.002,0.004 -0.006,0.006l-0.175,0c-0.002,0 -0.004,-0.002 -0.006,-0.006l-0,-0.008l0.023,-0.015c0.005,-0.006 0.008,-0.012 0.008,-0.018l-0,-0.602c-0,-0.017 -0.01,-0.028 -0.031,-0.033l-0,-0.012c-0,-0.002 0.002,-0.004 0.006,-0.006Z" style="fill-rule:nonzero;"/></g><g transform="matrix(77.523,-62.2575,62.2575,77.523,1107.54,1015.56)"><path d="M0.096,-0.5l0.136,-0c0.007,-0 0.011,0.002 0.012,0.007c-0.009,0.009 -0.014,0.016 -0.014,0.02l0,0.004c0.038,0.268 0.062,0.418 0.071,0.449c0.011,0.004 0.017,0.009 0.017,0.016l-0.006,0.004l-0.115,-0c-0.003,-0 -0.005,-0.003 -0.006,-0.008c0,-0.002 0.006,-0.007 0.018,-0.013l-0,-0.002c-0.001,-0.03 -0.003,-0.048 -0.004,-0.055c-0.024,0.004 -0.039,0.006 -0.043,0.006l-0.043,-0.006c-0.004,0.022 -0.006,0.041 -0.006,0.057c0.012,0.006 0.018,0.012 0.018,0.017l-0.006,0.004l-0.107,-0c-0.004,-0 -0.006,-0.003 -0.006,-0.008c-0,-0.001 0.005,-0.006 0.015,-0.015c0.026,-0.143 0.05,-0.293 0.071,-0.45c-0,-0.004 -0.005,-0.011 -0.014,-0.02c0.001,-0.005 0.005,-0.007 0.012,-0.007Zm0.033,0.344c0.007,0.005 0.017,0.008 0.029,0.008l0.01,-0c0.018,-0.002 0.027,-0.004 0.027,-0.008c-0.018,-0.171 -0.029,-0.256 -0.033,-0.256c-0.004,-0 -0.01,0.051 -0.019,0.154c-0.001,0.002 -0.006,0.036 -0.014,0.102Z" style="fill-rule:nonzero;"/></g><g transform="matrix(68.1274,-72.4186,72.4186,68.1274,1142.71,986.601)"><path d="M0.029,-0.5l0.112,0l0.005,0.004l-0.001,0.004l-0,0.006c-0,0.015 0.02,0.079 0.062,0.192c0.002,0.012 0.005,0.019 0.008,0.019c0.043,-0.124 0.064,-0.193 0.064,-0.207l0,-0.012c0,-0.002 0.002,-0.004 0.006,-0.006l0.11,0c0.001,0 0.003,0.002 0.005,0.006l0,0.004c-0.015,0.01 -0.023,0.018 -0.023,0.027l-0,0.424c-0,0.014 0.008,0.023 0.023,0.027l0,0.006c0,0.002 -0.002,0.004 -0.005,0.006l-0.124,-0c-0.001,-0 -0.003,-0.002 -0.005,-0.006l-0,-0.004c0.013,-0.008 0.019,-0.013 0.019,-0.015c0.001,-0.005 0.002,-0.008 0.004,-0.008c-0.001,-0.015 -0.002,-0.026 -0.002,-0.033l0,-0.226c-0.003,-0 -0.024,0.061 -0.062,0.184l-0.01,0.002l-0.008,-0c-0.009,-0 -0.017,-0.015 -0.023,-0.043c-0.002,-0.002 -0.018,-0.05 -0.049,-0.145l-0.004,-0l-0,0.255c-0,0.012 0.008,0.022 0.023,0.029l0,0.006l-0.006,0.004l-0.119,-0c-0.002,-0 -0.004,-0.002 -0.006,-0.006l0,-0.004l0.022,-0.015l0.002,-0.01l-0,-0.43c-0,-0.011 -0.008,-0.018 -0.024,-0.023l0,-0.006c0,-0.002 0.002,-0.004 0.006,-0.006Z" style="fill-rule:nonzero;"/></g><g transform="matrix(57.5122,-81.1058,81.1058,57.5122,1179.83,945.188)"><path d="M0.117,-0.5l0.008,-0c0.076,-0 0.125,0.034 0.146,0.103c0.007,0.029 0.01,0.052 0.01,0.07c0,0.113 -0.049,0.169 -0.148,0.169l-0,0.119c-0,0.014 0.008,0.024 0.025,0.029l0,0.004c0,0.002 -0.002,0.004 -0.006,0.006l-0.123,-0c-0.002,-0 -0.004,-0.002 -0.006,-0.006l0,-0.002c0.016,-0.01 0.024,-0.019 0.024,-0.027l-0,-0.421c-0,-0.013 -0.007,-0.023 -0.022,-0.029c-0.001,-0.002 -0.002,-0.005 -0.002,-0.008c0,-0.004 0.032,-0.007 0.094,-0.007Zm0.016,0.076l-0,0.194l0.019,0c0.023,0 0.036,-0.026 0.039,-0.078l0,-0.035c0,-0.046 -0.011,-0.074 -0.035,-0.083l-0.011,-0.002l-0.008,-0c-0.003,0 -0.004,0.001 -0.004,0.004Z" style="fill-rule:nonzero;"/></g><g transform="matrix(48.6662,-86.703,86.703,48.6662,1201.7,913.536)"><path d="M0.029,-0.5l0.123,0c0.002,0 0.004,0.002 0.006,0.006l0,0.004c-0.014,0.009 -0.022,0.016 -0.025,0.023l-0,0.389c0,0.002 0.001,0.004 0.004,0.004l0.084,-0c0.014,-0 0.026,-0.009 0.037,-0.026l0.002,0c0.005,0.002 0.008,0.004 0.008,0.006c-0.003,0.023 -0.01,0.055 -0.02,0.094c-0.015,-0.001 -0.026,-0.002 -0.033,-0.002l-0.186,0c-0.002,0 -0.004,-0.002 -0.006,-0.006l0,-0.002c0.016,-0.01 0.024,-0.019 0.024,-0.027l-0,-0.424c-0,-0.014 -0.008,-0.023 -0.024,-0.027l0,-0.006c0,-0.002 0.002,-0.004 0.006,-0.006Z" style="fill-rule:nonzero;"/></g><g transform="matrix(40.915,-90.6188,90.6188,40.915,1219.11,881.371)"><path d="M0.035,-0.5l0.119,-0c0.002,-0 0.004,0.001 0.006,0.005l0,0.004l-0.021,0.016l-0.002,0.01l-0,0.426c-0,0.012 0.008,0.022 0.023,0.029l0,0.006l-0.006,0.004l-0.125,-0c-0.003,-0 -0.005,-0.003 -0.006,-0.008c0,-0.003 0.006,-0.007 0.018,-0.012c0.005,-0.005 0.008,-0.014 0.008,-0.026l-0,-0.408c-0,-0.022 -0.008,-0.033 -0.024,-0.033c0,-0.001 -0,-0.003 -0.002,-0.006c0.002,-0.005 0.006,-0.007 0.012,-0.007Z" style="fill-rule:nonzero;"/></g><g transform="matrix(31.3853,-94.3439,94.3439,31.3853,1230.82,855.103)"><path d="M0.029,-0.5l0.1,0c0.004,0 0.007,0.012 0.01,0.035c0.008,0.016 0.032,0.071 0.072,0.166l0.004,0l-0,-0.166c-0,-0.008 -0.008,-0.017 -0.024,-0.027l0,-0.002c0,-0.002 0.002,-0.004 0.006,-0.006l0.117,0c0.002,0 0.004,0.002 0.006,0.006l0,0.002c-0.015,0.01 -0.023,0.019 -0.023,0.027l-0,0.43c-0,0.01 0.006,0.018 0.017,0.025l0,0.004c0,0.002 -0.002,0.004 -0.005,0.006l-0.088,-0c-0.002,-0 -0.004,-0.002 -0.006,-0.006l-0,-0.121c-0.028,-0.066 -0.055,-0.128 -0.084,-0.186l-0.002,0l-0,0.278c-0,0.009 0.008,0.017 0.023,0.025l0,0.006l-0.006,0.004l-0.117,-0c-0.003,-0 -0.005,-0.003 -0.006,-0.008c0,-0.002 0.006,-0.007 0.018,-0.013c0.004,-0.005 0.006,-0.011 0.006,-0.018l-0,-0.422c-0,-0.013 -0.008,-0.022 -0.024,-0.029l0,-0.004c0,-0.002 0.002,-0.004 0.006,-0.006Z" style="fill-rule:nonzero;"/></g><g transform="matrix(18.5006,-97.691,97.691,18.5006,1244.98,809.75)"><path d="M0.192,-0.5c0.023,0.003 0.041,0.004 0.053,0.004l-0,-0.002c0.006,-0 0.012,0.028 0.017,0.085l0.002,0c-0.001,0.006 -0.005,0.008 -0.012,0.008l-0.002,0c-0.01,-0.017 -0.024,-0.025 -0.042,-0.025l-0.016,-0c-0.034,-0 -0.056,0.037 -0.067,0.111c-0.001,0.02 -0.001,0.038 -0.001,0.054l-0,0.034c-0,0.078 0.011,0.128 0.033,0.149c0.008,0.008 0.02,0.012 0.035,0.012l0.002,0l0.01,-0.002l-0,-0.154c-0,-0.009 -0.008,-0.017 -0.024,-0.023l0,-0.004c0,-0.002 0.002,-0.004 0.006,-0.006l0.121,0c0.004,0 0.006,0.003 0.006,0.008c-0,0.002 -0.007,0.007 -0.02,0.016c-0.001,0.005 -0.002,0.007 -0.003,0.007l0.002,0.024l-0,0.124c-0,0.006 -0.001,0.013 -0.002,0.021l0.007,0.03c-0.037,0.019 -0.077,0.029 -0.121,0.029c-0.071,-0 -0.116,-0.056 -0.134,-0.169c-0.004,-0.031 -0.006,-0.06 -0.006,-0.09c-0,-0.113 0.032,-0.189 0.095,-0.227c0.019,-0.009 0.039,-0.014 0.061,-0.014Z" style="fill-rule:nonzero;"/></g></g></g><path d="M506.174,565.631l-70.82,0c-13.718,0 -30.625,6.185 -50.723,18.555c-17.864,17.415 -26.797,39.225 -26.797,65.43c0,31.412 11.804,55.501 35.41,72.265l0,0.977c-31.263,16.764 -46.894,46.712 -46.894,89.844c-0,49.153 22.331,81.054 66.992,95.703c14.196,3.906 27.913,5.859 41.152,5.859l14.356,0c42.109,0 63.164,-1.302 63.164,-3.906c0.638,-1.139 0.957,-2.441 0.957,-3.906l-0,-1.953c-0.16,-1.465 -3.35,-3.093 -9.57,-4.883c-3.828,-4.232 -5.743,-7.813 -5.743,-10.742l0,-296.875c1.277,-10.417 6.062,-15.625 14.356,-15.625l0.957,-1.954l-0,-3.906c-0,-0.976 -0.957,-1.953 -2.871,-2.93l-0.957,0c-0.957,0 -8.613,-0.651 -22.969,-1.953Zm-47.851,48.828l-0,86.915l-10.528,-0c-18.502,-4.069 -27.754,-16.439 -27.754,-37.11c-0.638,-2.278 -0.957,-5.534 -0.957,-9.765c0,-23.112 7.976,-36.459 23.926,-40.04l15.313,0Zm-0,137.696l-0,112.304l-16.27,0c-13.877,0 -23.766,-7.812 -29.668,-23.437c-3.19,-7.975 -4.785,-16.439 -4.785,-25.391l-0,-19.531c-0,-20.182 8.294,-34.505 24.883,-42.969c7.018,-1.302 12.122,-1.953 15.312,-1.953c4.307,0.651 7.816,0.977 10.528,0.977Z" style="fill:#262626;fill-rule:nonzero;"/><path d="M961.891,586.361l75.757,-0c3.483,-0 5.225,1.724 5.225,5.172l-0,0.862c-9.289,6.034 -13.933,10.632 -13.933,13.793c-0.58,3.017 -0.87,5.891 -0.87,8.621l-0,96.119l0.87,0c1.452,-0.287 11.901,-23.922 31.348,-70.904c9.288,-19.684 13.932,-31.25 13.932,-34.698l0,-4.31c0,-2.299 -3.773,-4.598 -11.32,-6.897c-0.58,-1.006 -0.87,-2.155 -0.87,-3.448c-0,-2.874 1.741,-4.31 5.224,-4.31l73.145,-0c3.483,-0 5.224,1.724 5.224,5.172c0,2.442 -3.483,4.454 -10.449,6.034c-3.338,1.725 -17.56,30.029 -42.668,84.913c-5.224,9.339 -7.836,15.086 -7.836,17.242c-0,15.086 15.383,72.485 46.15,172.196c4.499,10.345 10.595,15.517 18.286,15.517l0.871,1.724l0,3.449c0,0.862 -0.871,1.724 -2.612,2.586l-66.179,-0c-2.322,-0 -8.417,-19.325 -18.286,-57.974c-8.707,-35.057 -15.093,-62.715 -19.157,-82.973l-1.741,-0.862c-9.288,15.086 -13.932,23.419 -13.932,25l-0,86.637c-0,14.942 4.644,22.413 13.932,22.413l0.871,1.724l-0,3.449c-0,0.862 -0.871,1.724 -2.613,2.586l-78.369,-0c-0.871,-0 -1.741,-0.862 -2.612,-2.586l-0,-3.449l10.449,-6.896c2.322,-2.586 3.483,-5.172 3.483,-7.759l0,-265.73c0,-7.327 -4.644,-12.212 -13.932,-14.655l-0,-5.172c-0,-0.862 0.871,-1.724 2.612,-2.586Z" style="fill:#262626;fill-rule:nonzero;"/><path d="M941.945,586.467l-75.757,0c-3.483,0 -5.225,1.724 -5.225,5.173l0,0.862c9.289,6.034 13.933,10.632 13.933,13.793c0.58,3.017 0.871,5.89 0.871,8.62l-0,96.12l-0.871,0c-1.452,-0.287 -11.901,-23.922 -31.348,-70.904c-9.288,-19.684 -13.932,-31.25 -13.932,-34.698l-0,-4.311c-0,-2.298 3.773,-4.597 11.32,-6.896c0.58,-1.006 0.871,-2.155 0.871,-3.448c-0,-2.874 -1.742,-4.311 -5.225,-4.311l-73.145,0c-3.483,0 -5.224,1.724 -5.224,5.173c-0,2.442 3.483,4.454 10.449,6.034c3.338,1.724 17.561,30.029 42.668,84.913c5.224,9.339 7.837,15.086 7.837,17.241c-0,15.086 -15.384,72.485 -46.151,172.197c-4.499,10.345 -10.594,15.517 -18.286,15.517l-0.871,1.724l-0,3.448c-0,0.862 0.871,1.724 2.612,2.587l66.179,-0c2.322,-0 8.417,-19.325 18.286,-57.974c8.707,-35.057 15.093,-62.715 19.157,-82.973l1.741,-0.862c9.288,15.086 13.933,23.419 13.933,24.999l-0,86.637c-0,14.943 -4.645,22.414 -13.933,22.414l-0.871,1.724l0,3.448c0,0.862 0.871,1.724 2.613,2.587l78.369,-0c0.871,-0 1.741,-0.863 2.612,-2.587l0,-3.448l-10.449,-6.896c-2.322,-2.587 -3.483,-5.173 -3.483,-7.759l-0,-265.73c-0,-7.328 4.644,-12.213 13.932,-14.655l0,-5.172c0,-0.863 -0.871,-1.725 -2.612,-2.587Z" style="fill:#262626;fill-rule:nonzero;"/><path d="M507.404,739.323l497.963,-0.347" style="fill:none;stroke:#262626;stroke-width:58.33px;"/></g></svg>