<?xml version="1.0" encoding="UTF-8" standalone="no"?><!DOCTYPE svg PUBLIC "-//W3C//DTD SVG 1.1//EN" "http://www.w3.org/Graphics/SVG/1.1/DTD/svg11.dtd"><svg width="100%" height="100%" viewBox="0 0 1200 600" version="1.1" xmlns="http://www.w3.org/2000/svg" xmlns:xlink="http://www.w3.org/1999/xlink" xml:space="preserve" xmlns:serif="http://www.serif.com/" style="fill-rule:evenodd;clip-rule:evenodd;stroke-linecap:round;stroke-linejoin:round;stroke-miterlimit:1.5;"><path d="M304.183,118.82l-82.686,0.144c-16.016,0.028 -35.743,7.283 -59.183,21.765c-20.822,20.369 -31.207,45.85 -31.154,76.444c0.064,36.674 13.894,64.773 41.49,84.297l0.002,1.141c-36.467,19.635 -54.657,54.631 -54.569,104.987c0.1,57.386 26.236,94.585 78.41,111.597c16.582,4.532 32.602,6.784 48.059,6.757l16.76,-0.029c49.165,-0.085 73.744,-1.648 73.739,-4.689c0.743,-1.331 1.112,-2.852 1.109,-4.562l-0.004,-2.28c-0.189,-1.71 -3.917,-3.604 -11.183,-5.682c-4.478,-4.932 -6.72,-9.109 -6.726,-12.529l-0.603,-346.6c1.469,-12.164 7.045,-18.255 16.729,-18.272l1.114,-2.282l-0.008,-4.56c-0.002,-1.141 -1.122,-2.279 -3.358,-3.415l-1.118,0.002c-1.117,0.002 -10.057,-0.743 -26.82,-2.234Zm-55.77,57.104l0.176,101.472l-12.291,0.021c-21.61,-4.713 -32.437,-19.136 -32.479,-43.269c-0.749,-2.659 -1.128,-6.458 -1.137,-11.399c-0.047,-26.983 9.238,-42.581 27.853,-46.794l17.878,-0.031Zm0.279,160.759l0.228,131.115l-18.995,0.033c-16.202,0.028 -27.764,-9.073 -34.686,-27.303c-3.741,-9.305 -5.62,-19.183 -5.638,-29.634l-0.04,-22.803c-0.041,-23.562 9.614,-40.301 28.964,-50.216c8.192,-1.534 14.15,-2.305 17.874,-2.311c5.03,0.751 9.128,1.124 12.293,1.119Z" style="fill-rule:nonzero;"/><path d="M836.174,142.098l88.449,-0.154c4.066,-0.007 6.103,2.002 6.11,6.028l0.002,1.007c-10.832,7.064 -16.245,12.441 -16.239,16.131c-0.671,3.524 -1.004,6.879 -0.999,10.066l0.195,112.22l1.017,-0.002c1.694,-0.339 13.846,-27.953 36.456,-82.844c10.804,-23 16.203,-36.513 16.196,-40.538l-0.009,-5.033c-0.005,-2.683 -4.415,-5.36 -13.231,-8.028c-0.679,-1.173 -1.021,-2.515 -1.023,-4.024c-0.006,-3.355 2.024,-5.036 6.091,-5.043l85.399,-0.149c4.067,-0.007 6.103,2.003 6.11,6.029c0.005,2.851 -4.057,5.207 -12.187,7.066c-3.894,2.02 -20.442,35.094 -49.644,99.222c-6.081,10.914 -9.119,17.629 -9.115,20.145c0.031,17.613 18.108,84.594 54.232,200.945c5.274,12.068 12.401,18.094 21.381,18.079l1.021,2.011l0.007,4.026c0.001,1.006 -1.014,2.014 -3.045,3.024l-77.266,0.135c-2.711,0.004 -9.867,-22.544 -21.467,-67.647c-10.238,-40.911 -17.75,-73.189 -22.535,-96.832l-2.035,-1.003c-10.814,17.632 -16.219,27.37 -16.216,29.215l0.176,101.149c0.03,17.445 5.467,26.158 16.312,26.139l1.02,2.011l0.007,4.026c0.002,1.007 -1.013,2.015 -3.045,3.025l-91.499,0.159c-1.016,0.002 -2.035,-1.003 -3.055,-3.014l-0.007,-4.026l12.186,-8.073c2.706,-3.024 4.056,-6.046 4.051,-9.065l-0.539,-310.239c-0.015,-8.554 -5.447,-14.248 -16.297,-17.081l-0.01,-6.039c-0.002,-1.006 1.013,-2.014 3.045,-3.024Z" style="fill-rule:nonzero;"/><path d="M815.117,142.258l-88.449,0.154c-4.067,0.007 -6.096,2.024 -6.089,6.049l0.001,1.007c10.857,7.026 16.288,12.384 16.295,16.075c0.684,3.521 1.028,6.875 1.034,10.063l0.195,112.219l-1.017,0.002c-1.695,-0.333 -13.943,-27.905 -36.743,-82.717c-10.884,-22.962 -16.33,-36.456 -16.337,-40.482l-0.009,-5.032c-0.005,-2.684 4.396,-5.375 13.203,-8.075c0.675,-1.175 1.012,-2.518 1.009,-4.027c-0.005,-3.355 -2.042,-5.029 -6.108,-5.022l-85.399,0.149c-4.067,0.007 -6.097,2.023 -6.09,6.049c0.005,2.851 4.076,5.193 12.212,7.024c3.901,2.006 20.564,35.022 49.989,99.049c6.119,10.892 9.18,17.597 9.185,20.113c0.03,17.613 -17.814,84.657 -53.534,201.132c-5.232,12.087 -12.338,18.138 -21.318,18.153l-1.013,2.015l0.007,4.026c0.002,1.006 1.02,2.011 3.055,3.014l77.266,-0.134c2.711,-0.005 9.788,-22.579 21.232,-67.721c10.095,-40.947 17.495,-73.25 22.198,-96.91l2.032,-1.01c10.875,17.594 16.314,27.313 16.317,29.159l0.176,101.148c0.03,17.445 -5.377,26.177 -16.221,26.196l-1.014,2.015l0.007,4.025c0.002,1.007 1.021,2.012 3.056,3.014l91.499,-0.159c1.016,-0.001 2.031,-1.01 3.044,-3.024l-0.007,-4.026l-12.214,-8.03c-2.716,-3.015 -4.077,-6.032 -4.082,-9.051l-0.539,-310.239c-0.015,-8.555 5.397,-14.267 16.237,-17.138l-0.011,-6.039c-0.002,-1.006 -1.02,-2.011 -3.055,-3.014Z" style="fill-rule:nonzero;"/><path d="M304.805,321.604l583.813,-1.419" style="fill:none;stroke:#000;stroke-width:58.33px;"/></svg>